<svg width="90" height="90" viewBox="0 0 90 90" fill="none" xmlns="http://www.w3.org/2000/svg">
<g clip-path="url(#clip0_218_774)">
<path d="M40.7156 41.8802C40.7156 42.5225 41.2381 43.0451 41.8805 43.0451C42.5228 43.0451 43.0453 42.5225 43.0453 41.8802C43.0453 41.238 42.5228 40.7153 41.8805 40.7153C41.2381 40.7154 40.7156 41.238 40.7156 41.8802Z" fill="#000D20"/>
<path d="M55.1523 42.3047C48.0681 42.3047 42.3047 48.0681 42.3047 55.1523C42.3047 62.2366 48.0681 68 55.1523 68C62.2366 68 68 62.2366 68 55.1523C68 48.0681 62.2366 42.3047 55.1523 42.3047ZM61.1171 57.04C61.7617 57.4121 61.9825 58.2363 61.6103 58.8809C61.3607 59.3132 60.9077 59.5549 60.442 59.5549C60.2133 59.5549 59.9816 59.4966 59.7694 59.3741L56.5 57.4866V61.2618C56.5 62.0061 55.8966 62.6095 55.1523 62.6095C54.4081 62.6095 53.8047 62.0061 53.8047 61.2618V57.4866L50.5352 59.3742C50.323 59.4967 50.0913 59.555 49.8626 59.555C49.3969 59.555 48.9439 59.3133 48.6943 58.8809C48.3221 58.2364 48.5429 57.4122 49.1875 57.04L52.457 55.1523L49.1876 53.2647C48.543 52.8926 48.3222 52.0684 48.6944 51.4238C49.0666 50.7792 49.8906 50.5583 50.5353 50.9306L53.8047 52.8182V49.043C53.8047 48.2987 54.4081 47.6953 55.1523 47.6953C55.8966 47.6953 56.5 48.2987 56.5 49.043V52.8182L59.7694 50.9307C60.414 50.5585 61.2382 50.7793 61.6103 51.4239C61.9825 52.0685 61.7617 52.8927 61.1171 53.2648L57.8476 55.1523L61.1171 57.04Z" fill="#000D20"/>
<path d="M39.6212 54.5731C33.5864 53.502 28.9891 48.218 28.9891 41.8804C28.9891 34.7721 34.7721 28.9892 41.8804 28.9892C48.218 28.9892 53.502 33.5864 54.5731 39.6213C54.7655 39.6142 54.9583 39.6095 55.1523 39.6095C57.5077 39.6095 59.7417 40.137 61.7442 41.0787C61.6628 39.0437 61.2738 37.0867 60.6232 35.2524L56.8616 34.2445C56.2409 34.0787 55.8722 33.441 56.038 32.8203C56.2039 32.1996 56.8416 31.8309 57.4622 31.9967L59.4146 32.5199C58.2388 30.3264 56.6637 28.3779 54.7867 26.7721L51.035 27.7773C50.4143 27.9432 49.7766 27.5744 49.6108 26.9537C49.4449 26.333 49.8136 25.6954 50.4344 25.5295L52.3819 25.0077C50.3148 23.7165 47.9949 22.7942 45.5144 22.3341L42.7586 25.0899C42.3037 25.5448 41.5663 25.5448 41.1114 25.0899C40.6565 24.635 40.6565 23.8976 41.1114 23.4427L42.5418 22.0123C42.322 22.0049 42.1018 22 41.8804 22C39.5572 22 37.3264 22.4019 35.2523 23.1376L34.2444 26.8992C34.0786 27.5199 33.4409 27.8886 32.8202 27.7228C32.1995 27.5569 31.8308 26.9193 31.9966 26.2986L32.5198 24.3462C30.3263 25.5218 28.3778 27.097 26.772 28.974L27.7772 32.7257C27.9431 33.3465 27.5744 33.9841 26.9536 34.1499C26.3329 34.3158 25.6953 33.9471 25.5294 33.3263L25.0076 31.3788C23.7164 33.4459 22.7941 35.7659 22.334 38.2464L25.0899 41.0021C25.5448 41.457 25.5448 42.1944 25.0899 42.6493C24.635 43.1042 23.8976 43.1042 23.4427 42.6493L22.0122 41.2189C22.0049 41.4387 22 41.659 22 41.8804C22 44.2035 22.4019 46.4343 23.1375 48.5084L26.8991 49.5163C27.5198 49.6821 27.8885 50.3197 27.7227 50.9405C27.5568 51.5612 26.9191 51.9299 26.2985 51.7641L24.346 51.2409C25.5218 53.4344 27.0969 55.3829 28.9739 56.9887L32.7257 55.9835C33.3465 55.8176 33.9841 56.1864 34.1499 56.8071C34.3158 57.4278 33.9471 58.0654 33.3263 58.2313L31.3788 58.7531C33.4459 60.0443 35.7659 60.9666 38.2464 61.4267L40.2162 59.4568C39.8215 58.0894 39.6094 56.6452 39.6094 55.1523C39.6094 54.9584 39.6142 54.7655 39.6212 54.5731Z" fill="#000D20"/>
<path d="M52.2513 39.8819C51.3145 35.0106 47.0208 31.3188 41.8803 31.3188C36.0568 31.3188 31.3188 36.0567 31.3188 41.8803C31.3188 47.0208 35.0106 51.3146 39.8819 52.2514C40.3967 49.5364 41.6193 47.0691 43.3505 45.0495C42.9033 45.2578 42.4053 45.3749 41.8802 45.3749C39.9533 45.3749 38.3857 43.8072 38.3857 41.8803C38.3857 39.9534 39.9534 38.3858 41.8802 38.3858C43.8071 38.3858 45.3748 39.9535 45.3748 41.8803C45.3748 42.4054 45.2577 42.9033 45.0494 43.3506C47.069 41.6193 49.5363 40.3967 52.2513 39.8819ZM34.891 43.0453C34.2477 43.0453 33.7262 42.5237 33.7262 41.8803C33.7262 41.237 34.2478 40.7154 34.891 40.7154C35.5344 40.7154 36.0559 41.237 36.0559 41.8803C36.0559 42.5237 35.5344 43.0453 34.891 43.0453ZM37.7618 47.6462C37.3069 48.101 36.5693 48.101 36.1144 47.6462C35.6596 47.1913 35.6596 46.4537 36.1144 45.9988C36.5693 45.5439 37.3069 45.5439 37.7618 45.9988C38.2167 46.4537 38.2167 47.1913 37.7618 47.6462ZM37.7618 37.7619C37.3069 38.2168 36.5693 38.2168 36.1144 37.7619C35.6596 37.307 35.6596 36.5694 36.1144 36.1145C36.5693 35.6596 37.3069 35.6596 37.7618 36.1145C38.2167 36.5695 38.2167 37.307 37.7618 37.7619ZM41.8802 36.056C41.2387 36.056 40.7153 35.5328 40.7153 34.8911C40.7153 34.2495 41.2386 33.7262 41.8802 33.7262C42.5218 33.7262 43.0452 34.2495 43.0452 34.8911C43.0452 35.5328 42.5218 36.056 41.8802 36.056ZM45.9987 36.1146C46.4536 35.6597 47.1912 35.6597 47.6461 36.1146C48.1009 36.5695 48.1009 37.3071 47.6461 37.762C47.1912 38.2169 46.4537 38.2169 45.9987 37.762C45.5438 37.307 45.5438 36.5695 45.9987 36.1146Z" fill="#000D20"/>
</g>
<path fill-rule="evenodd" clip-rule="evenodd" d="M80 1H10C5.02944 1 1 5.02944 1 10V80C1 84.9706 5.02944 89 10 89H80C84.9706 89 89 84.9706 89 80V10C89 5.02944 84.9706 1 80 1ZM10 0C4.47715 0 0 4.47715 0 10V80C0 85.5229 4.47715 90 10 90H80C85.5229 90 90 85.5229 90 80V10C90 4.47715 85.5229 0 80 0H10Z" fill="#1A2730"/>
<defs>
<clipPath id="clip0_218_774">
<rect width="46" height="46" fill="white" transform="translate(22 22)"/>
</clipPath>
</defs>
</svg>
