<svg width="90" height="90" viewBox="0 0 90 90" fill="none" xmlns="http://www.w3.org/2000/svg">
<g clip-path="url(#clip0_218_767)">
<path d="M67.2839 41.5861L51.939 28.2811C50.1629 26.7878 47.9114 25.9791 45.5911 26.0011H26.5281C26.1501 25.9763 25.7776 26.1017 25.4915 26.35C25.2054 26.5983 25.0287 26.9494 25 27.3271V62.8661C25.0289 63.2437 25.2056 63.5946 25.4917 63.8426C25.7778 64.0907 26.1502 64.2159 26.5281 64.1911H58.406C59.3973 64.231 60.376 63.9588 61.2043 63.4128C62.0327 62.8669 62.6687 62.0748 63.0229 61.1481L68.2581 44.8021C68.4339 44.23 68.435 43.6184 68.2615 43.0456C68.088 42.4727 67.7476 41.9646 67.2839 41.5861ZM38.8469 47.8361C38.818 48.2137 38.6413 48.5646 38.3552 48.8126C38.0691 49.0607 37.6969 49.1859 37.3191 49.1611H32.106C31.7281 49.1862 31.3555 49.0611 31.0693 48.8129C30.7832 48.5648 30.6068 48.2138 30.5781 47.8361C30.6068 47.4585 30.7832 47.1074 31.0693 46.8593C31.3555 46.6112 31.7281 46.4861 32.106 46.5111H37.3201C37.6979 46.4863 38.0701 46.6116 38.3562 46.8596C38.6423 47.1077 38.819 47.4586 38.8479 47.8361H38.8469ZM56.947 42.6611H32.106C31.7281 42.6862 31.3555 42.5611 31.0693 42.3129C30.7832 42.0648 30.6068 41.7138 30.5781 41.3361V32.1611C30.6068 31.7835 30.7832 31.4324 31.0693 31.1843C31.3555 30.9362 31.7281 30.8111 32.106 30.8361H43.283C45.603 30.814 47.8545 31.6228 49.6301 33.1161L58.03 40.4001C58.992 41.2341 58.306 42.6611 56.949 42.6611H56.947Z" fill="#1A2730"/>
</g>
<path fill-rule="evenodd" clip-rule="evenodd" d="M80 1H10C5.02944 1 1 5.02944 1 10V80C1 84.9706 5.02944 89 10 89H80C84.9706 89 89 84.9706 89 80V10C89 5.02944 84.9706 1 80 1ZM10 0C4.47715 0 0 4.47715 0 10V80C0 85.5229 4.47715 90 10 90H80C85.5229 90 90 85.5229 90 80V10C90 4.47715 85.5229 0 80 0H10Z" fill="#1A2730"/>
<defs>
<clipPath id="clip0_218_767">
<rect width="43.4" height="38.193" fill="white" transform="translate(25 26)"/>
</clipPath>
</defs>
</svg>
