<svg width="90" height="90" viewBox="0 0 90 90" fill="none" xmlns="http://www.w3.org/2000/svg">
<g clip-path="url(#clip0_218_761)">
<path d="M38.3271 47.2029C38.3271 48.4826 38.7066 49.7334 39.4175 50.7974C40.1285 51.8614 41.1389 52.6907 42.3212 53.1804C43.5034 53.6701 44.8043 53.7982 46.0594 53.5486C47.3144 53.2989 48.4673 52.6827 49.3721 51.7779C50.2769 50.8731 50.8932 49.7202 51.1428 48.4652C51.3924 47.2101 51.2643 45.9092 50.7746 44.7269C50.2849 43.5447 49.4556 42.5342 48.3917 41.8233C47.3277 41.1124 46.0768 40.7329 44.7971 40.7329C43.0812 40.7329 41.4355 41.4146 40.2222 42.6279C39.0088 43.8413 38.3271 45.487 38.3271 47.2029ZM49.9018 47.2029C49.902 48.2133 49.6025 49.2009 49.0413 50.0411C48.4801 50.8812 47.6823 51.5361 46.7489 51.9228C45.8155 52.3095 44.7884 52.4108 43.7974 52.2137C42.8065 52.0166 41.8962 51.5301 41.1818 50.8157C40.4674 50.1013 39.9809 49.191 39.7838 48.2001C39.5867 47.2091 39.688 46.182 40.0747 45.2486C40.4614 44.3152 41.1163 43.5174 41.9564 42.9562C42.7965 42.395 43.7842 42.0955 44.7946 42.0957C46.1497 42.0957 47.4493 42.6336 48.408 43.5912C49.3668 44.5488 49.9062 45.8479 49.9077 47.2029H49.9018Z" fill="#1A2730"/>
<path d="M35.051 50.9198C34.6908 50.8922 34.3344 51.0088 34.0602 51.2441C33.786 51.4793 33.6165 51.8138 33.5889 52.174C33.5614 52.5342 33.678 52.8905 33.9132 53.1647C34.1484 53.4389 34.4829 53.6084 34.8431 53.636H34.8854C34.9183 53.636 34.9504 53.636 34.9825 53.636C35.3353 53.6354 35.674 53.4981 35.9275 53.2528C36.181 53.0076 36.3294 52.6735 36.3416 52.321C36.3537 51.9685 36.2286 51.625 35.9927 51.3629C35.7567 51.1007 35.4282 50.9404 35.0763 50.9155L35.051 50.9198Z" fill="#1A2730"/>
<path d="M30.1625 50.9397C30.3818 51.2267 30.7062 51.4149 31.0643 51.4627C31.4224 51.5106 31.7848 51.4142 32.0719 51.1948C32.3589 50.9755 32.547 50.6511 32.5949 50.293C32.6427 49.9349 32.5464 49.5725 32.327 49.2854L32.2907 49.2381C32.185 49.0911 32.0511 48.9666 31.8968 48.8719C31.7425 48.7772 31.5708 48.7143 31.3918 48.6867C31.2129 48.6592 31.0302 48.6677 30.8546 48.7115C30.6789 48.7554 30.5138 48.8339 30.3688 48.9423C30.2238 49.0508 30.1019 49.1871 30.0103 49.3432C29.9186 49.4994 29.859 49.6722 29.8349 49.8516C29.8108 50.0311 29.8227 50.2135 29.87 50.3883C29.9172 50.5631 29.9989 50.7267 30.1101 50.8695L30.1625 50.9397Z" fill="#1A2730"/>
<path d="M30.7274 45.7248L30.7198 45.6919C30.6348 45.3418 30.4145 45.0397 30.1073 44.8516C29.8 44.6636 29.4308 44.605 29.0804 44.6885C28.73 44.7721 28.4269 44.9911 28.2376 45.2976C28.0483 45.6041 27.9882 45.9731 28.0703 46.3238L28.0779 46.3568C28.1175 46.5327 28.1915 46.699 28.2959 46.846C28.4002 46.9931 28.5327 47.118 28.6857 47.2134C28.8386 47.3089 29.009 47.373 29.187 47.4021C29.3649 47.4312 29.5468 47.4247 29.7222 47.3829C29.8976 47.3411 30.063 47.2649 30.2087 47.1587C30.3544 47.0525 30.4776 46.9185 30.5711 46.7643C30.6646 46.6101 30.7266 46.4389 30.7534 46.2606C30.7803 46.0823 30.7714 45.9005 30.7274 45.7256V45.7248Z" fill="#1A2730"/>
<path d="M45.4897 57.6668L45.4795 57.6921C45.4117 57.8577 45.3772 58.0349 45.3779 58.2138C45.3787 58.3927 45.4146 58.5697 45.4837 58.7347C45.5528 58.8997 45.6538 59.0494 45.7808 59.1754C45.9078 59.3013 46.0583 59.4011 46.2239 59.4689C46.3894 59.5367 46.5667 59.5712 46.7455 59.5705C46.9244 59.5697 47.1014 59.5338 47.2664 59.4647C47.4314 59.3956 47.5811 59.2946 47.7071 59.1676C47.8331 59.0406 47.9328 58.8901 48.0006 58.7246L48.0158 58.6866C48.0828 58.5207 48.1165 58.3432 48.1149 58.1643C48.1134 57.9855 48.0766 57.8086 48.0067 57.6439C47.9368 57.4793 47.8352 57.33 47.7076 57.2046C47.58 57.0792 47.4289 56.9801 47.263 56.9131C47.0972 56.8461 46.9197 56.8125 46.7408 56.814C46.562 56.8156 46.3851 56.8524 46.2205 56.9223C46.0558 56.9922 45.9065 57.0938 45.7811 57.2214C45.6557 57.349 45.5567 57.5001 45.4897 57.6659V57.6668Z" fill="#1A2730"/>
<path d="M43.0844 59.7758L43.0287 59.7952C42.8593 59.8528 42.703 59.9432 42.5685 60.0612C42.4341 60.1792 42.3242 60.3225 42.2452 60.483C42.1661 60.6435 42.1195 60.818 42.1079 60.9965C42.0962 61.175 42.1199 61.354 42.1775 61.5234C42.2351 61.6927 42.3254 61.8491 42.4435 61.9836C42.5615 62.118 42.7048 62.2279 42.8653 62.3069C43.0258 62.386 43.2002 62.4326 43.3787 62.4442C43.5572 62.4558 43.7363 62.4322 43.9057 62.3746L43.9901 62.345C44.1589 62.2857 44.3143 62.1936 44.4475 62.0742C44.5807 61.9548 44.6891 61.8103 44.7664 61.649C44.8438 61.4877 44.8886 61.3128 44.8983 61.1342C44.9081 60.9555 44.8825 60.7767 44.8232 60.608C44.7638 60.4392 44.6718 60.2838 44.5524 60.1506C44.433 60.0174 44.2885 59.909 44.1272 59.8317C43.9659 59.7543 43.7909 59.7095 43.6123 59.6998C43.4337 59.69 43.2549 59.7156 43.0861 59.775L43.0844 59.7758Z" fill="#1A2730"/>
<path d="M39.1726 60.1912C38.8171 60.1709 38.4678 60.2907 38.1994 60.5248C37.9311 60.7588 37.765 61.0886 37.7367 61.4436C37.7085 61.7985 37.8203 62.1505 38.0482 62.4241C38.2761 62.6976 38.6021 62.8712 38.9564 62.9074H38.9885C39.0248 62.9074 39.0611 62.9117 39.0966 62.9117C39.4483 62.911 39.7861 62.7744 40.0394 62.5303C40.2926 62.2862 40.4416 61.9536 40.4551 61.6022C40.4687 61.2507 40.3457 60.9076 40.112 60.6448C39.8783 60.382 39.552 60.2197 39.2014 60.192L39.1726 60.1912Z" fill="#1A2730"/>
<path d="M56.9049 47.7876L56.8711 47.7588C56.594 47.527 56.2362 47.4148 55.8764 47.4468C55.5166 47.4788 55.1842 47.6524 54.9524 47.9295C54.7206 48.2065 54.6084 48.5644 54.6404 48.9242C54.6724 49.284 54.846 49.6164 55.1231 49.8482L55.1417 49.8634C55.4169 50.0973 55.7739 50.2123 56.1339 50.1831C56.494 50.1539 56.8277 49.9828 57.0616 49.7075C57.2956 49.4322 57.4106 49.0753 57.3813 48.7153C57.3521 48.3552 57.181 48.0215 56.9057 47.7876H56.9049Z" fill="#1A2730"/>
<path d="M59.1101 52.8083V52.7238C59.1065 52.5445 59.0675 52.3676 58.9953 52.2034C58.9232 52.0392 58.8194 51.8909 58.6897 51.7669C58.5601 51.6429 58.4073 51.5457 58.24 51.481C58.0727 51.4163 57.8943 51.3852 57.715 51.3896C57.5357 51.394 57.359 51.4338 57.1952 51.5066C57.0313 51.5795 56.8834 51.684 56.76 51.8142C56.6366 51.9443 56.5401 52.0976 56.4761 52.2652C56.4121 52.4327 56.3819 52.6112 56.387 52.7905V52.8488C56.3919 53.2067 56.5375 53.5482 56.7922 53.7996C57.0469 54.051 57.3903 54.192 57.7481 54.1922H57.7667C57.9458 54.1896 58.1227 54.1518 58.2872 54.0809C58.4516 54.0099 58.6005 53.9073 58.7253 53.7787C58.8501 53.6502 58.9483 53.4983 59.0143 53.3318C59.0803 53.1653 59.1128 52.9874 59.1101 52.8083Z" fill="#1A2730"/>
<path d="M55.5843 56.6054L55.5708 56.6392C55.5009 56.8047 55.4644 56.9823 55.4634 57.1619C55.4624 57.3415 55.497 57.5195 55.5651 57.6857C55.6332 57.852 55.7335 58.0031 55.8603 58.1304C55.987 58.2576 56.1377 58.3586 56.3036 58.4274C56.4695 58.4962 56.6474 58.5315 56.827 58.5312C57.0066 58.531 57.1844 58.4953 57.3502 58.426C57.5159 58.3568 57.6663 58.2555 57.7928 58.1279C57.9192 58.0003 58.0191 57.849 58.0868 57.6826L58.0995 57.6539C58.1683 57.4888 58.204 57.3117 58.2044 57.1329C58.2048 56.954 58.17 56.7768 58.102 56.6114C58.0339 56.4459 57.9339 56.2956 57.8077 56.1688C57.6816 56.042 57.5317 55.9413 57.3666 55.8725C57.2015 55.8036 57.0244 55.768 56.8456 55.7676C56.6667 55.7672 56.4895 55.8019 56.3241 55.87C56.1586 55.9381 56.0082 56.0381 55.8815 56.1642C55.7547 56.2904 55.654 56.4403 55.5852 56.6054H55.5843Z" fill="#1A2730"/>
<path d="M49.9417 38.4769C50.1974 38.477 50.4478 38.4047 50.664 38.2682L50.6843 38.2547C50.8402 38.1626 50.9762 38.0403 51.0842 37.8951C51.1923 37.7498 51.2703 37.5844 51.3137 37.4086C51.3572 37.2328 51.3651 37.0501 51.337 36.8713C51.309 36.6924 51.2456 36.5209 51.1505 36.3668C51.0554 36.2127 50.9305 36.0791 50.7832 35.9739C50.6358 35.8686 50.469 35.7939 50.2924 35.7539C50.1158 35.7139 49.933 35.7095 49.7547 35.741C49.5764 35.7724 49.4062 35.8392 49.254 35.9372L49.2159 35.9608C48.9653 36.1179 48.7726 36.3522 48.667 36.6285C48.5614 36.9047 48.5485 37.2078 48.6304 37.492C48.7123 37.7762 48.8844 38.026 49.1208 38.2037C49.3573 38.3814 49.6451 38.4773 49.9408 38.4769H49.9417Z" fill="#1A2730"/>
<path d="M65.2609 36.2183C65.1975 36.1011 65.1101 35.9987 65.0044 35.9176C64.8987 35.8365 64.7771 35.7786 64.6475 35.7477C62.7488 34.9957 61.0243 33.8627 59.5803 32.4187C58.1362 30.9746 57.0033 29.2501 56.2512 27.3514C56.2201 27.222 56.162 27.1005 56.0808 26.9949C55.9995 26.8894 55.897 26.8022 55.7798 26.7389C52.6951 25.079 49.2732 24.1426 45.7732 24.0007C45.6464 23.9958 45.52 24.0166 45.4014 24.0618C45.2829 24.107 45.1747 24.1757 45.0834 24.2638C44.9921 24.3518 44.9196 24.4575 44.8701 24.5743C44.8207 24.6911 44.7953 24.8167 44.7957 24.9436V31.7244C44.7939 32.3707 45.0197 32.9969 45.4333 33.4934C45.847 33.9899 46.4223 34.325 47.0582 34.4399C48.5543 34.6974 49.9933 35.2162 51.3096 35.9724C53.2356 37.0924 54.8424 38.6873 55.9766 40.6049C56.7558 41.9394 57.2898 43.4027 57.5531 44.9255C57.6657 45.5643 57.9997 46.143 58.4963 46.5601C58.993 46.9773 59.6208 47.2062 60.2694 47.2066H67.0562C67.183 47.2068 67.3086 47.1815 67.4254 47.132C67.5421 47.0825 67.6477 47.0099 67.7357 46.9186C67.8238 46.8274 67.8925 46.7192 67.9377 46.6007C67.983 46.4823 68.0039 46.3559 67.9991 46.2291C67.8574 42.7277 66.921 39.3044 65.2609 36.2183ZM46.5293 26.036L46.5175 26.0427C46.3417 26.1531 46.1293 26.1891 45.927 26.1428C45.7246 26.0966 45.549 25.9718 45.4386 25.796C45.3283 25.6203 45.2922 25.4078 45.3385 25.2055C45.3848 25.0032 45.5095 24.8275 45.6853 24.7171L45.7064 24.7045C45.883 24.5955 46.0956 24.5611 46.2976 24.6088C46.4995 24.6566 46.6742 24.7826 46.7832 24.9592C46.8922 25.1358 46.9266 25.3484 46.8789 25.5504C46.8311 25.7523 46.7051 25.927 46.5285 26.036H46.5293ZM67.0418 46.5138L67.03 46.5206C66.943 46.5774 66.8456 46.6163 66.7434 46.6351C66.6412 46.6538 66.5363 46.652 66.4348 46.6298C66.3333 46.6075 66.2373 46.5653 66.1523 46.5055C66.0673 46.4458 65.9951 46.3697 65.9398 46.2817C65.8846 46.1937 65.8474 46.0956 65.8304 45.9931C65.8135 45.8906 65.8171 45.7858 65.8411 45.6847C65.8652 45.5836 65.9091 45.4883 65.9703 45.4044C66.0316 45.3205 66.1089 45.2496 66.1978 45.1958L66.2198 45.1823C66.3962 45.0783 66.6064 45.0476 66.8052 45.0968C67.004 45.146 67.1756 45.2712 67.2831 45.4455C67.3906 45.6199 67.4255 45.8294 67.3802 46.0292C67.3349 46.2289 67.2132 46.4029 67.041 46.5138H67.0418Z" fill="#1A2730"/>
<path d="M35.6201 39.5532L35.6268 39.5828L36.9533 39.2626L35.6311 39.5895C35.7178 39.9402 35.9403 40.2421 36.2495 40.4287C36.5588 40.6154 36.9296 40.6715 37.2803 40.5848C37.6309 40.4981 37.9328 40.2756 38.1194 39.9663C38.3061 39.6571 38.3622 39.2863 38.2755 38.9356V38.9288L38.2696 38.9052C38.2271 38.7315 38.1508 38.5678 38.045 38.4235C37.9393 38.2793 37.8062 38.1572 37.6533 38.0644C37.5004 37.9716 37.3307 37.9098 37.1539 37.8826C36.9771 37.8554 36.7967 37.8632 36.6229 37.9057C36.4492 37.9482 36.2855 38.0245 36.1413 38.1303C35.997 38.236 35.875 38.3691 35.7822 38.522C35.6894 38.6749 35.6276 38.8446 35.6003 39.0214C35.5731 39.1982 35.581 39.3786 35.6235 39.5524L35.6201 39.5532Z" fill="#1A2730"/>
<path d="M37.0851 36.1606C37.3823 36.3657 37.7489 36.4443 38.1041 36.3792C38.4593 36.3141 38.7741 36.1106 38.9793 35.8134L39.0131 35.7661C39.2217 35.4711 39.3045 35.1053 39.2435 34.7492C39.1824 34.3931 38.9824 34.0758 38.6874 33.8672C38.3924 33.6586 38.0266 33.5757 37.6705 33.6368C37.3144 33.6979 36.9971 33.898 36.7885 34.1929L36.7378 34.2664C36.6362 34.4136 36.5645 34.5793 36.5269 34.7541C36.4894 34.929 36.4866 35.1096 36.5189 35.2855C36.5511 35.4614 36.6177 35.6292 36.7149 35.7794C36.812 35.9296 36.9378 36.0591 37.0851 36.1606Z" fill="#1A2730"/>
<path d="M41.1621 33.3927C41.4123 33.3931 41.6577 33.3241 41.871 33.1933L41.8955 33.1781C42.2043 32.9908 42.4262 32.6884 42.5121 32.3375C42.5981 31.9867 42.5411 31.616 42.3538 31.3071C42.1665 30.9982 41.8641 30.7764 41.5133 30.6905C41.1624 30.6045 40.7917 30.6615 40.4828 30.8488L40.4499 30.8691C40.1967 31.024 40.001 31.2575 39.8927 31.5339C39.7844 31.8103 39.7694 32.1145 39.8499 32.4003C39.9305 32.686 40.1022 32.9376 40.3389 33.1168C40.5756 33.2959 40.8644 33.3928 41.1613 33.3927H41.1621Z" fill="#1A2730"/>
<path d="M60.8612 53.9896C59.6419 56.8839 57.6638 59.3954 55.1358 61.259C52.6078 63.1226 49.6236 64.2692 46.4981 64.5778C43.3727 64.8863 40.2219 64.3455 37.3782 63.0122C34.5346 61.679 32.1036 59.6029 30.3418 57.0029C28.58 54.4029 27.5527 51.3755 27.3684 48.2403C27.1841 45.105 27.8496 41.9782 29.2946 39.1897C30.7397 36.4012 32.9107 34.0545 35.5785 32.3973C38.2464 30.74 41.3121 29.8338 44.4522 29.774V28.4121C40.7645 28.4795 37.178 29.6304 34.1397 31.7215C31.1014 33.8126 28.7454 36.7514 27.3653 40.1719C25.9853 43.5923 25.642 47.3432 26.3784 50.9573C27.1148 54.5714 28.8983 57.889 31.5066 60.4968C34.115 63.1046 37.433 64.8873 41.0472 65.6229C44.6615 66.3584 48.4123 66.0144 51.8324 64.6335C55.2526 63.2527 58.1909 60.8961 60.2813 57.8573C62.3717 54.8185 63.5218 51.2318 63.5884 47.5441H62.2265C62.1882 49.7602 61.7247 51.9483 60.8612 53.9896Z" fill="#1A2730"/>
<path d="M35.5313 47.2038C35.5311 49.0357 36.0742 50.8266 37.0918 52.3499C38.1095 53.8732 39.556 55.0605 41.2484 55.7616C42.9409 56.4628 44.8032 56.6463 46.6 56.289C48.3967 55.9318 50.0472 55.0497 51.3426 53.7543C52.6381 52.459 53.5203 50.8086 53.8778 49.0119C54.2352 47.2152 54.0518 45.3528 53.3508 43.6603C52.6498 41.9678 51.4627 40.5212 49.9395 39.5034C48.4163 38.4856 46.6255 37.9424 44.7935 37.9424C42.338 37.9451 39.9838 38.9216 38.2474 40.6579C36.511 42.3941 35.5342 44.7483 35.5313 47.2038ZM52.6939 47.2038C52.6939 48.7662 52.2306 50.2934 51.3626 51.5925C50.4946 52.8916 49.2608 53.9041 47.8174 54.502C46.3739 55.0998 44.7856 55.2563 43.2533 54.9515C41.7209 54.6467 40.3133 53.8943 39.2086 52.7896C38.1038 51.6848 37.3515 50.2773 37.0467 48.7449C36.7418 47.2126 36.8983 45.6242 37.4962 44.1808C38.0941 42.7374 39.1066 41.5036 40.4056 40.6356C41.7047 39.7676 43.232 39.3043 44.7944 39.3043C45.832 39.304 46.8595 39.508 47.8183 39.9049C48.777 40.3017 49.6482 40.8835 50.3821 41.6171C51.116 42.3506 51.6982 43.2215 52.0954 44.1801C52.4926 45.1387 52.6971 46.1662 52.6973 47.2038H52.6939Z" fill="#1A2730"/>
</g>
<path fill-rule="evenodd" clip-rule="evenodd" d="M80 1H10C5.02944 1 1 5.02944 1 10V80C1 84.9706 5.02944 89 10 89H80C84.9706 89 89 84.9706 89 80V10C89 5.02944 84.9706 1 80 1ZM10 0C4.47715 0 0 4.47715 0 10V80C0 85.5229 4.47715 90 10 90H80C85.5229 90 90 85.5229 90 80V10C90 4.47715 85.5229 0 80 0H10Z" fill="#1A2730"/>
<defs>
<clipPath id="clip0_218_761">
<rect width="42" height="42" fill="white" transform="translate(26 24)"/>
</clipPath>
</defs>
</svg>
