<svg width="42" height="42" viewBox="0 0 42 42" fill="none" xmlns="http://www.w3.org/2000/svg">
<path d="M21 42C32.598 42 42 32.598 42 21C42 9.40202 32.598 0 21 0C9.40202 0 0 9.40202 0 21C0 32.598 9.40202 42 21 42Z" fill="#F4F4F5"/>
<path d="M19.6027 27.1859H14.1133C13.5702 27.1859 13.1307 26.9703 13.1307 26.7008V26.4852C13.1307 26.2157 13.5702 26.0001 14.1133 26.0001H19.6027V23.272H14.0304C13.4872 23.272 13.0478 22.8408 13.0478 22.306V20.9129C13.0478 20.378 13.4872 19.9468 14.0304 19.9468H19.6027V16.377C14.5694 16.3522 9.76819 16.3314 9.06336 16.3314C9.93818 13.8396 11.2898 12.0941 11.2898 12.0941C11.3644 12.0568 15.3488 11.269 19.6027 11.1654V10.5932C15.5893 10.7093 11.8039 11.1737 10.8628 11.8785C9.93404 12.5709 8.25072 15.1291 7.43809 16.4102L6.60887 16.0868V15.5105C6.60887 15.042 6.22328 14.6606 5.74233 14.6606H3.69416C3.21735 14.6606 2.82762 15.042 2.82762 15.5105V16.1283C2.82762 16.5968 3.21735 16.9782 3.69416 16.9782H5.74648C5.94134 16.9782 6.11963 16.916 6.26474 16.8082L6.71666 16.9824C6.13206 17.3306 5.17017 17.907 4.89238 18.0728C4.48606 18.3133 3.33759 19.6027 3.33759 19.6027L3.40808 20.4444C3.20077 20.6226 3.0681 20.8797 3.0681 21.1741V28.9231C3.0681 29.458 3.50758 29.8892 4.05072 29.8892H9.61893C10.1621 29.8892 10.5974 29.458 10.5974 28.9231V28.2307C13.1514 28.2556 16.3481 28.2722 19.6027 28.2722V27.1859ZM9.6065 25.797C9.6065 26.166 9.27066 26.4645 8.8602 26.4645H5.62209C5.20748 26.4645 4.8758 26.166 4.8758 25.797V25.4985C4.8758 25.1295 5.21163 24.8309 5.62209 24.8309H8.8602C9.27481 24.8309 9.6065 25.1295 9.6065 25.4985V25.797ZM10.5518 22.3101C10.5518 22.845 10.1496 23.2762 9.65625 23.2762H5.77135C5.27797 23.2762 4.8758 22.845 4.8758 22.3101V20.917C4.8758 20.3822 5.27797 19.951 5.77135 19.951H9.65625C10.1496 19.951 10.5518 20.3822 10.5518 20.917V22.3101ZM36.3779 8.46214H34.2675C33.9483 7.74071 33.2268 7.23489 32.3893 7.23489H32.2027C32.1779 6.45542 31.8503 5.75059 31.3362 5.23647C30.8014 4.70162 30.0592 4.36993 29.2424 4.36993C28.4256 4.36993 27.6835 4.70162 27.1486 5.23647C26.6345 5.75059 26.307 6.45542 26.2821 7.23489H26.0168C25.1834 7.23489 24.4578 7.74071 24.1386 8.46214H22.0614H20.7512V9.77645V30.7723V32.0866H22.0614H36.3696H37.688V30.7723V9.77645V8.46214H36.3779ZM28.3054 6.39323C28.5459 6.15276 28.8776 6.0035 29.2466 6.0035C29.6156 6.0035 29.9473 6.15276 30.1877 6.39323C30.4075 6.61297 30.5485 6.90735 30.5733 7.23489H27.924C27.9447 6.90735 28.0857 6.61297 28.3054 6.39323ZM36.0296 30.4282H22.4138V10.3113H23.9727V11.1281H34.4375V10.3113H36.0296V30.4282Z" fill="#2A2E43" stroke="#2A2E43" stroke-miterlimit="10"/>
<path d="M32.4059 19.0306C31.8089 18.4418 31.2077 17.8489 30.6106 17.2602C29.6529 16.3149 28.691 15.3654 27.7332 14.4201C27.5135 14.2045 27.2938 13.9889 27.074 13.7692C26.7962 13.4955 26.2945 13.4706 26.0168 13.7692C25.7431 14.0635 25.7182 14.532 26.0168 14.8264C26.6138 15.4152 27.215 16.0081 27.812 16.5968C28.7698 17.5421 29.7317 18.4916 30.6894 19.4369C30.9092 19.6525 31.1289 19.8681 31.3486 20.0878C31.6264 20.3615 32.1281 20.3863 32.4059 20.0878C32.6795 19.7893 32.7044 19.3249 32.4059 19.0306Z" fill="#2A2E43"/>
<path d="M27.1113 20.121C27.7001 19.5239 28.293 18.9227 28.8817 18.3257C29.827 17.3679 30.7765 16.406 31.7218 15.4483C31.9374 15.2286 32.153 15.0088 32.3727 14.7891C32.6464 14.5113 32.6712 14.0096 32.3727 13.7318C32.0783 13.4582 31.6098 13.4333 31.3155 13.7318C30.7267 14.3289 30.1338 14.93 29.5451 15.5271C28.5998 16.4848 27.6503 17.4467 26.705 18.4045C26.4894 18.6242 26.2738 18.844 26.0541 19.0637C25.7804 19.3415 25.7555 19.8432 26.0541 20.121C26.3526 20.3946 26.8169 20.4195 27.1113 20.121Z" fill="#2A2E43"/>
<path d="M32.6671 27.414C32.0701 26.8252 31.4689 26.2324 30.8718 25.6436C29.9141 24.6983 28.9522 23.7488 27.9945 22.8035C27.7747 22.5879 27.555 22.3723 27.3352 22.1526C27.0574 21.8789 26.5558 21.8541 26.278 22.1526C26.0043 22.447 25.9795 22.9155 26.278 23.2098C26.875 23.7986 27.4762 24.3915 28.0732 24.9802C29.031 25.9255 29.9929 26.875 30.9506 27.8203C31.1704 28.0359 31.3901 28.2515 31.6099 28.4712C31.8876 28.7449 32.3893 28.7698 32.6671 28.4712C32.9408 28.1727 32.9656 27.7084 32.6671 27.414Z" fill="#2A2E43"/>
<path d="M27.3725 28.5085C27.9613 27.9115 28.5542 27.3103 29.1429 26.7133C30.0882 25.7555 31.0377 24.7936 31.983 23.8359C32.1986 23.6161 32.4142 23.3964 32.6339 23.1766C32.9076 22.8989 32.9325 22.3972 32.6339 22.1194C32.3396 21.8457 31.8711 21.8209 31.5767 22.1194C30.9879 22.7164 30.395 23.3176 29.8063 23.9146C28.861 24.8724 27.9115 25.8343 26.9662 26.792C26.7506 27.0118 26.535 27.2315 26.3153 27.4513C26.0416 27.7291 26.0168 28.2307 26.3153 28.5085C26.6138 28.778 27.0782 28.8029 27.3725 28.5085Z" fill="#2A2E43"/>
</svg>
