<svg width="90" height="90" viewBox="0 0 90 90" fill="none" xmlns="http://www.w3.org/2000/svg">
<g clip-path="url(#clip0_218_770)">
<path fill-rule="evenodd" clip-rule="evenodd" d="M35.5981 41.9709H54.4811V45.8219H59.7811V34.791L57.5691 31.8419H57.9131C58.2065 31.8419 58.488 31.7254 58.6956 31.5179C58.9031 31.3104 59.0196 31.0289 59.0196 30.7355C59.0196 30.442 58.9031 30.1605 58.6956 29.953C58.488 29.7455 58.2065 29.629 57.9131 29.629H56.4641C56.3011 29.6304 56.1406 29.6694 55.9951 29.743L53.1471 25.002H36.9301L34.0821 29.743C33.9363 29.6692 33.7755 29.6302 33.6121 29.629H32.1641C31.8707 29.629 31.5892 29.7455 31.3817 29.953C31.1742 30.1605 31.0576 30.442 31.0576 30.7355C31.0576 31.0289 31.1742 31.3104 31.3817 31.5179C31.5892 31.7254 31.8707 31.8419 32.1641 31.8419H32.5081L30.2981 34.791V45.8239H35.5981V41.9709ZM57.6751 39.58C57.6754 39.7226 57.6474 39.864 57.593 39.9959C57.5385 40.1277 57.4585 40.2476 57.3576 40.3484C57.2567 40.4493 57.1369 40.5293 57.005 40.5838C56.8731 40.6383 56.7318 40.6662 56.5891 40.666H54.9591C54.6709 40.666 54.3946 40.5515 54.1909 40.3477C53.9871 40.144 53.8726 39.8676 53.8726 39.5795C53.8726 39.2913 53.9871 39.0149 54.1909 38.8112C54.3946 38.6074 54.6709 38.493 54.9591 38.493H56.5891C56.7319 38.4927 56.8733 38.5206 57.0052 38.5752C57.1372 38.6297 57.2571 38.7098 57.358 38.8108C57.4589 38.9118 57.5388 39.0317 57.5933 39.1637C57.6477 39.2957 57.6755 39.4372 57.6751 39.58ZM57.2941 35.547C57.2943 35.7755 57.2493 36.0018 57.1619 36.213C57.0745 36.4241 56.9464 36.616 56.7848 36.7776C56.6232 36.9392 56.4313 37.0674 56.2202 37.1548C56.009 37.2422 55.7827 37.2871 55.5541 37.287H52.9441C52.4826 37.287 52.0401 37.1036 51.7137 36.7773C51.3874 36.451 51.2041 36.0084 51.2041 35.547C51.2041 35.0855 51.3874 34.6429 51.7137 34.3166C52.0401 33.9903 52.4826 33.8069 52.9441 33.8069H55.5531C55.7819 33.8066 56.0085 33.8513 56.22 33.9387C56.4314 34.026 56.6236 34.1542 56.7854 34.3159C56.9472 34.4777 57.0756 34.6698 57.163 34.8812C57.2505 35.0926 57.2954 35.3192 57.2951 35.548L57.2941 35.547ZM37.8501 26.653H52.0871L55.4041 31.839H34.5331L37.8501 26.653ZM34.5211 33.8069H37.1291C37.5906 33.8069 38.0332 33.9903 38.3595 34.3166C38.6858 34.6429 38.8691 35.0855 38.8691 35.547C38.8691 36.0084 38.6858 36.451 38.3595 36.7773C38.0332 37.1036 37.5906 37.287 37.1291 37.287H34.5211C34.0596 37.287 33.6171 37.1036 33.2908 36.7773C32.9645 36.451 32.7811 36.0084 32.7811 35.547C32.7811 35.0855 32.9645 34.6429 33.2908 34.3166C33.6171 33.9903 34.0596 33.8069 34.5211 33.8069ZM33.4901 40.666C33.202 40.666 32.9256 40.5515 32.7219 40.3477C32.5181 40.144 32.4036 39.8676 32.4036 39.5795C32.4036 39.2913 32.5181 39.0149 32.7219 38.8112C32.9256 38.6074 33.202 38.493 33.4901 38.493H35.1161C35.4042 38.493 35.6806 38.6074 35.8844 38.8112C36.0882 39.0149 36.2026 39.2913 36.2026 39.5795C36.2026 39.8676 36.0882 40.144 35.8844 40.3477C35.6806 40.5515 35.4042 40.666 35.1161 40.666H33.4901Z" fill="#000D20"/>
<path fill-rule="evenodd" clip-rule="evenodd" d="M62.372 38.165V46.955H27.661V38.165H22V64.842H27.661V51.482H62.372V64.84H68.033V38.165H62.372Z" fill="#000D20"/>
</g>
<path fill-rule="evenodd" clip-rule="evenodd" d="M80 1H10C5.02944 1 1 5.02944 1 10V80C1 84.9706 5.02944 89 10 89H80C84.9706 89 89 84.9706 89 80V10C89 5.02944 84.9706 1 80 1ZM10 0C4.47715 0 0 4.47715 0 10V80C0 85.5229 4.47715 90 10 90H80C85.5229 90 90 85.5229 90 80V10C90 4.47715 85.5229 0 80 0H10Z" fill="#1A2730"/>
<defs>
<clipPath id="clip0_218_770">
<rect width="46.033" height="39.841" fill="white" transform="translate(22 25)"/>
</clipPath>
</defs>
</svg>
