<svg width="90" height="90" viewBox="0 0 90 90" fill="none" xmlns="http://www.w3.org/2000/svg">
<g clip-path="url(#clip0_218_765)">
<path d="M83.9499 62.8415L48.917 62.2452L40.3705 61.2314H14.5747L42.2323 63.8338H48.9838L83.9499 62.8415Z" fill="#313133"/>
<path d="M80.0237 60.9692C80.0237 60.9692 80.2813 61.0968 80.2813 60.5875C80.5492 58.9036 80.6839 57.2012 80.6843 55.4961L80.5377 53.5879C80.5377 53.5879 80.0236 52.6015 79.5835 51.8693C79.4247 51.6327 79.2778 51.3883 79.1434 51.137C78.85 50.5955 78.5567 50.2461 77.2722 49.4506L75.9877 48.6551C75.9877 48.6551 70.7402 47.1917 69.1253 46.7778C67.5105 46.364 65.8598 46.0778 65.8598 46.0778C65.9799 45.9292 66.0453 45.744 66.0453 45.553C66.0453 45.362 65.9799 45.1768 65.8598 45.0282C65.4197 44.519 64.245 44.3568 62.7041 44.4057C60.1371 42.5796 57.3662 41.0586 54.4474 39.8736C48.127 38.5653 41.6589 38.1156 35.2183 38.5367C26.741 39.0781 25.2 40.7001 23.6591 41.7508C22.1182 42.8016 19.622 44.996 18.4484 45.3467C17.2749 45.6973 16.8336 45.7283 16.3935 46.2698C15.8054 46.8715 15.3106 47.5577 14.9254 48.3056L14.8156 48.8149C14.8386 49.5638 14.7138 50.3099 14.4483 51.0105C14.1506 51.6809 14.086 52.4316 14.2647 53.143L14.3757 53.6523C14.5814 54.1645 14.7289 54.6981 14.8156 55.2432C14.9074 55.7152 15.0815 56.1673 15.3297 56.579C15.3297 56.579 14.9994 60.3955 17.6054 61.5106C20.6144 61.606 22.5595 61.5106 22.5595 61.5106C22.9708 61.2676 23.3225 60.9358 23.5891 60.5394C23.8557 60.143 24.0304 59.6921 24.1004 59.2195C25.3479 59.3149 39.6227 60.7473 39.6227 60.7473C39.8206 61.4138 40.1542 62.0321 40.6027 62.5633C41.0512 63.0945 41.6049 63.5271 42.2287 63.8339C44.4673 63.9293 48.9815 63.8339 48.9815 63.8339C48.9815 63.8339 50.706 62.943 50.8527 61.6382C51.9535 61.6382 67.0357 61.7014 69.495 61.606C69.9433 62.1914 70.5777 62.6066 71.2935 62.7832C73.2387 62.8154 75.9174 62.8786 75.9174 62.8786C75.9174 62.8786 78.1929 62.4647 78.633 61.129C79.3259 61.0646 80.0237 60.9692 80.0237 60.9692Z" fill="#1A2730"/>
<path d="M60.2448 52.5357C59.9563 51.826 59.404 51.2558 58.7039 50.9447C55.2736 50.3733 51.7907 50.1813 48.3184 50.3723C49.1258 51.5816 49.6029 52.9818 53.566 53.0772C57.5292 53.1726 59.3659 53.1404 60.2448 52.5357Z" fill="white"/>
<path d="M76.4277 52.6909C76.4277 52.6909 76.5388 51.0367 77.0147 50.8137C77.5784 50.5967 78.154 50.4128 78.739 50.2627C79.0358 50.7592 79.212 51.3185 79.2533 51.8954C79.2533 52.6909 79.3258 52.8817 78.813 52.9449C78.3002 53.0082 76.3609 53.2777 76.4277 52.6909Z" fill="white"/>
<path d="M62.1528 51.6666C62.1528 51.6666 61.6388 50.9785 62.4092 50.7877L63.1797 50.5968C63.1797 50.5968 67.3994 50.5646 69.1251 50.5968C70.8509 50.629 74.1163 50.5336 74.7758 50.9153C74.9405 51.1114 75.06 51.3414 75.1258 51.5889C75.1916 51.8364 75.202 52.0954 75.1565 52.3474C75.111 52.5994 75.0105 52.8383 74.8623 53.0472C74.714 53.256 74.5216 53.4297 74.2987 53.5558C72.7255 53.8402 71.1239 53.9347 69.5281 53.8372C67.4732 53.8372 63.8036 54.3513 62.7767 52.8557C62.5482 52.4705 62.3399 52.0736 62.1528 51.6666Z" fill="white"/>
<path d="M52.135 58.9952C52.135 58.9952 52.2459 57.4675 54.5203 57.2134C56.7947 56.9594 78.1895 56.8628 78.1895 56.8628C78.1895 56.8628 79.1878 56.8628 79.2629 57.5307L79.3334 58.1986C79.3334 58.1986 79.6268 58.4216 78.8933 58.5802L78.1598 58.7388C69.4984 59.3588 60.807 59.4444 52.135 58.9952Z" fill="white"/>
<path d="M63.4008 45.6331C63.4008 45.6331 56.9415 40.7969 55.1072 40.3198C51.2755 39.6895 47.3928 39.4231 43.511 39.5243C39.5109 39.6197 36.429 39.8428 36.5387 40.0336L36.6497 40.2244L38.8514 44.8388C38.8514 44.8388 39.035 45.6021 40.3923 45.4756C41.7495 45.3492 52.3557 45.2848 54.6312 45.2848C56.9068 45.2848 63.829 45.9587 63.4008 45.6331Z" fill="white"/>
<path d="M26.8875 45.1546C27.2153 43.6109 27.7853 42.1288 28.5763 40.7633C28.9795 40.1264 29.0893 40.1264 29.6033 40.0632C30.1173 40 33.8967 39.3631 34.8878 40.9219C35.8789 42.4807 36.1354 43.1498 35.916 43.4992C35.6965 43.8487 35.5486 43.9131 34.9618 43.8809L34.3751 43.8487C33.2561 43.7248 32.1248 43.9169 31.1096 44.4033C29.862 45.1844 31.4399 45.8976 31.4399 45.8976L27.0975 45.7187C27.0975 45.7187 26.754 45.708 26.8875 45.1546Z" fill="white"/>
<path d="M22.0801 45.504C22.0801 45.504 21.8355 45.5469 21.8844 44.9947C21.8999 44.3664 22.1537 43.7674 22.5941 43.3191L23.1081 42.8528C24.2083 42.1167 25.3709 41.4782 26.5823 40.9445C27.9527 40.4353 28.6622 40.0107 28.3438 40.5629L28.0254 41.1139C27.5074 42.2416 27.0499 43.3961 26.655 44.5725C26.4832 45.3156 26.4833 45.6328 26.0432 45.6113L25.6031 45.5899L22.0801 45.504Z" fill="white"/>
<path d="M16.235 47.5577C16.235 47.5577 15.6721 47.6209 16.1372 47.0067C16.395 46.6418 16.7412 46.3484 17.1434 46.154C17.5456 45.9595 17.9906 45.8705 18.4366 45.8951C19.6114 45.9035 27.0236 46.0728 29.1036 46.2219C31.1836 46.371 40.8465 47.2619 42.0451 47.4313C43.2437 47.6006 43.7827 48.1731 43.0481 48.3854C42.0977 48.6136 41.2138 49.0604 40.4664 49.6902C39.719 50.32 39.1287 51.1155 38.7426 52.0134C39.5011 50.1254 39.8435 49.9131 38.8405 49.6794C37.8374 49.4456 28.3702 48.1516 23.3551 47.7485C20.9893 47.516 18.6099 47.4522 16.235 47.5577Z" fill="white"/>
<path d="M42.4958 52.0171C40.8404 52.0171 39.4988 54.4394 39.4988 57.427C39.4988 60.4145 40.8404 62.8368 42.4958 62.8368C44.1512 62.8368 45.493 60.4145 45.493 57.427C45.493 54.4394 44.1512 52.0171 42.4958 52.0171ZM42.4267 62.2417C40.9359 62.2417 39.7276 60.0448 39.7276 57.3351C39.7276 54.6254 40.9359 52.4286 42.4267 52.4286C43.9175 52.4286 45.1256 54.6254 45.1256 57.3351C45.1256 60.0448 43.9175 62.2417 42.4267 62.2417Z" fill="white"/>
<path d="M43.8187 61.9124C42.4293 61.9124 41.3034 59.8647 41.3034 57.3399C41.3034 54.815 42.4293 52.7672 43.8187 52.7672C43.9039 52.7671 43.9888 52.7747 44.0726 52.7899C43.7834 52.5647 43.4291 52.4392 43.0626 52.4321C41.5718 52.4321 40.3635 54.629 40.3635 57.3387C40.3635 60.0484 41.5718 62.2452 43.0626 62.2452C43.4291 62.2382 43.7834 62.1126 44.0726 61.8874C43.9889 61.9034 43.904 61.9117 43.8187 61.9124Z" fill="white"/>
<path d="M17.6162 51.8433C16.5154 51.8433 15.6221 53.8183 15.6221 56.256C15.6221 58.6938 16.5142 60.6688 17.6162 60.6688C18.7182 60.6688 19.6103 58.6938 19.6103 56.256C19.6103 53.8183 18.717 51.8433 17.6162 51.8433ZM17.5578 60.4136C16.5894 60.4136 15.8058 58.5566 15.8058 56.2668C15.8058 53.9769 16.5906 52.1199 17.5578 52.1199C18.525 52.1199 19.3098 53.9769 19.3098 56.2668C19.3098 58.5566 18.525 60.4184 17.5578 60.4184V60.4136Z" fill="white"/>
<path d="M18.3734 60.0136C17.5731 60.0136 16.9244 58.4143 16.9244 56.4417C16.9244 54.469 17.5731 52.8697 18.3734 52.8697C18.5227 52.8732 18.6669 52.9246 18.7848 53.0164C18.7057 52.8781 18.5946 52.7607 18.4607 52.6742C18.3269 52.5876 18.1742 52.5344 18.0155 52.519C17.1485 52.519 16.4473 54.2496 16.4473 56.3856C16.4473 58.5216 17.1497 60.2522 18.0155 60.2522C18.1291 60.2471 18.2405 60.2192 18.343 60.17C18.4454 60.1208 18.5369 60.0514 18.6118 59.966C18.5362 59.9973 18.4552 60.0135 18.3734 60.0136Z" fill="white"/>
<path d="M38.5793 27L39.1983 28.4932H41.2007L39.581 29.4163L40.2001 30.9095L38.5804 29.9864L36.9596 30.9095L37.5786 29.4163L35.959 28.4932H37.9614L38.5793 27Z" fill="#1A2730"/>
<path d="M26.4263 32.6377L27.2099 33.6956L28.6136 33.3759L27.6953 34.3492L28.4788 35.407L27.1263 34.9502L26.2081 35.9234L26.2915 34.6688L24.9402 34.212L26.3428 33.8924L26.4263 32.6377Z" fill="#1A2730"/>
<path d="M13.5898 39.9678L15.0377 41.2093L16.9149 40.4556L15.9322 41.9762L17.38 43.2177L15.3251 42.916L14.3423 44.4366L14.055 42.7299L12 42.4282L13.8772 41.6745L13.5898 39.9678Z" fill="#1A2730"/>
<path d="M15.9655 33.5918L16.8577 34.3563L18.0133 33.8923L17.4087 34.8286L18.3007 35.5931L17.0354 35.407L16.4307 36.3432L16.2542 35.2925L14.9888 35.1065L16.1444 34.6425L15.9655 33.5918Z" fill="#1A2730"/>
<path d="M48.7848 27.8564L47.486 29.6108L45.1604 29.0813L46.6834 30.695L45.3846 32.4493L47.6243 31.692L49.1473 33.3056L49.009 31.2245L51.2488 30.4672L48.9231 29.9376L48.7848 27.8564Z" fill="#1A2730"/>
<path d="M32.1199 50.1875L31.0619 51.181L29.6891 50.5775L30.4048 51.7952L29.3457 52.7887L30.8484 52.5501L31.564 53.7678L31.7751 52.4011L33.2779 52.1625L31.9051 51.559L32.1199 50.1875Z" fill="white"/>
<path d="M26.1806 50.9839L25.5723 51.5802L24.7828 51.2224L25.1954 51.9523L24.5872 52.5486L25.4506 52.4043L25.8634 53.1342L25.9826 52.3149L26.8461 52.1706L26.0577 51.8128L26.1806 50.9839Z" fill="white"/>
<path d="M28.672 55.4399L27.8205 56.1257L26.7162 55.7095L27.2947 56.5443L26.4431 57.2301L27.6512 57.0631L28.2284 57.898L28.3978 56.9546L29.606 56.7876L28.5016 56.3714L28.672 55.4399Z" fill="white"/>
</g>
<path fill-rule="evenodd" clip-rule="evenodd" d="M80 1H10C5.02944 1 1 5.02944 1 10V80C1 84.9706 5.02944 89 10 89H80C84.9706 89 89 84.9706 89 80V10C89 5.02944 84.9706 1 80 1ZM10 0C4.47715 0 0 4.47715 0 10V80C0 85.5229 4.47715 90 10 90H80C85.5229 90 90 85.5229 90 80V10C90 4.47715 85.5229 0 80 0H10Z" fill="#1A2730"/>
<defs>
<clipPath id="clip0_218_765">
<rect width="71.95" height="36.8743" fill="white" transform="translate(12 27)"/>
</clipPath>
</defs>
</svg>
