<svg width="90" height="90" viewBox="0 0 90 90" fill="none" xmlns="http://www.w3.org/2000/svg">
<g clip-path="url(#clip0_218_777)">
<path d="M33.893 21H31.085C30.4858 21 30 21.4858 30 22.085V31.513C30 32.1122 30.4858 32.598 31.085 32.598H33.893C34.4922 32.598 34.978 32.1122 34.978 31.513V22.085C34.978 21.4858 34.4922 21 33.893 21Z" fill="black"/>
<path d="M36.068 28.2703C37.0646 28.9835 37.7531 30.0487 37.994 31.2504C38.0127 31.3623 38.0705 31.4639 38.1571 31.5371C38.2437 31.6104 38.3536 31.6505 38.467 31.6503H39.079C39.142 31.6503 39.2044 31.6379 39.2627 31.6138C39.3209 31.5896 39.3738 31.5543 39.4184 31.5098C39.4629 31.4652 39.4983 31.4122 39.5224 31.354C39.5465 31.2958 39.559 31.2334 39.559 31.1703V31.1384C39.5567 30.8629 39.4908 30.5917 39.3664 30.3459C39.242 30.1001 39.0626 29.8863 38.842 29.7213C37.9795 28.8457 37.4007 27.7307 37.181 26.5214C37.1226 26.2523 36.9741 26.0113 36.7601 25.8381C36.546 25.665 36.2793 25.5701 36.004 25.5693H35.994C35.329 25.5693 35.232 26.1083 35.232 26.7693C35.2305 27.0703 35.3066 27.3666 35.4531 27.6295C35.5995 27.8925 35.8113 28.1131 36.068 28.2703ZM36.08 25.9033C36.1686 25.9033 36.2552 25.9296 36.3289 25.9788C36.4026 26.028 36.4599 26.098 36.4939 26.1799C36.5278 26.2617 36.5367 26.3518 36.5194 26.4387C36.5021 26.5256 36.4594 26.6054 36.3967 26.6681C36.3341 26.7307 36.2543 26.7734 36.1674 26.7907C36.0805 26.808 35.9904 26.7992 35.9085 26.7653C35.8267 26.7314 35.7567 26.6739 35.7075 26.6002C35.6583 26.5265 35.632 26.4399 35.632 26.3513C35.6318 26.2924 35.6433 26.2342 35.6658 26.1797C35.6883 26.1253 35.7213 26.0759 35.7629 26.0342C35.8045 25.9926 35.854 25.9597 35.9084 25.9372C35.9628 25.9147 36.0211 25.9032 36.08 25.9033Z" fill="black"/>
<path d="M59.0971 21H56.2891C55.6899 21 55.2041 21.4858 55.2041 22.085V31.513C55.2041 32.1122 55.6899 32.598 56.2891 32.598H59.0971C59.6963 32.598 60.1821 32.1122 60.1821 31.513V22.085C60.1821 21.4858 59.6963 21 59.0971 21Z" fill="black"/>
<path d="M53.003 26.5165C52.7837 27.7257 52.2052 28.8407 51.343 29.7164C51.1221 29.8812 50.9424 30.0949 50.8178 30.3408C50.6932 30.5866 50.6272 30.8579 50.625 31.1335V31.1655C50.625 31.2286 50.6374 31.2911 50.6616 31.3494C50.6858 31.4077 50.7213 31.4607 50.7659 31.5052C50.8106 31.5498 50.8636 31.5851 50.922 31.6092C50.9803 31.6333 51.0429 31.6456 51.106 31.6454H51.718C51.8314 31.6454 51.9411 31.6052 52.0276 31.532C52.1142 31.4588 52.1721 31.3573 52.191 31.2455C52.4319 30.0441 53.1199 28.979 54.116 28.2654C54.3725 28.1083 54.5842 27.8878 54.7307 27.6251C54.8771 27.3623 54.9533 27.0662 54.952 26.7654C54.952 26.1004 54.852 25.5654 54.191 25.5654H54.181C53.9057 25.5661 53.6389 25.6608 53.4247 25.8337C53.2105 26.0067 53.0617 26.2475 53.003 26.5165ZM54.103 25.9034C54.1916 25.9034 54.2783 25.9297 54.3519 25.9789C54.4256 26.0282 54.483 26.0981 54.5169 26.18C54.5508 26.2619 54.5597 26.3519 54.5424 26.4388C54.5251 26.5257 54.4825 26.6056 54.4198 26.6682C54.3571 26.7309 54.2773 26.7735 54.1904 26.7908C54.1035 26.8081 54.0134 26.7993 53.9316 26.7654C53.8497 26.7315 53.7798 26.674 53.7305 26.6003C53.6813 26.5267 53.655 26.44 53.655 26.3514C53.6549 26.2926 53.6664 26.2343 53.6888 26.1799C53.7113 26.1255 53.7443 26.076 53.7859 26.0344C53.8276 25.9927 53.877 25.9598 53.9314 25.9373C53.9858 25.9148 54.0442 25.9033 54.103 25.9034Z" fill="black"/>
<path d="M50.4031 31.1674V31.1354C50.4031 31.0288 50.4118 30.9225 50.4291 30.8174H39.7551C39.7726 30.9225 39.7817 31.0288 39.7821 31.1354V31.1674C39.7817 31.3461 39.713 31.5178 39.5901 31.6474H41.7901V31.3984C41.7901 31.2525 41.848 31.1126 41.9512 31.0095C42.0543 30.9063 42.1942 30.8484 42.3401 30.8484C42.486 30.8484 42.6259 30.9063 42.729 31.0095C42.8321 31.1126 42.8901 31.2525 42.8901 31.3984V31.6474H50.5961C50.4728 31.5179 50.4038 31.3462 50.4031 31.1674Z" fill="black"/>
<path d="M38.2791 42.6408C38.2788 42.7081 38.2931 42.7747 38.3209 42.8361C38.3486 42.8974 38.3893 42.9521 38.44 42.9964C38.4907 43.0407 38.5504 43.0735 38.6149 43.0928C38.6795 43.112 38.7474 43.1171 38.8141 43.1078C41.1532 42.7824 43.526 42.7824 45.8651 43.1078C45.9265 43.1153 45.9889 43.1106 46.0485 43.094C46.1082 43.0774 46.164 43.0492 46.2127 43.011C46.2615 42.9729 46.3022 42.9254 46.3326 42.8715C46.3631 42.8176 46.3826 42.7582 46.3901 42.6968C46.3976 42.6353 46.3929 42.573 46.3763 42.5134C46.3597 42.4537 46.3315 42.3979 46.2933 42.3492C46.2552 42.3004 46.2077 42.2597 46.1538 42.2292C46.0999 42.1988 46.0405 42.1793 45.9791 42.1718C43.5601 41.9037 41.119 41.9037 38.7001 42.1718C38.5844 42.1844 38.4775 42.2392 38.3998 42.3257C38.3221 42.4123 38.2791 42.5245 38.2791 42.6408Z" fill="black"/>
<path d="M40.4441 39.4559V41.6639C40.444 41.6953 40.4506 41.7263 40.4634 41.755C40.4762 41.7836 40.4949 41.8093 40.5184 41.8302C40.5418 41.8511 40.5694 41.8667 40.5994 41.8761C40.6293 41.8856 40.6609 41.8885 40.6921 41.8849C41.7885 41.7929 42.8907 41.7929 43.9871 41.8849C44.0183 41.8887 44.05 41.8859 44.0801 41.8765C44.1101 41.8671 44.1379 41.8514 44.1614 41.8305C44.185 41.8096 44.2038 41.784 44.2167 41.7553C44.2295 41.7265 44.2362 41.6954 44.2361 41.6639V39.4559C44.2361 39.3402 44.193 39.2286 44.1151 39.143C44.0373 39.0574 43.9303 39.0038 43.8151 38.9929C43.3551 38.9479 42.8531 38.9209 42.3151 38.9219C41.7951 38.9219 41.3101 38.9499 40.8651 38.9929C40.7498 39.0036 40.6427 39.0571 40.5648 39.1427C40.4869 39.2284 40.4438 39.3401 40.4441 39.4559Z" fill="black"/>
<path d="M41.4771 37.538V38.71C41.477 38.7297 41.481 38.7493 41.4888 38.7674C41.4966 38.7855 41.508 38.8019 41.5223 38.8154C41.5367 38.829 41.5536 38.8395 41.5721 38.8463C41.5907 38.8531 41.6104 38.8561 41.6301 38.855C41.8561 38.841 42.0931 38.8329 42.3391 38.8329C42.5851 38.8329 42.823 38.841 43.05 38.855C43.0697 38.8559 43.0894 38.8529 43.1078 38.846C43.1263 38.8392 43.1432 38.8287 43.1575 38.8151C43.1718 38.8016 43.1832 38.7853 43.191 38.7672C43.1989 38.7491 43.203 38.7297 43.2031 38.71V37.538C43.2028 37.3972 43.1476 37.2622 43.0491 37.1617C42.9507 37.0612 42.8168 37.0031 42.6761 37H42.3671H42.3121H42.0041C41.8633 37.0029 41.7293 37.0608 41.6307 37.1614C41.5322 37.262 41.477 37.3972 41.4771 37.538Z" fill="black"/>
<path d="M42.0031 36.8083C42.1031 36.8083 42.2031 36.8083 42.3111 36.8083H42.3661C42.4661 36.8083 42.573 36.8083 42.675 36.8083C42.6852 36.8087 42.6953 36.8071 42.7048 36.8035C42.7143 36.7999 42.723 36.7945 42.7304 36.7875C42.7378 36.7805 42.7437 36.7721 42.7477 36.7628C42.7518 36.7535 42.754 36.7435 42.7541 36.7333V31.4133C42.7557 31.3059 42.7166 31.202 42.6446 31.1223C42.5726 31.0427 42.4731 30.9934 42.3661 30.9843C42.3094 30.9806 42.2527 30.9886 42.1992 31.0077C42.1458 31.0268 42.0968 31.0567 42.0554 31.0955C42.0139 31.1343 41.9809 31.1812 41.9583 31.2333C41.9357 31.2854 41.9241 31.3415 41.9241 31.3983V36.7333C41.9241 36.7434 41.9261 36.7534 41.9301 36.7627C41.934 36.772 41.9398 36.7804 41.9471 36.7874C41.9544 36.7944 41.963 36.7999 41.9725 36.8035C41.9819 36.8071 41.992 36.8087 42.0021 36.8083H42.0031Z" fill="black"/>
<path d="M37.3969 26.468C37.4129 26.536 37.4289 26.605 37.4469 26.676H41.8619C42.6086 26.6685 43.3417 26.8769 43.9729 27.276C44.3062 27.4915 44.6945 27.6061 45.0914 27.6061C45.4882 27.6061 45.8766 27.4915 46.2099 27.276C46.8407 26.8768 47.5734 26.6684 48.3199 26.676H52.7359C52.7529 26.605 52.7699 26.536 52.7849 26.468C52.8327 26.2463 52.9326 26.0393 53.0762 25.8638C53.2198 25.6884 53.4031 25.5496 53.6109 25.459H48.6029C47.7753 25.4626 46.9677 25.205 46.2949 24.723C45.9435 24.4695 45.5212 24.333 45.0879 24.333C44.6546 24.333 44.2323 24.4695 43.8809 24.723C43.2086 25.205 42.4012 25.4626 41.5739 25.459H36.5679C36.7762 25.5493 36.9601 25.6879 37.1043 25.8633C37.2485 26.0388 37.3488 26.246 37.3969 26.468Z" fill="black"/>
<path d="M45.753 28.1504H44.428V30.4124H45.753V28.1504Z" fill="black"/>
<path d="M44.429 32.0518V41.6328C44.8716 41.6595 45.3133 41.6955 45.754 41.7408V32.0518H44.429Z" fill="black"/>
<path d="M46.5599 60.4044C46.3125 60.2434 46.0402 60.1244 45.7539 60.0524V43.5034C45.3149 43.4424 44.8719 43.3944 44.4289 43.3574V60.0524C44.1426 60.1242 43.8701 60.2432 43.6229 60.4044C42.1274 61.3576 40.3882 61.8577 38.6149 61.8444H35.2029V63.4984H38.6189C40.3924 63.4851 42.1317 63.9855 43.6269 64.9394C44.0642 65.2228 44.5742 65.3737 45.0954 65.3737C45.6166 65.3737 46.1266 65.2228 46.5639 64.9394C48.0587 63.9856 49.7978 63.4851 51.5709 63.4984H54.9869V61.8444H51.5709C49.7966 61.8584 48.0561 61.3583 46.5599 60.4044Z" fill="black"/>
<path d="M33.893 56.8721H31.085C30.4858 56.8721 30 57.3578 30 57.9571V67.3851C30 67.9843 30.4858 68.4701 31.085 68.4701H33.893C34.4922 68.4701 34.978 67.9843 34.978 67.3851V57.9571C34.978 57.3578 34.4922 56.8721 33.893 56.8721Z" fill="black"/>
<path d="M59.0971 56.8721H56.2891C55.6899 56.8721 55.2041 57.3578 55.2041 57.9571V67.3851C55.2041 67.9843 55.6899 68.4701 56.2891 68.4701H59.0971C59.6963 68.4701 60.1821 67.9843 60.1821 67.3851V57.9571C60.1821 57.3578 59.6963 56.8721 59.0971 56.8721Z" fill="black"/>
</g>
<path fill-rule="evenodd" clip-rule="evenodd" d="M80 1H10C5.02944 1 1 5.02944 1 10V80C1 84.9706 5.02944 89 10 89H80C84.9706 89 89 84.9706 89 80V10C89 5.02944 84.9706 1 80 1ZM10 0C4.47715 0 0 4.47715 0 10V80C0 85.5229 4.47715 90 10 90H80C85.5229 90 90 85.5229 90 80V10C90 4.47715 85.5229 0 80 0H10Z" fill="#1A2730"/>
<defs>
<clipPath id="clip0_218_777">
<rect width="30.182" height="47.47" fill="white" transform="translate(30 21)"/>
</clipPath>
</defs>
</svg>
