<svg width="90" height="90" viewBox="0 0 90 90" fill="none" xmlns="http://www.w3.org/2000/svg">
<path fill-rule="evenodd" clip-rule="evenodd" d="M80 1H10C5.02944 1 1 5.02944 1 10V80C1 84.9706 5.02944 89 10 89H80C84.9706 89 89 84.9706 89 80V10C89 5.02944 84.9706 1 80 1ZM10 0C4.47715 0 0 4.47715 0 10V80C0 85.5229 4.47715 90 10 90H80C85.5229 90 90 85.5229 90 80V10C90 4.47715 85.5229 0 80 0H10Z" fill="#1A2730"/>
<path d="M70.86 41.824L69.515 37.864C69.4179 37.6242 69.2494 37.4201 69.0325 37.2792C68.8155 37.1382 68.5606 37.0673 68.302 37.076H65.258C64.9442 37.0551 64.6348 37.1589 64.3972 37.3649C64.1595 37.5709 64.0128 37.8624 63.989 38.176V39.176H62.225V37.791C62.2009 37.4777 62.0543 37.1865 61.8169 36.9806C61.5796 36.7746 61.2706 36.6706 60.957 36.691H57.925V33.234C57.9009 32.9205 57.7542 32.6291 57.5166 32.4232C57.279 32.2172 56.9698 32.1133 56.656 32.134H47.356V29.21H54.715C54.8719 29.2312 55.0315 29.2186 55.1831 29.173C55.3348 29.1275 55.4749 29.05 55.5941 28.9458C55.7133 28.8416 55.8089 28.7131 55.8743 28.569C55.9398 28.4248 55.9737 28.2683 55.9737 28.11C55.9737 27.9517 55.9398 27.7952 55.8743 27.651C55.8089 27.5069 55.7133 27.3784 55.5941 27.2742C55.4749 27.17 55.3348 27.0925 55.1831 27.047C55.0315 27.0014 54.8719 26.9888 54.715 27.01H34.475C34.3181 26.9888 34.1585 27.0014 34.0069 27.047C33.8552 27.0925 33.7151 27.17 33.5959 27.2742C33.4767 27.3784 33.3811 27.5069 33.3157 27.651C33.2502 27.7952 33.2163 27.9517 33.2163 28.11C33.2163 28.2683 33.2502 28.4248 33.3157 28.569C33.3811 28.7131 33.4767 28.8416 33.5959 28.9458C33.7151 29.05 33.8552 29.1275 34.0069 29.173C34.1585 29.2186 34.3181 29.2312 34.475 29.21H41.834V32.134H33.252C32.9387 32.1136 32.6301 32.2178 32.3932 32.4237C32.1563 32.6297 32.0103 32.9209 31.987 33.234V36.691H27.042C26.7286 36.6703 26.4197 36.7744 26.1826 36.9804C25.9454 37.1864 25.7993 37.4777 25.776 37.791V43.267H23.534V39.831C23.4902 39.5262 23.338 39.2473 23.1053 39.0457C22.8726 38.844 22.5749 38.7329 22.267 38.7329C21.959 38.7329 21.6614 38.844 21.4287 39.0457C21.196 39.2473 21.0438 39.5262 21 39.831V53.454C21.0438 53.7588 21.196 54.0376 21.4287 54.2393C21.6614 54.441 21.959 54.552 22.267 54.552C22.5749 54.552 22.8726 54.441 23.1053 54.2393C23.338 54.0376 23.4902 53.7588 23.534 53.454V50.021H25.776V56.013C25.7993 56.3263 25.9454 56.6176 26.1826 56.8236C26.4197 57.0296 26.7286 57.1336 27.042 57.113H36.525L40.116 63.534C40.2354 63.7277 40.4032 63.8869 40.603 63.9958C40.8028 64.1047 41.0275 64.1596 41.255 64.155H56.662C56.9758 64.1759 57.2852 64.0721 57.5228 63.8661C57.7605 63.6601 57.9072 63.3686 57.931 63.055V57.318H60.963C61.2766 57.3384 61.5856 57.2343 61.8229 57.0284C62.0603 56.8225 62.2069 56.5313 62.231 56.218V54.729H63.994V55.729C64.0178 56.0426 64.1645 56.3341 64.4022 56.5401C64.6398 56.7461 64.9492 56.8499 65.263 56.829H68.307C68.5659 56.8373 68.8211 56.7663 69.0384 56.6254C69.2557 56.4846 69.4248 56.2807 69.523 56.041L70.862 52.086C70.8988 51.9844 70.9174 51.8771 70.917 51.769V42.141C70.9163 42.0328 70.8971 41.9256 70.86 41.824Z" fill="#1A2730"/>
<path fill-rule="evenodd" clip-rule="evenodd" d="M34.491 26.76H54.699C54.8856 26.7373 55.0749 26.7534 55.2551 26.8075C55.4409 26.8634 55.6125 26.9583 55.7586 27.086C55.9047 27.2136 56.0217 27.371 56.102 27.5477C56.1822 27.7243 56.2237 27.916 56.2237 28.11C56.2237 28.304 56.1822 28.4957 56.102 28.6723C56.0217 28.849 55.9047 29.0064 55.7586 29.134C55.6125 29.2617 55.4409 29.3566 55.2551 29.4124C55.075 29.4666 54.8856 29.4828 54.699 29.46H47.606V31.884H56.6482C57.0246 31.8615 57.3952 31.9871 57.6803 32.2343C57.9677 32.4834 58.1452 32.8357 58.1743 33.2148L58.175 33.2244V36.441H60.9493C61.3256 36.4187 61.6958 36.5446 61.9807 36.7917C62.2678 37.0408 62.4452 37.3929 62.4743 37.7718L62.475 37.7814V38.926H63.739V38.1665L63.7397 38.1571C63.7685 37.7778 63.9459 37.4251 64.2334 37.176C64.5187 36.9287 64.8894 36.8032 65.2659 36.826H68.298C68.6062 36.8165 68.91 36.9015 69.1687 37.0695C69.4286 37.2383 69.6303 37.4829 69.7467 37.7701L69.7494 37.7768L71.0959 41.7411C71.1421 41.8688 71.1662 42.0036 71.167 42.1395L71.167 42.141L71.167 51.7681M34.4415 27.2578C34.3199 27.2413 34.1963 27.2511 34.0788 27.2864C33.9613 27.3217 33.8528 27.3817 33.7604 27.4624C33.6681 27.5432 33.594 27.6427 33.5433 27.7544C33.4926 27.8661 33.4663 27.9873 33.4663 28.11C33.4663 28.2327 33.4926 28.3539 33.5433 28.4656C33.594 28.5773 33.6681 28.6768 33.7604 28.7576C33.8528 28.8383 33.9613 28.8983 34.0788 28.9336C34.1963 28.9689 34.32 28.9787 34.4415 28.9623L34.4582 28.96H42.084V32.384H33.2439L33.2358 32.3835C32.9883 32.3674 32.7444 32.4496 32.5572 32.6124C32.3723 32.7732 32.2575 32.9998 32.237 33.2438V36.941H27.0338L27.0256 36.9404C26.7779 36.9241 26.5339 37.0063 26.3465 37.1691C26.1614 37.33 26.0465 37.5567 26.026 37.8008V43.517H23.284V39.8498C23.2457 39.6111 23.1246 39.3932 22.9416 39.2346C22.7543 39.0723 22.5148 38.9829 22.267 38.9829C22.0192 38.9829 21.7797 39.0723 21.5924 39.2346C21.4094 39.3932 21.2883 39.6111 21.25 39.8498V53.4352C21.2883 53.6739 21.4094 53.8918 21.5924 54.0504C21.7797 54.2127 22.0192 54.302 22.267 54.302C22.5148 54.302 22.7543 54.2127 22.9416 54.0504C23.1246 53.8918 23.2457 53.6739 23.284 53.4352V49.771H26.026V56.0032C26.0465 56.2473 26.1614 56.474 26.3465 56.6349C26.5339 56.7977 26.7779 56.8798 27.0256 56.8635L27.0338 56.863H36.6716L40.3315 63.4071C40.4278 63.5618 40.5626 63.689 40.7227 63.7763C40.8842 63.8644 41.066 63.9088 41.25 63.9051L41.255 63.905L56.6703 63.905L56.6786 63.9056C56.9267 63.9221 57.1712 63.84 57.3591 63.6772C57.5447 63.5163 57.6601 63.2895 57.681 63.045V57.068H60.9711L60.9792 57.0685C61.2271 57.0847 61.4714 57.0024 61.6591 56.8396C61.8445 56.6787 61.9599 56.4521 61.981 56.2079V54.479H64.244V55.7189C64.2649 55.9634 64.3803 56.1903 64.5659 56.3512C64.7538 56.514 64.9983 56.5961 65.2464 56.5795L65.2547 56.579H68.315C68.5229 56.5857 68.7279 56.5288 68.9025 56.4156C69.0749 56.3039 69.2096 56.1426 69.2888 55.9531L70.6269 52.0009C70.6537 51.9269 70.6673 51.8486 70.667 51.7699L70.667 42.1425C70.667 42.1423 70.667 42.1427 70.667 42.1425C70.6665 42.0633 70.6523 41.9841 70.6251 41.9096L70.6232 41.9044L69.2807 37.9516C69.2024 37.762 69.0684 37.6006 68.8963 37.4888C68.7223 37.3758 68.5178 37.3189 68.3104 37.3259L68.302 37.3261L65.2497 37.326L65.2414 37.3254C64.9933 37.3089 64.7488 37.391 64.5609 37.5538C64.3753 37.7147 64.2599 37.9415 64.239 38.1861V39.426H61.975V37.8011C61.9539 37.5569 61.8385 37.3302 61.6531 37.1694C61.4654 37.0066 61.2211 36.9243 60.9732 36.9405L60.9651 36.941H57.675V33.2441C57.6539 32.9997 57.5384 32.773 57.3528 32.6121C57.165 32.4493 56.9205 32.3671 56.6724 32.3835L56.6642 32.384H47.106V28.96H54.7318L54.7485 28.9623C54.87 28.9787 54.9937 28.9689 55.1112 28.9336C55.2287 28.8983 55.3372 28.8383 55.4296 28.7576C55.5219 28.6768 55.596 28.5773 55.6467 28.4656C55.6974 28.3539 55.7237 28.2327 55.7237 28.11C55.7237 27.9873 55.6974 27.8661 55.6467 27.7544C55.596 27.6427 55.5219 27.5432 55.4296 27.4624C55.3372 27.3817 55.2287 27.3217 55.1112 27.2864C54.9937 27.2511 54.8701 27.2413 54.7485 27.2578L54.7318 27.26H34.4582L34.4415 27.2578Z" fill="#2A2E43"/>
</svg>
