<svg width="90" height="90" viewBox="0 0 90 90" fill="none" xmlns="http://www.w3.org/2000/svg">
<g clip-path="url(#clip0_218_769)">
<path d="M35.6729 30H28.6509V32.95H35.6729V30Z" fill="#000D20"/>
<path d="M59.4789 30H52.1719V32.95H59.4789V30Z" fill="#000D20"/>
<path d="M23 33.8271V59.4331H66.08V33.8271H23ZM51.362 46.4581L41.535 58.2281L47.446 47.1971L40.461 47.5201L37.448 47.6641L38.148 45.6641L41.271 36.7641H48.753L43.809 44.7741L49.809 45.0531L52.429 45.1741L51.362 46.4581Z" fill="#000D20"/>
</g>
<path fill-rule="evenodd" clip-rule="evenodd" d="M80 1H10C5.02944 1 1 5.02944 1 10V80C1 84.9706 5.02944 89 10 89H80C84.9706 89 89 84.9706 89 80V10C89 5.02944 84.9706 1 80 1ZM10 0C4.47715 0 0 4.47715 0 10V80C0 85.5229 4.47715 90 10 90H80C85.5229 90 90 85.5229 90 80V10C90 4.47715 85.5229 0 80 0H10Z" fill="#1A2730"/>
<defs>
<clipPath id="clip0_218_769">
<rect width="43.08" height="29.433" fill="white" transform="translate(23 30)"/>
</clipPath>
</defs>
</svg>
