<svg width="90" height="90" viewBox="0 0 90 90" fill="none" xmlns="http://www.w3.org/2000/svg">
<g clip-path="url(#clip0_218_773)">
<path d="M35.5249 56.945L32.4849 53.714C32.057 53.2569 31.8278 52.6487 31.8475 52.0228C31.8672 51.3969 32.1341 50.8044 32.5899 50.375L34.1299 48.928L39.6359 54.787C39.9306 55.1008 40.3378 55.2846 40.768 55.2981C41.1982 55.3116 41.6162 55.1537 41.9299 54.859L57.5439 40.19C57.8567 39.8953 58.0397 39.4885 58.0529 39.059C58.066 38.6295 57.9081 38.2123 57.6139 37.899L52.5599 32.519L57.0729 28.279L53.9909 24.999L49.4809 29.242L48.4719 28.169C48.1775 27.856 47.7709 27.6725 47.3413 27.659C46.9118 27.6455 46.4944 27.8031 46.1809 28.097L30.5669 42.763C30.411 42.9092 30.2855 43.0847 30.1975 43.2795C30.1095 43.4743 30.0608 43.6845 30.0541 43.8981C30.0474 44.1117 30.0829 44.3245 30.1586 44.5244C30.2342 44.7243 30.3485 44.9074 30.4949 45.063L31.5009 46.134L29.9589 47.581C28.7617 48.7085 28.0606 50.2648 28.0094 51.9086C27.9582 53.5523 28.5612 55.1492 29.6859 56.349L31.7789 58.576L32.2169 59.037L32.7269 59.578C33.155 60.0348 33.3848 60.6425 33.366 61.2682C33.3473 61.8939 33.0815 62.4867 32.6269 62.917L28.0029 67.263L30.6289 70.056L35.2529 65.716C36.4509 64.5883 37.1524 63.0313 37.2034 61.3868C37.2544 59.7423 36.6507 58.1448 35.5249 56.945Z" fill="#000D20"/>
</g>
<path fill-rule="evenodd" clip-rule="evenodd" d="M80 1H10C5.02944 1 1 5.02944 1 10V80C1 84.9706 5.02944 89 10 89H80C84.9706 89 89 84.9706 89 80V10C89 5.02944 84.9706 1 80 1ZM10 0C4.47715 0 0 4.47715 0 10V80C0 85.5229 4.47715 90 10 90H80C85.5229 90 90 85.5229 90 80V10C90 4.47715 85.5229 0 80 0H10Z" fill="#1A2730"/>
<defs>
<clipPath id="clip0_218_773">
<rect width="30.053" height="45.052" fill="white" transform="translate(28 25)"/>
</clipPath>
</defs>
</svg>
