<svg width="90" height="90" viewBox="0 0 90 90" fill="none" xmlns="http://www.w3.org/2000/svg">
<path fill-rule="evenodd" clip-rule="evenodd" d="M80 1H10C5.02944 1 1 5.02944 1 10V80C1 84.9706 5.02944 89 10 89H80C84.9706 89 89 84.9706 89 80V10C89 5.02944 84.9706 1 80 1ZM10 0C4.47715 0 0 4.47715 0 10V80C0 85.5229 4.47715 90 10 90H80C85.5229 90 90 85.5229 90 80V10C90 4.47715 85.5229 0 80 0H10Z" fill="#1A2730"/>
<path d="M51.4737 46.474C51.8752 46.4738 52.2677 46.5927 52.6018 46.8155C52.9358 47.0383 53.1963 47.3551 53.3503 47.726C53.5043 48.0968 53.5449 48.5049 53.4671 48.8988C53.3892 49.2927 53.1964 49.6547 52.9129 49.939C52.6294 50.2234 52.268 50.4173 51.8743 50.4963C51.4806 50.5753 51.0724 50.5359 50.7011 50.383C50.3298 50.23 50.0122 49.9705 49.7884 49.6371C49.5646 49.3038 49.4446 48.9116 49.4437 48.51C49.4427 48.2429 49.4946 47.9782 49.5962 47.7312C49.6978 47.4841 49.8472 47.2596 50.0358 47.0704C50.2244 46.8813 50.4485 46.7312 50.6952 46.6288C50.942 46.5265 51.2065 46.4739 51.4737 46.474ZM40.5386 54.953C40.3193 54.9528 40.1048 55.0176 39.9222 55.1393C39.7396 55.2609 39.5972 55.4339 39.5129 55.6364C39.4286 55.8389 39.4062 56.0619 39.4485 56.2771C39.4908 56.4924 39.596 56.6903 39.7507 56.8458C39.9054 57.0013 40.1027 57.1075 40.3177 57.151C40.5327 57.1945 40.7558 57.1733 40.9587 57.0901C41.1617 57.0068 41.3355 56.8653 41.4581 56.6834C41.5807 56.5015 41.6466 56.2874 41.6476 56.068C41.6469 55.7737 41.5299 55.4916 41.3223 55.2829C41.1146 55.0743 40.833 54.9561 40.5386 54.954V54.953ZM37.2856 44.51C37.5569 44.5106 37.8223 44.4307 38.0481 44.2804C38.274 44.1301 38.4502 43.9162 38.5544 43.6658C38.6586 43.4153 38.6862 43.1395 38.6337 42.8734C38.5811 42.6073 38.4508 42.3627 38.2591 42.1707C38.0675 41.9786 37.8232 41.8477 37.5572 41.7946C37.2912 41.7414 37.0154 41.7684 36.7647 41.8721C36.514 41.9758 36.2997 42.1515 36.1489 42.377C35.9981 42.6026 35.9177 42.8677 35.9177 43.139C35.917 43.319 35.9519 43.4974 36.0203 43.6639C36.0888 43.8304 36.1895 43.9817 36.3166 44.1092C36.4437 44.2367 36.5947 44.3378 36.761 44.4068C36.9273 44.4757 37.1056 44.5112 37.2856 44.511V44.51ZM45.0727 48.51C45.0731 47.3166 45.4068 46.1471 46.0361 45.1331C46.6654 44.1191 47.5654 43.3011 48.6346 42.771L40.7627 41.128C41.1206 41.738 41.3084 42.4328 41.3066 43.14C41.3067 43.8056 41.1415 44.4608 40.8259 45.0468C40.5103 45.6329 40.0541 46.1313 39.4983 46.4975C38.9424 46.8637 38.3044 47.0861 37.6414 47.1449C36.9784 47.2036 36.3112 47.0968 35.6996 46.834L37.8057 54.307C38.1863 53.7175 38.7475 53.2669 39.4054 53.0225C40.0632 52.7782 40.7825 52.7532 41.4557 52.9513C42.129 53.1494 42.7201 53.56 43.1407 54.1218C43.5614 54.6835 43.789 55.3662 43.7896 56.068C43.7899 56.2859 43.7688 56.5033 43.7266 56.717L49.3696 54.557C48.1157 54.1177 47.029 53.3 46.2594 52.217C45.4897 51.1339 45.0751 49.8387 45.0727 48.51ZM34.8476 30.558C34.3413 29.812 33.5605 29.2964 32.6755 29.1239C31.7905 28.9514 30.8732 29.1358 30.1236 29.637L20.4976 36.128C19.7514 36.6342 19.2357 37.4151 19.0631 38.3001C18.8905 39.1852 19.0752 40.1026 19.5767 40.852L20.7996 42.667L36.0696 32.372L34.8476 30.558ZM70.3657 36.071L60.7356 29.576C59.9866 29.075 59.0698 28.8906 58.1853 29.0631C57.3008 29.2357 56.5204 29.7512 56.0146 30.497L54.7916 32.309L70.0646 42.609L71.2816 40.797C71.7845 40.0481 71.9704 39.1306 71.7988 38.245C71.6271 37.3594 71.1119 36.5778 70.3657 36.071ZM55.8146 33.854L67.4326 41.687L63.8686 48.251H60.2046L53.5796 65.231H36.9347L30.3137 48.251H26.6496L23.1996 41.901L35.1496 33.845H37.2826L40.2826 30.803H50.6977L53.6977 33.845H55.7906L55.8146 33.854ZM51.4737 42.107C51.3227 42.107 51.1737 42.116 51.0207 42.122L39.3306 39.681C38.712 39.3131 38.0055 39.1189 37.2856 39.119C37.1222 39.1198 36.959 39.1298 36.7967 39.149H36.7757C36.0561 39.2401 35.3745 39.5244 34.8035 39.9717C34.2325 40.4189 33.7932 41.0125 33.5325 41.6893C33.2717 42.3662 33.1991 43.101 33.3223 43.8158C33.4456 44.5306 33.7602 45.1986 34.2326 45.749L37.4766 57.24L37.5216 57.276C37.7279 57.7939 38.0641 58.2499 38.4977 58.6002C38.9313 58.9505 39.4478 59.1832 39.9974 59.2761C40.547 59.3689 41.1113 59.3186 41.6359 59.1302C42.1605 58.9417 42.6277 58.6214 42.9926 58.2L51.5776 54.91C52.4181 54.9035 53.249 54.7314 54.023 54.4037C54.797 54.076 55.4988 53.5991 56.0885 53.0002C56.6781 52.4012 57.1441 51.692 57.4596 50.913C57.7752 50.134 57.9342 49.3005 57.9276 48.46C57.9211 47.6196 57.749 46.7886 57.4213 46.0147C57.0937 45.2407 56.6167 44.5388 56.0178 43.9492C55.4188 43.3595 54.7096 42.8936 53.9306 42.5781C53.1516 42.2625 52.3181 42.1035 51.4777 42.11L51.4737 42.107Z" fill="#1A2730"/>
</svg>
