<?xml version="1.0" encoding="UTF-8"?>
<svg id="a" data-name="Layer 1" xmlns="http://www.w3.org/2000/svg" viewBox="0 0 143 143">
  <rect x=".5" y=".5" width="142" height="142" rx="14.2" ry="14.2" fill="none" stroke="#2a2e43" stroke-miterlimit="10"/>
  <path d="m97.9,76.6c0,.2,0,.6,0,.8l-6.7-6.7-6.2,1.5-1.5,6.2,6.6,6.6c-.1,0-.3,0-.4.1-5,1-10.5-2.2-12.4-7.2-.6-1.6-.9-3.3-.7-5,.3-2.5-.7-4.5-2.6-6.4-3.3-3.4-6.8-6.6-10-10.1-1.9-2-4.1-2.8-6.8-2.7-5.3.3-9.5-2.5-11.4-7.2-.8-2-.9-3.9-.5-6,0-.1,0-.2,0-.3l6.4,6.4,6.2-1.5,1.5-6.2-6.4-6.4c.1,0,.2,0,.4-.1,5.9-1.3,12.4,3.5,13,9.5,0,.9.1,1.9,0,2.8-.2,2.4.6,4.4,2.4,6.1,3.4,3.3,6.7,6.6,10,9.9,2.8,2.8,3.5,3.1,7.3,3,7.1-.5,12.8,5.8,11.8,12.7Zm-29.3-9.7c-4.6,4.5-9.1,9.1-13.7,13.6-.3.3-.5.6-.8.8-.5.5-1.1,1-1.8.3-.7-.7-.4-1.3.2-1.8.4-.5.9-.9,1.4-1.4,4.6-4.6,9.1-9.1,13.7-13.7.7-.7.8-1.1.1-1.9-.7-.8-1.2-.5-1.8,0-.4.3-.8.7-1.1,1.1-4.6,4.7-9.3,9.3-13.9,14-.5.5-1.2,1-1.9.4-.8-.7-.4-1.4.2-2,5-5,10-10,15-15,.6-.5,1.4-.9.5-1.8-.8-.8-1.3-.4-1.9.2-2.3,2.4-4.7,4.7-7,7-2.8,2.8-5.7,5.6-8.4,8.4-1.7,1.8-2.3,3.9-1.3,6.3.9,2.2,2.7,3.3,5,3.4,1.8,0,3.1-.7,4.3-1.9,4.9-4.9,9.8-9.7,14.6-14.6.5-.5,1.5-1,.4-2-1.1-1.1-1.5.1-2,.6Zm21.1-23.7l3.5-1.4,3.8-5.9-2.1-2.1-5.9,3.8-1.4,3.5-13.3,13.3,2.1,2.1,13.3-13.3Zm27.7,24.6c-2.2,10.1-7.7,18.4-13.8,26.2-9.9,12.8-20.2,25.4-30.3,38-.8,1-1.5,2.7-3.1.6-11.6-15.6-24.7-30-35.9-45.8-5-7-8.2-14.7-9.3-23.2-3-22.9,12.4-45.5,34.9-50.9,3.8-.9,7.7-1.5,11.1-1.5,30.2-.2,52.7,27.7,46.4,56.6Zm-9-10c-.2-20.6-17.3-37.1-37.5-36.6-20.5.5-37.1,17.7-36.4,37.7.8,20.6,17.5,36.7,37.5,36.1,21.5-.4,36.5-17.8,36.3-37.2Z" fill="#2a2e43" stroke="#2a2e43" stroke-miterlimit="10"/>
</svg>