<svg width="42" height="42" viewBox="0 0 42 42" fill="none" xmlns="http://www.w3.org/2000/svg">
    <g clip-path="url(#clip0_1_6)">
        <path
            d="M20.9795 41.877C32.4529 41.877 41.7539 32.5759 41.7539 21.1025C41.7539 9.62915 32.4529 0.328125 20.9795 0.328125C9.5061 0.328125 0.205078 9.62915 0.205078 21.1025C0.205078 32.5759 9.5061 41.877 20.9795 41.877Z"
            fill="#F4F4F5" />
        <path
            d="M4.74548 33.44V10.8404C4.74548 8.9578 6.27537 7.42792 8.15798 7.42792H33.8748C35.7574 7.42792 37.2873 8.9578 37.2873 10.8404V33.44H35.0109V10.8404C35.0109 10.2129 34.4982 9.70428 33.8748 9.70428H8.15798C7.53044 9.70428 7.02185 10.2129 7.02185 10.8404V33.44H4.74548ZM32.2137 29.281V32.8494C32.2137 33.2596 31.8814 33.5918 31.4713 33.5918H29.0431C28.633 33.5918 28.3008 33.2596 28.3008 32.8494V32.4967C26.9513 32.6074 24.917 32.7141 22.0131 32.7141C21.7342 32.7141 21.4429 32.7141 21.1476 32.7099C21.1107 32.7387 21.0615 32.7551 21.0123 32.7551C20.9631 32.7551 20.9138 32.7387 20.8769 32.7099C17.9279 32.7305 15.7951 32.6484 14.3185 32.5418C14.1381 32.5131 13.9371 32.4967 13.7197 32.4967V32.8494C13.7197 33.2596 13.3875 33.5918 12.9773 33.5918H10.5492C10.139 33.5918 9.80681 33.2596 9.80681 32.8494V29.281C9.80681 29.2113 9.83962 29.1498 9.88884 29.1129C9.72068 26.7791 9.81091 25.3189 10.1472 25.0564C10.2293 24.9662 10.3113 24.8514 10.3892 24.7119C10.4097 24.6791 10.4385 24.6504 10.4713 24.6299C10.4713 24.6135 10.4754 24.5971 10.4754 24.5807C10.4795 24.556 10.4836 24.5314 10.4959 24.5068C10.5369 24.4166 10.5615 24.351 10.5615 24.351C10.8076 23.625 11.5459 23.4937 11.8576 23.3051L11.7304 22.9933C11.6607 23.0015 11.5869 23.0057 11.5049 23.0057C11.2054 23.0057 10.9224 22.94 10.865 22.9277C10.3564 22.8334 10.2088 22.4273 10.2006 22.2017C10.2006 22.1894 10.2006 22.173 10.2047 22.1566C10.3564 21.2953 11.4105 21.2256 11.509 21.2215C11.7304 21.2051 11.9273 21.2666 12.0832 21.3978C12.4072 21.6726 12.4564 22.1607 12.4605 22.214C12.4769 22.3494 12.5015 22.4683 12.522 22.575C13.3054 21.0164 13.9453 19.9172 13.9535 19.9049C14.659 18.6211 15.5121 18.5226 15.631 18.5144C17.6408 18.2068 20.1263 18.1822 20.84 18.1822C20.8523 18.1822 20.8646 18.1822 20.8728 18.1822C20.9097 18.1535 20.959 18.1371 21.0082 18.1371C21.0615 18.1371 21.1066 18.1535 21.1435 18.1822C21.1517 18.1822 21.164 18.1822 21.1763 18.1822C21.89 18.1822 24.3715 18.2068 26.3853 18.5144C26.4592 18.5185 27.341 18.5924 28.067 19.9131C28.067 19.9172 28.7027 21 29.4943 22.575C29.5189 22.4683 29.5435 22.3453 29.5599 22.2058C29.5681 22.1156 29.6256 21.6603 29.9373 21.3978C30.0972 21.2625 30.29 21.2051 30.5156 21.2215C30.6304 21.2256 31.6681 21.2994 31.8199 22.1566C31.8199 22.173 31.824 22.1853 31.824 22.2017C31.8158 22.4807 31.6312 22.8375 31.1513 22.9277C31.0898 22.94 30.815 23.0057 30.5197 23.0057C30.4377 23.0057 30.3638 23.0015 30.2941 22.9933L30.1629 23.3051C30.4787 23.4937 31.2129 23.6291 31.459 24.3551C31.4631 24.3633 31.4836 24.4207 31.5246 24.5068C31.5369 24.5314 31.541 24.556 31.5451 24.5807C31.5451 24.5971 31.5492 24.6135 31.5492 24.6299C31.582 24.6504 31.6107 24.6791 31.6312 24.7119C31.7133 24.8514 31.7912 24.9703 31.8773 25.0564C32.0619 25.2123 32.3613 25.9342 32.1316 29.1088C32.1849 29.1539 32.2137 29.2113 32.2137 29.281ZM12.0299 29.3672C12.0299 29.0719 11.7879 28.8299 11.4926 28.8299C11.1972 28.8299 10.9552 29.0678 10.9552 29.3672C10.9552 29.6625 11.1972 29.9045 11.4926 29.9045C11.7879 29.9045 12.0299 29.6625 12.0299 29.3672ZM14.134 26.8201C14.134 26.1064 13.5556 25.524 12.8379 25.524C12.1242 25.524 11.5418 26.1064 11.5418 26.8201C11.5418 27.5338 12.1242 28.1162 12.8379 28.1162C13.5556 28.1121 14.134 27.5338 14.134 26.8201ZM21.0123 22.8621C21.0615 22.8621 25.8152 22.8662 28.4115 23.1205C28.4197 23.1205 28.4361 23.1246 28.4525 23.1246C28.5058 23.1246 28.5386 23.1164 28.5592 23.1082C28.5551 23.0918 28.551 23.0713 28.5428 23.0385C28.1408 21.6891 27.2631 19.4865 26.6109 19.3512C26.5945 19.3471 24.958 19.0189 21.0123 19.0599C17.0625 19.0189 15.426 19.3512 15.4095 19.3512C14.7574 19.4865 13.8756 21.6849 13.4736 23.0426C13.4654 23.0713 13.4613 23.0959 13.4613 23.1082C13.4777 23.1123 13.5146 23.1246 13.572 23.1246C13.5926 23.1246 13.6049 23.1205 13.6049 23.1205C16.2094 22.8662 20.9672 22.8621 21.0123 22.8621ZM26.5617 27.2426C26.533 27.181 26.3607 26.8775 25.483 26.7709C25.4584 26.7668 23.1943 26.4633 21.0164 26.4633C18.8385 26.4633 16.5703 26.7668 16.5498 26.7709C15.6638 26.8775 15.4957 27.1769 15.467 27.2385C16.1478 27.989 16.1806 29.7896 16.1806 29.8758C16.1806 29.884 16.1847 29.8881 16.197 29.8963C16.5211 30.126 19.7818 30.1424 21.0123 30.1301C22.2427 30.1424 25.5035 30.1301 25.8275 29.8963C25.8398 29.8881 25.8439 29.8799 25.8439 29.8758C25.848 29.7937 25.8808 27.9932 26.5617 27.2426ZM29.1867 28.1121C29.9004 28.1121 30.4787 27.5297 30.4787 26.816C30.4787 26.1023 29.8963 25.5199 29.1867 25.5199C28.473 25.5199 27.8906 26.1023 27.8906 26.816C27.8906 27.5338 28.473 28.1121 29.1867 28.1121ZM31.0693 29.3672C31.0693 29.0719 30.8314 28.8299 30.532 28.8299C30.2367 28.8299 29.9988 29.0678 29.9988 29.3672C29.9988 29.6625 30.2367 29.9045 30.532 29.9045C30.8273 29.9045 31.0693 29.6625 31.0693 29.3672ZM34.2726 10.4672H7.58787V12.3416H34.2726V10.4672ZM34.3588 12.965H7.6699V14.8394H34.3547V12.965H34.3588Z"
            fill="#2A2E43" />
    </g>
    <defs>
        <clipPath id="clip0_1_6">
            <rect width="42" height="42" fill="white" />
        </clipPath>
    </defs>
</svg>
