<svg width="90" height="90" viewBox="0 0 90 90" fill="none" xmlns="http://www.w3.org/2000/svg">
<g clip-path="url(#clip0_218_771)">
<path d="M22 63.53V30.92C22.0016 29.6149 22.521 28.3638 23.4442 27.4414C24.3674 26.5189 25.6189 26.0005 26.924 26H64.024C65.3289 26.0011 66.5801 26.5196 67.5032 27.442C68.4263 28.3643 68.9459 29.6151 68.948 30.92V63.53H65.665V30.92C65.6645 30.4852 65.4915 30.0684 65.1841 29.7609C64.8766 29.4535 64.4598 29.2805 64.025 29.28H26.924C26.4888 29.2803 26.0716 29.4531 25.7636 29.7605C25.4556 30.0679 25.2821 30.4849 25.281 30.92V63.53H22ZM61.636 57.53V62.682C61.6364 62.8224 61.6091 62.9614 61.5556 63.0912C61.5022 63.2211 61.4237 63.339 61.3245 63.4384C61.2254 63.5378 61.1077 63.6167 60.978 63.6705C60.8484 63.7243 60.7094 63.752 60.569 63.752H57.063C56.7794 63.7515 56.5075 63.6386 56.307 63.438C56.1064 63.2375 55.9935 62.9656 55.993 62.682V62.172C54.049 62.335 51.11 62.485 46.919 62.485C46.512 62.485 46.096 62.485 45.67 62.479C45.6136 62.5249 45.5427 62.5493 45.47 62.548C45.3993 62.5481 45.3308 62.5237 45.276 62.479C41.019 62.51 37.945 62.388 35.817 62.241C35.5311 62.1967 35.2423 62.1746 34.953 62.175V62.682C34.953 62.9658 34.8403 63.2379 34.6396 63.4386C34.4389 63.6393 34.1668 63.752 33.883 63.752H30.379C30.0957 63.7515 29.8241 63.6385 29.624 63.4378C29.424 63.2372 29.3117 62.9654 29.312 62.682V57.53C29.3117 57.4832 29.3219 57.4369 29.342 57.3947C29.3621 57.3524 29.3915 57.3153 29.428 57.286C29.187 53.918 29.318 51.812 29.8 51.433C29.9352 51.2808 30.0517 51.1129 30.147 50.933C30.1757 50.8855 30.2155 50.8457 30.263 50.817L30.269 50.748C30.2716 50.7109 30.2811 50.6746 30.297 50.641C30.36 50.506 30.391 50.416 30.391 50.416C30.748 49.371 31.812 49.177 32.263 48.907L32.078 48.459C31.9698 48.472 31.861 48.4784 31.752 48.478C31.4422 48.4737 31.1337 48.4358 30.832 48.365C30.5758 48.3291 30.3401 48.2052 30.1653 48.0146C29.9905 47.8239 29.8875 47.5783 29.874 47.32L29.88 47.254C30.096 46.008 31.617 45.908 31.764 45.902C31.9116 45.8867 32.0608 45.9011 32.2027 45.9446C32.3446 45.9881 32.4763 46.0596 32.59 46.155C32.9059 46.4712 33.0991 46.8895 33.135 47.335C33.16 47.529 33.191 47.704 33.226 47.855C34.356 45.605 35.282 44.021 35.292 44.005C36.309 42.155 37.539 42.005 37.712 41.999C40.2045 41.6715 42.7161 41.5115 45.23 41.52H45.277C45.3318 41.4753 45.4003 41.4509 45.471 41.451C45.5437 41.4497 45.6146 41.4741 45.671 41.52H45.718C48.2319 41.5117 50.7435 41.6718 53.236 41.999C53.342 41.999 54.613 42.109 55.662 44.015C55.662 44.015 56.579 45.583 57.718 47.856C57.752 47.703 57.787 47.524 57.812 47.324C57.8497 46.8827 58.0428 46.4692 58.357 46.157C58.4712 46.0603 58.6041 45.9882 58.7474 45.9452C58.8908 45.9021 59.0414 45.8892 59.19 45.907C59.353 45.913 60.855 46.02 61.071 47.256V47.322C61.0591 47.5832 60.9552 47.8317 60.7777 48.0237C60.6001 48.2157 60.3605 48.3387 60.101 48.371C59.803 48.4393 59.4987 48.4761 59.193 48.481C59.0854 48.4814 58.9778 48.475 58.871 48.462L58.683 48.913C59.14 49.185 60.198 49.379 60.555 50.428C60.561 50.437 60.593 50.522 60.649 50.644C60.6649 50.6776 60.6744 50.7139 60.677 50.751L60.683 50.82C60.7313 50.849 60.7713 50.8899 60.799 50.939C60.8965 51.1193 61.0154 51.2871 61.153 51.439C61.416 51.664 61.853 52.71 61.519 57.289C61.5549 57.3181 61.5839 57.3548 61.6038 57.3965C61.6237 57.4382 61.634 57.4838 61.634 57.53H61.636ZM32.511 57.655C32.511 57.5021 32.4657 57.3527 32.3807 57.2256C32.2958 57.0984 32.1751 56.9993 32.0338 56.9408C31.8926 56.8823 31.7371 56.867 31.5872 56.8969C31.4372 56.9267 31.2995 57.0003 31.1914 57.1084C31.0833 57.2165 31.0097 57.3542 30.9799 57.5042C30.95 57.6541 30.9653 57.8096 31.0238 57.9508C31.0823 58.0921 31.1814 58.2128 31.3085 58.2977C31.4357 58.3827 31.5851 58.428 31.738 58.428C31.8396 58.428 31.9402 58.408 32.034 58.369C32.1279 58.3301 32.2132 58.2731 32.285 58.2012C32.3567 58.1293 32.4137 58.044 32.4524 57.9501C32.4912 57.8562 32.5111 57.7556 32.511 57.654V57.655ZM35.55 53.977C35.55 53.6073 35.4404 53.246 35.235 52.9386C35.0296 52.6313 34.7377 52.3917 34.3962 52.2503C34.0547 52.1088 33.6789 52.0718 33.3164 52.1439C32.9538 52.216 32.6208 52.394 32.3594 52.6554C32.098 52.9168 31.92 53.2498 31.8479 53.6124C31.7758 53.9749 31.8128 54.3507 31.9543 54.6922C32.0957 55.0337 32.3353 55.3256 32.6426 55.531C32.95 55.7364 33.3113 55.846 33.681 55.846C34.1766 55.8452 34.6517 55.6479 35.0021 55.2974C35.3524 54.9468 35.5495 54.4716 35.55 53.976V53.977ZM45.472 48.271C45.541 48.271 52.405 48.271 56.152 48.644H56.211C56.2641 48.6459 56.3171 48.6374 56.367 48.619C56.3619 48.5852 56.3546 48.5518 56.345 48.519C55.769 46.569 54.498 43.395 53.556 43.201C50.8814 42.8153 48.1773 42.6737 45.477 42.778H45.471C42.7697 42.6737 40.0646 42.8152 37.389 43.201C36.447 43.395 35.179 46.569 34.597 48.525C34.588 48.569 34.581 48.6 34.578 48.625C34.6297 48.6413 34.6838 48.6487 34.738 48.647H34.788C38.542 48.273 45.407 48.27 45.472 48.27V48.271ZM53.479 54.584C53.441 54.496 53.191 54.058 51.923 53.908C49.7842 53.6341 47.6312 53.4858 45.475 53.464C43.3198 53.4854 41.1678 53.6337 39.03 53.908C37.753 54.058 37.506 54.493 37.468 54.584C38.451 55.67 38.501 58.268 38.501 58.384C38.501 58.393 38.51 58.403 38.526 58.415C38.996 58.747 43.7 58.769 45.472 58.75V58.797V58.75C47.247 58.769 51.951 58.75 52.418 58.415C52.437 58.402 52.446 58.393 52.446 58.384C52.449 58.268 52.499 55.673 53.479 54.584ZM57.266 55.845C57.6358 55.8456 57.9974 55.7365 58.3052 55.5315C58.6129 55.3265 58.8529 55.0348 58.9949 54.6933C59.1368 54.3519 59.1742 53.976 59.1025 53.6132C59.0307 53.2505 58.8529 52.9172 58.5916 52.6555C58.3304 52.3938 57.9974 52.2155 57.6347 52.1431C57.2721 52.0708 56.8961 52.1076 56.5545 52.249C56.2128 52.3904 55.9207 52.6299 55.7152 52.9373C55.5097 53.2447 55.4 53.6062 55.4 53.976C55.4005 54.471 55.5972 54.9456 55.9469 55.2959C56.2967 55.6462 56.771 55.8437 57.266 55.845ZM59.983 57.654C59.983 57.5011 59.9377 57.3517 59.8527 57.2245C59.7678 57.0974 59.6471 56.9984 59.5058 56.9398C59.3646 56.8813 59.2091 56.866 59.0592 56.8958C58.9092 56.9257 58.7715 56.9993 58.6634 57.1074C58.5553 57.2155 58.4817 57.3533 58.4519 57.5032C58.422 57.6532 58.4373 57.8086 58.4958 57.9498C58.5543 58.091 58.6534 58.2118 58.7805 58.2967C58.9077 58.3817 59.0571 58.427 59.21 58.427C59.4148 58.4265 59.6112 58.3449 59.756 58.2C59.9009 58.0552 59.9825 57.8588 59.983 57.654ZM64.609 30.379H26.104V33.079H64.61L64.609 30.379ZM64.728 33.985H26.222V36.685H64.728V33.985Z" fill="#000D20"/>
</g>
<path fill-rule="evenodd" clip-rule="evenodd" d="M80 1H10C5.02944 1 1 5.02944 1 10V80C1 84.9706 5.02944 89 10 89H80C84.9706 89 89 84.9706 89 80V10C89 5.02944 84.9706 1 80 1ZM10 0C4.47715 0 0 4.47715 0 10V80C0 85.5229 4.47715 90 10 90H80C85.5229 90 90 85.5229 90 80V10C90 4.47715 85.5229 0 80 0H10Z" fill="#1A2730"/>
<defs>
<clipPath id="clip0_218_771">
<rect width="46.951" height="37.751" fill="white" transform="translate(22 26)"/>
</clipPath>
</defs>
</svg>
