<svg width="90" height="90" viewBox="0 0 90 90" fill="none" xmlns="http://www.w3.org/2000/svg">
<path fill-rule="evenodd" clip-rule="evenodd" d="M80 1H10C5.02944 1 1 5.02944 1 10V80C1 84.9706 5.02944 89 10 89H80C84.9706 89 89 84.9706 89 80V10C89 5.02944 84.9706 1 80 1ZM10 0C4.47715 0 0 4.47715 0 10V80C0 85.5229 4.47715 90 10 90H80C85.5229 90 90 85.5229 90 80V10C90 4.47715 85.5229 0 80 0H10Z" fill="#1A2730"/>
<path d="M67.2839 41.5881L51.939 28.2831C50.1629 26.7897 47.9114 25.981 45.5911 26.0031H26.5281C26.1501 25.9783 25.7776 26.1037 25.4915 26.3519C25.2054 26.6002 25.0287 26.9514 25 27.3291V62.8681C25.0289 63.2456 25.2056 63.5965 25.4917 63.8446C25.7778 64.0927 26.1502 64.2179 26.5281 64.1931H58.406C59.3973 64.2329 60.376 63.9607 61.2043 63.4148C62.0327 62.8688 62.6687 62.0767 63.0229 61.1501L68.2581 44.8041C68.4339 44.2319 68.435 43.6204 68.2615 43.0475C68.088 42.4747 67.7476 41.9666 67.2839 41.5881ZM38.8469 47.8381C38.818 48.2156 38.6413 48.5665 38.3552 48.8146C38.0691 49.0627 37.6969 49.1879 37.3191 49.1631H32.106C31.7281 49.1882 31.3555 49.063 31.0693 48.8149C30.7832 48.5668 30.6068 48.2157 30.5781 47.8381C30.6068 47.4604 30.7832 47.1094 31.0693 46.8613C31.3555 46.6131 31.7281 46.488 32.106 46.5131H37.3201C37.6979 46.4883 38.0701 46.6135 38.3562 46.8616C38.6423 47.1096 38.819 47.4605 38.8479 47.8381H38.8469ZM56.947 42.6631H32.106C31.7281 42.6882 31.3555 42.563 31.0693 42.3149C30.7832 42.0668 30.6068 41.7157 30.5781 41.3381V32.1631C30.6068 31.7854 30.7832 31.4344 31.0693 31.1863C31.3555 30.9381 31.7281 30.813 32.106 30.8381H43.283C45.603 30.816 47.8545 31.6247 49.6301 33.1181L58.03 40.4021C58.992 41.2361 58.306 42.6631 56.949 42.6631H56.947Z" fill="#1A2730"/>
<g clip-path="url(#clip0_580_7)">
<path d="M48.5231 35.0763L48.4237 35.151L46.5349 36.5594L43.2522 35.6019L43.1419 35.5696L42.9439 35.6003L41.2035 35.8689L41.7836 34.414L41.9311 34.0426L41.5996 33.9158L40.2603 33.4051L41.6419 32L39.6528 33.3264L39.4017 33.4922L39.7075 33.6828L40.7899 34.3584L39.7954 35.8415L35.7667 33.6032L35.601 33.5112L35.4725 33.5585L32 34.7497L35.4667 34.1413L38.8589 36.8645L37.5585 38.2447L37.3265 38.4934L37.4375 38.6484L38.3948 39.9897L38.3119 38.7263L39.8053 37.8029L40.1368 38.4014L40.2719 38.6434L40.4302 38.7006L43.5729 39.8297L43.8066 41.6825L44.0594 39.678L44.0727 39.5736L43.9342 39.4824L41.2988 37.8858L41.1239 37.2441L43.1345 36.6788L46.5225 37.2383L46.7554 37.2765L46.878 37.1554L48.6135 35.4477L51.0616 36.0952L48.6193 35.1153L48.5231 35.0763Z" fill="#1A2730"/>
</g>
<defs>
<clipPath id="clip0_580_7">
<rect width="19.0633" height="9.68" fill="white" transform="translate(32 32)"/>
</clipPath>
</defs>
</svg>
