<svg width="42" height="42" viewBox="0 0 42 42" fill="none" xmlns="http://www.w3.org/2000/svg">
<circle cx="21" cy="21" r="21" fill="#F4F4F5"/>
<path d="M29.8782 29.7227C32.119 27.447 33.375 24.3813 33.375 21.1876C33.375 17.9938 32.119 14.9281 29.8782 12.6524C29.8332 12.5942 29.781 12.542 29.7228 12.4969C27.4471 10.256 24.3814 9 21.1876 9C17.9937 9 14.928 10.256 12.6523 12.4969C12.5941 12.542 12.5418 12.5942 12.4968 12.6524C10.256 14.9281 9 17.9938 9 21.1876C9 24.3813 10.256 27.447 12.4968 29.7227C12.5195 29.7516 12.5438 29.7793 12.5697 29.8054C12.5958 29.8313 12.6235 29.8556 12.6524 29.8782C14.9281 32.119 17.9938 33.375 21.1876 33.375C24.3813 33.375 27.447 32.119 29.7227 29.8782C29.7517 29.8556 29.7793 29.8313 29.8054 29.8055C29.8313 29.7793 29.8556 29.7517 29.8783 29.7227H29.8782ZM29.1089 27.783L25.7698 24.444C26.448 23.4936 26.8126 22.3551 26.8126 21.1876C26.8126 20.02 26.448 18.8815 25.7698 17.9312L29.1089 14.5921C30.6538 16.4427 31.5 18.7769 31.5 21.1876C31.5 23.5982 30.6538 25.9324 29.1089 27.783ZM17.4376 21.1876C17.4376 20.4459 17.6575 19.7209 18.0695 19.1042C18.4816 18.4875 19.0673 18.0068 19.7525 17.723C20.4377 17.4392 21.1917 17.3649 21.9191 17.5096C22.6466 17.6543 23.3148 18.0115 23.8392 18.5359C24.3637 19.0604 24.7208 19.7285 24.8655 20.456C25.0102 21.1834 24.9359 21.9374 24.6521 22.6226C24.3683 23.3078 23.8876 23.8935 23.2709 24.3056C22.6543 24.7176 21.9292 24.9376 21.1876 24.9376C20.1934 24.9364 19.2402 24.541 18.5372 23.8379C17.8342 23.1349 17.4387 22.1818 17.4376 21.1876ZM27.7829 13.2663L24.444 16.6053C23.4936 15.9271 22.3551 15.5625 21.1876 15.5625C20.02 15.5625 18.8815 15.9271 17.9312 16.6053L14.5922 13.2663C16.4428 11.7213 18.777 10.8751 21.1877 10.8751C23.5984 10.8751 25.9325 11.7213 27.7831 13.2663H27.7829ZM13.2664 14.5921L16.6054 17.9312C15.9272 18.8815 15.5626 20.02 15.5626 21.1876C15.5626 22.3551 15.9272 23.4936 16.6054 24.444L13.2663 27.7829C11.7213 25.9323 10.8751 23.5981 10.8751 21.1874C10.8751 18.7768 11.7213 16.4426 13.2663 14.592L13.2664 14.5921ZM14.5922 29.1088L17.9313 25.7698C18.8817 26.448 20.0201 26.8126 21.1877 26.8126C22.3553 26.8126 23.4937 26.448 24.4441 25.7698L27.7831 29.1088C25.9325 30.6538 23.5984 31.5 21.1877 31.5C18.777 31.5 16.4428 30.6538 14.5922 29.1088Z" fill="#2A2E43"/>
</svg>
