<svg width="42" height="42" viewBox="0 0 42 42" fill="none" xmlns="http://www.w3.org/2000/svg">
<path d="M21 42C32.598 42 42 32.598 42 21C42 9.40202 32.598 0 21 0C9.40202 0 0 9.40202 0 21C0 32.598 9.40202 42 21 42Z" fill="#F4F4F5"/>
<path d="M34.8931 16.3196C32.8118 10.1502 27.0445 6 20.5352 6C18.8933 6 17.2639 6.2695 15.6925 6.79605C11.9859 8.04403 8.93851 10.6395 7.11837 14.1098C7.11008 14.1264 6.91107 14.5451 7.04789 14.968C7.18885 15.4075 7.59517 15.7019 8.06368 15.7019C8.17977 15.7019 8.29586 15.6853 8.40781 15.648C8.6856 15.5526 8.90534 15.3578 9.03387 15.0924C10.5969 12.1279 13.2048 9.90977 16.3808 8.83593C17.7282 8.38401 19.1255 8.15183 20.5352 8.15183C26.1199 8.15183 31.0704 11.7092 32.8532 17.0038C33.9644 20.2958 33.7239 23.8199 32.1815 26.9295C30.6392 30.0391 27.9774 32.3651 24.6854 33.4721C23.3379 33.924 21.9407 34.1562 20.5352 34.1562C18.8311 34.1562 17.1644 33.8245 15.5806 33.1694C15.5391 33.1487 15.3152 33.0575 15.0499 33.0575C14.9338 33.0575 14.8218 33.074 14.7223 33.1114C14.4445 33.2109 14.2123 33.4182 14.088 33.6794C13.9677 33.9323 13.9553 34.2142 14.0507 34.4754C14.1999 34.8817 14.5855 35.0973 14.7265 35.1429C16.5839 35.9141 18.5409 36.308 20.5393 36.308C22.1812 36.308 23.8064 36.0385 25.3778 35.5119C29.2129 34.2184 32.3184 31.511 34.1136 27.8831C35.9089 24.2677 36.1867 20.1548 34.8931 16.3196Z" fill="#2A2E43"/>
<path d="M14.2017 30.4678C12.933 29.2157 11.6643 27.9636 10.3956 26.7115C10.2132 26.5332 10.0349 26.3549 9.85245 26.1766C9.39638 25.7247 8.69154 26.4295 9.14761 26.8815C10.4163 28.1336 11.685 29.3857 12.9537 30.6378C13.1362 30.8161 13.3144 30.9944 13.4969 31.1727C13.9571 31.6246 14.6578 30.9198 14.2017 30.4678Z" fill="#2A2E43"/>
<path d="M9.88148 31.2017C11.1336 29.933 12.3857 28.6643 13.6378 27.3956C13.8161 27.2132 13.9944 27.0349 14.1727 26.8525C14.6246 26.3964 13.9198 25.6915 13.4679 26.1476C12.2157 27.4163 10.9636 28.685 9.71149 29.9537C9.53321 30.1362 9.35492 30.3144 9.17664 30.4969C8.72886 30.9571 9.4337 31.6578 9.88148 31.2017Z" fill="#2A2E43"/>
<path d="M6.25036 20.3998C6.16744 20.3127 5.98087 20.1054 6.0016 20.0432L6.00989 20.0225V19.9976C6.00574 19.8898 6.155 19.6245 6.40377 19.3716C6.64424 19.127 6.85569 19.0233 6.93861 19.0316C7.1625 19.2057 7.53565 19.6411 7.78442 19.9354C7.90051 20.0723 7.99587 20.1801 8.04562 20.2298L8.05806 20.2422L8.07465 20.2505C8.1244 20.2754 8.19074 20.2837 8.24464 20.2713C8.2861 20.263 8.3317 20.2423 8.37317 20.1842C8.48926 20.0474 8.62193 19.8981 8.75461 19.7447C8.89143 19.5913 9.0324 19.4296 9.15263 19.2845C9.42213 18.9777 9.81601 18.6211 10.1974 18.2811C10.3467 18.1485 10.5001 18.0075 10.6411 17.879C10.8567 17.68 11.0723 17.5183 11.3501 17.311C11.4703 17.2197 11.6071 17.1202 11.7605 17.0041C11.7771 17 11.7854 17 11.7937 17C11.7978 17 11.802 17.0041 11.802 17.0041C11.8103 17.0083 11.8227 17.0166 11.8393 17.0249C11.9388 17.0829 12.0093 17.1285 12.1337 17.3649C12.3327 17.7504 12.2788 17.8002 12.171 17.908C11.263 18.7331 10.2389 20.0391 9.41798 21.0881C9.31018 21.2249 9.20653 21.3617 9.10288 21.4902C9.04483 21.569 8.96606 21.6727 8.87899 21.7887C8.78363 21.9173 8.67998 22.0582 8.58876 22.1826C8.4395 22.3816 8.36902 22.4397 8.2778 22.4397C8.25707 22.4397 8.22805 22.4355 8.19903 22.4272L8.18245 22.4231H8.1783C8.12855 22.4024 7.99587 22.2614 7.88807 22.1495L7.84246 22.0997C7.63101 21.88 7.10446 21.3285 6.81838 21.0051C6.72302 20.8973 6.55303 20.7149 6.41621 20.5656C6.34987 20.5076 6.29182 20.4454 6.25036 20.3998Z" fill="#2A2E43"/>
<path d="M24.9323 24.2951C23.5312 23.1963 22.1353 22.0974 20.7342 20.9985C20.5348 20.8439 20.3354 20.6852 20.1412 20.5306C19.6742 20.1629 18.824 20.1295 18.3623 20.5306C17.9057 20.9275 17.8585 21.5542 18.3623 21.947C19.7634 23.0459 21.1592 24.1447 22.5603 25.2436C22.7598 25.3982 22.9592 25.557 23.1533 25.7116C23.6204 26.0792 24.4705 26.1127 24.9323 25.7116C25.3888 25.3146 25.4308 24.6879 24.9323 24.2951Z" fill="#2A2E43"/>
<path d="M20.1412 21.9512C20.8759 21.3579 21.6053 20.7687 22.3399 20.1754C23.5049 19.2353 24.6646 18.2994 25.8296 17.3593C26.0972 17.142 26.3701 16.9248 26.6377 16.7033C27.0995 16.3315 27.1415 15.6546 26.6377 15.2869C26.1392 14.9234 25.3521 14.8858 24.8588 15.2869C24.1241 15.8802 23.3947 16.4693 22.66 17.0626C21.4951 18.0027 20.3354 18.9387 19.1704 19.8788C18.9028 20.096 18.6299 20.3133 18.3623 20.5348C17.9005 20.9066 17.8585 21.5835 18.3623 21.9512C18.8555 22.3147 19.6427 22.3481 20.1412 21.9512Z" fill="#2A2E43"/>
</svg>
