<svg width="42" height="42" viewBox="0 0 42 42" fill="none" xmlns="http://www.w3.org/2000/svg">
<circle cx="21" cy="21" r="21" fill="#F4F4F5"/>
<path d="M21.1875 9C18.777 9 16.4207 9.71478 14.4165 11.054C12.4123 12.3931 10.8502 14.2966 9.92772 16.5235C9.00528 18.7505 8.76393 21.201 9.23418 23.5652C9.70444 25.9293 10.8652 28.1009 12.5696 29.8054C14.2741 31.5098 16.4457 32.6706 18.8098 33.1408C21.174 33.6111 23.6245 33.3697 25.8515 32.4473C28.0784 31.5248 29.9819 29.9627 31.321 27.9585C32.6602 25.9543 33.375 23.598 33.375 21.1875C33.3713 17.9563 32.0861 14.8585 29.8013 12.5737C27.5165 10.2889 24.4187 9.00366 21.1875 9ZM21.1875 31.5C19.1479 31.5 17.1541 30.8952 15.4582 29.762C13.7623 28.6289 12.4405 27.0183 11.66 25.1339C10.8795 23.2496 10.6752 21.1761 11.0732 19.1756C11.4711 17.1752 12.4532 15.3377 13.8955 13.8955C15.3377 12.4532 17.1752 11.4711 19.1756 11.0732C21.1761 10.6752 23.2496 10.8795 25.1339 11.66C27.0183 12.4405 28.6289 13.7623 29.762 15.4582C30.8952 17.1541 31.5 19.1479 31.5 21.1875C31.4969 23.9216 30.4094 26.5428 28.4761 28.4761C26.5428 30.4094 23.9216 31.4969 21.1875 31.5ZM23.0625 26.8125C23.0625 27.0611 22.9637 27.2996 22.7879 27.4754C22.6121 27.6512 22.3736 27.75 22.125 27.75H21.1875C20.9389 27.75 20.7004 27.6512 20.5246 27.4754C20.3488 27.2996 20.25 27.0611 20.25 26.8125V21.1875C20.0014 21.1875 19.7629 21.0887 19.5871 20.9129C19.4113 20.7371 19.3125 20.4986 19.3125 20.25C19.3125 20.0014 19.4113 19.7629 19.5871 19.5871C19.7629 19.4113 20.0014 19.3125 20.25 19.3125H21.1875C21.4361 19.3125 21.6746 19.4113 21.8504 19.5871C22.0262 19.7629 22.125 20.0014 22.125 20.25V25.875C22.3736 25.875 22.6121 25.9738 22.7879 26.1496C22.9637 26.3254 23.0625 26.5639 23.0625 26.8125ZM20.1931 17.0256C20.0295 16.8621 19.9089 16.6607 19.8418 16.4394C19.7747 16.2181 19.7632 15.9837 19.8083 15.7569C19.8534 15.5301 19.9538 15.3179 20.1005 15.1391C20.2472 14.9604 20.4357 14.8206 20.6494 14.7321C20.863 14.6436 21.0952 14.6092 21.3254 14.6318C21.5555 14.6545 21.7765 14.7336 21.9688 14.862C22.161 14.9905 22.3187 15.1644 22.4277 15.3684C22.5367 15.5723 22.5937 15.8 22.5938 16.0312V16.0317C22.5937 16.3098 22.5111 16.5817 22.3566 16.8129C22.202 17.0441 21.9824 17.2242 21.7254 17.3306C21.4685 17.437 21.1857 17.4648 20.913 17.4105C20.6402 17.3562 20.3897 17.2223 20.1931 17.0256Z" fill="#2A2E43"/>
</svg>
