<svg width="90" height="90" viewBox="0 0 90 90" fill="none" xmlns="http://www.w3.org/2000/svg">
<path fill-rule="evenodd" clip-rule="evenodd" d="M80 1H10C5.02944 1 1 5.02944 1 10V80C1 84.9706 5.02944 89 10 89H80C84.9706 89 89 84.9706 89 80V10C89 5.02944 84.9706 1 80 1ZM10 0C4.47715 0 0 4.47715 0 10V80C0 85.5229 4.47715 90 10 90H80C85.5229 90 90 85.5229 90 80V10C90 4.47715 85.5229 0 80 0H10Z" fill="#1A2730"/>
<path fill-rule="evenodd" clip-rule="evenodd" d="M46.715 43.9106C46.341 43.8766 45.825 43.9726 45.609 43.5456C45.416 43.1646 45.777 42.9606 46.066 42.7086C46.2004 42.621 46.3107 42.5013 46.3871 42.3603C46.4635 42.2193 46.5035 42.0615 46.5035 41.9011C46.5035 41.7408 46.4635 41.5829 46.3871 41.4419C46.3107 41.3009 46.2004 41.1812 46.066 41.0936C45.434 40.5046 45.466 40.1406 46.495 39.9096C48.006 39.5696 48.231 38.4096 47.172 37.4326C46.351 36.6746 45.538 35.8526 45.706 34.6636C45.775 34.1736 45.8 33.8026 46.506 33.7556C47.044 33.7176 47.052 33.3376 47.143 33.0116C47.5595 31.6511 47.8642 30.2588 48.054 28.8486C48.0974 28.5455 48.1738 28.2481 48.282 27.9616C48.4277 27.7153 48.6219 27.5013 48.8529 27.3325C49.0839 27.1637 49.3469 27.0436 49.6258 26.9797C49.9047 26.9158 50.1937 26.9094 50.4752 26.9608C50.7566 27.0122 51.0247 27.1203 51.263 27.2786C51.539 27.4896 51.422 27.7686 51.412 28.0366C51.2049 29.5435 50.9044 31.0361 50.512 32.5056C50.373 33.3826 50.277 34.1696 51.442 34.6596C51.535 34.694 51.6197 34.7478 51.6903 34.8174C51.761 34.887 51.8161 34.9708 51.8519 35.0632C51.8878 35.1557 51.9035 35.2547 51.8982 35.3538C51.8929 35.4528 51.8666 35.5495 51.821 35.6376C51.754 35.874 51.6137 36.083 51.4203 36.2347C51.227 36.3863 50.9906 36.4728 50.745 36.4816C49.745 36.4816 49.574 37.0176 49.445 37.6526C49.103 39.3076 48.78 40.9676 48.384 42.6156C48.13 43.6866 47.789 43.9116 46.715 43.9106ZM42.905 43.9106C43.279 43.8766 43.793 43.9726 44.005 43.5456C44.198 43.1646 43.839 42.9606 43.549 42.7086C43.4145 42.6212 43.3039 42.5016 43.2274 42.3605C43.1508 42.2195 43.1107 42.0616 43.1107 41.9011C43.1107 41.7407 43.1508 41.5828 43.2274 41.4417C43.3039 41.3007 43.4145 41.1811 43.549 41.0936C44.179 40.5046 44.149 40.1406 43.12 39.9096C41.607 39.5696 41.383 38.4096 42.443 37.4326C43.264 36.6746 44.077 35.8526 43.909 34.6636C43.84 34.1736 43.815 33.8026 43.109 33.7556C42.57 33.7176 42.561 33.3376 42.471 33.0116C42.0546 31.6511 41.7499 30.2588 41.56 28.8486C41.5182 28.5454 41.4424 28.2479 41.334 27.9616C41.1882 27.7154 40.9938 27.5014 40.7627 27.3327C40.5316 27.164 40.2686 27.044 39.9896 26.9801C39.7107 26.9162 39.4217 26.9098 39.1402 26.9611C38.8586 27.0124 38.5905 27.1204 38.352 27.2786C38.077 27.4896 38.195 27.7686 38.203 28.0366C38.4109 29.5434 38.7115 31.0359 39.103 32.5056C39.244 33.3826 39.338 34.1696 38.173 34.6596C38.08 34.694 37.9954 34.7478 37.9247 34.8174C37.8541 34.887 37.799 34.9708 37.7632 35.0632C37.7273 35.1557 37.7115 35.2547 37.7169 35.3538C37.7222 35.4528 37.7485 35.5495 37.794 35.6376C37.8617 35.8739 38.0023 36.0827 38.1957 36.2342C38.3891 36.3858 38.6255 36.4724 38.871 36.4816C39.871 36.4816 40.042 37.0176 40.171 37.6526C40.511 39.3076 40.836 40.9676 41.23 42.6156C41.489 43.6866 41.836 43.9116 42.905 43.9106ZM32.033 30.7336C32.8739 32.2285 33.8144 33.665 34.848 35.0336C36.393 37.2236 37.695 39.4536 36.284 42.0116C36.2459 42.0583 36.2207 42.1141 36.2109 42.1735C36.2011 42.2329 36.2071 42.2939 36.2282 42.3503C36.2494 42.4067 36.285 42.4565 36.3315 42.4948C36.3779 42.5332 36.4336 42.5586 36.493 42.5686C36.6668 42.6436 36.8592 42.6639 37.0448 42.6269C37.2303 42.5899 37.4003 42.4974 37.532 42.3616C37.9356 41.8713 38.1995 41.2813 38.296 40.6536C38.581 38.0986 37.128 35.9686 35.65 33.8306C34.633 32.3596 33.361 30.9716 33.185 29.2246C32.971 27.0626 35.313 25.6356 37.958 26.3396C38.298 26.4296 38.658 26.4836 39.01 26.5396C39.251 26.5806 39.51 26.5926 39.65 26.3956C39.813 26.1736 39.672 25.9326 39.504 25.7496C39.2779 25.5509 39.0062 25.4111 38.713 25.3426C35.545 24.2536 31.358 25.8336 31.649 29.1726C31.6945 29.7099 31.8241 30.2366 32.033 30.7336ZM58.4 29.1716C58.69 25.8326 54.5 24.2526 51.336 25.3416C51.0423 25.41 50.7699 25.5498 50.543 25.7486C50.377 25.9316 50.235 26.1726 50.399 26.3946C50.541 26.5946 50.799 26.5796 51.039 26.5386C51.393 26.4786 51.751 26.4236 52.091 26.3386C54.737 25.6386 57.079 27.0616 56.863 29.2236C56.689 30.9716 55.417 32.3596 54.398 33.8296C52.922 35.9676 51.469 38.0976 51.754 40.6526C51.8493 41.2812 52.1126 41.8723 52.516 42.3636C52.6479 42.4993 52.8178 42.5917 53.0034 42.6287C53.1889 42.6657 53.3813 42.6454 53.555 42.5706C53.6146 42.5609 53.6706 42.5357 53.7173 42.4975C53.764 42.4593 53.7998 42.4094 53.8212 42.353C53.8426 42.2966 53.8488 42.2355 53.8391 42.1759C53.8294 42.1164 53.8042 42.0604 53.766 42.0136C52.354 39.4556 53.655 37.2256 55.2 35.0356C56.234 33.667 57.1748 32.2305 58.016 30.7356C58.2245 30.2374 58.354 29.7097 58.4 29.1716Z" fill="#1A2730"/>
<path d="M38.8409 45.2793H33.9419V47.3373H38.8409V45.2793Z" fill="#1A2730"/>
<path d="M55.4469 45.2793H50.3499V47.3373H55.4469V45.2793Z" fill="#1A2730"/>
<path d="M30 47.9492V65.8122H60.053V47.9492H30ZM49.786 56.7602L42.931 64.9702L47.055 57.2702L42.182 57.4952L40.082 57.5952L40.573 56.1952L42.751 49.9882H47.97L44.521 55.5762L48.705 55.7712L50.533 55.8552L49.786 56.7602Z" fill="#1A2730"/>
</svg>
