<svg width="90" height="90" viewBox="0 0 90 90" fill="none" xmlns="http://www.w3.org/2000/svg">
<path fill-rule="evenodd" clip-rule="evenodd" d="M80 1H10C5.02944 1 1 5.02944 1 10V80C1 84.9706 5.02944 89 10 89H80C84.9706 89 89 84.9706 89 80V10C89 5.02944 84.9706 1 80 1ZM10 0C4.47715 0 0 4.47715 0 10V80C0 85.5229 4.47715 90 10 90H80C85.5229 90 90 85.5229 90 80V10C90 4.47715 85.5229 0 80 0H10Z" fill="#1A2730"/>
<g clip-path="url(#clip0_536_169)">
<path d="M57.044 51.5529C56.819 51.5752 56.5961 51.6143 56.377 51.6699L55.6771 51.8699C55.0284 52.051 54.4338 52.3878 53.945 52.851L53.3171 53.4559L51.872 54.117C51.6925 54.1983 51.5338 54.3193 51.408 54.471C51.3732 54.5112 51.3537 54.5622 51.3526 54.6154C51.3515 54.6685 51.369 54.7204 51.402 54.762L51.65 55.0889L52.1661 54.968L52.331 54.861L52.488 55.018C52.5812 55.1061 52.696 55.1682 52.8208 55.1978C52.9457 55.2275 53.0761 55.2238 53.199 55.187C53.3161 55.1588 53.422 55.0961 53.503 55.0069C53.584 54.9177 53.6363 54.8062 53.653 54.687L53.672 54.4869H53.872L57.5721 53.427H57.58L57.841 53.353L57.954 53.453C58.0379 53.5254 58.1386 53.5757 58.2469 53.5993C58.3552 53.6229 58.4676 53.619 58.574 53.588C58.6999 53.5603 58.8109 53.4863 58.8849 53.3808C58.959 53.2753 58.9908 53.1458 58.974 53.018L58.944 52.846L59.211 52.754L59.264 52.728L59.278 52.723C59.3321 52.7046 59.379 52.6696 59.412 52.6229C59.4285 52.5986 59.4394 52.571 59.444 52.5419C59.4628 52.437 59.4982 52.3357 59.549 52.242L59.587 52.171C59.5873 52.1574 59.5845 52.1439 59.5788 52.1316C59.5731 52.1193 59.5646 52.1084 59.554 52.0999C59.3822 51.9628 59.2614 51.7719 59.211 51.5579C59.1849 51.5595 59.1591 51.5638 59.134 51.5709L58.743 51.6829C58.6819 51.7002 58.6179 51.7046 58.555 51.6959H58.545L58.216 51.6259C57.8484 51.5459 57.471 51.5207 57.096 51.551L57.044 51.5529Z" fill="#1A2730"/>
<path d="M51.8658 43.9393C51.7514 43.9626 51.6433 44.0098 51.5483 44.0778C51.4534 44.1457 51.3739 44.233 51.3149 44.3338C51.256 44.4345 51.2189 44.5466 51.2062 44.6626C51.1934 44.7787 51.2052 44.8961 51.2408 45.0073L53.0998 44.4743C52.9939 44.2507 52.8103 44.0733 52.5834 43.9749C52.3564 43.8765 52.1014 43.8638 51.8658 43.9393Z" fill="#1A2730"/>
<path d="M36.216 48.5959L33.7 48.1419C33.6522 48.1266 33.6003 48.1297 33.5547 48.1508C33.5092 48.172 33.4731 48.2095 33.4539 48.2559L32.614 51.7559C32.5333 52.0937 32.5789 52.4493 32.742 52.7559C33.0423 53.3372 33.1233 54.0073 32.9704 54.6435C32.8175 55.2797 32.4407 55.8396 31.909 56.2209C31.6223 56.438 31.4181 56.7463 31.33 57.0949L30.8019 59.2889C30.7216 59.6268 30.7675 59.9824 30.931 60.2889C31.2313 60.8702 31.3123 61.5403 31.1594 62.1765C31.0064 62.8127 30.6297 63.3726 30.098 63.7539C29.811 63.9714 29.6065 64.2799 29.518 64.6289L28.887 67.2569C28.8065 67.5947 28.852 67.9503 29.015 68.2569L30.072 70.2709C30.0927 70.3077 30.1215 70.3394 30.1561 70.3636C30.1907 70.3878 30.2304 70.404 30.272 70.4109L31.15 70.5699L36.3859 48.7779C36.4059 48.6959 36.329 48.6119 36.216 48.5959Z" fill="#1A2730"/>
<path d="M40.2451 49.3203L37.7291 48.8662C37.6814 48.8511 37.6298 48.8545 37.5845 48.8756C37.5391 48.8967 37.5033 48.934 37.4841 48.9802L32.2471 70.7733L33.1241 70.9323C33.1676 70.9404 33.2122 70.9395 33.2552 70.9295C33.2983 70.9195 33.3388 70.9007 33.3741 70.8742L35.2742 69.3933C35.5606 69.1755 35.7646 68.867 35.8531 68.5183L36.4851 65.8892C36.5655 65.5513 36.5196 65.1957 36.3561 64.8892C36.0558 64.3079 35.9747 63.6379 36.1277 63.0017C36.2806 62.3655 36.6574 61.8056 37.1891 61.4243C37.4759 61.2067 37.6805 60.8982 37.7692 60.5493L38.2961 58.3552C38.3762 58.0174 38.3307 57.662 38.1681 57.3552C37.8675 56.774 37.7862 56.1041 37.939 55.4678C38.0917 54.8316 38.4684 54.2716 39.0001 53.8903C39.2868 53.6727 39.491 53.3642 39.5791 53.0153L40.4191 49.5153C40.4391 49.4263 40.3611 49.3413 40.2451 49.3203Z" fill="#1A2730"/>
<path d="M40.3432 43.9899C40.2521 43.6851 40.241 43.3619 40.3111 43.0516C40.3812 42.7412 40.5299 42.4541 40.7431 42.218C39.9415 41.771 39.1966 41.2294 38.5241 40.6049C37.4725 40.4254 36.4008 40.3968 35.3411 40.52C34.9762 40.5925 34.5973 40.5242 34.2807 40.3289C33.9641 40.1335 33.733 39.8256 33.6341 39.4669C33.6113 39.2891 33.6252 39.1084 33.6747 38.9361C33.7243 38.7638 33.8085 38.6034 33.9223 38.4648C34.0361 38.3262 34.177 38.2124 34.3364 38.1302C34.4957 38.048 34.6703 37.9992 34.8492 37.9869C36.4032 37.7999 37.9768 37.857 39.5131 38.1559C41.0335 38.4053 42.5037 38.8983 43.8671 39.616C43.9207 39.6462 43.9725 39.6795 44.0222 39.7159C45.0383 39.1853 46.0891 38.7236 47.1672 38.3339C46.2841 37.3265 45.1181 36.6084 43.8211 36.2729C42.6901 35.9669 41.4702 35.6849 40.1662 35.4499C38.8622 35.2149 37.6112 35.0499 36.4332 34.9379C33.0272 34.6189 29.9012 36.6019 29.2032 39.5099L28.1431 43.921C27.9019 45.0344 28.0177 46.1955 28.4741 47.2394C28.9304 48.2833 29.704 49.1568 30.6851 49.736L31.8371 50.481C31.8655 50.5002 31.8979 50.5126 31.9318 50.5174C31.9658 50.5221 32.0003 50.519 32.0329 50.5083C32.0655 50.4976 32.0952 50.4795 32.1197 50.4556C32.1442 50.4316 32.1627 50.4023 32.1741 50.3699L32.8561 47.533C32.8726 47.4817 32.9078 47.4384 32.9546 47.4119C33.0015 47.3854 33.0568 47.3776 33.1092 47.3899L41.1362 48.84C41.1619 48.8426 41.1868 48.8504 41.2093 48.8632C41.2318 48.8759 41.2514 48.8931 41.2669 48.9138C41.2824 48.9344 41.2934 48.9581 41.2993 48.9833C41.3052 49.0084 41.3058 49.0345 41.3011 49.0599L40.6192 51.897C40.6144 51.9305 40.618 51.9647 40.6301 51.9965C40.6421 52.0282 40.662 52.0563 40.6879 52.0782C40.7138 52.1001 40.7449 52.115 40.7781 52.1216C40.8114 52.1282 40.8458 52.1263 40.8781 52.116L42.2781 51.832C42.866 51.7126 43.4368 51.5215 43.9781 51.2629L40.4601 44.228C40.4141 44.1523 40.375 44.0726 40.3432 43.9899Z" fill="#1A2730"/>
<path d="M66.354 59.3289L60.708 38.3589C60.6971 38.2933 60.6797 38.229 60.656 38.1669C60.361 37.3929 59.1119 36.9669 57.3049 36.8979C54.6989 36.8833 52.1056 37.2626 49.6129 38.0229C47.4527 38.6119 45.3768 39.4753 43.4359 40.5919C44.3659 41.0511 45.3771 41.3229 46.412 41.3919C49.6237 39.7008 53.228 38.8958 56.854 39.0599C57.217 39.0839 57.57 39.1199 57.911 39.1689C58.556 39.2609 58.879 40.4789 58.302 40.6439L54.2529 41.8049L51.6019 42.5649C50.5608 43.0583 49.4463 43.3785 48.302 43.5129L44.4399 44.6199C43.8959 44.7759 43.3499 43.7649 43.6739 43.3079C42.8219 43.1197 41.9945 42.8337 41.208 42.4558L41.1949 42.4499C41.0223 42.6342 40.8998 42.8596 40.8391 43.1047C40.7784 43.3497 40.7813 43.6063 40.8479 43.8499C40.8726 43.9129 40.9031 43.9734 40.939 44.0309L50.819 63.7869C51.2907 64.6031 52.0267 65.234 52.9054 65.5754C53.7841 65.9169 54.7529 65.9484 55.652 65.6649L57.5189 65.1299L61.9029 63.8729L63.7699 63.3379C64.2033 63.2453 64.6143 63.0681 64.979 62.8163C65.3437 62.5644 65.6551 62.243 65.8953 61.8705C66.1354 61.4979 66.2994 61.0817 66.3782 60.6455C66.4569 60.2093 66.4487 59.7619 66.354 59.3289ZM50.663 45.1769C50.6038 44.9961 50.5835 44.8049 50.6034 44.6157C50.6233 44.4265 50.683 44.2437 50.7784 44.0791C50.8739 43.9146 51.0029 43.7721 51.1572 43.6609C51.3115 43.5497 51.4877 43.4723 51.6739 43.4339C52.0586 43.3103 52.4751 43.3312 52.8453 43.4929C53.2156 43.6545 53.5141 43.9458 53.6849 44.3119C53.7608 44.3019 53.8378 44.3167 53.9047 44.354C53.9715 44.3913 54.0245 44.4491 54.0559 44.5189L54.934 46.8189C54.9466 46.8587 54.9507 46.9008 54.9462 46.9424C54.9416 46.9839 54.9285 47.0241 54.9075 47.0602C54.8865 47.0964 54.858 47.1278 54.8242 47.1523C54.7904 47.1769 54.7518 47.1941 54.7109 47.2029L51.829 48.0289C51.7442 48.0565 51.6521 48.0521 51.5703 48.0166C51.4885 47.981 51.4226 47.9167 51.385 47.8359L50.5079 45.5359C50.4838 45.4675 50.4864 45.3926 50.5151 45.326C50.5439 45.2595 50.5967 45.2062 50.663 45.1769ZM48.8729 50.9889C48.6279 51.0419 48.413 51.0889 48.236 51.1219C48.059 51.1549 47.9199 51.1839 47.8249 51.2019L47.6789 51.2289L47.8149 51.1739C47.9039 51.1399 48.0339 51.0879 48.2009 51.0259C48.3679 50.9639 48.5699 50.8869 48.8009 50.8029C49.0319 50.7189 49.3009 50.6259 49.5869 50.5259C50.1639 50.3259 50.8419 50.1039 51.5709 49.8749C51.7529 49.8169 51.9389 49.7599 52.1269 49.7019C52.3149 49.6439 52.506 49.5859 52.698 49.5289C53.082 49.4129 53.4749 49.2999 53.8669 49.1849C54.2589 49.0699 54.6529 48.9618 55.0409 48.8568C55.2349 48.8035 55.4276 48.7516 55.6189 48.7009L56.184 48.5519C56.927 48.3589 57.623 48.1879 58.224 48.0519C58.524 47.9819 58.8009 47.9209 59.0449 47.8679C59.2889 47.8149 59.505 47.7679 59.682 47.7359C59.859 47.7039 59.999 47.6739 60.094 47.6549L60.24 47.6289L60.104 47.6829C60.015 47.7169 59.885 47.7698 59.719 47.8308C59.553 47.8918 59.3499 47.9699 59.1189 48.0539C58.8879 48.1379 58.619 48.2308 58.333 48.3308C57.756 48.5308 57.079 48.7528 56.349 48.9818L55.792 49.1539C55.605 49.2119 55.4139 49.2699 55.2209 49.3269C54.8369 49.4429 54.445 49.5559 54.052 49.6699C53.659 49.7839 53.2659 49.8929 52.8779 49.9979C52.6839 50.0509 52.4919 50.1029 52.3009 50.1539C52.1099 50.2049 51.921 50.2539 51.736 50.3029C50.993 50.4959 50.2959 50.6669 49.6959 50.8029C49.3939 50.8739 49.1179 50.9369 48.8729 50.9889ZM58.3479 51.1889L58.6229 51.2469L58.9809 51.1469C59.1411 51.1013 59.3104 51.0985 59.4719 51.1389C59.5347 51.1518 59.5919 51.1842 59.6354 51.2314C59.6788 51.2786 59.7063 51.3382 59.714 51.4019C59.7203 51.4745 59.7412 51.5451 59.7756 51.6094C59.81 51.6736 59.857 51.7303 59.9139 51.7759C59.9893 51.8347 60.0463 51.914 60.078 52.0042C60.1097 52.0944 60.1149 52.1918 60.0929 52.2849L60.0869 52.3089L60.021 52.4309C59.9909 52.4855 59.97 52.5446 59.959 52.6059C59.9439 52.6891 59.9119 52.7685 59.865 52.8389C59.776 52.9688 59.6492 53.0682 59.5019 53.1239C59.4946 53.292 59.439 53.4545 59.3419 53.5919C59.1955 53.7952 58.9837 53.9421 58.7419 54.0079C58.5697 54.0573 58.3889 54.0694 58.2115 54.0432C58.0342 54.017 57.8646 53.9531 57.714 53.8559L54.1399 54.8799C54.0838 55.0581 53.9829 55.2191 53.8469 55.3472C53.7109 55.4754 53.5442 55.5665 53.3629 55.6119C53.1709 55.6678 52.9687 55.6795 52.7716 55.6459C52.5745 55.6122 52.3876 55.5343 52.225 55.4179L51.6479 55.5539C51.5414 55.5786 51.4296 55.563 51.334 55.5099C51.29 55.4861 51.2517 55.4529 51.2222 55.4126C51.1926 55.3723 51.1724 55.326 51.163 55.2769V55.2519L50.9779 55.0079C50.8884 54.8941 50.841 54.7529 50.8437 54.6082C50.8465 54.4635 50.8991 54.3242 50.9929 54.2139C51.1678 54.0033 51.3884 53.8354 51.6379 53.7229L53.001 53.0989L53.568 52.5529C54.1192 52.0307 54.7896 51.651 55.521 51.4469L56.2309 51.2469C56.4801 51.1827 56.7339 51.1382 56.99 51.1139L57.059 51.1079C57.4906 51.0715 57.9253 51.0988 58.349 51.1889H58.3479ZM57.9029 50.9659C57.9123 50.9563 57.9227 50.948 57.934 50.9409L58.913 50.2749C58.9621 50.242 59.0212 50.2274 59.0801 50.2336C59.1389 50.2398 59.1937 50.2665 59.235 50.3089C59.2534 50.3285 59.2672 50.352 59.2754 50.3777C59.2835 50.4033 59.2858 50.4306 59.2821 50.4573C59.2784 50.4839 59.2687 50.5094 59.2538 50.5318C59.2389 50.5543 59.2191 50.5731 59.1959 50.5869L58.496 51.0649L58.396 51.0429C58.224 51.0099 58.0659 50.9839 57.9039 50.9659H57.9029ZM60.162 58.4999C60.0881 58.5234 60.0082 58.5193 59.9371 58.4882C59.8661 58.4571 59.8088 58.4011 59.776 58.3308C59.6708 58.1055 59.4869 57.9264 59.2589 57.8272C59.0309 57.7279 58.7745 57.7154 58.538 57.7919C58.4238 57.8154 58.3158 57.8626 58.2211 57.9306C58.1263 57.9985 58.047 58.0857 57.9881 58.1863C57.9293 58.2869 57.8923 58.3988 57.8795 58.5147C57.8667 58.6306 57.8784 58.7478 57.9139 58.8589L58.0409 58.8229C58.1258 58.7955 58.2179 58.8002 58.2997 58.8359C58.3814 58.8716 58.4473 58.936 58.485 59.0169L59.3619 61.3169C59.3747 61.3568 59.379 61.399 59.3745 61.4407C59.37 61.4823 59.3569 61.5226 59.3359 61.5589C59.3149 61.5951 59.2865 61.6266 59.2526 61.6512C59.2186 61.6759 59.1799 61.6931 59.1389 61.7019L56.2569 62.5279C56.172 62.5554 56.08 62.5509 55.9982 62.5152C55.9163 62.4794 55.8504 62.4149 55.813 62.3339L54.9359 60.0339C54.9233 59.994 54.9191 59.9519 54.9237 59.9104C54.9283 59.8688 54.9415 59.8287 54.9625 59.7925C54.9835 59.7564 55.0118 59.725 55.0456 59.7004C55.0795 59.6758 55.118 59.6587 55.1589 59.6499L57.333 59.0269C57.2747 58.8463 57.2551 58.6554 57.2755 58.4667C57.2959 58.278 57.356 58.0957 57.4515 57.9317C57.5471 57.7678 57.6761 57.6258 57.8302 57.515C57.9843 57.4042 58.1601 57.3272 58.3459 57.2889C58.7304 57.1652 59.1468 57.1861 59.5171 57.3475C59.8873 57.509 60.1859 57.7999 60.3569 58.1659C60.3682 58.2006 60.3721 58.2373 60.3683 58.2737C60.3644 58.31 60.353 58.3451 60.3347 58.3767C60.3164 58.4083 60.2917 58.4357 60.2621 58.4571C60.2325 58.4785 60.1987 58.4934 60.163 58.5009L60.162 58.4999ZM62.3119 54.5759C62.2289 54.6079 62.1119 54.6579 61.9509 54.7169C61.7899 54.7759 61.606 54.8489 61.387 54.9289C61.168 55.0089 60.921 55.0969 60.651 55.1919C60.11 55.3799 59.475 55.5919 58.792 55.8069C58.621 55.8619 58.447 55.9148 58.271 55.9688C58.095 56.0229 57.916 56.0779 57.735 56.1309C57.375 56.2399 57.007 56.3469 56.635 56.4529C56.263 56.5589 55.8979 56.6619 55.5349 56.7609C55.3536 56.8109 55.1729 56.8596 54.9929 56.9069C54.8139 56.9539 54.6379 57.0019 54.4629 57.0459C53.7629 57.2259 53.111 57.3849 52.547 57.5129C52.265 57.5779 52.006 57.6339 51.776 57.6829C51.546 57.7319 51.3439 57.7719 51.1759 57.8049C51.0079 57.8379 50.8759 57.8609 50.7899 57.8779L50.6529 57.9019L50.7799 57.8499C50.8639 57.8169 50.98 57.7679 51.141 57.7089C51.302 57.6499 51.4859 57.5769 51.7059 57.4969C51.9259 57.4169 52.1709 57.3289 52.4419 57.2339C52.9829 57.0459 53.617 56.8339 54.302 56.6189C54.472 56.5639 54.647 56.5109 54.823 56.4569C54.999 56.4029 55.178 56.3479 55.359 56.2939C55.719 56.1849 56.087 56.0779 56.459 55.9709C56.831 55.8639 57.1959 55.7609 57.559 55.6629C57.7416 55.6122 57.9223 55.5636 58.1009 55.5169C58.2799 55.4699 58.4559 55.4219 58.6319 55.3779C59.3319 55.1969 59.984 55.0389 60.548 54.9109C60.83 54.8469 61.089 54.7899 61.319 54.7409C61.549 54.6919 61.7509 54.6518 61.9189 54.6199C62.0869 54.5879 62.2189 54.5629 62.3059 54.5469L62.444 54.5229L62.3119 54.5759Z" fill="#1A2730"/>
<path d="M41.5361 42.0931L41.7361 42.1831L41.7881 42.2061C41.8651 42.2401 41.9441 42.2742 42.0231 42.3062C42.5997 42.5428 43.1955 42.7295 43.8041 42.8641L43.9441 42.8951C44.7048 43.0545 45.4799 43.1345 46.2571 43.1341C46.3801 43.1341 46.5021 43.1341 46.6241 43.1271C46.7461 43.1201 46.8591 43.1341 46.9781 43.1341C47.4178 43.134 47.8569 43.1063 48.2931 43.0511L48.3931 43.0381L48.54 43.0172L48.5951 43.0091C50.984 42.6735 53.1489 41.4229 54.6331 39.5211C53.7559 39.5821 52.8839 39.7023 52.0231 39.8811C50.4853 41.1087 48.59 41.803 46.623 41.8591H46.55L46.4111 41.8501C45.236 41.7784 44.0888 41.462 43.0431 40.9211L42.4611 40.6321L42.498 40.6091C41.7292 40.1315 41.0572 39.5134 40.5171 38.7871C40.1621 38.7001 39.797 38.6211 39.425 38.5541C38.7459 38.4309 38.0601 38.3484 37.3711 38.3071C37.7762 39.0222 38.2813 39.6758 38.8711 40.2481C39.6411 40.9752 40.5146 41.5842 41.4631 42.0551L41.5361 42.0931Z" fill="#1A2730"/>
<path d="M46.2511 26C40.8191 26 36.3971 29.821 36.3711 34.526L36.4811 34.535C36.9311 34.5776 37.3824 34.627 37.8351 34.683C37.8351 34.644 37.8351 34.606 37.8351 34.567C37.8351 30.541 41.6122 27.267 46.2542 27.267C46.5905 27.2669 46.9266 27.2842 47.2611 27.319C47.1611 27.319 47.0701 27.319 46.9751 27.319C42.1531 27.319 38.1941 30.58 37.8751 34.691C38.3591 34.7516 38.8421 34.82 39.3241 34.896C39.5241 31.387 42.8791 28.586 46.9751 28.586C51.1991 28.586 54.6351 31.565 54.6351 35.229V35.265C54.5854 35.7161 54.4878 36.1606 54.3441 36.591C54.9131 36.523 55.4621 36.478 55.9861 36.454C56.0529 36.0826 56.0894 35.7063 56.0951 35.329C56.1209 35.0768 56.134 34.8235 56.1342 34.57C56.1342 29.846 51.7022 26.003 46.2542 26.003" fill="#1A2730"/>
<path d="M46.252 43.5899C45.5841 43.5899 44.9175 43.5337 44.259 43.4219L44.1131 43.5489C44.0952 43.6395 44.0977 43.733 44.1207 43.8225C44.1438 43.912 44.1866 43.9952 44.246 44.0659C44.2727 44.103 44.3039 44.1366 44.339 44.1659L46.349 43.5899H46.252Z" fill="#1A2730"/>
</g>
<defs>
<clipPath id="clip0_536_169">
<rect width="38.457" height="44.936" fill="white" transform="translate(28 26)"/>
</clipPath>
</defs>
</svg>
