<svg width="90" height="90" viewBox="0 0 90 90" fill="none" xmlns="http://www.w3.org/2000/svg">
<g clip-path="url(#clip0_218_764)">
<path d="M34.084 58.5915C34.107 58.4071 34.13 58.2227 34.1577 58.0383L34.1724 57.9461C34.1964 57.7857 34.2204 57.6335 34.2527 57.4851C34.2823 57.3292 34.3274 57.1766 34.3873 57.0296L34.4058 56.99L34.4251 56.9577L34.4325 56.943L34.4408 56.9328L34.4629 56.9033L34.4675 56.8968L34.5109 56.8655C34.602 56.8141 34.7041 56.7853 34.8087 56.7816C34.9937 56.7724 35.1791 56.7829 35.3619 56.813L35.5942 56.8452C35.7611 56.8701 35.9492 56.8987 36.1603 56.9153C36.3444 56.9317 36.5298 56.9302 36.7136 56.9107C36.9524 56.8867 37.1834 56.8132 37.3922 56.6949C37.4217 56.6774 37.4494 56.659 37.4771 56.6406C37.5096 56.6204 37.5405 56.5976 37.5693 56.5723L37.6107 56.5373C37.6582 56.501 37.6953 56.4526 37.7177 56.3971C37.7048 56.4384 37.6809 56.4754 37.6485 56.5041L37.6707 56.482C37.7463 56.4076 37.8134 56.325 37.8708 56.2358C38.0323 55.994 38.1112 55.7065 38.0957 55.4161C38.0537 55.1533 37.9787 54.8968 37.8726 54.6527C37.7663 54.4048 37.6293 54.1713 37.465 53.9574C37.3805 53.845 37.288 53.7387 37.1884 53.6394L37.1829 53.6347C37.0765 53.5335 36.9621 53.441 36.8408 53.3581L36.7984 53.3314C36.7454 53.2949 36.6904 53.2616 36.6334 53.2318L36.6076 53.218C36.5818 53.2032 36.5504 53.1866 36.5227 53.1746L36.4306 53.1341C36.2743 53.0664 36.1101 53.0187 35.9419 52.9921C35.6228 52.9476 35.2983 52.9629 34.9848 53.0373C34.758 53.088 34.5459 53.147 34.3393 53.2051L34.2296 53.2355C33.953 53.3102 33.7409 53.3609 33.5427 53.3987C33.1036 53.4831 32.656 53.514 32.2095 53.4909C32.1173 53.4909 32.0196 53.4789 31.9256 53.4697L31.8333 53.4596C31.7411 53.4494 31.6581 53.4392 31.5567 53.4245C31.3511 53.3959 31.1344 53.3563 30.926 53.3102C30.6062 53.2552 30.3003 53.1383 30.0252 52.9662L30.0077 52.9525C29.9985 52.9432 29.9856 52.9303 29.969 52.9165L29.9643 52.91C29.9643 52.8565 29.9643 52.7966 29.9643 52.7487L29.969 52.5643C30.1294 52.4642 30.2624 52.3259 30.3562 52.1618C30.4501 51.9976 30.5017 51.8128 30.5065 51.6238V48.914C30.5181 48.6881 30.4432 48.4663 30.2972 48.2937C30.1511 48.1211 29.9447 48.0105 29.72 47.9846L29.7993 46.2014C29.6755 46.1074 29.5267 46.0522 29.3715 46.0428C29.1783 46.0301 28.9869 46.0863 28.8312 46.2014C28.7875 46.7706 28.7436 47.3404 28.6994 47.9108C28.4548 47.949 28.2305 48.069 28.063 48.2512C27.8955 48.4334 27.7948 48.6671 27.7773 48.914V51.6238C27.7833 51.8316 27.8451 52.034 27.9564 52.2096C28.0677 52.3851 28.2243 52.5274 28.4098 52.6214C28.4098 52.6519 28.4098 52.6841 28.4098 52.7136V52.7477C28.4098 52.8353 28.4052 52.9257 28.4098 53.0446C28.4098 53.064 28.4098 53.0843 28.4098 53.1027C28.4098 53.1212 28.4163 53.1544 28.4209 53.1811C28.4255 53.2078 28.4292 53.2226 28.4357 53.2475V53.2539C28.4424 53.2796 28.4507 53.3049 28.4605 53.3296L28.4771 53.3673C28.4919 53.4053 28.5121 53.4411 28.5371 53.4734L28.5923 53.5582C28.6051 53.5774 28.619 53.5959 28.6339 53.6135L28.644 53.6274C28.6735 53.6633 28.7048 53.6993 28.7362 53.7362L28.7795 53.7832L28.8718 53.8652C28.9258 53.913 28.9834 53.9565 29.0442 53.9952C29.2972 54.1602 29.5756 54.282 29.8684 54.3558C30.1317 54.4249 30.4003 54.4714 30.6715 54.495C30.9601 54.5226 31.2368 54.5273 31.4415 54.5273C31.5613 54.5273 31.6932 54.5273 31.8297 54.5208H31.8702C31.9873 54.5144 32.1081 54.5079 32.2261 54.4959C32.7503 54.4481 33.2691 54.3527 33.776 54.211C33.9826 54.1566 34.1863 54.093 34.3836 54.0321C34.6602 53.9454 34.9267 53.8634 35.1848 53.8072C35.3645 53.7635 35.551 53.7563 35.7334 53.786C35.8102 53.8028 35.8848 53.8285 35.9557 53.8625L36.0331 53.904C36.038 53.9066 36.0426 53.9097 36.047 53.9132L36.0857 53.9381C36.1023 53.9482 36.129 53.9694 36.1539 53.9879L36.1807 54.0091C36.3172 54.1279 36.4328 54.2688 36.5227 54.4258C36.6153 54.5907 36.6856 54.7671 36.732 54.9505C36.7772 55.1136 36.7714 55.2867 36.7154 55.4465V55.4521C36.6982 55.4992 36.6733 55.5431 36.6417 55.5821L36.626 55.5977L36.6158 55.6042C36.5977 55.6083 36.5792 55.6105 36.5606 55.6106C36.4865 55.6111 36.4125 55.6055 36.3393 55.594C36.212 55.5765 36.0627 55.547 35.9115 55.5157L35.6431 55.4631C35.3362 55.3999 35.0234 55.369 34.71 55.3709C34.5237 55.3745 34.3383 55.3977 34.1568 55.4401C33.9644 55.4849 33.7786 55.554 33.6036 55.6457L33.4874 55.7112L33.363 55.796L33.3528 55.8024C33.3342 55.8149 33.3164 55.8284 33.2994 55.843L33.231 55.9029C33.186 55.9423 33.1433 55.9842 33.103 56.0283L33.079 56.056C33.0269 56.1141 32.9788 56.1757 32.9351 56.2404L32.8761 56.3326L32.8134 56.4469C32.6938 56.6833 32.6038 56.9335 32.5452 57.1919C32.4944 57.403 32.4529 57.6179 32.4207 57.8493C32.3617 58.2532 32.3285 58.6404 32.2962 58.9714L32.2722 59.248H33.9955L34.084 58.5915Z" fill="#1A2730"/>
<path d="M52.884 47.76C53.2519 47.5768 53.5779 47.3194 53.8417 47.0042C54.1054 46.6889 54.301 46.3225 54.4164 45.9279C54.4272 45.8977 54.4364 45.8669 54.4439 45.8357H65.1339C65.7162 45.8366 66.2938 45.7319 66.8387 45.5269C67.6667 45.2263 68.3754 44.6662 68.8589 43.9299C70.2543 41.8638 70.9999 39.4276 70.9999 36.9345C70.9999 34.4413 70.2543 32.0052 68.8589 29.9391C68.3754 29.2028 67.6667 28.6426 66.8387 28.3421C66.2938 28.137 65.7162 28.0324 65.1339 28.0332H54.4439C54.4364 28.002 54.4272 27.9713 54.4164 27.941C54.301 27.5465 54.1054 27.1801 53.8417 26.8648C53.5779 26.5495 53.2519 26.2922 52.884 26.109C52.6616 26.0167 52.4204 25.9784 52.1804 25.9974C52.0412 26.0077 51.9056 26.0466 51.7821 26.1117C51.3515 26.4095 52.2588 27.4856 52.7502 28.0296H39.1513C38.721 28.0297 38.292 27.9839 37.8714 27.8931C37.4512 27.8023 37.0225 27.7565 36.5926 27.7567H26.407C25.8287 27.7564 25.2543 27.8498 24.7059 28.0332C22.7595 28.686 20.8602 29.7122 20.4646 31.489C19.8412 35.0907 19.8412 38.7727 20.4646 42.3744C20.8565 44.1512 22.7567 45.1774 24.7059 45.8302C25.2543 46.0136 25.8287 46.107 26.407 46.1068H28.4742C28.7083 45.8777 29.0227 45.7494 29.3501 45.7494C29.6776 45.7494 29.992 45.8777 30.226 46.1068H36.588C37.0179 46.1069 37.4466 46.0611 37.8668 45.9703C38.2873 45.8795 38.7164 45.8337 39.1467 45.8338H52.7456C52.2542 46.3778 51.3469 47.4539 51.7775 47.7517C51.901 47.8166 52.0366 47.8555 52.1758 47.866C52.4169 47.887 52.6596 47.8506 52.884 47.76ZM68.9926 42.1457C68.9769 42.1614 68.9557 42.1873 68.9271 42.2159L68.8802 42.2629L68.8294 42.3219L68.7722 42.3864C68.7519 42.41 68.7328 42.4346 68.7151 42.4602L68.6524 42.5376C68.6339 42.5662 68.6137 42.5957 68.5943 42.6252C68.5841 42.64 68.5741 42.6538 68.563 42.6685C68.5519 42.6833 68.5455 42.6999 68.5353 42.7156C68.5178 42.7479 68.4975 42.7792 68.4781 42.8078C68.4477 42.876 68.4072 42.9424 68.3813 43.0153C68.3555 43.0881 68.3288 43.16 68.3011 43.2338C68.2734 43.3075 68.2596 43.3831 68.2494 43.4578C68.2393 43.5325 68.2319 43.6072 68.2208 43.68C68.2208 43.716 68.2208 43.7519 68.2208 43.7879C68.2208 43.8054 68.2208 43.8238 68.2208 43.8404C68.2208 43.857 68.2208 43.8746 68.2208 43.8921C68.2208 43.9262 68.2208 43.9594 68.2208 43.9935C68.2208 44.0276 68.2292 44.0571 68.232 44.0857C68.2348 44.1143 68.232 44.1475 68.2421 44.1779C68.2523 44.2084 68.2522 44.2314 68.2549 44.2572C68.2577 44.283 68.2633 44.3061 68.2661 44.3291L68.2817 44.3927C68.2919 44.4305 68.2965 44.4619 68.3011 44.485C68.3057 44.508 68.3066 44.5172 68.3066 44.5172L68.2789 44.4951C68.2623 44.4803 68.2347 44.4591 68.2043 44.4305L68.1526 44.3835L68.101 44.3199C68.0816 44.2969 68.0632 44.271 68.0429 44.2443C68.0231 44.2146 68.005 44.1838 67.9885 44.1521C67.971 44.1207 67.9526 44.0876 67.9351 44.0534C67.9176 44.0193 67.9074 43.9806 67.8926 43.9428C67.8853 43.9234 67.8788 43.9041 67.8724 43.8838C67.8659 43.8635 67.8623 43.8432 67.8576 43.8229C67.8475 43.7814 67.8401 43.7381 67.8309 43.6938C67.8216 43.6496 67.8235 43.6016 67.8216 43.5592C67.8202 43.5365 67.8202 43.5137 67.8216 43.491C67.8216 43.468 67.8216 43.444 67.8271 43.421C67.834 43.3274 67.8501 43.2347 67.8751 43.1443C67.9045 43.0523 67.9422 42.9631 67.9876 42.8778L68.0217 42.8142C68.0336 42.7934 68.0468 42.7734 68.0614 42.7543C68.089 42.7156 68.1157 42.6768 68.1434 42.64C68.1711 42.6031 68.2061 42.5699 68.2356 42.5385C68.2522 42.5229 68.266 42.5063 68.2835 42.4915C68.3011 42.4767 68.3168 42.462 68.3343 42.4482C68.3684 42.4205 68.4006 42.3938 68.4329 42.3689C68.4652 42.344 68.5012 42.3247 68.5344 42.3044C68.5676 42.2841 68.5971 42.2647 68.6266 42.25L68.7188 42.2085C68.7483 42.1965 68.7741 42.1845 68.799 42.1753L68.8718 42.1541C68.9152 42.1412 68.9511 42.1338 68.9742 42.1282L69.0102 42.12L68.9926 42.1457ZM54.6256 43.4366C54.536 43.6551 54.369 43.833 54.1566 43.9362C53.9441 44.0395 53.7011 44.0608 53.474 43.9963L48.1991 42.7055C48.0928 42.6874 47.9913 42.6483 47.9004 42.5904C47.8095 42.5325 47.731 42.4569 47.6698 42.3683C47.6085 42.2796 47.5656 42.1796 47.5436 42.074C47.5216 41.9685 47.521 41.8597 47.5417 41.7539C48.2797 38.5864 48.2797 35.2917 47.5417 32.1243C47.5208 32.0185 47.5214 31.9096 47.5434 31.804C47.5653 31.6985 47.6081 31.5984 47.6694 31.5097C47.7307 31.421 47.8092 31.3455 47.9002 31.2876C47.9911 31.2297 48.0928 31.1907 48.1991 31.1727L53.474 29.8819C53.7011 29.8173 53.9441 29.8387 54.1566 29.9419C54.369 30.0452 54.536 30.223 54.6256 30.4416C55.9959 34.6642 55.9959 39.2121 54.6256 43.4347V43.4366ZM68.302 29.3923C68.302 29.4135 68.2928 29.444 68.2826 29.4845L68.267 29.5481C68.267 29.5712 68.2597 29.5952 68.256 29.6201C68.2523 29.645 68.2476 29.6708 68.243 29.6994C68.2384 29.7279 68.2366 29.7574 68.2329 29.7916C68.2292 29.8257 68.2254 29.8542 68.2217 29.8837C68.2181 29.9132 68.2217 29.9511 68.2217 29.9852C68.2217 30.0027 68.2217 30.0193 68.2217 30.0368C68.2217 30.0543 68.2217 30.0719 68.2217 30.0894C68.2217 30.1253 68.2217 30.1613 68.2217 30.1972C68.2328 30.271 68.2337 30.3448 68.2503 30.4195C68.2669 30.4941 68.2854 30.5688 68.302 30.6435C68.3186 30.7182 68.3491 30.7919 68.3822 30.862C68.4154 30.9321 68.4486 31.0012 68.479 31.0695C68.4984 31.1017 68.5196 31.1331 68.5371 31.1617C68.5473 31.1774 68.5556 31.194 68.5648 31.2087C68.574 31.2235 68.586 31.2373 68.5961 31.252C68.6164 31.2815 68.6358 31.311 68.6543 31.3396L68.717 31.4171C68.735 31.4427 68.7544 31.4673 68.7751 31.4908L68.8322 31.5554L68.8829 31.6144L68.9299 31.6614C68.9585 31.69 68.9798 31.7158 68.9954 31.7315L69.0194 31.7582L68.9834 31.7499C68.9603 31.7444 68.9244 31.737 68.8811 31.7241C68.8589 31.7186 68.8341 31.7112 68.8083 31.7029C68.7824 31.6946 68.7575 31.6817 68.728 31.6697L68.6358 31.6282C68.6026 31.6135 68.5732 31.5923 68.5436 31.5738L68.4421 31.5093C68.4089 31.4844 68.3776 31.4576 68.3435 31.43C68.326 31.4162 68.3103 31.4014 68.2928 31.3866C68.2752 31.3719 68.2614 31.3553 68.2448 31.3396C68.2135 31.3074 68.1831 31.2723 68.1526 31.2382C68.1222 31.2041 68.0973 31.1626 68.0706 31.1239C68.0561 31.1048 68.0429 31.0848 68.031 31.0639L67.9969 31.0003C67.9514 30.9151 67.9137 30.8259 67.8843 30.7338C67.8593 30.6434 67.8433 30.5508 67.8364 30.4573C67.8364 30.4342 67.8364 30.4112 67.8309 30.3872C67.8294 30.3645 67.8294 30.3417 67.8309 30.319C67.8309 30.2729 67.8364 30.2268 67.8401 30.1843C67.8438 30.1419 67.8567 30.0977 67.8669 30.0552C67.8715 30.035 67.8752 30.0137 67.8816 29.9944C67.8881 29.975 67.8954 29.9547 67.9019 29.9354C67.9166 29.8976 67.9296 29.8607 67.9443 29.8247C67.9591 29.7888 67.9803 29.7565 67.9978 29.7252C68.0153 29.6938 68.03 29.6652 68.0521 29.6329C68.0743 29.6007 68.0908 29.5804 68.1102 29.5573C68.1296 29.5343 68.1453 29.5131 68.1619 29.4937L68.2135 29.4467C68.244 29.4181 68.2716 29.3969 68.2882 29.3822L68.3158 29.36C68.3158 29.36 68.3066 29.3711 68.302 29.3914V29.3923ZM32.0203 29.3923C31.9115 29.349 31.9475 29.2079 32.0674 29.2079H52.1408C52.1532 29.2058 52.1659 29.2063 52.1783 29.2091C52.1906 29.212 52.2022 29.2173 52.2125 29.2246C52.2227 29.232 52.2315 29.2413 52.2381 29.252C52.2448 29.2628 52.2494 29.2747 52.2514 29.2872C52.2535 29.2997 52.253 29.3124 52.2502 29.3247C52.2473 29.337 52.242 29.3487 52.2346 29.3589C52.2273 29.3692 52.218 29.3779 52.2073 29.3846C52.1966 29.3913 52.1845 29.3958 52.1721 29.3979L46.9507 30.7154C46.509 30.8267 46.0554 30.8827 45.5999 30.8823H36.8407C36.1558 30.8835 35.4767 30.7559 34.8389 30.5061L32.0203 29.3923ZM29.1187 42.9737C28.3591 38.9896 28.3591 34.8978 29.1187 30.9136C29.1409 30.8416 29.1783 30.775 29.2283 30.7186C29.2784 30.6622 29.3399 30.6172 29.4089 30.5866C29.4778 30.556 29.5526 30.5406 29.628 30.5413C29.7034 30.5421 29.7778 30.559 29.8461 30.5909L32.6215 31.7546C32.7141 31.7877 32.7927 31.8514 32.8443 31.9352C32.8959 32.019 32.9175 32.1179 32.9054 32.2156C32.4414 35.3527 32.4414 38.5411 32.9054 41.6783C32.9176 41.776 32.8962 41.8749 32.8445 41.9587C32.7929 42.0426 32.7142 42.1063 32.6215 42.1393L29.8461 43.3029C29.7771 43.3348 29.7019 43.3514 29.6258 43.3515C29.5497 43.3515 29.4744 43.3351 29.4053 43.3033C29.3361 43.2715 29.2747 43.2251 29.2252 43.1672C29.1757 43.1094 29.1394 43.0415 29.1187 42.9682V42.9737ZM32.0692 44.6804C31.9493 44.6804 31.9133 44.5384 32.0221 44.496L34.8407 43.3831C35.4785 43.1334 36.1576 43.0057 36.8425 43.0069H45.6017C46.0572 43.0065 46.5108 43.0626 46.9525 43.1738L52.174 44.4914C52.1864 44.4934 52.1984 44.4979 52.2091 44.5046C52.2198 44.5113 52.2292 44.5201 52.2366 44.5303C52.2439 44.5406 52.2491 44.5522 52.252 44.5645C52.2548 44.5768 52.2553 44.5895 52.2532 44.602C52.2512 44.6145 52.2467 44.6265 52.24 44.6372C52.2334 44.6479 52.2247 44.6572 52.2144 44.6646C52.2041 44.672 52.1925 44.6773 52.1802 44.6801C52.1679 44.683 52.155 44.6834 52.1426 44.6813L32.0692 44.6804Z" fill="#1A2730"/>
<path d="M35.7022 67.3371C35.4524 67.3632 35.1999 67.3386 34.9598 67.2649C34.7197 67.1912 34.4969 67.0698 34.3047 66.9079C34.1126 66.7461 33.9551 66.5472 33.8416 66.3231C33.7281 66.099 33.661 65.8543 33.6443 65.6037C33.6443 64.5729 35.7022 61.5698 35.7022 61.5698C35.7022 63.4369 37.7593 64.5729 37.7593 65.6037C37.7426 65.8542 37.6754 66.0989 37.562 66.3229C37.4486 66.5469 37.2912 66.7458 37.0992 66.9076C36.9072 67.0694 36.6845 67.1908 36.4445 67.2646C36.2045 67.3384 35.9519 67.3631 35.7022 67.3371Z" fill="#1A2730"/>
<path d="M51.1001 59.2426H48.5562C48.4734 59.2372 48.3919 59.2647 48.3293 59.3191C48.2666 59.3735 48.2279 59.4503 48.2216 59.533C48.2152 59.6155 48.1766 59.6921 48.1141 59.7463C48.0516 59.8005 47.9703 59.8279 47.8877 59.8225H35.9079C35.8254 59.8279 35.7441 59.8005 35.6816 59.7463C35.6191 59.6921 35.5805 59.6155 35.5741 59.533C35.5677 59.4503 35.529 59.3735 35.4664 59.3191C35.4037 59.2647 35.3221 59.2372 35.2394 59.2426H31.0792C30.3817 59.1966 29.6942 59.4277 29.1661 59.8857C28.638 60.3438 28.3119 60.9917 28.2588 61.6887V67.2209C28.3119 67.9179 28.638 68.5658 29.1661 69.0238C29.6942 69.4819 30.3817 69.713 31.0792 69.667H51.1001C51.7976 69.713 52.4851 69.4819 53.0132 69.0238C53.5414 68.5658 53.8674 67.9179 53.9205 67.2209V61.6887C53.8674 60.9917 53.5414 60.3438 53.0132 59.8857C52.4851 59.4277 51.7976 59.1966 51.1001 59.2426ZM35.528 68.0415C32.8688 68.0415 31.8251 66.3569 31.8251 64.4327C31.8251 62.5084 33.0939 60.8653 35.6838 60.8653C38.5172 60.8653 39.3166 62.7269 39.3166 64.3285C39.3175 66.971 37.7538 68.0415 35.5317 68.0415H35.528ZM43.037 67.5611C43.0282 67.6748 42.9749 67.7805 42.8885 67.8549C42.8021 67.9294 42.6897 67.9666 42.576 67.9585H41.2169C41.1031 67.9666 40.9908 67.9294 40.9045 67.8549C40.8181 67.7805 40.7646 67.6748 40.7559 67.5611V61.3466C40.7644 61.2327 40.8177 61.1269 40.9041 61.0522C40.9905 60.9776 41.103 60.9402 41.2169 60.9483H42.576C42.6899 60.9402 42.8023 60.9776 42.8887 61.0522C42.9752 61.1269 43.0285 61.2327 43.037 61.3466V67.5611ZM50.3533 67.5611C50.3448 67.6749 50.2914 67.7807 50.205 67.8552C50.1185 67.9297 50.0061 67.9669 49.8923 67.9585H45.5255C45.4117 67.9666 45.2994 67.9294 45.2131 67.8549C45.1267 67.7805 45.0732 67.6748 45.0645 67.5611V61.3466C45.0732 61.2328 45.1266 61.1271 45.2129 61.0525C45.2993 60.9779 45.4116 60.9405 45.5255 60.9483H46.8855C46.9994 60.9402 47.1119 60.9776 47.1984 61.0522C47.2848 61.1269 47.338 61.2327 47.3465 61.3466V66.4067C47.355 66.5205 47.4084 66.6263 47.4948 66.7008C47.5813 66.7753 47.6937 66.8125 47.8075 66.8041H49.8978C50.0117 66.796 50.1242 66.8334 50.2106 66.908C50.297 66.9827 50.3503 67.0885 50.3588 67.2024L50.3533 67.5611Z" fill="#1A2730"/>
<path d="M47.7198 59.6093H36.0773C36.0172 59.6131 35.958 59.5932 35.9124 59.5537C35.8669 59.5142 35.8387 59.4583 35.834 59.3982C35.8387 59.3381 35.8669 59.2823 35.9124 59.2428C35.958 59.2032 36.0172 59.1832 36.0773 59.187H47.7198C47.78 59.183 47.8394 59.2029 47.885 59.2425C47.9306 59.282 47.9587 59.338 47.9631 59.3982C47.9587 59.4584 47.9306 59.5144 47.885 59.554C47.8394 59.5935 47.78 59.6134 47.7198 59.6093Z" fill="#1A2730"/>
</g>
<path fill-rule="evenodd" clip-rule="evenodd" d="M80 1H10C5.02944 1 1 5.02944 1 10V80C1 84.9706 5.02944 89 10 89H80C84.9706 89 89 84.9706 89 80V10C89 5.02944 84.9706 1 80 1ZM10 0C4.47715 0 0 4.47715 0 10V80C0 85.5229 4.47715 90 10 90H80C85.5229 90 90 85.5229 90 80V10C90 4.47715 85.5229 0 80 0H10Z" fill="#1A2730"/>
<defs>
<clipPath id="clip0_218_764">
<rect width="51" height="43.6644" fill="white" transform="translate(20 26)"/>
</clipPath>
</defs>
</svg>
