<?xml version="1.0" encoding="UTF-8"?>
<svg id="a" data-name="Layer 1" xmlns="http://www.w3.org/2000/svg" viewBox="0 0 143 143">
  <rect x=".5" y=".5" width="142" height="142" rx="14.2" ry="14.2" fill="none" stroke="#231f20" stroke-miterlimit="10"/>
  <path d="m58.3,76.1c.4-6.2,5.4-11.1,11.5-11.1s11.6,5.3,11.6,11.9-.5,4-1.4,5.7h21.8c.9,0,1.8,0,2.6,0-.9-1.7-1.4-3.7-1.4-5.7,0-6.6,5.2-11.9,11.6-11.9s11.6,5.3,11.6,11.9-.1,1.8-.3,2.6c1.8-.7,3-1.4,3.8-2.1,2.6-2.7,3.2-10.3,0-16.7-3.2-6.4-12.5-14.2-27.8-14.2s-21.8,3.8-26.7,9.5c-13.9.8-20.5,5.1-20.5,12.4s1.3,5.4,3.7,7.6Zm41.8-25.8h.3c10.2,0,18.4,3,18.4,6.7s-9.4,5.9-18.8,6.3v-13Zm-2.4,0v13c-8.2,0-15.7-1.8-15.7-6.4s6.8-6.2,15.7-6.6Zm37,33.6h-11.1c-.5-.5-1.2-1-1.8-1.5.7-1,1.2-2.1,1.5-3.3h0c0-.1,0-.3,0-.4,0,0,0,0,0,0,0-.1,0-.3,0-.4,0,0,0,0,0,0,0-.1,0-.2,0-.4,0,0,0-.1,0-.2,0,0,0-.2,0-.3,0-.2,0-.3,0-.5,0-5.1-4-9.3-9-9.3s-9,4.2-9,9.3,0,.3,0,.4c0,0,0,0,0,.1,0,0,0,.2,0,.3,0,0,0,.1,0,.2,0,0,0,.2,0,.3,0,0,0,.1,0,.2,0,0,0,.2,0,.3,0,0,0,.1,0,.2,0,.1,0,.3,0,.4,0,0,0,.1,0,.2,0,0,0,.2,0,.2,0,0,0,.1,0,.2,0,0,0,.1,0,.2,0,0,0,.1,0,.2,0,0,0,.1,0,.2,0,0,0,.1,0,.2,0,0,0,0,0,.1.1.3.2.5.4.8,0,0,0,0,0,.1,0,0,0,.2.1.2,0,0,0,0,0,.1,0,0,0,.2.1.2,0,0,0,0,0,0,0,0,.1.2.2.2,0,.1.2.2.3.3-.5.3-.9.7-1.3,1.1h-30.6c.6-.5,1-1,1.5-1.7,0,0,0,0,0,0,0,0,.1-.2.2-.3,0,0,0,0,0,0,0,0,.1-.2.2-.3,0,0,0,0,0,0,.2-.3.3-.6.4-.9,0,0,0,0,0-.1,0,0,0-.2,0-.2,0,0,0,0,0-.2,0,0,0-.2,0-.2,0,0,0-.1,0-.2,0,0,0-.1,0-.2,0,0,0-.1,0-.2,0,0,0-.1,0-.2,0-.1,0-.2,0-.3,0,0,0-.1,0-.2,0,0,0-.2,0-.3,0,0,0-.1,0-.2,0,0,0-.2,0-.3,0,0,0-.1,0-.2,0,0,0-.2,0-.3,0,0,0,0,0-.1,0-.1,0-.3,0-.4,0-5.1-4-9.3-9-9.3s-9,4.2-9,9.3,0,.4,0,.6c0,0,0,0,0,0,.2,2.6,1.3,4.9,3.1,6.5h-12.7c.3-.3.5-.8.5-1.3v-36.2c0-1-.8-1.9-1.8-1.9h-6.2s0,0-.1,0h-15.6c-3.3,0-6.1,2.7-6.3,6.1l-1,12.5-6.7,1.3c-3.3.3-5.8,2.9-6.1,6.3l-1.2,13.5c-1.5.6-2.5,2.1-2.5,3.8s1.8,4.1,4,4.1h13.6c0,.3,0,.6,0,.9,0,7.1,5.6,12.8,12.4,12.8s12.4-5.7,12.4-12.8,0-.6,0-.9h56c0,.3,0,.6,0,.9,0,7.1,5.6,12.8,12.4,12.8s12.4-5.7,12.4-12.8,0-.6,0-.9h7.4c2.2,0,4-1.8,4-4.1s-1.8-4.1-4-4.1Zm-64.8-12.2c2.7,0,5,2.3,5,5.1s-2.2,5.1-5,5.1-5-2.3-5-5.1,2.2-5.1,5-5.1Zm-35.7,28.6c-3.9,0-7-3.2-7-7.2s0-.6,0-.9c.2-1.3.7-2.6,1.5-3.6,0,0,0,0,0,0,.2-.3.5-.6.8-.9,0,0,0,0,0,0,.3-.3.6-.5.9-.7,0,0,0,0,.1,0,.3-.2.7-.4,1-.5,0,0,0,0,.1,0,.4-.1.7-.2,1.1-.3,0,0,0,0,.1,0,.4,0,.8-.1,1.2-.1s.8,0,1.2.1c0,0,0,0,.1,0,.4,0,.7.2,1.1.3,0,0,0,0,.1,0,.3.1.7.3,1,.5,0,0,0,0,.1,0,.3.2.6.4.9.7,0,0,0,0,0,0,.3.3.6.6.8.9,0,0,0,0,0,0,.8,1,1.3,2.2,1.5,3.6,0,.3,0,.6,0,.9,0,4-3.1,7.2-7,7.2Zm13.1-34.9h-22l1-14.3h0s1.9,0,1.9,0h0s-1.9,0-1.9,0c0-1.3,3-2.5,4.1-2.5h16.4c.3,0,.6.3.6.7v16.1Zm67.2,6.3c2.7,0,5,2.3,5,5.1s-1.4,4.2-3.4,4.9h-3.1c-2-.7-3.4-2.6-3.4-4.9s2.2-5.1,5-5.1Zm.4,28.6c-3.9,0-7-3.2-7-7.2s0-.6,0-.9c.2-1.3.7-2.6,1.5-3.6,0,0,0,0,0,0,.2-.3.5-.6.8-.9,0,0,0,0,0,0,.3-.3.6-.5.9-.7,0,0,0,0,.1,0,.3-.2.7-.4,1-.5,0,0,0,0,.1,0,.3,0,.5-.2.8-.2.4,0,.8.1,1.3.1s1.2,0,1.7-.2c.4,0,.7.2,1.1.3,0,0,0,0,.1,0,.3.1.7.3,1,.5,0,0,0,0,.1,0,.3.2.6.4.9.7,0,0,0,0,0,0,.3.3.6.6.8.9,0,0,0,0,0,0,.8,1,1.3,2.2,1.5,3.6,0,.3,0,.6,0,.9,0,4-3.1,7.2-7,7.2Zm4.3-7.2c0,2.5-1.9,4.5-4.3,4.5s-4.3-2-4.3-4.5,1.9-4.5,4.3-4.5,4.3,2,4.3,4.5Zm-80.7,0c0,2.5-1.9,4.5-4.3,4.5s-4.3-2-4.3-4.5,1.9-4.5,4.3-4.5,4.3,2,4.3,4.5Z" fill="#2a2e43"/>
</svg>