<svg width="90" height="90" viewBox="0 0 90 90" fill="none" xmlns="http://www.w3.org/2000/svg">
<g clip-path="url(#clip0_218_772)">
<path d="M54.9061 51.3029C54.9043 51.4037 54.8929 51.5042 54.8721 51.6029L52.3001 49.0309L49.9231 49.6229L49.3311 51.9999L51.8721 54.5429C51.8195 54.5603 51.7657 54.5739 51.7111 54.5839C50.7248 54.7437 49.7136 54.5577 48.8488 54.0572C47.984 53.5568 47.3189 52.7727 46.9661 51.8379C46.722 51.2226 46.6344 50.5564 46.7111 49.8989C46.7575 49.4425 46.6926 48.9816 46.522 48.5558C46.3513 48.13 46.0799 47.7519 45.7311 47.4539C44.4551 46.1539 43.1251 44.9029 41.8771 43.5719C41.5552 43.2082 41.1518 42.9257 40.7 42.7474C40.2482 42.5691 39.7607 42.5001 39.2771 42.5459C38.3488 42.6296 37.4187 42.4058 36.6301 41.9089C35.8415 41.4119 35.2382 40.6695 34.9131 39.7959C34.6261 39.0682 34.5532 38.2736 34.7031 37.5059C34.7131 37.4649 34.7201 37.4289 34.7291 37.3999L37.1811 39.8519L39.5611 39.2599L40.1531 36.8799L37.6991 34.4279C37.7477 34.4106 37.7975 34.3969 37.8481 34.3869C38.4169 34.2924 38.9988 34.3126 39.5596 34.4463C40.1204 34.58 40.6488 34.8245 41.1138 35.1654C41.5787 35.5063 41.9708 35.9368 42.2669 36.4315C42.563 36.9261 42.7572 37.475 42.8381 38.0459C42.8741 38.3988 42.8788 38.7542 42.8521 39.1079C42.8076 39.5419 42.8666 39.9803 43.024 40.3872C43.1815 40.794 43.4331 41.1579 43.7581 41.4489C45.0491 42.7109 46.3211 43.9919 47.5921 45.2709C47.9023 45.7072 48.3305 46.0459 48.8265 46.2473C49.3224 46.4487 49.8656 46.5044 50.3921 46.4079C51.0282 46.3699 51.6648 46.4737 52.2559 46.7119C52.8469 46.9501 53.3776 47.3167 53.8096 47.7852C54.2416 48.2536 54.5641 48.8123 54.7538 49.4206C54.9434 50.029 54.9954 50.6719 54.9061 51.3029ZM43.6541 47.5889C41.8911 49.3259 40.1451 51.0809 38.3941 52.8299C38.2881 52.9359 38.1941 53.0489 38.0791 53.1499C37.8691 53.3379 37.6501 53.5309 37.3681 53.2629C37.0861 52.9949 37.2311 52.7689 37.4351 52.5519C37.6081 52.3709 37.7871 52.1959 37.9621 52.0169C39.7131 50.2679 41.4571 48.5169 43.2171 46.7759C43.4801 46.5129 43.5251 46.3469 43.2651 46.0409C43.0051 45.7349 42.8051 45.8599 42.5881 46.0409C42.4341 46.1689 42.2991 46.3179 42.1591 46.4579C40.3791 48.2499 38.6018 50.0409 36.8271 51.8309C36.6171 52.0379 36.3771 52.2239 36.1141 51.9919C35.8141 51.7339 35.9671 51.4499 36.2011 51.2159C38.1231 49.2912 40.0491 47.3685 41.9791 45.4479C42.1911 45.2379 42.5231 45.1179 42.1791 44.7569C41.8851 44.4459 41.6711 44.5979 41.4301 44.8389C40.5391 45.7449 39.6381 46.6389 38.7401 47.5389C37.6611 48.6179 36.5701 49.6829 35.5051 50.7739C35.1969 51.0685 34.9831 51.4479 34.8908 51.8641C34.7985 52.2804 34.8318 52.7146 34.9866 53.1119C35.1414 53.5091 35.4106 53.8515 35.7601 54.0956C36.1097 54.3396 36.5239 54.4744 36.9501 54.4829C37.2638 54.4904 37.5753 54.4297 37.8632 54.3048C38.151 54.18 38.4083 53.994 38.6171 53.7599C40.4911 51.8839 42.3691 50.0169 44.2381 48.1359C44.4381 47.9359 44.8181 47.7649 44.4071 47.3679C43.9791 46.9529 43.8341 47.4129 43.6541 47.5889ZM51.7541 38.5069L53.0961 37.9799L54.5581 35.7059L53.7421 34.8899L51.4681 36.3469L50.9381 37.6909L45.8381 42.7849L46.6541 43.6009L51.7541 38.5069ZM64.4761 46.3679C64.4761 46.3679 64.4591 46.5369 64.4351 46.7889C64.4231 46.9169 64.4111 47.0659 64.3921 47.2229C64.3731 47.3799 64.3441 47.5509 64.3201 47.7169C64.2961 47.8829 64.2741 48.0539 64.2431 48.2109L64.1591 48.6369C64.1111 48.8869 64.0771 49.0539 64.0771 49.0539L63.7831 49.1739C63.5951 49.2489 63.3281 49.3519 63.0071 49.4679C62.8481 49.5259 62.6771 49.5859 62.4941 49.6459C62.3111 49.7059 62.1111 49.7659 61.9111 49.8239C61.5041 49.9419 61.0901 50.0549 60.6541 50.1469C60.5411 50.1709 60.4301 50.1949 60.3191 50.2169L60.2611 50.3779C60.2251 50.4779 60.1911 50.5779 60.1551 50.6779C60.1191 50.7779 60.0801 50.8589 60.0471 50.9429L59.8711 51.3719L59.7001 51.7399C59.7001 51.7399 59.6401 51.8719 59.5291 52.1059C59.4691 52.2189 59.3971 52.3589 59.3151 52.5179C59.2741 52.5969 59.2281 52.6819 59.1821 52.7709L59.0231 53.0459L58.9441 53.1809C58.9991 53.2809 59.0551 53.3809 59.1081 53.4809L59.2621 53.7719C59.3101 53.8719 59.3621 53.9719 59.4071 54.0629C59.5011 54.2629 59.5901 54.4529 59.6771 54.6429C59.7641 54.8329 59.8431 55.0209 59.9181 55.2019C59.9931 55.3829 60.0581 55.5489 60.1181 55.7019C60.2361 56.0179 60.3301 56.2899 60.3951 56.4799L60.4951 56.7799C60.4951 56.7799 60.3951 56.9119 60.2321 57.1119L59.9601 57.4519C59.8601 57.5749 59.7461 57.6999 59.6351 57.8279C59.5241 57.9559 59.4111 58.0829 59.3051 58.2039C59.1991 58.3249 59.0931 58.4259 59.0051 58.5169L58.7051 58.8169C58.7051 58.8169 58.5941 58.7999 58.3971 58.7639C58.2001 58.7279 57.9151 58.6639 57.5831 58.5929C56.7865 58.4091 56.0023 58.1753 55.2351 57.8929L54.9151 57.7699C54.8691 57.8039 54.8231 57.8399 54.7801 57.8699C54.3945 58.1708 53.994 58.4522 53.5801 58.7129C53.5801 58.7129 53.4521 58.7899 53.2361 58.9249C53.1281 58.9969 52.9901 59.0699 52.8361 59.1559C52.6821 59.2419 52.5041 59.3459 52.3061 59.4429L52.1661 59.5179C52.1591 59.6289 52.1491 59.7399 52.1401 59.8499C52.1235 60.0692 52.1018 60.2885 52.0751 60.5079C52.0511 60.7249 52.0201 60.9319 51.9881 61.1389C51.9251 61.5509 51.8531 61.9389 51.7811 62.2759C51.7091 62.6129 51.6411 62.8759 51.5931 63.0759C51.5451 63.2759 51.5141 63.3819 51.5141 63.3819L51.4031 63.4209C51.3331 63.4449 51.2371 63.4859 51.1141 63.5209C50.8731 63.5979 50.5501 63.6989 50.2281 63.7999C49.8981 63.8839 49.5701 63.9709 49.3281 64.0359C49.2081 64.0699 49.1021 64.0869 49.0281 64.1029L48.9151 64.1249L48.6841 63.9109C48.5371 63.7739 48.3301 63.5759 48.0941 63.3349C47.8581 63.0939 47.5861 62.7979 47.3111 62.4819C47.1741 62.3249 47.0361 62.1639 46.8991 61.9949C46.7621 61.8259 46.6241 61.6479 46.4921 61.4719C46.4251 61.3829 46.3571 61.2939 46.2921 61.2019L46.1231 61.2159C45.9011 61.2379 45.6991 61.2419 45.5231 61.2549C45.3471 61.2679 45.1881 61.2739 45.0581 61.2719H44.6581C44.1675 61.2716 43.6772 61.2466 43.1891 61.1969L43.0351 61.1799C42.9701 61.2719 42.9001 61.3629 42.8351 61.4549C42.5701 61.8039 42.2881 62.1389 42.0111 62.4549C41.7341 62.7709 41.4641 63.0549 41.2261 63.2959C40.9881 63.5369 40.7801 63.7339 40.6341 63.8719L40.4631 64.0309L40.4001 64.0859L39.9881 63.9859L39.5661 63.8799L39.0891 63.7379C38.9251 63.6869 38.7641 63.6379 38.6121 63.5909C38.4601 63.5439 38.3211 63.4909 38.2031 63.4459L37.8031 63.3059C37.8031 63.3059 37.7721 63.1949 37.7241 62.9979C37.6761 62.8009 37.6131 62.5209 37.5431 62.1889C37.5091 62.0249 37.4761 61.8449 37.4431 61.6569C37.4101 61.4689 37.3801 61.2569 37.3491 61.0569C37.3181 60.8569 37.2941 60.6359 37.2701 60.4189C37.2461 60.2019 37.2241 59.9879 37.2101 59.7659C37.2001 59.6499 37.1931 59.5369 37.1881 59.4239C37.1371 59.3979 37.0881 59.3709 37.0361 59.3449L36.7571 59.1979L36.5091 59.0529L36.1091 58.8169L35.7691 58.5979L35.4291 58.3759C35.3291 58.3009 35.1981 58.2099 35.0531 58.1039L34.8221 57.9379C34.7401 57.8779 34.6581 57.8099 34.5721 57.7379L34.4491 57.6379C34.3491 57.6789 34.2391 57.7199 34.1311 57.7579C33.7141 57.9119 33.3021 58.0369 32.8981 58.1579C32.6981 58.2159 32.4981 58.2689 32.3131 58.3169C32.1281 58.3649 31.9491 58.4059 31.7831 58.4419C31.4531 58.5139 31.1741 58.5699 30.9761 58.6059L30.6631 58.6609C30.6631 58.6609 30.6321 58.6319 30.5811 58.5789L30.3711 58.3549C30.1951 58.1669 29.9621 57.9209 29.7451 57.6549C29.6371 57.5269 29.5261 57.3969 29.4251 57.2739C29.3241 57.1509 29.2321 57.0329 29.1551 56.9319L28.8951 56.5949L28.9951 56.2949C29.0601 56.1019 29.1591 55.8299 29.2821 55.5119C29.3421 55.3532 29.4088 55.1845 29.4821 55.0059C29.5211 54.9169 29.5571 54.8279 29.5981 54.7339L29.7261 54.4499C29.9021 54.0669 30.0991 53.6719 30.3041 53.2889C30.3591 53.1889 30.4151 53.0889 30.4731 52.9889C30.4441 52.9379 30.4151 52.8889 30.3891 52.8419C30.2891 52.6419 30.1791 52.4759 30.1021 52.3119C30.0251 52.1479 29.9551 52.0119 29.9021 51.8949C29.7861 51.6659 29.7311 51.5289 29.7311 51.5289L29.5721 51.1559C29.4641 50.9219 29.3461 50.5729 29.1891 50.1609L29.1381 50.0119L28.8101 49.9399C28.3891 49.8399 27.9501 49.7279 27.5551 49.6079C27.1601 49.4879 26.7871 49.3599 26.4641 49.2439C26.1411 49.1279 25.8791 49.0219 25.6961 48.9439L25.4071 48.8209L25.3231 48.4039C25.2701 48.1559 25.2231 47.8189 25.1741 47.4839C25.1451 47.3179 25.1261 47.1489 25.1111 46.9839L25.0681 46.5529C25.0541 46.4279 25.0421 46.3219 25.0371 46.2469V46.1289L25.2851 45.9289C25.4421 45.8039 25.6681 45.6289 25.9401 45.4289C26.2121 45.2289 26.5401 45.0029 26.8941 44.7759C27.0701 44.6625 27.2508 44.5492 27.4361 44.4359C27.6191 44.3249 27.8171 44.2169 28.0091 44.1109C28.1091 44.0559 28.2091 44.0029 28.3091 43.9499L28.3211 43.7789C28.3211 43.5599 28.3551 43.3579 28.3691 43.1789C28.3831 42.9999 28.3981 42.8439 28.4171 42.7169C28.4531 42.4639 28.4751 42.3169 28.4751 42.3169L28.4891 42.2109C28.5011 42.1439 28.5111 42.0419 28.5371 41.9169C28.5631 41.7919 28.5921 41.6349 28.6261 41.4619C28.6451 41.3729 28.6601 41.2789 28.6841 41.1799L28.7591 40.8719L28.7981 40.7229C28.7161 40.6439 28.6371 40.5639 28.5571 40.4819C28.2441 40.1659 27.9571 39.8409 27.6851 39.5229C27.5481 39.3639 27.4151 39.2049 27.2951 39.0559C27.1751 38.9069 27.0661 38.7619 26.9651 38.6249C26.7651 38.3549 26.5941 38.1249 26.4781 37.9579C26.3621 37.7909 26.3001 37.6979 26.3001 37.6979L26.4591 37.3049L26.6231 36.9049C26.6881 36.7599 26.7601 36.6049 26.8331 36.4549C26.9061 36.3049 26.9751 36.1469 27.0431 36.0019C27.1111 35.8569 27.1851 35.7299 27.2431 35.6189L27.4431 35.2429C27.4431 35.2429 27.5561 35.2259 27.7591 35.2089C27.9621 35.1919 28.2481 35.1659 28.5851 35.1439C28.7561 35.1339 28.9371 35.1249 29.1291 35.1169C29.3211 35.1089 29.5291 35.1099 29.7381 35.1099C30.1591 35.1099 30.5931 35.1199 31.0381 35.1509C31.1541 35.1609 31.2671 35.1679 31.3801 35.1799L31.4801 35.0399L31.6651 34.7849L31.8431 34.5609C31.9561 34.4209 32.0531 34.2979 32.1341 34.1969C32.3001 33.9969 32.3991 33.8909 32.3991 33.8909L32.6661 33.5909C32.7531 33.4969 32.8661 33.3909 32.9891 33.2559C33.1121 33.1209 33.2521 32.9809 33.4181 32.8319L33.5291 32.7239C33.5051 32.6159 33.4811 32.5049 33.4591 32.3939C33.3651 31.9599 33.2981 31.5319 33.2401 31.1169C33.1821 30.7019 33.1401 30.3049 33.1171 29.9709C33.0941 29.6369 33.0781 29.3499 33.0711 29.1499L33.0611 28.8319C33.0906 28.8062 33.1221 28.7828 33.1551 28.7619L33.4081 28.5859C33.6181 28.4409 33.8921 28.2389 34.1841 28.0659C34.4761 27.8929 34.7601 27.7019 34.9841 27.5839L35.3551 27.3839L35.6371 27.5209C35.8151 27.6099 36.0731 27.7499 36.3691 27.9209C36.6651 28.0919 37.0021 28.2869 37.3541 28.5129C37.7061 28.7389 38.0741 28.9949 38.4231 29.2549C38.5151 29.3219 38.6061 29.3899 38.6951 29.4549C38.7481 29.4359 38.8011 29.4139 38.8521 29.3949L39.4181 29.1849L39.8611 29.0449L40.2461 28.9219L40.6391 28.8219L41.0891 28.7059L41.6791 28.5859C41.7298 28.5739 41.7804 28.5642 41.8311 28.5569C41.8701 28.4489 41.9101 28.3429 41.9511 28.2369C42.1081 27.8369 42.2811 27.4249 42.4571 27.0419C42.6331 26.6589 42.8111 26.3169 42.9721 26.0159C43.1331 25.7149 43.2721 25.4639 43.3721 25.2959L43.5361 25.0259L43.9601 25.0039C44.2131 24.9849 44.5551 24.9869 44.8951 24.9869C45.2351 24.9869 45.5741 25.0039 45.8301 25.0139L46.1361 25.0279C46.2111 25.0279 46.2541 25.0379 46.2541 25.0379L46.4151 25.3129C46.5151 25.4859 46.6581 25.7369 46.8151 26.0359C46.9721 26.3349 47.1501 26.6889 47.3231 27.0719C47.4961 27.4549 47.6701 27.8519 47.8231 28.2719L47.9391 28.5899L48.1051 28.6259C48.3241 28.6619 48.5191 28.7149 48.6931 28.7579C48.8671 28.8009 49.0211 28.8369 49.1431 28.8709C49.3911 28.9429 49.5311 28.9869 49.5311 28.9869C49.5311 28.9869 49.6731 29.0259 49.9191 29.1049L50.3571 29.2589C50.4411 29.2879 50.5331 29.3219 50.6271 29.3529L50.9211 29.4729C50.9671 29.4899 51.0211 29.5119 51.0661 29.5329C51.1551 29.4629 51.2471 29.3959 51.3381 29.3259C51.5161 29.1959 51.6941 29.0709 51.8751 28.9499C52.0561 28.8289 52.2341 28.7119 52.4101 28.6009C52.5861 28.4899 52.7621 28.3819 52.9281 28.2809C53.0941 28.1799 53.2531 28.0959 53.4001 28.0159C53.7001 27.8519 53.9521 27.7159 54.1301 27.6279C54.3081 27.5399 54.4141 27.4879 54.4141 27.4879L54.7801 27.6999C54.8881 27.7649 55.0181 27.8399 55.1561 27.9219C55.2941 28.0039 55.4311 28.0999 55.5731 28.1919C55.7151 28.2839 55.8571 28.3769 55.9901 28.4639C56.1231 28.5509 56.2401 28.6419 56.3441 28.7169L56.6881 28.9649V29.0489C56.6881 29.0999 56.6881 29.1789 56.6781 29.2829C56.6681 29.4829 56.6521 29.7719 56.6251 30.1089C56.5981 30.4459 56.5601 30.8359 56.4951 31.2549C56.4301 31.6739 56.3651 32.0999 56.2691 32.5339C56.2471 32.6449 56.2211 32.7579 56.1941 32.8689C56.2351 32.9079 56.2781 32.9459 56.3171 32.9849C56.3961 33.0619 56.4711 33.1369 56.5461 33.2069C56.6211 33.2769 56.6781 33.3489 56.7461 33.4139L57.0641 33.7539C57.1531 33.8459 57.2131 33.9269 57.2641 33.9779L57.3311 34.0599C57.3311 34.0599 57.4311 34.1709 57.5941 34.3679C57.6781 34.4679 57.7701 34.5939 57.8811 34.7339C57.9921 34.8739 58.1191 35.0339 58.2401 35.2179L58.3321 35.3459C58.4431 35.3359 58.5541 35.3289 58.6671 35.3219C58.8861 35.3099 59.1101 35.2979 59.3271 35.2929C59.5441 35.2879 59.7561 35.2929 59.9631 35.2929C60.3801 35.2999 60.7821 35.3099 61.1171 35.3359C61.4521 35.3619 61.7361 35.3889 61.9361 35.4079L62.2521 35.4439C62.2521 35.4439 62.3361 35.5909 62.4521 35.8219C62.5101 35.9349 62.5721 36.0699 62.6451 36.2119C62.7181 36.3539 62.7901 36.5059 62.8551 36.6619C62.9871 36.9749 63.1301 37.2859 63.2191 37.5219L63.3661 37.9219L63.1881 38.1819C63.0721 38.3459 62.9111 38.5749 62.6971 38.8469C62.4831 39.1189 62.2391 39.4229 61.9701 39.7379C61.7011 40.0529 61.3871 40.3829 61.0841 40.6919C61.0048 40.7739 60.9254 40.8532 60.8461 40.9299L60.8851 41.0959C60.9721 41.5299 61.0561 41.8859 61.0851 42.1439C61.1141 42.4019 61.1481 42.5439 61.1481 42.5439C61.1481 42.5439 61.1741 42.6889 61.1991 42.9439L61.2451 43.4059C61.2671 43.5819 61.2691 43.7869 61.2841 44.0059V44.1599C61.3841 44.2129 61.4841 44.2679 61.5841 44.3239C62.294 44.7245 62.9787 45.1683 63.6341 45.6529C63.9061 45.8529 64.1341 46.0309 64.2921 46.1589L64.4761 46.3679ZM58.5251 44.7469V44.6099V44.4409V44.3279C58.5251 44.2649 58.5251 44.2049 58.5151 44.1469V44.0679L58.5051 43.9019C58.5051 43.8269 58.4981 43.7569 58.4911 43.6899V43.6439L58.4721 43.4659C58.4651 43.4009 58.4601 43.3379 58.4531 43.2849C58.4461 43.2149 58.4411 43.1549 58.4361 43.1069L58.4241 43.0179L58.4141 42.9509V42.9239V42.8949L58.3901 42.7379L58.3681 42.5889V42.5669L58.3461 42.4319L58.3271 42.3189L58.2981 42.1889L58.2841 42.1189C58.2601 41.9959 58.2311 41.8609 58.2021 41.7189C57.9949 40.8384 57.7064 39.979 57.3401 39.1519C56.9758 38.3352 56.5313 37.5567 56.0131 36.8279L56.0011 36.8139C55.9791 36.7799 55.9551 36.7469 55.9341 36.7139L55.8641 36.6199L55.8111 36.5499L55.7111 36.4199L55.6971 36.4009L55.5971 36.2759C55.5631 36.2299 55.5341 36.1919 55.5031 36.1559L55.4671 36.1079L55.3671 35.9969L55.2671 35.8739L55.2481 35.8519L55.2291 35.8299L55.2101 35.8059L55.1911 35.7839L55.1501 35.7359L55.1091 35.6849L55.0991 35.6749L55.0731 35.6439L55.0301 35.5959L55.0111 35.5769C54.9701 35.5339 54.9271 35.4849 54.8791 35.4349L54.7631 35.3119L54.7531 35.3019V35.2949L54.7431 35.2849L54.6511 35.1849C54.6101 35.1459 54.5691 35.1059 54.5261 35.0619L54.4131 34.9539L54.3671 34.9079L54.1961 34.7439L54.1551 34.7079L53.9701 34.5369L53.9311 34.5059C53.8641 34.4459 53.7961 34.3859 53.7241 34.3249L53.6851 34.2939C53.6131 34.2309 53.5401 34.1709 53.4631 34.1089L53.4221 34.0749C53.3451 34.0149 53.2701 33.9549 53.1911 33.8939L53.1241 33.8429C53.0521 33.7879 52.9791 33.7319 52.9051 33.6789L52.7751 33.5849L52.6091 33.4669C52.5091 33.3999 52.4091 33.3299 52.3031 33.2669C52.1971 33.2039 52.0961 33.1349 51.9951 33.0669C51.9251 33.0259 51.8581 32.9879 51.7951 32.9469L51.6821 32.8819C51.5951 32.8309 51.5091 32.7819 51.4221 32.7349L51.3711 32.7059C51.2771 32.6549 51.1831 32.6059 51.0891 32.5569L51.0621 32.5449C50.9621 32.4939 50.8691 32.4449 50.7751 32.3999L50.7611 32.3929C50.6671 32.3469 50.5761 32.3059 50.4861 32.2649L50.4671 32.2549C50.3778 32.2142 50.2911 32.1755 50.2071 32.1389L50.1451 32.1259C50.0611 32.0869 49.9761 32.0539 49.8971 32.0259L49.8631 32.0139L49.6371 31.9199C49.5601 31.8909 49.4831 31.8669 49.4151 31.8409H49.4051H49.3911L49.2301 31.7829L49.0521 31.7199L49.0161 31.7079L48.7031 31.6139L48.6771 31.6039L48.3771 31.5149L48.0041 31.4209H47.9941H47.9821L47.8571 31.3899C47.8021 31.3759 47.7411 31.3609 47.6811 31.3489L47.5651 31.3249L47.5141 31.3149H47.5071H47.4931C46.7354 31.1598 45.9661 31.0688 45.1931 31.0429C45.0731 31.0429 44.9521 31.0429 44.8291 31.0429C44.7061 31.0429 44.5831 31.0429 44.4611 31.0429H44.4061C44.3061 31.0429 44.2061 31.0429 44.0981 31.0549H44.0161L43.7411 31.0739L43.6471 31.0809L43.3921 31.1029L43.3131 31.1129L43.0551 31.1419L43.0021 31.1489L42.7321 31.1849H42.7101C42.5101 31.2139 42.3171 31.2479 42.1421 31.2849L41.9201 31.3309L41.6701 31.3819L41.5931 31.4009L41.3931 31.4519L41.2931 31.4789H41.2711L41.1361 31.5149L40.9671 31.5579H40.9411L40.9151 31.5679L40.7491 31.6209L40.6171 31.6619L40.5951 31.6689L40.5011 31.6999L40.3011 31.7599L40.2241 31.7859L39.9861 31.8749L39.7741 31.9539C39.6081 32.0169 39.4271 32.0909 39.2421 32.1729L39.2231 32.1799C39.1411 32.2159 39.0571 32.2519 38.9751 32.2909L38.9241 32.3149L38.6901 32.4259L38.6181 32.4619C38.5431 32.4979 38.4661 32.5389 38.3891 32.5779L38.3051 32.6209C38.2261 32.6619 38.1461 32.7079 38.0641 32.7509L37.9921 32.7919C37.9028 32.8399 37.8138 32.8905 37.7251 32.9439L37.6771 32.9729C37.5711 33.0359 37.4671 33.1009 37.3641 33.1659C37.2611 33.2309 37.1571 33.2959 37.0581 33.3659C36.416 33.7969 35.8118 34.282 35.2521 34.8159L35.2421 34.8259L35.2061 34.8619L35.1191 34.9439C35.0731 34.9869 35.0321 35.0309 34.9911 35.0719L34.9021 35.1639L34.8951 35.1739L34.8851 35.1809L34.6181 35.4579L34.4111 35.6939L34.3941 35.7159L34.1771 35.9619L34.1531 35.9909L34.0351 36.1399L33.9291 36.2749L33.9191 36.2849V36.2919C33.8731 36.3519 33.8191 36.4119 33.7721 36.4769L33.6271 36.6769L33.6081 36.7059C33.5551 36.7759 33.5081 36.8479 33.4511 36.9229L33.4391 36.9399L33.2781 37.1759L33.2681 37.1949C33.2128 37.2769 33.1574 37.3612 33.1021 37.4479L33.0951 37.4619C33.0401 37.5509 32.9821 37.6429 32.9261 37.7369L32.9161 37.7559C32.8608 37.8472 32.8054 37.9412 32.7501 38.0379L32.7241 38.0859C32.6761 38.1729 32.6241 38.2619 32.5791 38.3509L32.5211 38.4639L32.4131 38.6739C32.3581 38.7849 32.3051 38.8929 32.2541 39.0059C32.2031 39.1189 32.1541 39.2279 32.1051 39.3409C32.0761 39.4039 32.0521 39.4659 32.0261 39.5289C32.0001 39.5919 31.9851 39.6289 31.9661 39.6759C31.9321 39.7599 31.9011 39.8419 31.8661 39.9239L31.8321 40.0109C31.7981 40.1029 31.7651 40.1939 31.7321 40.2859L31.7131 40.3389C31.6821 40.4279 31.6531 40.5199 31.6241 40.6089L31.6071 40.6599C31.5781 40.7489 31.5521 40.8359 31.5281 40.9229L31.5141 40.9689C31.4901 41.0529 31.4661 41.1329 31.4441 41.2149L31.4321 41.2659C31.4101 41.3449 31.3911 41.4229 31.3721 41.4969L31.3581 41.5599L31.3191 41.7119C31.3051 41.7699 31.2901 41.8279 31.2801 41.8829L31.2541 42.0149V42.0269V42.0339V42.0479L31.2181 42.2259L31.1841 42.4039L31.1771 42.4299L31.1651 42.4949V42.5359V42.5479L31.1551 42.6129L31.1451 42.6759V42.7149V42.7339V42.7629V42.7919L31.1231 42.9439L31.0991 43.0979L31.0921 43.1559L31.0781 43.3079L31.0641 43.4649V43.4889C31.0641 43.5419 31.0541 43.5969 31.0471 43.6529L31.0401 43.7419L31.0331 43.8599C31.0331 43.8989 31.0331 43.9389 31.0261 43.9799V43.9989C30.9718 44.8922 31.0073 45.7887 31.1321 46.6749C31.2596 47.5699 31.4701 48.451 31.7611 49.3069C31.8141 49.4469 31.8611 49.5739 31.9031 49.6919L31.9271 49.7569L31.9751 49.8849L32.0161 49.9909L32.0711 50.1159L32.0811 50.1379L32.1411 50.2779L32.2041 50.4229L32.2161 50.4489L32.2261 50.4749L32.2521 50.5349L32.2911 50.6169L32.3701 50.7779L32.4491 50.9439C32.4751 50.9919 32.5001 51.0439 32.5281 51.1029L32.5471 51.1439C32.5785 51.2039 32.6118 51.2665 32.6471 51.3319L32.7291 51.4769L32.7651 51.5469L32.8561 51.7059L32.9111 51.8059L33.0001 51.9529L33.0701 52.0689L33.1571 52.2059L33.2441 52.3429L33.3311 52.4709L33.4311 52.6229L33.5181 52.7479C33.5571 52.8009 33.5931 52.8539 33.6311 52.9089L33.7391 53.0509C33.7751 53.0989 33.8091 53.1509 33.8451 53.1929C33.8931 53.2579 33.9451 53.3209 33.9941 53.3829C34.0201 53.4139 34.0451 53.4479 34.0691 53.4829C34.1461 53.5769 34.2261 53.6709 34.3051 53.7649C34.3841 53.8589 34.4641 53.9479 34.5461 54.0399C34.6111 54.1099 34.6741 54.1799 34.7391 54.2469L34.7921 54.3049C35.2426 54.7774 35.7265 55.2169 36.2401 55.6199L36.3941 55.7429L36.4611 55.7979L36.5611 55.8649L36.6401 55.9229H36.6471L36.6591 55.9299L36.8401 56.0619L36.9531 56.1439L37.2351 56.3289L37.2591 56.3429C37.2591 56.3429 37.3531 56.4029 37.5171 56.5119L37.5651 56.5409L37.7291 56.6409L37.8781 56.7279L37.8901 56.7349H37.8971L38.0851 56.8459L38.3191 56.9689H38.3311C38.4921 57.0559 38.6711 57.1449 38.8611 57.2359C39.0511 57.3279 39.2541 57.4169 39.4611 57.5059H39.4711C39.5711 57.5489 39.6781 57.5929 39.7841 57.6339L39.8131 57.6439C39.9131 57.6849 40.0131 57.7229 40.1191 57.7599L40.2191 57.7939C40.3011 57.8229 40.3801 57.8519 40.4651 57.8779C40.5811 57.9169 40.6961 57.9529 40.8141 57.9889C40.9321 58.0249 41.0481 58.0589 41.1661 58.0889L41.3251 58.1299L41.5181 58.1809L41.7401 58.2319L41.8681 58.2609C41.9501 58.2799 42.0321 58.2949 42.1141 58.3119L42.2141 58.3309L42.4551 58.3739L42.5461 58.3909C42.6231 58.4009 42.6981 58.4149 42.7721 58.4249L42.8631 58.4389C42.9351 58.4489 43.0031 58.4579 43.0731 58.4649L43.1671 58.4769L43.3571 58.4989L43.4571 58.5089H43.4981L43.5901 58.5159H43.6291L43.7211 58.5259H43.7501L43.8501 58.5329H43.8641C44.2471 58.5589 44.5221 58.5639 44.6351 58.5639H45.1221L45.2861 58.5539L45.4261 58.5469L45.5371 58.5399H45.6621C45.7341 58.5399 45.8111 58.5329 45.8881 58.5259L45.9411 58.5189C46.1221 58.5069 46.3191 58.4879 46.5241 58.4609L46.6321 58.4439L46.8391 58.4149C47.4269 58.3246 48.0084 58.1974 48.5801 58.0339C49.152 57.8699 49.7128 57.6695 50.2591 57.4339C50.3241 57.4079 50.3871 57.3809 50.4491 57.3519L50.5491 57.3059C50.7391 57.2189 50.9171 57.1329 51.0791 57.0479L51.1251 57.0239C51.1951 56.9899 51.2621 56.9539 51.3251 56.9179L51.4361 56.8549L51.5301 56.8019L51.6531 56.7349C51.7061 56.7089 51.7531 56.6799 51.7981 56.6559L51.8531 56.6199L51.8701 56.6099L51.9951 56.5309L52.1321 56.4469L52.1561 56.4329L52.1801 56.4159L52.2041 56.4019C52.3041 56.3419 52.5321 56.1919 52.8421 55.9679L52.8541 55.9579L52.9311 55.9029L52.9551 55.8859L53.0301 55.8279L53.0591 55.8059L53.1341 55.7509L53.1651 55.7269L53.2471 55.6619C53.2981 55.6229 53.3471 55.5849 53.3961 55.5439L53.4711 55.4839C53.5261 55.4409 53.5791 55.3969 53.6351 55.3489L53.7051 55.2889C53.7631 55.2409 53.8211 55.1889 53.8781 55.1399L53.9501 55.0769C54.0081 55.0219 54.0701 54.9689 54.1311 54.9129L54.2031 54.8429C54.2631 54.7879 54.3231 54.7299 54.3841 54.6719C54.4151 54.6429 54.4441 54.6089 54.4761 54.5779C54.5291 54.5269 54.5821 54.4779 54.6371 54.4189C54.6921 54.3599 54.7291 54.3189 54.7741 54.2739C54.8191 54.2289 54.8491 54.1969 54.8871 54.1559C54.9691 54.0669 55.0511 53.9749 55.1301 53.8839C55.2091 53.7929 55.2911 53.6989 55.3681 53.6049C55.4231 53.5379 55.4791 53.4699 55.5321 53.4049L55.5971 53.3259C55.6641 53.2389 55.7321 53.1499 55.7971 53.0659L55.8141 53.0419L56.0141 52.7699V52.7599C56.1461 52.5749 56.2691 52.3919 56.3821 52.2129C56.4981 52.0369 56.5991 51.8659 56.6901 51.7069L56.6971 51.6929C56.7431 51.6139 56.7881 51.5389 56.8291 51.4669C56.8701 51.3949 56.8991 51.3349 56.9291 51.2739V51.2639L56.9361 51.2519C56.9621 51.1969 56.9891 51.1519 57.0131 51.0999L57.1021 50.9309L57.1281 50.8799L57.2581 50.6009L57.2701 50.5749L57.4101 50.2689L57.4451 50.1259C57.4711 50.0659 57.4981 49.9979 57.5271 49.9259V49.9119V49.9049L57.5731 49.7969L57.6121 49.7059L57.6411 49.6219L57.7061 49.4389C57.9284 48.825 58.1055 48.1956 58.2361 47.5559L58.2501 47.4789C58.2691 47.3869 58.2891 47.2939 58.3031 47.2019C58.3251 47.0819 58.3441 46.9609 58.3631 46.8379L58.4141 46.4769C58.4141 46.4359 58.4211 46.3979 58.4261 46.3569C58.4361 46.2779 58.4451 46.1959 58.4521 46.1159C58.4521 46.0559 58.4621 45.9979 58.4661 45.9379L58.4801 45.7599C58.4801 45.6929 58.4871 45.6279 58.4921 45.5599L58.4991 45.4079C58.4991 45.3449 58.4991 45.2849 58.5061 45.2229V45.0709V44.9069L58.5251 44.7469Z" fill="#000D20"/>
</g>
<path fill-rule="evenodd" clip-rule="evenodd" d="M80 1H10C5.02944 1 1 5.02944 1 10V80C1 84.9706 5.02944 89 10 89H80C84.9706 89 89 84.9706 89 80V10C89 5.02944 84.9706 1 80 1ZM10 0C4.47715 0 0 4.47715 0 10V80C0 85.5229 4.47715 90 10 90H80C85.5229 90 90 85.5229 90 80V10C90 4.47715 85.5229 0 80 0H10Z" fill="#1A2730"/>
<defs>
<clipPath id="clip0_218_772">
<rect width="39.475" height="39.137" fill="white" transform="translate(25 25)"/>
</clipPath>
</defs>
</svg>
