<svg width="90" height="90" viewBox="0 0 90 90" fill="none" xmlns="http://www.w3.org/2000/svg">
<g clip-path="url(#clip0_218_775)">
<path fill-rule="evenodd" clip-rule="evenodd" d="M70.193 36.171H65.818C65.5881 36.1706 65.3603 36.2155 65.1477 36.3032C64.9351 36.3909 64.7418 36.5197 64.579 36.6821C64.4162 36.8445 64.287 37.0375 64.1988 37.2499C64.1106 37.4623 64.0652 37.69 64.065 37.92V44.479H60.042V43.652H60.815V42.51H61.8081C61.8436 42.512 61.8792 42.507 61.9128 42.4952C61.9464 42.4834 61.9773 42.465 62.0038 42.4413C62.0303 42.4175 62.0518 42.3887 62.0671 42.3565C62.0824 42.3244 62.0912 42.2895 62.093 42.254C62.0903 42.1905 62.0646 42.1302 62.0206 42.0843C61.9766 42.0385 61.9174 42.0103 61.854 42.005L61.784 41.988L60.629 41.842V41.633L61.8771 41.507C61.9124 41.5057 61.947 41.4973 61.979 41.4823C62.011 41.4674 62.0396 41.4461 62.0632 41.4197C62.0867 41.3934 62.1047 41.3625 62.116 41.3291C62.1273 41.2956 62.1318 41.2602 62.129 41.225C62.1149 41.1547 62.0744 41.0925 62.0158 41.0511C61.9572 41.0098 61.885 40.9926 61.814 41.003H61.801H61.784L60.629 40.864V40.652L61.875 40.522C61.9103 40.5204 61.9448 40.5119 61.9767 40.4968C62.0085 40.4817 62.037 40.4604 62.0605 40.4341C62.084 40.4078 62.102 40.3771 62.1134 40.3438C62.1248 40.3104 62.1295 40.2751 62.1271 40.24C62.1136 40.1693 62.0733 40.1066 62.0145 40.0652C61.9557 40.0238 61.8831 40.0068 61.8121 40.018H61.7991H61.7821L60.6271 39.875V39.666L61.875 39.54C61.9103 39.5384 61.9448 39.5299 61.9767 39.5148C62.0085 39.4997 62.037 39.4784 62.0605 39.4521C62.084 39.4258 62.102 39.3951 62.1134 39.3618C62.1248 39.3284 62.1295 39.2931 62.1271 39.258C62.1134 39.1872 62.0731 39.1243 62.0145 39.0822C61.956 39.0402 61.8835 39.0222 61.8121 39.032H61.7991H61.7821L60.6271 38.889V38.68L61.875 38.554C61.9103 38.5524 61.9448 38.5439 61.9767 38.5288C62.0085 38.5137 62.037 38.4924 62.0605 38.4661C62.084 38.4398 62.102 38.4091 62.1134 38.3758C62.1248 38.3424 62.1295 38.3071 62.1271 38.272C62.1134 38.2012 62.0731 38.1383 62.0145 38.0963C61.956 38.0542 61.8835 38.0362 61.8121 38.046H61.7991H61.7821L60.6271 37.903V37.694L61.875 37.568C61.9103 37.5664 61.9448 37.5579 61.9767 37.5428C62.0085 37.5277 62.037 37.5064 62.0605 37.4801C62.084 37.4538 62.102 37.4231 62.1134 37.3898C62.1248 37.3564 62.1295 37.3211 62.1271 37.286C62.1139 37.2149 62.0737 37.1517 62.015 37.1096C61.9563 37.0675 61.8836 37.0497 61.8121 37.06H61.7991H61.7821L60.6271 36.917V36.708L61.875 36.582C61.9103 36.5804 61.9448 36.5719 61.9767 36.5568C62.0085 36.5417 62.037 36.5204 62.0605 36.4941C62.084 36.4678 62.102 36.4371 62.1134 36.4038C62.1248 36.3704 62.1295 36.3351 62.1271 36.3C62.1139 36.2289 62.0737 36.1657 62.015 36.1236C61.9563 36.0815 61.8836 36.0637 61.8121 36.074H61.7821L60.6271 35.931V35.722L61.875 35.593C61.9101 35.5918 61.9446 35.5836 61.9765 35.5689C62.0083 35.5541 62.0369 35.5331 62.0604 35.507C62.0839 35.481 62.1019 35.4505 62.1134 35.4173C62.1248 35.3841 62.1295 35.349 62.1271 35.314C62.1139 35.2429 62.0737 35.1797 62.015 35.1376C61.9563 35.0955 61.8836 35.0777 61.8121 35.088H61.7821L61.477 35.048H61.875C61.9104 35.0497 61.9457 35.0445 61.979 35.0325C62.0123 35.0206 62.0429 35.0022 62.0691 34.9785C62.0953 34.9547 62.1166 34.926 62.1317 34.894C62.1468 34.862 62.1554 34.8273 62.1571 34.792C62.1565 34.7587 62.1492 34.7259 62.1354 34.6956C62.1216 34.6653 62.1018 34.6382 62.077 34.616H62.27V34.284H61.4751V34.002H57.6871V34.284H57.056V34.616H57.2561C57.2313 34.6382 57.2115 34.6653 57.1977 34.6956C57.1839 34.7259 57.1766 34.7587 57.176 34.792C57.1768 34.8466 57.1954 34.8995 57.2289 34.9427C57.2625 34.9858 57.3092 35.0168 57.362 35.031C57.394 35.0507 57.4305 35.0621 57.468 35.064L58.537 35.197V35.419L57.4321 35.532C57.3969 35.5338 57.3625 35.5425 57.3308 35.5576C57.299 35.5728 57.2706 35.5942 57.2472 35.6204C57.2238 35.6466 57.2058 35.6772 57.1942 35.7104C57.1827 35.7437 57.1779 35.7789 57.18 35.814C57.1889 35.8655 57.2125 35.9133 57.248 35.9516C57.2835 35.99 57.3294 36.0172 57.3801 36.03C57.4077 36.0411 57.4366 36.0488 57.466 36.053L58.535 36.182V36.404L57.43 36.517C57.3948 36.5185 57.3603 36.527 57.3284 36.5421C57.2966 36.5572 57.268 36.5785 57.2446 36.6048C57.2211 36.6311 57.2031 36.6618 57.1917 36.6952C57.1802 36.7285 57.1756 36.7638 57.1781 36.799C57.1869 36.8505 57.2105 36.8983 57.246 36.9366C57.2815 36.975 57.3274 37.0022 57.378 37.015C57.4057 37.0261 57.4345 37.0338 57.464 37.038L58.533 37.171V37.39L57.4281 37.503C57.3929 37.5047 57.3585 37.5135 57.3268 37.5287C57.295 37.5438 57.2666 37.5651 57.2432 37.5914C57.2198 37.6176 57.2018 37.6482 57.1902 37.6814C57.1787 37.7147 57.1739 37.7499 57.176 37.785C57.1849 37.8365 57.2085 37.8843 57.244 37.9226C57.2795 37.9609 57.3254 37.9882 57.3761 38.001C57.4037 38.0121 57.4325 38.0198 57.4621 38.024L58.5311 38.157V38.376L57.426 38.489C57.3597 38.4823 57.2935 38.5023 57.242 38.5445C57.1904 38.5867 57.1577 38.6477 57.151 38.714C57.1444 38.7803 57.1644 38.8465 57.2066 38.8981C57.2488 38.9496 57.3097 38.9823 57.3761 38.989C57.4031 39.0016 57.4323 39.0094 57.4621 39.012L58.5311 39.145V39.364L57.426 39.477C57.3909 39.4787 57.3565 39.4875 57.3248 39.5027C57.293 39.5178 57.2646 39.5391 57.2412 39.5654C57.2178 39.5916 57.1998 39.6222 57.1882 39.6554C57.1767 39.6887 57.1719 39.7239 57.1741 39.759C57.1819 39.8109 57.2052 39.8592 57.2408 39.8977C57.2765 39.9362 57.3229 39.9631 57.374 39.975C57.4011 39.9876 57.4302 39.9954 57.46 39.998L58.529 40.131V40.353L57.4241 40.463C57.3889 40.4648 57.3545 40.4735 57.3228 40.4886C57.291 40.5038 57.2626 40.5252 57.2392 40.5514C57.2158 40.5776 57.1978 40.6082 57.1862 40.6414C57.1747 40.6747 57.1699 40.7099 57.172 40.745C57.1799 40.7969 57.2032 40.8452 57.2388 40.8837C57.2745 40.9222 57.3209 40.9491 57.3721 40.961C57.3992 40.9736 57.4283 40.9814 57.4581 40.984L58.5271 41.117V41.339L57.422 41.452C57.358 41.4483 57.295 41.4695 57.2463 41.5112C57.1975 41.5529 57.1666 41.6117 57.1602 41.6755C57.1538 41.7394 57.1722 41.8032 57.2117 41.8538C57.2511 41.9043 57.3086 41.9377 57.3721 41.947C57.3995 41.9594 57.4284 41.9685 57.4581 41.974L57.724 42.007H57.3891C57.3538 42.0048 57.3185 42.0096 57.285 42.0211C57.2516 42.0326 57.2208 42.0505 57.1944 42.0739C57.1679 42.0973 57.1463 42.1257 57.1308 42.1575C57.1153 42.1892 57.1062 42.2237 57.104 42.259C57.1058 42.2945 57.1146 42.3294 57.13 42.3615C57.1453 42.3937 57.1668 42.4225 57.1933 42.4463C57.2198 42.4701 57.2507 42.4884 57.2843 42.5002C57.3179 42.512 57.3535 42.517 57.3891 42.515H58.3421V43.657H59.115V44.484H48.559C48.276 43.7628 47.7822 43.1436 47.1421 42.7072C46.502 42.2708 45.7453 42.0374 44.9705 42.0374C44.1958 42.0374 43.4391 42.2708 42.799 42.7072C42.1589 43.1436 41.6651 43.7628 41.382 44.484H30.717V43.657H31.4901V42.515H32.483C32.5186 42.517 32.5542 42.512 32.5878 42.5002C32.6214 42.4884 32.6523 42.4701 32.6788 42.4463C32.7053 42.4225 32.7268 42.3937 32.7421 42.3615C32.7575 42.3294 32.7663 42.2945 32.7681 42.259C32.7646 42.1952 32.7382 42.1349 32.6937 42.0891C32.6492 42.0433 32.5897 42.0152 32.526 42.01L32.4601 41.993L31.305 41.847V41.638L32.553 41.512C32.5883 41.5104 32.6228 41.5019 32.6547 41.4868C32.6865 41.4717 32.715 41.4504 32.7385 41.4241C32.762 41.3978 32.78 41.3671 32.7914 41.3338C32.8029 41.3004 32.8075 41.2651 32.805 41.23C32.7909 41.1597 32.7504 41.0975 32.6918 41.0562C32.6332 41.0148 32.561 40.9976 32.4901 41.008H32.4751H32.458L31.303 40.869V40.657L32.551 40.531C32.5862 40.5292 32.6206 40.5204 32.6523 40.5053C32.6841 40.4901 32.7125 40.4688 32.7359 40.4426C32.7593 40.4163 32.7773 40.3857 32.7889 40.3525C32.8004 40.3192 32.8052 40.2841 32.803 40.249C32.7896 40.1783 32.7493 40.1156 32.6905 40.0742C32.6317 40.0328 32.5591 40.0158 32.4881 40.027H32.4751H32.458L31.303 39.884V39.675L32.551 39.549C32.5862 39.5472 32.6206 39.5384 32.6523 39.5233C32.6841 39.5081 32.7125 39.4868 32.7359 39.4605C32.7593 39.4343 32.7773 39.4037 32.7889 39.3705C32.8004 39.3373 32.8052 39.3021 32.803 39.267C32.7894 39.1962 32.7491 39.1333 32.6905 39.0912C32.6319 39.0492 32.5595 39.0312 32.4881 39.041H32.4751H32.458L31.303 38.898V38.689L32.551 38.563C32.5862 38.5612 32.6206 38.5524 32.6523 38.5373C32.6841 38.5221 32.7125 38.5008 32.7359 38.4745C32.7593 38.4483 32.7773 38.4177 32.7889 38.3845C32.8004 38.3512 32.8052 38.3161 32.803 38.281C32.7894 38.2102 32.7491 38.1473 32.6905 38.1052C32.6319 38.0632 32.5595 38.0452 32.4881 38.055H32.4751H32.458L31.303 37.912V37.703L32.551 37.577C32.5862 37.5752 32.6206 37.5664 32.6523 37.5513C32.6841 37.5361 32.7125 37.5148 32.7359 37.4885C32.7593 37.4623 32.7773 37.4317 32.7889 37.3985C32.8004 37.3653 32.8052 37.3301 32.803 37.295C32.7898 37.2239 32.7497 37.1607 32.691 37.1186C32.6323 37.0765 32.5596 37.0587 32.4881 37.069H32.4751H32.458L31.303 36.926V36.717L32.551 36.591C32.5862 36.5892 32.6206 36.5804 32.6523 36.5653C32.6841 36.5501 32.7125 36.5288 32.7359 36.5025C32.7593 36.4763 32.7773 36.4457 32.7889 36.4125C32.8004 36.3792 32.8052 36.3441 32.803 36.309C32.7898 36.2379 32.7497 36.1747 32.691 36.1326C32.6323 36.0905 32.5596 36.0727 32.4881 36.083H32.458L31.303 35.94V35.722L32.551 35.593C32.586 35.5916 32.6204 35.5832 32.6521 35.5683C32.6838 35.5535 32.7122 35.5324 32.7357 35.5065C32.7592 35.4805 32.7772 35.45 32.7888 35.417C32.8004 35.3839 32.8052 35.3489 32.803 35.314C32.7898 35.2429 32.7497 35.1797 32.691 35.1376C32.6323 35.0955 32.5596 35.0777 32.4881 35.088H32.458L32.153 35.048H32.545C32.6167 35.0515 32.6869 35.0266 32.7403 34.9787C32.7936 34.9307 32.8259 34.8636 32.83 34.792C32.8295 34.7587 32.8221 34.7259 32.8084 34.6956C32.7946 34.6653 32.7748 34.6382 32.75 34.616H32.943V34.284H32.15V34.002H28.366V34.284H27.732V34.616H27.9321C27.907 34.6381 27.8867 34.6651 27.8724 34.6954C27.8581 34.7257 27.8502 34.7585 27.849 34.792C27.8505 34.8469 27.8697 34.8999 27.9037 34.9429C27.9378 34.986 27.9849 35.0169 28.038 35.031C28.07 35.0507 28.1065 35.0621 28.144 35.064L29.2101 35.197V35.419L28.11 35.532C28.0749 35.5338 28.0405 35.5425 28.0088 35.5576C27.977 35.5728 27.9486 35.5942 27.9252 35.6204C27.9018 35.6466 27.8838 35.6772 27.8722 35.7104C27.8607 35.7437 27.8559 35.7789 27.858 35.814C27.8669 35.8655 27.8905 35.9133 27.926 35.9516C27.9615 35.99 28.0074 36.0172 28.058 36.03C28.0855 36.0415 28.1145 36.0492 28.144 36.053L29.2101 36.182V36.404L28.11 36.517C28.0748 36.5185 28.0403 36.527 28.0084 36.5421C27.9766 36.5572 27.948 36.5785 27.9246 36.6048C27.9011 36.6311 27.8831 36.6618 27.8717 36.6952C27.8602 36.7285 27.8556 36.7638 27.858 36.799C27.8669 36.8505 27.8905 36.8983 27.926 36.9366C27.9615 36.975 28.0074 37.0022 28.058 37.015C28.0855 37.0265 28.1145 37.0342 28.144 37.038L29.2101 37.171V37.39L28.11 37.503C28.0749 37.5047 28.0405 37.5135 28.0088 37.5287C27.977 37.5438 27.9486 37.5651 27.9252 37.5914C27.9018 37.6176 27.8838 37.6482 27.8722 37.6814C27.8607 37.7147 27.8559 37.7499 27.858 37.785C27.8669 37.8365 27.8905 37.8843 27.926 37.9226C27.9615 37.9609 28.0074 37.9882 28.058 38.001C28.0855 38.0125 28.1145 38.0203 28.144 38.024L29.2101 38.157V38.376L28.11 38.489C28.0437 38.4823 27.9775 38.5023 27.9259 38.5445C27.8744 38.5867 27.8417 38.6477 27.8351 38.714C27.8284 38.7803 27.8484 38.8465 27.8906 38.8981C27.9328 38.9496 27.9937 38.9823 28.06 38.989C28.087 39.002 28.1162 39.0098 28.146 39.012L29.2121 39.145V39.364L28.112 39.477C28.0769 39.4787 28.0425 39.4875 28.0108 39.5027C27.979 39.5178 27.9506 39.5391 27.9272 39.5654C27.9038 39.5916 27.8858 39.6222 27.8742 39.6554C27.8627 39.6887 27.8579 39.7239 27.86 39.759C27.8679 39.8109 27.8912 39.8592 27.9268 39.8977C27.9625 39.9362 28.0089 39.9631 28.06 39.975C28.087 39.988 28.1162 39.9958 28.146 39.998L29.2121 40.131V40.353L28.112 40.463C28.0769 40.4648 28.0425 40.4735 28.0108 40.4886C27.979 40.5038 27.9506 40.5252 27.9272 40.5514C27.9038 40.5776 27.8858 40.6082 27.8742 40.6414C27.8627 40.6747 27.8579 40.7099 27.86 40.745C27.8679 40.7969 27.8912 40.8452 27.9268 40.8837C27.9625 40.9222 28.0089 40.9491 28.06 40.961C28.087 40.974 28.1162 40.9818 28.146 40.984L29.2121 41.117V41.339L28.112 41.452C28.048 41.4483 27.985 41.4695 27.9362 41.5112C27.8875 41.5529 27.8566 41.6117 27.8502 41.6755C27.8437 41.7394 27.8622 41.8032 27.9016 41.8538C27.9411 41.9043 27.9986 41.9377 28.062 41.947C28.0893 41.9599 28.1183 41.9689 28.148 41.974L28.414 42.007H28.075C28.0398 42.0048 28.0044 42.0096 27.971 42.0211C27.9376 42.0326 27.9068 42.0505 27.8804 42.0739C27.8539 42.0973 27.8323 42.1257 27.8168 42.1575C27.8013 42.1892 27.7922 42.2237 27.79 42.259C27.7918 42.2945 27.8006 42.3294 27.8159 42.3615C27.8313 42.3937 27.8528 42.4225 27.8793 42.4463C27.9058 42.4701 27.9367 42.4884 27.9703 42.5002C28.0039 42.512 28.0395 42.517 28.075 42.515H29.028V43.657H29.801V44.484H25.875V37.922C25.8743 37.4577 25.6892 37.0126 25.3605 36.6847C25.0318 36.3567 24.5864 36.1727 24.122 36.173H19.747C19.2833 36.1732 18.8385 36.3576 18.5106 36.6855C18.1827 37.0135 17.9983 37.4582 17.998 37.922V54.302C17.9983 54.7657 18.1827 55.2104 18.5106 55.5384C18.8385 55.8663 19.2833 56.0507 19.747 56.051H24.122C24.5864 56.0512 25.0318 55.8672 25.3605 55.5392C25.6892 55.2113 25.8743 54.7663 25.875 54.302V47.302H41.3801C41.6631 48.0231 42.1569 48.6423 42.797 49.0787C43.4371 49.5151 44.1938 49.7485 44.9686 49.7485C45.7433 49.7485 46.5 49.5151 47.1401 49.0787C47.7802 48.6423 48.274 48.0231 48.5571 47.302H64.065V54.302C64.0652 54.5319 64.1106 54.7596 64.1988 54.972C64.287 55.1844 64.4162 55.3774 64.579 55.5398C64.7418 55.7022 64.9351 55.831 65.1477 55.9187C65.3603 56.0064 65.5881 56.0514 65.818 56.051H70.193C70.6568 56.0507 71.1015 55.8663 71.4295 55.5384C71.7574 55.2104 71.9418 54.7657 71.942 54.302V37.922C71.9422 37.6922 71.897 37.4646 71.8092 37.2522C71.7214 37.0398 71.5926 36.8468 71.4302 36.6842C71.2678 36.5216 71.0749 36.3926 70.8627 36.3046C70.6504 36.2165 70.4229 36.1711 70.193 36.171Z" fill="#000D20"/>
</g>
<path fill-rule="evenodd" clip-rule="evenodd" d="M80 1H10C5.02944 1 1 5.02944 1 10V80C1 84.9706 5.02944 89 10 89H80C84.9706 89 89 84.9706 89 80V10C89 5.02944 84.9706 1 80 1ZM10 0C4.47715 0 0 4.47715 0 10V80C0 85.5229 4.47715 90 10 90H80C85.5229 90 90 85.5229 90 80V10C90 4.47715 85.5229 0 80 0H10Z" fill="#1A2730"/>
<defs>
<clipPath id="clip0_218_775">
<rect width="53.942" height="22.051" fill="white" transform="translate(18 34)"/>
</clipPath>
</defs>
</svg>
