<svg width="42" height="42" viewBox="0 0 42 42" fill="none" xmlns="http://www.w3.org/2000/svg">
<circle cx="21" cy="21" r="21" fill="#F4F4F5"/>
<path d="M20.6097 14.0471C19.3118 14.0471 18.043 14.4319 16.9638 15.153C15.8846 15.8741 15.0435 16.8991 14.5468 18.0982C14.0501 19.2973 13.9201 20.6168 14.1733 21.8898C14.4265 23.1628 15.0515 24.3322 15.9693 25.25C16.8871 26.1677 18.0564 26.7927 19.3294 27.046C20.6024 27.2992 21.9219 27.1692 23.1211 26.6725C24.3202 26.1758 25.3451 25.3347 26.0662 24.2555C26.7873 23.1763 27.1722 21.9075 27.1722 20.6096C27.1702 18.8697 26.4782 17.2016 25.2479 15.9714C24.0176 14.7411 22.3496 14.049 20.6097 14.0471ZM20.6097 25.2971C19.6826 25.2971 18.7763 25.0221 18.0055 24.5071C17.2346 23.992 16.6338 23.2599 16.279 22.4034C15.9242 21.5469 15.8314 20.6044 16.0123 19.6951C16.1931 18.7858 16.6396 17.9506 17.2951 17.295C17.9507 16.6394 18.7859 16.193 19.6952 16.0121C20.6045 15.8313 21.547 15.9241 22.4035 16.2789C23.2601 16.6337 23.9922 17.2345 24.5072 18.0053C25.0223 18.7762 25.2972 19.6825 25.2972 20.6096C25.2958 21.8523 24.8015 23.0438 23.9227 23.9226C23.044 24.8014 21.8525 25.2957 20.6097 25.2971ZM32.844 22.8594L31.3866 20.9165C31.3923 20.7119 31.3923 20.5072 31.3866 20.3026L32.8434 18.3597C33.0215 18.122 33.1407 17.8454 33.1913 17.5526C33.2418 17.2599 33.2222 16.9594 33.134 16.6757C32.9027 15.9379 32.6065 15.2221 32.2489 14.5366C32.1107 14.2732 31.912 14.0463 31.669 13.8747C31.4261 13.7031 31.1459 13.5917 30.8514 13.5495L28.4471 13.2061C28.3768 13.1317 28.3055 13.0584 28.2333 12.9862C28.1612 12.9141 28.0878 12.8427 28.0131 12.7722L27.6694 10.3681C27.6273 10.074 27.516 9.79415 27.3447 9.55145C27.1734 9.30875 26.947 9.11013 26.684 8.97191C25.9988 8.61371 25.2832 8.31696 24.5456 8.08515C24.2617 7.99664 23.9608 7.97679 23.6677 8.02721C23.3746 8.07763 23.0977 8.19689 22.8597 8.37519L20.9166 9.83253C20.7121 9.82681 20.5075 9.82681 20.303 9.83253L18.3597 8.37566C18.1219 8.1976 17.8454 8.07844 17.5526 8.02796C17.2599 7.97749 16.9594 7.99712 16.6757 8.08527C15.938 8.31654 15.2222 8.61274 14.5367 8.97038C14.2733 9.10854 14.0464 9.30727 13.8748 9.55022C13.7032 9.79317 13.5917 10.0734 13.5495 10.3678L13.2062 12.7722C13.1316 12.8426 13.0583 12.9139 12.9862 12.986C12.914 13.0582 12.8427 13.1315 12.7722 13.2061L10.3681 13.5498C10.0741 13.592 9.79419 13.7033 9.55149 13.8746C9.30879 14.0459 9.11017 14.2723 8.97194 14.5353C8.61379 15.2205 8.31704 15.936 8.08518 16.6736C7.99664 16.9576 7.97678 17.2585 8.02722 17.5516C8.07766 17.8448 8.19697 18.1218 8.37533 18.3598L9.83268 20.3028C9.82697 20.5073 9.82697 20.7119 9.83268 20.9165L8.37592 22.8594C8.19777 23.0972 8.07854 23.3737 8.02802 23.6665C7.9775 23.9592 7.99713 24.2598 8.0853 24.5434C8.3166 25.2812 8.61279 25.9971 8.97041 26.6826C9.10859 26.946 9.30732 27.1728 9.55027 27.3444C9.79322 27.516 10.0734 27.6275 10.3679 27.6696L12.7722 28.013C12.8425 28.0874 12.9138 28.1607 12.986 28.233C13.0581 28.3051 13.1315 28.3764 13.2062 28.4469L13.5499 30.851C13.592 31.1451 13.7033 31.425 13.8746 31.6677C14.0459 31.9104 14.2723 32.109 14.5353 32.2472C15.2205 32.6054 15.9361 32.9022 16.6737 33.134C16.8543 33.1906 17.0425 33.2194 17.2318 33.2194C17.6385 33.2194 18.0342 33.0876 18.3597 32.8438L20.3028 31.3865C20.5076 31.3923 20.7117 31.3923 20.9164 31.3865L22.8595 32.8435C23.0972 33.0215 23.3738 33.1407 23.6665 33.1912C23.9593 33.2417 24.2598 33.222 24.5435 33.1339C25.2812 32.9026 25.997 32.6064 26.6825 32.2487C26.9459 32.1106 27.1727 31.9119 27.3444 31.669C27.516 31.426 27.6275 31.1458 27.6697 30.8514L28.013 28.4469C28.0876 28.3765 28.1609 28.3052 28.233 28.2331C28.3052 28.161 28.3765 28.0876 28.447 28.013L30.8511 27.6693C31.1451 27.6271 31.425 27.5158 31.6677 27.3446C31.9104 27.1733 32.109 26.9469 32.2472 26.684C32.6054 25.9987 32.9021 25.2831 33.134 24.5455C33.2225 24.2616 33.2424 23.9607 33.192 23.6676C33.1415 23.3744 33.0222 23.0975 32.8438 22.8594H32.844ZM30.5858 25.8132L27.8497 26.2044C27.6298 26.2359 27.4282 26.3444 27.2808 26.5107C27.0398 26.7826 26.7826 27.0399 26.5107 27.2809C26.3444 27.4283 26.2359 27.6299 26.2045 27.8498L25.8148 30.5867C25.2284 30.8928 24.6158 31.146 23.9844 31.3431L21.773 29.6851C21.5954 29.5517 21.376 29.4859 21.1543 29.4995C20.7915 29.5211 20.4278 29.5211 20.065 29.4995C19.8432 29.4859 19.6239 29.5517 19.4463 29.6853L17.2354 31.3451C16.6042 31.147 15.992 30.8928 15.4061 30.5857L15.0148 27.8496C14.9834 27.6298 14.8749 27.4283 14.7087 27.2809C14.4369 27.0398 14.1796 26.7825 13.9385 26.5107C13.7911 26.3444 13.5895 26.2359 13.3695 26.2044L10.6326 25.8148C10.3265 25.2284 10.0733 24.6158 9.87616 23.9843L11.5341 21.773C11.6674 21.5953 11.7332 21.376 11.7199 21.1542C11.6981 20.7915 11.6981 20.4278 11.7199 20.065C11.7332 19.8432 11.6673 19.624 11.534 19.4462L9.87416 17.2351C10.0723 16.604 10.3264 15.9918 10.6335 15.4059L13.3696 15.0146C13.5895 14.9831 13.7911 14.8746 13.9385 14.7084C14.1796 14.4365 14.4369 14.1793 14.7087 13.9381C14.8749 13.7907 14.9834 13.5891 15.0148 13.3692L15.4045 10.6323C15.9909 10.3262 16.6035 10.073 17.2349 9.87589L19.4463 11.5339C19.624 11.6671 19.8433 11.7329 20.065 11.7195C20.4278 11.6979 20.7915 11.6979 21.1543 11.7195C21.376 11.7329 21.5953 11.6671 21.773 11.5337L23.9839 9.87402C24.6151 10.0721 25.2273 10.3263 25.8132 10.6334L26.2045 13.3695C26.236 13.5893 26.3445 13.7909 26.5107 13.9382C26.6466 14.0587 26.7788 14.1833 26.9072 14.3117C27.0357 14.4402 27.1603 14.5725 27.2808 14.7085C27.4282 14.8747 27.6298 14.9833 27.8498 15.0147L30.5867 15.4043C30.8929 15.9907 31.146 16.6033 31.3431 17.2348L29.6852 19.4461C29.5519 19.6239 29.4861 19.8431 29.4994 20.0649C29.5212 20.4276 29.5212 20.7913 29.4994 21.154C29.4861 21.3758 29.552 21.5951 29.6853 21.7729L31.345 23.9837C31.1469 24.6149 30.8927 25.2271 30.5856 25.813L30.5858 25.8132Z" fill="#2A2E43"/>
</svg>
