<svg width="90" height="90" viewBox="0 0 90 90" fill="none" xmlns="http://www.w3.org/2000/svg">
<path fill-rule="evenodd" clip-rule="evenodd" d="M80 1H10C5.02944 1 1 5.02944 1 10V80C1 84.9706 5.02944 89 10 89H80C84.9706 89 89 84.9706 89 80V10C89 5.02944 84.9706 1 80 1ZM10 0C4.47715 0 0 4.47715 0 10V80C0 85.5229 4.47715 90 10 90H80C85.5229 90 90 85.5229 90 80V10C90 4.47715 85.5229 0 80 0H10Z" fill="#1A2730"/>
<g clip-path="url(#clip0_536_170)">
<path d="M57.295 35.1536H57.304C57.458 35.0685 57.6185 34.996 57.7841 34.9366L58.0421 34.8476L58.056 34.8426C58.1969 34.7692 58.3495 34.7211 58.507 34.7006H58.5391L58.569 34.6906C59.596 34.3556 60.3771 34.0776 60.8851 33.8676C61.4334 33.6464 61.9605 33.3759 62.46 33.0596C62.8897 32.7855 63.2568 32.4239 63.5372 31.9983C63.8175 31.5726 64.0049 31.0926 64.087 30.5896C64.191 30.1465 64.1844 29.6845 64.0677 29.2445C63.951 28.8046 63.7279 28.4 63.418 28.0666C63.0283 27.7112 62.57 27.4391 62.0713 27.2672C61.5726 27.0952 61.0441 27.027 60.5181 27.0666C59.555 27.0123 58.5944 27.2094 57.7306 27.6386C56.8668 28.0678 56.1295 28.7143 55.5911 29.5146V29.5216C55.5376 29.5943 55.5024 29.6788 55.4887 29.7679C55.4749 29.8571 55.4829 29.9482 55.512 30.0336C55.5528 30.1115 55.6096 30.1799 55.6785 30.2345C55.7474 30.2891 55.8269 30.3287 55.9121 30.3506L56.7631 30.6396C56.9459 30.7022 57.1449 30.6986 57.3253 30.6293C57.5057 30.56 57.6561 30.4295 57.7501 30.2606C58.0165 29.8727 58.3767 29.5585 58.7972 29.3473C59.2177 29.1361 59.6848 29.0347 60.155 29.0526C60.3693 29.033 60.5853 29.0565 60.7903 29.1216C60.9953 29.1867 61.1853 29.2921 61.3491 29.4316C61.4776 29.5706 61.5675 29.7408 61.61 29.9254C61.6524 30.1099 61.6459 30.3024 61.5911 30.4836C61.5198 30.7791 61.3854 31.0556 61.1973 31.2943C61.0091 31.533 60.7717 31.7282 60.501 31.8666C59.7655 32.2374 58.9951 32.5345 58.2011 32.7536C57.5064 32.962 56.8309 33.2297 56.1821 33.5536C55.685 33.7961 55.2468 34.1439 54.8978 34.5728C54.5488 35.0018 54.2974 35.5017 54.1611 36.0376L53.942 37.1276C53.9203 37.2129 53.9201 37.3023 53.9412 37.3878C53.9623 37.4733 54.0041 37.5522 54.0631 37.6176C54.1362 37.6802 54.2211 37.7278 54.3128 37.7575C54.4044 37.7872 54.501 37.7984 54.5971 37.7906H61.7271C61.9187 37.8167 62.113 37.7674 62.2689 37.653C62.4249 37.5387 62.5303 37.3682 62.5631 37.1776L62.712 36.4776C62.7402 36.3945 62.7464 36.3056 62.7301 36.2194C62.7138 36.1332 62.6755 36.0527 62.619 35.9856C62.5456 35.9201 62.4596 35.8703 62.3662 35.8394C62.2728 35.8084 62.1741 35.7969 62.0761 35.8056H56.7451L56.7601 35.7246C56.794 35.5921 56.8608 35.4703 56.9544 35.3705C57.0479 35.2707 57.165 35.1961 57.295 35.1536Z" fill="#1A2730"/>
<path d="M73.958 33.6936C73.8845 33.6283 73.7984 33.5787 73.7051 33.548C73.6117 33.5172 73.513 33.5059 73.4151 33.5146H72.4801L73.62 27.9146C73.6483 27.8315 73.6547 27.7426 73.6384 27.6564C73.6221 27.5701 73.5837 27.4896 73.5271 27.4226C73.4536 27.3573 73.3675 27.3077 73.2741 27.2769C73.1807 27.2461 73.082 27.2348 72.984 27.2436H72.073C71.7067 27.2472 71.3546 27.3865 71.0851 27.6346L64.3711 33.5576C64.1742 33.7317 64.045 33.9697 64.0061 34.2296L63.906 34.7416C63.8779 34.8247 63.8717 34.9136 63.888 34.9998C63.9043 35.086 63.9426 35.1665 63.9991 35.2336C64.0724 35.2992 64.1585 35.349 64.2519 35.3799C64.3453 35.4109 64.444 35.4224 64.542 35.4136H69.805L69.461 37.1136C69.4329 37.1967 69.4267 37.2856 69.443 37.3718C69.4593 37.458 69.4975 37.5385 69.554 37.6056C69.6275 37.671 69.7136 37.7206 69.807 37.7514C69.9004 37.7822 69.9991 37.7935 70.0971 37.7846H70.909C71.1001 37.805 71.292 37.7532 71.4469 37.6394C71.6017 37.5256 71.7085 37.3581 71.7461 37.1696L72.102 35.4126H73.102C73.2923 35.4329 73.4833 35.3815 73.6377 35.2685C73.7921 35.1556 73.8988 34.9891 73.937 34.8016L74.054 34.1806C74.0809 34.098 74.0862 34.0098 74.0694 33.9246C74.0526 33.8394 74.0143 33.7598 73.958 33.6936ZM70.8581 30.2696L70.1881 33.5146H67.1571L70.8581 30.2696Z" fill="#1A2730"/>
<path d="M68.432 44.0228L68.5241 44.3228C68.5821 44.5228 68.6701 44.8228 68.7641 45.2088C69.0392 46.3333 69.2066 47.4815 69.2641 48.6378C69.2721 48.8238 69.28 49.0148 69.284 49.2118C69.288 49.4088 69.284 49.6118 69.284 49.8118C69.284 49.9118 69.284 50.0178 69.284 50.1238C69.284 50.2298 69.2841 50.3348 69.2751 50.4428C69.2597 50.6588 69.2438 50.8792 69.2271 51.1038C69.2191 51.2158 69.2121 51.3308 69.2021 51.4448C69.1921 51.5588 69.1721 51.6738 69.1571 51.7898C69.1261 52.0228 69.098 52.2608 69.062 52.5018C68.967 52.9818 68.8921 53.4828 68.7511 53.9908C68.6361 54.5028 68.4641 55.0208 68.2961 55.5558C68.1974 55.8225 68.0974 56.0891 67.9961 56.3558C67.9491 56.4928 67.8871 56.6258 67.8291 56.7618C67.7711 56.8978 67.71 57.0328 67.651 57.1698C67.127 58.3299 66.4946 59.4378 65.7621 60.4788C64.9436 61.641 64.0124 62.7195 62.982 63.6988C61.8469 64.7792 60.6075 65.7446 59.2821 66.5808C57.8389 67.4902 56.3095 68.2549 54.716 68.8638C53.0084 69.5071 51.241 69.9791 49.44 70.2728L49.0931 70.3308L48.9201 70.3598L48.7441 70.3808L48.044 70.4668L47.6911 70.5088L47.336 70.5368L46.6231 70.5918L46.4441 70.6048L46.2641 70.6108L45.9051 70.6238L45.1841 70.6478L44.463 70.6408H44.109H43.932L43.7491 70.6308L43.0121 70.5918C42.8901 70.5848 42.765 70.5788 42.643 70.5708L42.279 70.5358L41.549 70.4648C41.427 70.4548 41.306 70.4358 41.185 70.4178L40.8211 70.3658L40.4571 70.3138C40.3351 70.2948 40.2131 70.2818 40.0931 70.2568L39.3691 70.1208L39.0061 70.0518L38.648 69.9678L37.9281 69.7998C37.8081 69.7738 37.6911 69.7368 37.5721 69.7048L37.2171 69.6048L36.8611 69.5048L36.6831 69.4548L36.508 69.3978L35.8081 69.1678C35.6921 69.1278 35.5721 69.0948 35.4591 69.0488L35.114 68.9188L34.424 68.6578L33.7491 68.3678L33.411 68.2228C33.298 68.1738 33.1901 68.1228 33.0801 68.0658L32.419 67.7468C32.307 67.6958 32.2021 67.6348 32.0951 67.5778L31.773 67.4048L31.4521 67.2308L31.291 67.1428L31.135 67.0498C30.72 66.7988 30.2961 66.5578 29.9001 66.2838C29.7001 66.1488 29.4951 66.0188 29.3001 65.8838L28.7181 65.4588C28.6181 65.3868 28.5181 65.3178 28.4281 65.2448L28.148 65.0198L27.5901 64.5698C26.8692 63.9586 26.1853 63.3052 25.542 62.6128L25.302 62.3558L25.1831 62.2268L25.0711 62.0938L24.6211 61.5598C24.4661 61.3848 24.3331 61.1968 24.1911 61.0138C24.0491 60.8308 23.9081 60.6478 23.7751 60.4608C22.7229 58.9892 21.8658 57.3875 21.2251 55.6958C20.6206 54.057 20.2372 52.3449 20.0851 50.6048C20.0571 50.3908 20.056 50.1768 20.044 49.9638C20.032 49.7508 20.0261 49.5358 20.0161 49.3228C20.0145 49.3012 20.0145 49.2794 20.0161 49.2578V49.2188V49.1428V48.9898V48.6898V48.3898C20.0161 48.2898 20.016 48.1898 20.026 48.0788C20.041 47.8618 20.0571 47.6458 20.0721 47.4308C20.0801 47.3228 20.088 47.2148 20.096 47.1068C20.104 46.9988 20.121 46.8968 20.135 46.7918C20.191 46.3738 20.235 45.9548 20.323 45.5428C20.6272 43.9019 21.1372 42.3059 21.841 40.7928C22.5398 39.3085 23.4083 37.9102 24.4291 36.6258C25.4248 35.3713 26.5467 34.2222 27.7771 33.1968C28.9611 32.2095 30.2331 31.3329 31.5771 30.5778C32.845 29.8657 34.1679 29.2561 35.5331 28.7548L36.0251 28.5808L36.2691 28.4938L36.3911 28.4518L36.5141 28.4138L37.484 28.1138C37.805 28.0228 38.1271 27.9448 38.4411 27.8618C38.7551 27.7788 39.0711 27.7138 39.3791 27.6478C39.9961 27.5058 40.604 27.4168 41.19 27.3178C41.484 27.2748 41.7741 27.2438 42.0581 27.2078L42.4801 27.1568C42.6201 27.1398 42.759 27.1338 42.896 27.1218L43.7041 27.0598C43.8361 27.0468 43.9671 27.0448 44.0951 27.0398L44.479 27.0268L44.854 27.0138L45.0381 27.0078H45.13H45.2301H45.5641H45.922C47.3429 27.0255 48.7606 27.1462 50.164 27.3688C50.649 27.4448 51.0191 27.5168 51.2641 27.5688L51.64 27.6458C51.85 27.6721 52.0523 27.7417 52.234 27.8502C52.4158 27.9586 52.573 28.1037 52.6957 28.2761C52.8185 28.4485 52.9041 28.6444 52.9472 28.8516C52.9903 29.0588 52.9899 29.2728 52.9461 29.4798C52.7977 29.8979 52.4987 30.2457 52.1076 30.4553C51.7165 30.6648 51.2613 30.721 50.831 30.6128L50.791 30.6038L50.76 30.5968L50.437 30.5228C50.224 30.4768 49.9081 30.4058 49.4901 30.3308C49.0721 30.2558 48.557 30.1688 47.943 30.0948C47.636 30.0578 47.306 30.0248 46.953 29.9948C46.6 29.9648 46.2191 29.9438 45.8261 29.9278L45.5321 29.9178L45.198 29.9108L44.5611 29.9158H44.226C44.114 29.9158 43.9991 29.9158 43.8841 29.9248L43.177 29.9618C43.057 29.9688 42.9341 29.9708 42.8131 29.9828L42.443 30.0198C42.194 30.0448 41.943 30.0648 41.682 30.0958C41.169 30.1718 40.633 30.2338 40.091 30.3468C39.819 30.3978 39.5401 30.4468 39.2641 30.5148C38.9881 30.5828 38.7021 30.6418 38.4181 30.7148L37.5591 30.9538L37.45 30.9848L37.3421 31.0198L37.1261 31.0908L36.6881 31.2338C35.4708 31.6467 34.2881 32.1554 33.151 32.7548C31.9377 33.3959 30.785 34.1456 29.7071 34.9948C28.5807 35.8818 27.5477 36.8813 26.6241 37.9778C25.6729 39.1058 24.8542 40.3393 24.1841 41.6538C23.5085 43.0008 23.0045 44.4273 22.6841 45.8998C22.5911 46.2698 22.5411 46.6478 22.4771 47.0268C22.4621 47.1208 22.4431 47.2168 22.4331 47.3098L22.404 47.5888L22.344 48.1488C22.332 48.2388 22.329 48.3428 22.325 48.4488L22.3111 48.7488L22.297 49.0488L22.2901 49.2008V49.2778V49.3158C22.2901 49.2778 22.2901 49.3258 22.2901 49.3268C22.2901 49.5208 22.2951 49.7158 22.2981 49.9098C22.3011 50.1038 22.2981 50.3008 22.3161 50.4958C22.404 52.0868 22.7037 53.659 23.2071 55.1708C23.7455 56.7387 24.485 58.2301 25.4071 59.6078C25.5251 59.7838 25.6531 59.9538 25.7751 60.1278C25.8971 60.3018 26.018 60.4768 26.156 60.6428L26.5561 61.1428L26.656 61.2688L26.763 61.3908L26.9771 61.6338C27.5534 62.2907 28.1684 62.9125 28.8191 63.4958L29.325 63.9268L29.578 64.1418C29.664 64.2118 29.7541 64.2788 29.8421 64.3468L30.3711 64.7568C30.5501 64.8908 30.7371 65.0158 30.9201 65.1458C31.2811 65.4108 31.6701 65.6458 32.0501 65.8888L32.193 65.9798L32.341 66.0648L32.6411 66.2348L32.9411 66.4048C33.0411 66.4608 33.1361 66.5198 33.2411 66.5698L33.8501 66.8838C33.9501 66.9348 34.0501 66.9898 34.1551 67.0378L34.4681 67.1818L35.0921 67.4698L35.7311 67.7298L36.0511 67.8598C36.1511 67.9048 36.268 67.9388 36.375 67.9798L37.026 68.2128L37.1891 68.2698L37.3551 68.3208L37.6861 68.4208L38.0171 68.5208C38.1281 68.5538 38.2371 68.5918 38.3501 68.6208L39.0221 68.7948L39.3581 68.8828L39.698 68.9548L40.377 69.0998C40.49 69.1268 40.6041 69.1418 40.7181 69.1618L41.06 69.2188L41.4021 69.2768C41.5161 69.2958 41.629 69.3178 41.745 69.3288L42.4331 69.4138L42.7771 69.4558C42.8901 69.4668 43.004 69.4738 43.117 69.4828L43.797 69.5368L43.966 69.5498L44.143 69.5558L44.497 69.5678L45.187 69.5918L45.8731 69.5848H46.216H46.3871L46.557 69.5758L47.237 69.5398L47.5771 69.5218L47.914 69.4888L48.5871 69.4238L48.755 69.4078L48.922 69.3838L49.2541 69.3368C50.9883 69.097 52.6946 68.6863 54.3481 68.1108C55.9028 67.5614 57.3996 66.8603 58.8171 66.0178C60.1293 65.2388 61.3619 64.3328 62.497 63.3128C63.5314 62.3827 64.4725 61.3538 65.307 60.2408C66.0568 59.2376 66.7107 58.1663 67.26 57.0408C67.323 56.9078 67.386 56.7758 67.448 56.6408C67.51 56.5058 67.5751 56.3798 67.6261 56.2468C67.7341 55.9801 67.8407 55.7191 67.9461 55.4638C68.1281 54.9408 68.3141 54.4348 68.4461 53.9328C68.6001 53.4328 68.6901 52.9428 68.8001 52.4718C68.8421 52.2338 68.8781 51.9998 68.916 51.7718C68.9347 51.6565 68.953 51.5428 68.971 51.4308C68.985 51.3178 68.9951 51.2058 69.0071 51.0948C69.0304 50.8728 69.053 50.6558 69.075 50.4438C69.089 50.3378 69.088 50.2308 69.094 50.1258C69.1 50.0208 69.1031 49.9168 69.1081 49.8148C69.1161 49.6148 69.13 49.4068 69.133 49.2148C69.136 49.0228 69.133 48.8298 69.133 48.6438C69.1117 47.4919 68.9805 46.3447 68.7411 45.2178C68.6591 44.8258 68.581 44.5278 68.529 44.3268L68.432 44.0228Z" fill="#1A2730"/>
<path d="M62.8301 51.8537H49.8502L61.2081 42.4797C61.3031 42.405 61.3765 42.3064 61.4208 42.194C61.4651 42.0816 61.4787 41.9594 61.4601 41.84C61.4416 41.7206 61.3916 41.6082 61.3154 41.5145C61.2391 41.4208 61.1393 41.3491 61.0261 41.3067C60.8941 41.2457 60.7498 41.2157 60.6044 41.219C60.459 41.2223 60.3163 41.2588 60.1871 41.3257L40.2961 51.8537V53.7777H62.8301V51.8537Z" fill="#1A2730"/>
<path d="M60.755 43.5558V44.6158C60.7577 44.7146 60.7863 44.8109 60.8379 44.8951C60.8895 44.9794 60.9622 45.0486 61.049 45.0959C61.034 45.1269 61.017 45.1579 60.998 45.1899C60.9467 45.274 60.8848 45.3513 60.814 45.4198L60.754 45.4739L60.728 45.4949L60.693 45.5218L60.655 45.5489C60.5956 45.5885 60.5388 45.6319 60.485 45.6789C60.3351 45.8097 60.2194 45.9752 60.148 46.1609C60.0776 46.3468 60.0596 46.5485 60.096 46.7439L60.115 46.8238C60.115 46.8348 60.12 46.8468 60.124 46.8578L60.158 46.9518L60.194 47.0298L60.211 47.0649L60.229 47.0959L60.265 47.1539L60.271 47.1639L60.303 47.2079L60.321 47.2309C60.3361 47.2521 60.3528 47.2722 60.371 47.2909C60.5094 47.4449 60.6802 47.5664 60.871 47.6468C61.0566 47.7273 61.2558 47.7721 61.458 47.7789H61.543C61.559 47.7789 61.584 47.7789 61.612 47.7789C61.64 47.7789 61.697 47.7729 61.745 47.7649C61.8289 47.7526 61.9118 47.7342 61.993 47.7098H62.001C62.1458 47.669 62.2815 47.6012 62.401 47.5099C62.5088 47.416 62.6111 47.3158 62.707 47.2098C62.7329 47.179 62.7554 47.1455 62.774 47.1099L62.804 47.0569C62.8342 47.0024 62.8445 46.939 62.8332 46.8777C62.8219 46.8165 62.7896 46.761 62.742 46.7209C62.6744 46.6641 62.5892 46.6326 62.5009 46.6316C62.4126 46.6307 62.3268 46.6605 62.258 46.7159L62.204 46.7629L62.199 46.7679L62.189 46.7759L62.164 46.7948L62.152 46.8039L62.111 46.8329C62.0649 46.8628 62.016 46.8883 61.965 46.9089C61.9041 46.934 61.8402 46.9514 61.775 46.9609H61.765H61.74L61.54 46.9518C61.4755 46.939 61.4134 46.916 61.356 46.8838L61.345 46.8769L61.309 46.8528L61.292 46.8398L61.28 46.8309L61.265 46.8179L61.251 46.8039C61.24 46.7909 61.23 46.7809 61.222 46.7729L61.201 46.7479V46.7408L61.186 46.7198L61.155 46.7159L61.147 46.7029L61.134 46.6728L61.125 46.6438C61.125 46.6338 61.125 46.6238 61.117 46.6128V46.5829V46.5619C61.1157 46.5482 61.1157 46.5345 61.117 46.5209C61.119 46.4918 61.1237 46.463 61.131 46.4349L61.14 46.4079L61.149 46.3868L61.168 46.3478C61.1853 46.319 61.2054 46.2918 61.228 46.2668L61.246 46.2458L61.333 46.1719C61.363 46.1459 61.389 46.1199 61.412 46.0989L61.437 46.0759L61.448 46.0649C61.478 46.0329 61.51 45.9988 61.542 45.9648C61.5986 45.8966 61.6497 45.8241 61.695 45.7479C61.7358 45.6785 61.7716 45.6063 61.802 45.5318C61.8468 45.4203 61.8781 45.3039 61.895 45.1849C62.0163 45.1522 62.1241 45.082 62.203 44.9843C62.2819 44.8866 62.3278 44.7663 62.334 44.6409V43.5558C62.3207 43.3906 62.243 43.2373 62.1177 43.1288C61.9924 43.0203 61.8294 42.9654 61.664 42.9759H61.422C61.257 42.9659 61.0947 43.0211 60.97 43.1296C60.8453 43.238 60.768 43.3911 60.755 43.5558Z" fill="#1A2730"/>
<path d="M34.8822 55.7989C34.4761 55.8572 34.0953 56.0309 33.7852 56.2995C33.4751 56.5681 33.2487 56.9201 33.133 57.3137C33.0173 57.7073 33.0172 58.1259 33.1326 58.5195C33.2481 58.9132 33.4743 59.2653 33.7843 59.5341C34.0942 59.8028 34.4749 59.9768 34.8809 60.0353C35.287 60.0939 35.7013 60.0344 36.0745 59.8641C36.4478 59.6938 36.7642 59.4198 36.9861 59.0747C37.208 58.7297 37.326 58.3282 37.3261 57.9179C37.2798 57.3141 36.9971 56.7529 36.5396 56.3561C36.082 55.9594 35.4865 55.7592 34.8822 55.7989Z" fill="#1A2730"/>
<path d="M34.883 54.8977C34.3029 54.9806 33.7589 55.2285 33.3157 55.6118C32.8725 55.9952 32.5489 56.4979 32.3834 57.06C32.2179 57.6221 32.2176 58.22 32.3824 58.7824C32.5471 59.3447 32.8701 59.8478 33.3128 60.2318C33.7555 60.6157 34.2992 60.8643 34.8792 60.9478C35.4592 61.0314 36.051 60.9464 36.5841 60.7031C37.1172 60.4597 37.569 60.0683 37.8858 59.5753C38.2027 59.0824 38.3711 58.5087 38.371 57.9227C38.3052 57.0608 37.902 56.2596 37.2489 55.6932C36.5958 55.1268 35.7456 54.8409 34.883 54.8977ZM34.883 60.2307C34.4406 60.1675 34.0257 59.9784 33.6878 59.6859C33.3498 59.3935 33.103 59.01 32.9768 58.5813C32.8507 58.1526 32.8504 57.6966 32.9761 57.2677C33.1018 56.8388 33.3481 56.4551 33.6857 56.1623C34.0233 55.8695 34.438 55.6798 34.8803 55.616C35.3227 55.5523 35.774 55.617 36.1806 55.8025C36.5872 55.988 36.9319 56.2865 37.1736 56.6624C37.4153 57.0383 37.544 57.4758 37.544 57.9227C37.4918 58.5792 37.1834 59.1887 36.6855 59.6196C36.1876 60.0505 35.5402 60.2682 34.883 60.2257V60.2307Z" fill="#1A2730"/>
<path d="M57.981 55.7988C57.5749 55.8569 57.194 56.0305 56.8837 56.299C56.5735 56.5675 56.3469 56.9195 56.2311 57.3131C56.1152 57.7067 56.115 58.1253 56.2304 58.519C56.3458 58.9128 56.5719 59.265 56.8818 59.5339C57.1918 59.8027 57.5725 59.9768 57.9786 60.0353C58.3847 60.0939 58.799 60.0345 59.1723 59.8642C59.5456 59.6939 59.8621 59.4199 60.084 59.0748C60.3059 58.7297 60.424 58.3281 60.4241 57.9178C60.3777 57.3142 60.0952 56.7531 59.6378 56.3564C59.1805 55.9598 58.5852 55.7594 57.981 55.7988Z" fill="#1A2730"/>
<path d="M57.98 54.8978C57.3999 54.9808 56.856 55.2289 56.413 55.6123C55.9699 55.9958 55.6465 56.4985 55.4811 57.0606C55.3158 57.6228 55.3155 58.2206 55.4804 58.7829C55.6453 59.3451 55.9683 59.8481 56.411 60.2319C56.8537 60.6158 57.3974 60.8643 57.9774 60.9478C58.5574 61.0313 59.1491 60.9463 59.6821 60.703C60.2151 60.4596 60.667 60.0681 60.9838 59.5752C61.3005 59.0823 61.469 58.5087 61.4689 57.9228C61.4031 57.0607 60.9997 56.2593 60.3464 55.6929C59.6931 55.1265 58.8427 54.8407 57.98 54.8978ZM57.98 60.2308C57.5376 60.1673 57.1228 59.9781 56.785 59.6856C56.4472 59.393 56.2006 59.0096 56.0746 58.5808C55.9485 58.1521 55.9484 57.6962 56.0741 57.2673C56.1999 56.8385 56.4463 56.4549 56.7839 56.1622C57.1216 55.8695 57.5363 55.6799 57.9786 55.6162C58.4209 55.5525 58.8721 55.6173 59.2787 55.8028C59.6852 55.9883 60.0298 56.2868 60.2715 56.6627C60.5132 57.0385 60.6418 57.4759 60.642 57.9228C60.5897 58.5794 60.2812 59.1891 59.7831 59.62C59.2849 60.051 58.6373 60.2686 57.98 60.2258V60.2308Z" fill="#1A2730"/>
<path d="M63.077 54.1736H39.637V46.5396C39.6114 46.1982 39.4521 45.8806 39.1937 45.656C38.9353 45.4313 38.5988 45.3176 38.2571 45.3396H31.998C31.5307 45.3258 31.0685 45.4406 30.6619 45.6714C30.2552 45.9022 29.9198 46.2403 29.6921 46.6486L27.9401 50.1336C27.547 50.9106 27.3415 51.7689 27.34 52.6396V55.9996H27.004C26.8661 55.9902 26.7301 56.0358 26.6256 56.1262C26.5211 56.2167 26.4565 56.3448 26.446 56.4826V57.5576C26.4565 57.6955 26.5211 57.8237 26.6255 57.9143C26.73 58.0049 26.866 58.0507 27.004 58.0416H30.9531C30.9531 57.9996 30.9531 57.9576 30.9531 57.9146C31.0885 56.9675 31.5609 56.1009 32.2838 55.4741C33.0066 54.8472 33.9313 54.5021 34.8881 54.5021C35.8448 54.5021 36.7695 54.8472 37.4924 55.4741C38.2152 56.1009 38.6877 56.9675 38.8231 57.9146C38.8231 57.9576 38.8231 57.9996 38.8231 58.0416H54.0571C54.0571 57.9996 54.0571 57.9576 54.0571 57.9146C54.1932 56.9682 54.666 56.1025 55.3886 55.4764C56.1113 54.8503 57.0354 54.5056 57.9916 54.5056C58.9478 54.5056 59.8719 54.8503 60.5945 55.4764C61.3172 56.1025 61.7899 56.9682 61.926 57.9146C61.926 57.9576 61.926 57.9996 61.926 58.0416H63.09C63.3553 58.059 63.6167 57.9711 63.8176 57.797C64.0184 57.6229 64.1425 57.3766 64.163 57.1116V55.1016C64.1527 54.9694 64.1164 54.8405 64.0562 54.7222C63.996 54.604 63.9131 54.4988 63.8123 54.4127C63.7114 54.3265 63.5946 54.261 63.4684 54.22C63.3423 54.179 63.2093 54.1632 63.077 54.1736ZM36.709 50.4576C36.7045 50.5234 36.687 50.5877 36.6575 50.6467C36.628 50.7057 36.5871 50.7583 36.5372 50.8014C36.4873 50.8445 36.4293 50.8774 36.3666 50.898C36.304 50.9187 36.2378 50.9266 36.1721 50.9216L29.8301 50.9106C29.7624 50.9181 29.6938 50.9078 29.6314 50.8805C29.569 50.8532 29.5148 50.81 29.4743 50.7553C29.4338 50.7005 29.4084 50.636 29.4006 50.5684C29.3929 50.5007 29.403 50.4322 29.4301 50.3696L31.1011 47.2596C31.2527 46.9967 31.4727 46.7797 31.7376 46.6316C32.0026 46.4835 32.3027 46.4099 32.6061 46.4186H36.173C36.2387 46.4137 36.3048 46.4218 36.3673 46.4425C36.4299 46.4632 36.4877 46.4961 36.5375 46.5392C36.5873 46.5823 36.6281 46.6349 36.6575 46.6938C36.687 46.7527 36.7045 46.8169 36.709 46.8826V50.4576Z" fill="#1A2730"/>
<path d="M34.1972 43.5676C33.7626 43.5389 33.3343 43.6829 33.0053 43.9682C32.6763 44.2536 32.4732 44.6573 32.4402 45.0915H35.9542C35.9212 44.6573 35.7181 44.2536 35.3891 43.9682C35.0601 43.6829 34.6318 43.5389 34.1972 43.5676Z" fill="#1A2730"/>
</g>
<defs>
<clipPath id="clip0_536_170">
<rect width="54.074" height="43.66" fill="white" transform="translate(20 27)"/>
</clipPath>
</defs>
</svg>
