<svg width="90" height="90" viewBox="0 0 90 90" fill="none" xmlns="http://www.w3.org/2000/svg">
<path fill-rule="evenodd" clip-rule="evenodd" d="M80 1H10C5.02944 1 1 5.02944 1 10V80C1 84.9706 5.02944 89 10 89H80C84.9706 89 89 84.9706 89 80V10C89 5.02944 84.9706 1 80 1ZM10 0C4.47715 0 0 4.47715 0 10V80C0 85.5229 4.47715 90 10 90H80C85.5229 90 90 85.5229 90 80V10C90 4.47715 85.5229 0 80 0H10Z" fill="#1A2730"/>
<path fill-rule="evenodd" clip-rule="evenodd" d="M24.0848 56.2321C24.3754 53.7676 25.1824 53.3317 28.3733 53.1563C33.2138 52.8905 38.0737 52.7922 42.8061 53.9456C46.6402 54.8838 47.7839 54.1485 47.5456 51.0453C47.1762 46.2394 49.0153 41.949 52.1734 37.8882C54.8054 34.5076 56.7561 33.387 61.0083 33.9141C63.3532 34.2064 64.4571 35.2057 63.8237 36.9403C62.4621 40.6743 61.1359 44.4136 59.901 48.1768C58.5199 52.398 56.6675 56.528 55.1456 60.7253C54.6619 62.0594 53.8424 62.6556 51.9741 62.6157C48.3588 62.544 44.74 62.5963 41.1203 62.5936C38.2625 62.5883 35.4081 62.5661 32.5503 62.5936C26.0249 62.6662 23.4868 61.3197 24.0848 56.2321Z" fill="#1A2730"/>
<path fill-rule="evenodd" clip-rule="evenodd" d="M63.5942 29.1791C63.6155 28.3038 63.371 27.4312 63.3169 26.5515C63.2062 24.6513 62.0174 23.008 60.708 23C59.2091 22.9903 58.0079 24.4432 57.8157 26.4975C57.648 27.8421 57.7442 29.2064 58.0991 30.5141C58.6386 32.3975 59.9054 32.5782 61.4096 32.2221C62.9351 31.8633 63.5473 31.1121 63.5942 29.1791Z" fill="#1A2730"/>
</svg>
