<svg xmlns="http://www.w3.org/2000/svg" version="1.0" width="512.000000pt" height="512.000000pt" viewBox="0 0 512.000000 512.000000" preserveAspectRatio="xMidYMid meet">

<g transform="translate(0.000000,512.000000) scale(0.100000,-0.100000)" fill="#2a2e43" stroke="none">
<path d="M2430 5114 c-161 -18 -228 -29 -312 -50 -565 -141 -1030 -555 -1231 -1094 -187 -503 -149 -1045 118 -1705 224 -551 626 -1187 1138 -1800 106 -126 333 -380 386 -429 l31 -30 31 30 c53 49 280 303 386 429 512 613 914 1249 1138 1800 267 660 305 1202 118 1705 -220 593 -758 1028 -1388 1126 -91 14 -351 26 -415 18z m374 -531 c507 -95 904 -484 1007 -986 118 -583 -155 -1153 -680 -1417 -287 -144 -653 -170 -970 -68 -394 126 -711 449 -826 843 -141 484 9 1019 375 1334 304 262 700 368 1094 294z" fill="#2a2e43"/>
<path d="M2433 4335 c-179 -48 -321 -193 -368 -372 -71 -274 109 -560 394 -625 l56 -13 -40 -2 c-229 -16 -459 -120 -634 -287 -72 -69 -171 -197 -171 -221 0 -22 118 -171 182 -230 197 -183 436 -276 708 -276 272 0 511 93 708 276 64 59 182 208 182 230 0 24 -99 152 -171 221 -175 167 -405 271 -634 287 l-40 2 56 13 c238 54 409 264 409 502 0 231 -160 436 -387 495 -71 19 -181 18 -250 0z" fill="#2a2e43"/>
</g>
</svg>