<svg width="90" height="90" viewBox="0 0 90 90" fill="none" xmlns="http://www.w3.org/2000/svg">
<path fill-rule="evenodd" clip-rule="evenodd" d="M80 1H10C5.02944 1 1 5.02944 1 10V80C1 84.9706 5.02944 89 10 89H80C84.9706 89 89 84.9706 89 80V10C89 5.02944 84.9706 1 80 1ZM10 0C4.47715 0 0 4.47715 0 10V80C0 85.5229 4.47715 90 10 90H80C85.5229 90 90 85.5229 90 80V10C90 4.47715 85.5229 0 80 0H10Z" fill="#1A2730"/>
<path d="M21 45C21 31.1929 32.1929 20 46 20C59.8071 20 71 31.1929 71 45C71 58.8071 59.8071 70 46 70C32.1929 70 21 58.8071 21 45Z" fill="#2A2E43"/>
<path d="M62.8651 40.1099L52.5252 43.4971L52.0919 42.2008L62.4354 38.8108L62.8651 40.1099ZM61.4447 36.4335L49.7771 39.8562L48.7854 27.8044C51.4319 28.1827 53.9528 29.1591 56.1494 30.6569C58.346 32.1546 60.1584 34.1327 61.4438 36.4353L61.4447 36.4335ZM49.2817 43.2953C49.2841 43.0956 49.3466 42.901 49.4614 42.7362C49.5762 42.5713 49.7382 42.4434 49.9268 42.3687C50.1155 42.294 50.3225 42.2758 50.5216 42.3164C50.7208 42.357 50.9033 42.4546 51.0461 42.5968C51.1889 42.739 51.2857 42.9196 51.3242 43.1157C51.3627 43.3118 51.3411 43.5148 51.2624 43.6989C51.1836 43.8831 51.0511 44.0402 50.8815 44.1505C50.712 44.2609 50.5129 44.3195 50.3095 44.3189C50.1737 44.3181 50.0394 44.291 49.9142 44.2392C49.789 44.1874 49.6755 44.1119 49.5801 44.017C49.4846 43.9221 49.4092 43.8097 49.358 43.6862C49.3068 43.5627 49.2809 43.4305 49.2817 43.2971V43.2953ZM49.8225 48.2208C49.8196 48.4202 49.7566 48.6144 49.6416 48.7789C49.5266 48.9434 49.3647 49.0708 49.1761 49.1451C48.9876 49.2195 48.7809 49.2375 48.5819 49.1968C48.383 49.1561 48.2008 49.0586 48.0581 48.9165C47.9155 48.7745 47.8188 48.5942 47.7802 48.3983C47.7416 48.2025 47.7629 47.9998 47.8413 47.8157C47.9197 47.6317 48.0518 47.4745 48.2209 47.364C48.3901 47.2534 48.5887 47.1944 48.7919 47.1944C48.9284 47.1954 49.0633 47.2227 49.189 47.2749C49.3147 47.3271 49.4286 47.4032 49.5244 47.4987C49.6201 47.5942 49.6957 47.7073 49.7468 47.8315C49.798 47.9557 49.8237 48.0886 49.8225 48.2226V48.2208ZM45.579 27.6426H46.9567V38.4844H45.579V27.6426ZM46.241 39.3208C46.4483 39.3179 46.6519 39.3756 46.8257 39.4866C46.9996 39.5976 47.1359 39.7569 47.2173 39.9442C47.2987 40.1315 47.3215 40.3383 47.2829 40.5383C47.2442 40.7384 47.1458 40.9226 47.0003 41.0676C46.8547 41.2126 46.6684 41.3118 46.4653 41.3526C46.2621 41.3934 46.0511 41.3739 45.8593 41.2967C45.6674 41.2194 45.5032 41.0879 45.3877 40.9188C45.2721 40.7497 45.2104 40.5507 45.2104 40.3471C45.2099 40.0775 45.3179 39.8185 45.5109 39.6266C45.7039 39.4347 45.9663 39.3255 46.241 39.3226V39.3208ZM46.241 42.0962C46.7571 42.0892 47.2638 42.2331 47.6964 42.5095C48.129 42.786 48.4681 43.1826 48.6706 43.6488C48.873 44.115 48.9296 44.6298 48.8331 45.1277C48.7367 45.6256 48.4916 46.0841 48.129 46.4448C47.7665 46.8056 47.3028 47.0523 46.797 47.1535C46.2912 47.2548 45.7661 47.2061 45.2886 47.0136C44.8111 46.821 44.4028 46.4933 44.1155 46.0723C43.8282 45.6512 43.6749 45.1558 43.6753 44.6489C43.6732 44.3161 43.7379 43.9861 43.8657 43.6778C43.9935 43.3696 44.1819 43.089 44.4202 42.8522C44.6584 42.6154 44.9419 42.427 45.2543 42.2978C45.5667 42.1685 45.902 42.101 46.241 42.0989V42.0962ZM44.5632 48.2199C44.5603 48.4193 44.4974 48.6135 44.3824 48.778C44.2674 48.9424 44.1054 49.0699 43.9169 49.1442C43.7283 49.2186 43.5216 49.2366 43.3227 49.1959C43.1238 49.1552 42.9415 49.0577 42.7989 48.9157C42.6562 48.7736 42.5595 48.5933 42.521 48.3974C42.4824 48.2016 42.5036 47.9988 42.582 47.8148C42.6605 47.6308 42.7925 47.4736 42.9617 47.3631C43.1308 47.2525 43.3295 47.1935 43.5327 47.1935C43.6692 47.1944 43.8042 47.2218 43.93 47.2741C44.0557 47.3264 44.1697 47.4025 44.2654 47.4981C44.3612 47.5937 44.4367 47.7069 44.4878 47.8312C44.5389 47.9555 44.5645 48.0885 44.5632 48.2226V48.2199ZM42.0697 44.318C41.8631 44.3198 41.6606 44.2613 41.488 44.15C41.3153 44.0386 41.1802 43.8793 41.0999 43.6925C41.0195 43.5056 40.9976 43.2995 41.0368 43.1003C41.0759 42.9012 41.1745 42.7179 41.3199 42.5739C41.4653 42.4298 41.6511 42.3314 41.8536 42.2912C42.0561 42.2509 42.2662 42.2707 42.4573 42.3479C42.6483 42.4251 42.8117 42.5563 42.9267 42.7248C43.0416 42.8933 43.103 43.0916 43.103 43.2944C43.1045 43.4286 43.0789 43.5617 43.0276 43.6861C42.9763 43.8105 42.9005 43.9237 42.8044 44.0192C42.7083 44.1146 42.5939 44.1904 42.4678 44.2422C42.3417 44.2939 42.2064 44.3207 42.0697 44.3208V44.318ZM43.4447 27.8881L42.4836 39.5453L31.3456 36.4471C32.5851 34.2254 34.315 32.304 36.4086 30.8235C38.5023 29.343 40.9066 28.341 43.4456 27.8908L43.4447 27.8881ZM30.1817 38.5853L40.4762 42.1135L40.0289 43.4053L29.7336 39.8771L30.1817 38.5853ZM29.1567 44.8081C29.1572 43.9293 29.2237 43.0517 29.3558 42.1826L40.6299 46.678L33.8623 56.5871C30.8315 53.3888 29.1501 49.1802 29.1576 44.8117L29.1567 44.8081ZM35.2928 58.0944L41.8762 49.458L42.9678 50.2862L36.3845 58.9226L35.2928 58.0944ZM46.3975 61.9844C43.6428 61.9861 40.9295 61.3267 38.4938 60.0635L46.1132 51.028L54.0419 60.199C51.6723 61.3759 49.0539 61.9888 46.3984 61.988L46.3975 61.9844ZM55.8734 59.1089L49.4595 50.348L50.5706 49.5408L56.9845 58.3017L55.8734 59.1089ZM58.4123 57.1089L51.7595 46.6917L63.3901 41.898C63.8662 44.6394 63.6624 47.4531 62.7959 50.1008C61.9294 52.7485 60.4257 55.153 58.4123 57.1089Z" fill="white"/>
<path fill-rule="evenodd" clip-rule="evenodd" d="M46.0003 27.75C36.5519 27.75 28.8892 35.4712 28.8892 45C28.8892 54.5288 36.5519 62.25 46.0003 62.25C55.4486 62.25 63.1114 54.5288 63.1114 45C63.1114 35.4712 55.4486 27.75 46.0003 27.75ZM28.3892 45C28.3892 35.1988 36.272 27.25 46.0003 27.25C55.7285 27.25 63.6114 35.1988 63.6114 45C63.6114 54.8012 55.7285 62.75 46.0003 62.75C36.272 62.75 28.3892 54.8012 28.3892 45Z" fill="white"/>
<path fill-rule="evenodd" clip-rule="evenodd" d="M46.0005 22.9775C33.8662 22.9775 24.0283 32.8369 24.0283 45.0003C24.0283 57.1636 33.8662 67.023 46.0005 67.023C58.1349 67.023 67.9728 57.1636 67.9728 45.0003C67.9728 32.8369 58.1349 22.9775 46.0005 22.9775ZM23.5283 45.0003C23.5283 32.5618 33.5889 22.4775 46.0005 22.4775C58.4121 22.4775 68.4728 32.5618 68.4728 45.0003C68.4728 57.4387 58.4121 67.523 46.0005 67.523C33.5889 67.523 23.5283 57.4387 23.5283 45.0003Z" fill="white"/>
</svg>
