<svg viewBox="0 0 20 20" xmlns="http://www.w3.org/2000/svg"><path d="m15.537.031-.432.086-.42.14-.396.188-.371.242-.336.284-.299.324-.254.357-.209.387-.16.41-.105.43-.051.44.006.437.058.437-.007-.047.033.344-.026.346-.086.336-.14.316-.196.287-.24.25-1.908 1.659-5.652 4.91-.213.164-.237.133-.248.1-.263.064.058-.008-.441.1-.424.154-.398.21-.373.259-.332.306-.291.344-.245.38-.193.41-.139.43-.084.444-.025.451.033.45.092.443.148.427.202.405.252.373.296.342.342.298.112.047.12-.008.102-.066.059-.107.646-2.414.092-.223.14-.197.184-.155.217-.107.235-.053.242.002.232.065.211.115.178.164.133.2.08.228.025.24-.037.238-.645 2.414-.003.121.054.11.104.068.119.014.432-.086.42-.139.396-.19.367-.24.34-.285.299-.32.254-.361.209-.387.158-.41.105-.428.053-.437-.006-.442-.06-.435.01.045-.036-.344.028-.346.084-.336.142-.316.196-.285.24-.25 1.904-1.657 5.656-4.914.213-.164.237-.13.248-.1.263-.067-.058.012.441-.1.424-.158.398-.209.37-.26.335-.304.291-.346.245-.38.193-.407.139-.43.084-.447.025-.45-.035-.45-.09-.444-.148-.427-.202-.405-.252-.373-.3-.34-.338-.298-.112-.05-.12.01-.102.067-.059.105-.648 2.414-.09.225-.14.195-.184.159-.217.107-.235.053-.242-.006-.232-.06-.211-.118-.178-.164-.133-.201-.08-.229-.025-.238.033-.24.649-2.414.003-.121-.058-.11-.1-.068-.119-.014zm-1.082 1.504-.258.965-.06.344v.35l.06.343.121.326.174.303.225.266.265.224.303.174.326.12.344.062h.35l.343-.063.329-.119.3-.174.268-.224.223-.266.175-.303.12-.326.257-.969.114.354.058.365.002.37-.049.364-.103.356-.154.338-.204.306-.246.278-.285.236-.314.192-.34.144-.361.09-.391.098-.377.15-.352.2-.322.243-4.998 4.342-2.56 2.227-.278.273-.238.31-.2.337-.15.361-.105.373-.053.389-.006.386.047.39.043.388-.02.386-.078.381-.134.366-.196.337-.24.305-.285.264.258-.967.06-.342v-.347l-.06-.344-.121-.328-.174-.301-.225-.27-.265-.222-.303-.174-.326-.12-.344-.06h-.35l-.343.06-.329.12-.3.174-.268.222-.223.27-.175.3-.12.329-.257.965-.114-.354-.058-.363-.006-.371.053-.365.103-.356.155-.334.203-.31.246-.276.283-.238.316-.192.34-.144.361-.09.391-.098.377-.15.352-.195.322-.244 4.994-4.344 2.565-2.229.277-.273.238-.309.197-.338.153-.357.105-.377.053-.385.006-.39-.047-.39-.043-.384.018-.389.08-.382.134-.364.196-.337.24-.305.285-.264z" fill="#2a2e43" fill-opacity="1" stroke="none" stroke-width="0" class="fill-222222"></path></svg>