<svg width="90" height="90" viewBox="0 0 90 90" fill="none" xmlns="http://www.w3.org/2000/svg">
<g clip-path="url(#clip0_218_766)">
<path d="M69.9995 45.2002L62.1851 35.8751C61.6562 35.2744 61.0034 34.7957 60.2715 34.4718C59.5396 34.148 58.7462 33.9868 57.946 33.9993C57.1755 33.9979 56.4122 34.1484 55.6999 34.4421C55.5371 34.5096 55.3727 34.5763 55.2091 34.6404C48.8012 37.1042 41.6961 37.0382 35.3352 34.4556C34.2359 33.9887 33.0187 33.8745 31.8518 34.129C30.6848 34.3834 29.6257 34.9938 28.8205 35.876L21.0027 45.2061C20.5731 45.7008 20.2692 46.2919 20.1166 46.9291C19.9641 47.5663 19.9674 48.2309 20.1264 48.8666C20.311 49.5208 20.6366 50.1266 21.0805 50.6414C21.5243 51.1562 22.0756 51.5675 22.6955 51.8464C26.202 53.5202 29.8876 54.7893 33.6812 55.6292C41.4648 57.3455 49.5289 57.3455 57.3126 55.6292C61.108 54.7874 64.7955 53.5172 68.3042 51.8431C68.9245 51.5644 69.4761 51.1532 69.9203 50.6384C70.3645 50.1236 70.6904 49.5176 70.875 48.8632C71.0341 48.2272 71.0377 47.5622 70.8853 46.9246C70.7329 46.287 70.4291 45.6955 69.9995 45.2002ZM68.1828 48.342C68.0977 48.6513 67.9449 48.9379 67.7354 49.1809C67.5259 49.4239 67.265 49.6173 66.9716 49.7471C60.2509 52.8924 52.9215 54.523 45.5013 54.5239C38.081 54.5248 30.7512 52.8958 24.0298 49.7522C23.7364 49.6224 23.4755 49.429 23.266 49.1859C23.0565 48.9429 22.9037 48.6564 22.8186 48.347C22.7434 48.0456 22.7418 47.7305 22.814 47.4284C22.8862 47.1263 23.0302 46.846 23.2336 46.6112L31.0514 37.2811C31.4348 36.8633 31.9385 36.5746 32.4929 36.455C33.0473 36.3353 33.6251 36.3906 34.1468 36.6131C41.2505 39.4991 49.1864 39.573 56.3426 36.8198C56.5248 36.7489 56.7095 36.6747 56.8909 36.5997C57.4088 36.3817 57.9818 36.3301 58.5304 36.4522C59.0789 36.5743 59.5759 36.864 59.9525 37.2811L67.767 46.6062C67.9708 46.8407 68.1151 47.1209 68.1875 47.4231C68.2599 47.7253 68.2583 48.0405 68.1828 48.342Z" fill="#1A2730"/>
<g clip-path="url(#clip1_218_766)">
<path d="M57.0022 44.5425L56.924 44.6042L55.4378 45.7689L52.8548 44.9755L52.768 44.9488L52.6122 44.9742L51.2427 45.1961L51.6992 43.9938L51.8153 43.6868L51.5545 43.582L50.5013 43.1593L51.5877 41.998L50.0226 43.0942L49.8218 43.2347L50.0624 43.3922L50.9141 43.9506L50.1315 45.1763L46.9616 43.3265L46.8312 43.2504L46.7294 43.2867L43.9971 44.2712L46.7249 43.7684L49.3946 46.0189L48.3708 47.1597L48.1882 47.3652L48.2756 47.494L49.0295 48.6045L48.9642 47.5604L50.1381 46.7952L50.3989 47.2905L50.5052 47.4906L50.6298 47.5378L53.1026 48.471L53.2865 50.0022L53.4854 48.3456L53.4958 48.2592L53.3823 48.1866L51.3112 46.8664L51.1736 46.3361L52.7557 45.8689L55.4215 46.3314L55.6048 46.3629L55.7013 46.2628L57.0668 44.8515L58.9945 45.3866L57.0714 44.5768L57.0022 44.5425Z" fill="#1A2730"/>
</g>
</g>
<path fill-rule="evenodd" clip-rule="evenodd" d="M80 1H10C5.02944 1 1 5.02944 1 10V80C1 84.9706 5.02944 89 10 89H80C84.9706 89 89 84.9706 89 80V10C89 5.02944 84.9706 1 80 1ZM10 0C4.47715 0 0 4.47715 0 10V80C0 85.5229 4.47715 90 10 90H80C85.5229 90 90 85.5229 90 80V10C90 4.47715 85.5229 0 80 0H10Z" fill="#1A2730"/>
<defs>
<clipPath id="clip0_218_766">
<rect width="51" height="22.917" fill="white" transform="translate(20 34)"/>
</clipPath>
<clipPath id="clip1_218_766">
<rect width="15" height="8" fill="white" transform="translate(44 42)"/>
</clipPath>
</defs>
</svg>
