<svg width="90" height="90" viewBox="0 0 90 90" fill="none" xmlns="http://www.w3.org/2000/svg">
<path fill-rule="evenodd" clip-rule="evenodd" d="M80 1H10C5.02944 1 1 5.02944 1 10V80C1 84.9706 5.02944 89 10 89H80C84.9706 89 89 84.9706 89 80V10C89 5.02944 84.9706 1 80 1ZM10 0C4.47715 0 0 4.47715 0 10V80C0 85.5229 4.47715 90 10 90H80C85.5229 90 90 85.5229 90 80V10C90 4.47715 85.5229 0 80 0H10Z" fill="#1A2730"/>
<g clip-path="url(#clip0_218_760)">
<path d="M55.7489 51.0577C54.5579 50.2665 52.4509 50.1893 50.2788 50.8451V55.296C52.6566 54.6541 54.9756 54.8094 56.3681 55.7391C56.4715 55.8074 56.5656 55.8806 56.6566 55.9548V52.7254C56.6662 52.3965 56.5878 52.0706 56.429 51.7788C56.2701 51.487 56.036 51.2388 55.7489 51.0577Z" fill="#1A2730"/>
<path d="M55.7489 56.5862C54.5579 55.7949 52.4509 55.7178 50.2788 56.3726V60.8235C52.6566 60.1826 54.9756 60.3369 56.3681 61.2666C56.4682 61.3335 56.5645 61.4055 56.6566 61.4822V58.2528C56.6661 57.9241 56.5877 57.5985 56.4288 57.3068C56.27 57.0151 56.0359 56.7671 55.7489 56.5862Z" fill="#1A2730"/>
<path d="M55.7489 45.5301C54.5579 44.7388 52.4509 44.6616 50.2788 45.3164V49.7674C52.6566 49.1264 54.9756 49.2807 56.3682 50.2115C56.4715 50.2797 56.5656 50.3519 56.6566 50.4261V47.1977C56.6663 46.8688 56.588 46.5429 56.4291 46.2511C56.2702 45.9592 56.0361 45.7111 55.7489 45.5301Z" fill="#1A2730"/>
<path d="M55.7489 34.4739C54.5579 33.6826 52.4509 33.6055 50.2788 34.2603V38.7112C52.6566 38.0703 54.9756 38.2246 56.3681 39.1543C56.4683 39.2212 56.5645 39.2932 56.6566 39.3699V36.1405C56.6661 35.8118 56.5877 35.4862 56.4288 35.1945C56.27 34.9028 56.0359 34.6548 55.7489 34.4739Z" fill="#1A2730"/>
<path d="M63.1415 24H57.7366V66H63.1415V24Z" fill="#1A2730"/>
<path d="M55.7489 28.9461C54.5579 28.1548 52.4509 28.0777 50.2788 28.7324V33.1834C52.6566 32.5414 54.9756 32.6967 56.3682 33.6265C56.4682 33.693 56.5645 33.7647 56.6566 33.8411V30.6167C56.6669 30.2872 56.5889 29.9608 56.43 29.6683C56.2711 29.3759 56.0366 29.1273 55.7489 28.9461Z" fill="#1A2730"/>
<path d="M55.7489 40.0016C54.5579 39.2103 52.4509 39.1331 50.2788 39.7889V44.2399C52.6566 43.5979 54.9756 43.7532 56.3681 44.683C56.4715 44.7512 56.5656 44.8244 56.6566 44.8986V41.6672C56.6658 41.3386 56.5873 41.0132 56.4285 40.7218C56.2696 40.4303 56.0357 40.1825 55.7489 40.0016Z" fill="#1A2730"/>
<path d="M65.1314 56.5859C64.8443 56.7668 64.6103 57.0149 64.4514 57.3065C64.2926 57.5982 64.2142 57.9238 64.2237 58.2525V61.4819C64.3159 61.405 64.4126 61.333 64.5132 61.2663C65.9047 60.3366 68.2267 60.1783 70.6014 60.8232V56.3723C68.4293 55.7215 66.3244 55.7907 65.1314 56.5859Z" fill="#1A2730"/>
<path d="M65.1314 34.4738C64.8443 34.6547 64.6103 34.9027 64.4514 35.1944C64.2926 35.486 64.2142 35.8116 64.2237 36.1404V39.3698C64.3159 39.2928 64.4126 39.2208 64.5132 39.1542C65.9047 38.2244 68.2267 38.0662 70.6014 38.7111V34.2601C68.4293 33.6053 66.3244 33.6785 65.1314 34.4738Z" fill="#1A2730"/>
<path d="M65.1313 51.0574C64.8445 51.2383 64.6106 51.4862 64.4517 51.7777C64.2929 52.0691 64.2144 52.3945 64.2236 52.7231V55.9525C64.3163 55.876 64.4129 55.804 64.5131 55.7368C65.9047 54.8071 68.2267 54.6488 70.6014 55.2937V50.8428C68.4293 50.189 66.3244 50.2622 65.1313 51.0574Z" fill="#1A2730"/>
<path d="M50.2788 26.726V27.6547C52.6566 27.0138 54.9756 27.1681 56.3681 28.0978C56.4683 28.1647 56.5645 28.2367 56.6566 28.3135V23.999H53.9159C51.9071 24 50.2788 25.2206 50.2788 26.726Z" fill="#1A2730"/>
<path d="M55.7489 62.1131C54.5579 61.3218 52.4509 61.2446 50.2788 61.8994V63.2743C50.2788 64.7807 51.9071 66.0012 53.9159 66.0012H56.6566V63.7787C56.666 63.4501 56.5876 63.1247 56.4287 62.8332C56.2699 62.5417 56.0359 62.2938 55.7489 62.1131Z" fill="#1A2730"/>
<path d="M65.1314 62.1129C64.8444 62.2937 64.6104 62.5415 64.4515 62.833C64.2927 63.1245 64.2142 63.45 64.2237 63.7786V65.9991H66.9644C68.9731 65.9991 70.6014 64.7785 70.6014 63.2722V61.8993C68.4293 61.2445 66.3244 61.3177 65.1314 62.1129Z" fill="#1A2730"/>
<path d="M66.9639 24H64.2231V28.3144C64.3154 28.2375 64.4121 28.1655 64.5127 28.0988C65.9042 27.1691 68.2262 27.0108 70.6009 27.6557V26.7269C70.5999 25.2205 68.9716 24 66.9639 24Z" fill="#1A2730"/>
<path d="M65.1314 45.5295C64.8443 45.7104 64.6103 45.9584 64.4514 46.2501C64.2926 46.5418 64.2142 46.8674 64.2237 47.1961V50.4246C64.3163 50.3484 64.413 50.2768 64.5132 50.2099C65.9047 49.2802 68.2267 49.1219 70.6014 49.7658V45.3149C68.4293 44.6601 66.3244 44.7343 65.1314 45.5295Z" fill="#1A2730"/>
<path d="M65.1314 40.0021C64.8443 40.1831 64.6104 40.4311 64.4515 40.7227C64.2927 41.0144 64.2143 41.34 64.2237 41.6687V44.8981C64.3163 44.8216 64.4129 44.7497 64.5132 44.6825C65.9047 43.7527 68.2267 43.5945 70.6014 44.2394V39.7884C68.4293 39.1337 66.3244 39.2069 65.1314 40.0021Z" fill="#1A2730"/>
<path d="M65.1314 28.9459C64.8444 29.1267 64.6104 29.3745 64.4515 29.666C64.2927 29.9575 64.2142 30.283 64.2237 30.6116V33.841C64.3159 33.7644 64.4126 33.6927 64.5132 33.6263C65.9047 32.6956 68.2267 32.5383 70.6014 33.1832V28.7323C68.4293 28.0775 66.3244 28.1507 65.1314 28.9459Z" fill="#1A2730"/>
<path d="M49.1991 29.027V26.7323C49.1991 26.3536 49.2691 25.9779 49.4059 25.6225C46.0703 24.2925 42.443 23.7709 38.8462 24.1041C35.2493 24.4373 31.7941 25.615 28.7872 27.5326C25.7804 29.4502 23.3148 32.0484 21.6096 35.0966C19.9044 38.1448 19.0122 41.5486 19.0122 45.0059C19.0122 48.4632 19.9044 51.867 21.6096 54.9151C23.3148 57.9633 25.7804 60.5615 28.7872 62.4791C31.7941 64.3967 35.2493 65.5744 38.8462 65.9076C42.443 66.2408 46.0703 65.7192 49.4059 64.3892C49.269 64.0335 49.199 63.6574 49.1991 63.2784V59.3151C46.5988 60.6861 43.6699 61.3849 40.7012 61.3424C37.7326 61.3 34.8267 60.5179 32.2704 59.0732C29.7141 57.6285 27.5956 55.5713 26.124 53.1043C24.6523 50.6373 23.8783 47.8459 23.8783 45.0054C23.8783 42.1649 24.6523 39.3735 26.124 36.9065C27.5956 34.4395 29.7141 32.3822 32.2704 30.9375C34.8267 29.4928 37.7326 28.7107 40.7012 28.6683C43.6699 28.6259 46.5988 29.3246 49.1991 30.6956V29.027Z" fill="#1A2730"/>
<path d="M49.1981 37.6583V32.0372C46.7941 30.6394 44.0446 29.8787 41.2317 29.8332C38.4189 29.7878 35.6442 30.4592 33.1922 31.7786C30.7402 33.098 28.6993 35.0179 27.279 37.3411C25.8587 39.6644 25.1101 42.3074 25.1101 44.9988C25.1101 47.6903 25.8587 50.3333 27.279 52.6566C28.6993 54.9798 30.7402 56.8997 33.1922 58.2191C35.6442 59.5385 38.4189 60.2099 41.2317 60.1645C44.0446 60.119 46.7941 59.3583 49.1981 57.9605V55.4472C47.9878 56.3253 46.6328 57.0039 45.1889 57.455C44.9502 57.5285 44.6966 57.5469 44.4491 57.5087C44.2015 57.4706 43.9668 57.3769 43.7643 57.2354C43.5617 57.0939 43.3971 56.9086 43.2837 56.6946C43.1703 56.4806 43.1115 56.244 43.1119 56.004V50.9774C43.1118 50.6183 43.2006 50.2643 43.3709 49.9444C43.5412 49.6244 43.7883 49.3475 44.092 49.1364C44.3956 48.9254 44.7471 48.786 45.1178 48.7299C45.4885 48.6737 45.8679 48.7023 46.2248 48.8133L49.1981 49.7381V45.3861L47.5616 44.8777C47.2046 44.7668 46.8801 44.5766 46.6147 44.3227C46.3492 44.0688 46.1504 43.7584 46.0345 43.4168C45.9185 43.0753 45.8887 42.7124 45.9474 42.3577C46.0062 42.003 46.152 41.6667 46.3727 41.3763L49.1981 37.6583ZM27.259 45.0211V45.0003C27.2559 42.2428 28.1674 39.5554 29.8622 37.3249C30.0092 37.1286 30.2028 36.9685 30.4271 36.8578C30.6514 36.7471 30.9 36.6889 31.1524 36.6882C31.4048 36.6874 31.6538 36.744 31.8788 36.8533C32.1039 36.9627 32.2986 37.1216 32.4468 37.317L35.5318 41.3783C35.7525 41.6688 35.8981 42.0052 35.9568 42.3599C36.0156 42.7146 35.9857 43.0776 35.8696 43.4191C35.7535 43.7607 35.5546 44.0711 35.2891 44.3249C35.0235 44.5788 34.6989 44.7689 34.3419 44.8797L29.3246 46.4395C29.0891 46.5138 28.8387 46.5339 28.5936 46.498C28.3485 46.4622 28.1157 46.3714 27.9142 46.2331C27.7128 46.0949 27.5483 45.913 27.4343 45.7024C27.3202 45.4917 27.2598 45.2583 27.258 45.0211H27.259ZM38.7894 56.004C38.7899 56.244 38.7311 56.4806 38.6177 56.6946C38.5043 56.9086 38.3396 57.0939 38.1371 57.2354C37.9346 57.3769 37.6999 57.4706 37.4523 57.5087C37.2047 57.5469 36.9512 57.5285 36.7125 57.455C33.98 56.5984 31.5972 54.9435 29.8994 52.7232C29.7492 52.5289 29.6494 52.3033 29.6081 52.0649C29.5668 51.8265 29.5853 51.5822 29.662 51.3519C29.7387 51.1217 29.8715 50.9122 30.0494 50.7407C30.2272 50.5691 30.4452 50.4404 30.6852 50.3652L35.6766 48.8133C36.0335 48.7023 36.4128 48.6737 36.7835 48.7299C37.1542 48.786 37.5058 48.9254 37.8094 49.1364C38.113 49.3475 38.3601 49.6244 38.5305 49.9444C38.7008 50.2643 38.7895 50.6183 38.7894 50.9774V56.004ZM45.9633 34.8799L42.8741 38.9471C42.6536 39.2376 42.3643 39.4741 42.0299 39.6371C41.6955 39.8002 41.3255 39.8852 40.9502 39.8852C40.5749 39.8852 40.2049 39.8002 39.8705 39.6371C39.5361 39.4741 39.2467 39.2376 39.0262 38.9471L35.9381 34.8799C35.7901 34.6846 35.6927 34.4586 35.6538 34.2203C35.6149 33.982 35.6356 33.7383 35.7144 33.5092C35.7931 33.2801 35.9275 33.0721 36.1066 32.9023C36.2857 32.7326 36.5043 32.6059 36.7445 32.5328C39.4793 31.6892 42.422 31.6892 45.1569 32.5328C45.397 32.6062 45.6155 32.733 45.7945 32.9029C45.9734 33.0728 46.1077 33.2809 46.1863 33.5101C46.2649 33.7392 46.2856 33.983 46.2467 34.2213C46.2077 34.4596 46.1102 34.6856 45.9622 34.8809L45.9633 34.8799Z" fill="#1A2730"/>
</g>
<defs>
<clipPath id="clip0_218_760">
<rect width="51.6" height="42" fill="white" transform="translate(19 24)"/>
</clipPath>
</defs>
</svg>
