<?xml version="1.0" encoding="UTF-8"?>
<svg id="a" data-name="Layer 1" xmlns="http://www.w3.org/2000/svg" viewBox="0 0 124 123.9">
  <path d="M10.4.5h103.2c5.5,0,9.9,4.4,9.9,9.9v103.1c0,5.5-4.4,9.9-9.9,9.9H10.4c-5.5,0-9.9-4.4-9.9-9.9V10.4C.5,4.9,4.9.5,10.4.5Z" fill="#fff" stroke="#2a2e43" stroke-miterlimit="10"/>
  <g>
    <path d="M39.6,67.1h-5.6c-1.9,0-3.8.8-5.4,2.4-1.6,1.5-3.5,2.4-5.4,2.4h-6.8c-.5,0-1,.4-1,1v6c0,.5.4,1,1,1h6.8c1.9,0,3.8.8,5.4,2.4,1.6,1.5,3.5,2.4,5.4,2.4h5.6c.3,0,.5-.3.5-.6v-16.1c0-.3-.2-.6-.5-.6v-.3Z" fill="#25333f" stroke-width="0"/>
    <path d="M100.9,63.8h-1.2c-.6,0-1.1-.5-1.1-1.1s-.5-1.1-1.1-1.1h-1.4c-.8,0-1.5-.7-1.5-1.5v-.6c0-.8-.7-1.5-1.5-1.5h-14.9c-.8,0-1.5.7-1.5,1.5v.6c0,.8-.7,1.5-1.5,1.5h-10.9c-.8,0-1.5-.7-1.5-1.5v-.6c0-.8-.7-1.5-1.5-1.5h-14.9c-.8,0-1.5.7-1.5,1.5v2.5c0,.8-.7,1.5-1.5,1.5s-1.8.8-1.8,1.8v21.6c0,1,.8,1.8,1.8,1.8h10.6c.4,0,.8.3.8.8s.3.8.8.8h19.7c.8,0,1.5.7,1.5,1.5s.7,1.5,1.5,1.5h14.9c.8,0,1.5-.7,1.5-1.5s.7-1.5,1.5-1.5h1.4c.6,0,1.1-.5,1.1-1.1s.5-1.1,1.1-1.1h1.2c.6,0,1.1-.5,1.1-1.1v-21.8c0-.6-.5-1.1-1.1-1.1l-.1-.3ZM43,75.2c-.1,0-.2-.1-.2-.2v-.6c0-.1.1-.2.2-.2h15.3c.1,0,.2.1.2.2v.6c0,.1-.1.2-.2.2h-15.3ZM44.1,79.4v-.6c0-.1.1-.2.2-.2h15.3c.1,0,.2.1.2.2v.6c0,.1-.1.2-.2.2h-15.3c-.1,0-.2-.1-.2-.2ZM61.2,83.9c0,.1-.1.2-.2.2h-15.3c-.1,0-.2-.1-.2-.2v-.6c0-.1.1-.2.2-.2h15.3c.1,0,.2.1.2.2v.6ZM95.9,77.1c0,.3-.2.5-.5.5h0c-.3,0-.5-.2-.5-.5v-13.1c0-.3.2-.5.5-.5h0c.3,0,.5.2.5.5v13.1ZM99.6,85.7c0,.3-.2.5-.5.5h0c-.3,0-.5-.2-.5-.5v-19.7c0-.3.2-.5.5-.5h0c.3,0,.5.2.5.5v19.7Z" fill="#25333f" stroke-width="0"/>
    <path d="M63.1,59.5v.6h0c0,.4.3.7.7.7h11.8c.4,0,.7-.3.7-.7v-.6c0-1,.8-1.9,1.9-1.9h9.8c-.2-.7-.8-1.2-1.6-1.2h-9.5c-1,0-1.8.8-1.8,1.8s-.2.4-.4.4h-1.1c-.2,0-.4-.2-.4-.4v-1.4c0-.2-.2-.4-.4-.4h-1.7c-.2,0-.4.2-.4.4v1.4c0,.2-.2.4-.4.4h-1.1c-.2,0-.4-.2-.4-.4v-1.4c0-.2-.2-.4-.4-.4h-1.7c-.2,0-.4.2-.4.4v1.4c0,.2-.2.4-.4.4h-1.1c-.2,0-.4-.2-.4-.4,0-1-.8-1.8-1.8-1.8h-9.5c-.8,0-1.4.5-1.6,1.2h9.4c1,0,1.9.8,1.9,1.9h.3Z" fill="#25333f" stroke-width="0"/>
    <path d="M14.4,73.5h-3.4c-.3,0-.5.3-.5.6s-.2.6-.5.6h-3.4c-.3,0-.5.3-.5.6v1c0,.3.2.6.5.6h3.4c.3,0,.5.3.5.6s.2.6.5.6h3.4c.3,0,.5-.3.5-.6v-3.4c0-.3-.2-.6-.5-.6Z" fill="#25333f" stroke-width="0"/>
    <path d="M106.3,75h-.4c-.2,0-.9-.1-.9-.3v-3.5c0-.2.7-.3.9-.3s.3-.1.3-.3v-.4c0-.2-.1-.3-.3-.3h-2.7c-.2,0-.3.1-.3.3v12.5c0,.2.1.3.3.3h2.7c.2,0,.3-.1.3-.3v-.4c0-.2-.1-.3-.3-.3s-.9-.1-.9-.3v-3.5c0-.2.7-.3.9-.3h.4c.2,0,.3-.1.3-.3v-2.2c0-.2-.1-.3-.3-.3v-.1Z" fill="#25333f" stroke-width="0"/>
    <path d="M71.6,56.2h.9c.2,0,.5-.2.5-.4l2.1-16.8c0-.1.1-.2.2-.2h.3c.1,0,.2,0,.2-.1l.7-2.6c0-.1.1-.2.2-.2h.3c1.3.2,3.5-4.1,3.9-5.4.5-1.5-.6-3.1-2.2-3.3l-3.2-.4c-1.4-.2-2.8.8-2.9,2.3h0c0,.5-.1,1-.1,1.4-.1,2.7-.3,4.2.4,4.8v.2l-.2,2.8c0,.1,0,.2.2.2.1,0,.2.1.2.2l-2,16.9c0,.3.2.5.5.5v.1ZM75.5,27.9h.2s.1,0,.2.1c0,0,.2.1.3.2.1,0,.2.1.4.2h.8c.1,0,.3.1.5.2.2,0,.3.1.5.2h.4c.3,0,.6.2.8.2s.4.1.6.2h.2-2.1c-.2,0-.3-.1-.5-.2-.2,0-.3-.1-.5-.2-.2,0-.3-.2-.4-.2,0,0-.1,0-.2-.1,0,0-.1,0-.2-.1,0,0-.1,0-.2-.1,0,0-.1,0-.2-.1l-.1-.1-.1-.1-.2-.2-.1-.1h0l-.1.2Z" fill="#25333f" stroke-width="0"/>
  </g>
</svg>