<svg width="35" height="17" viewBox="0 0 35 17" fill="none" xmlns="http://www.w3.org/2000/svg">
<path fill-rule="evenodd" clip-rule="evenodd" d="M3.55334 0.339996H25.7633C26.7033 0.399996 27.5333 1.02001 28.3133 1.98001C30.1533 3.82001 31.6033 5.76 32.6633 7.87C33.4833 7.89 34.0633 8.26001 34.4333 8.95001L34.8533 12.25H31.5533C31.4033 11.94 31.2033 11.67 30.9633 11.43C30.4133 10.88 29.6433 10.54 28.8033 10.54C27.9633 10.54 27.1933 10.88 26.6433 11.43C26.4033 11.67 26.2033 11.94 26.0533 12.25H20.4533V2.59C20.4533 2.39 20.3733 2.20999 20.2433 2.07999C20.1133 1.94999 19.9333 1.87 19.7333 1.87H15.2833C15.0833 1.87 14.9033 1.94999 14.7733 2.07999C14.6433 2.20999 14.5633 2.39 14.5633 2.59V12.25H10.1833C10.0333 11.93 9.82334 11.63 9.57334 11.38C9.46334 11.27 9.34334 11.17 9.21334 11.08H5.52335C5.39335 11.17 5.28334 11.27 5.17334 11.38C4.92334 11.63 4.71335 11.92 4.56335 12.25H0.803345V8.35001L1.91335 1.97C2.06335 1.09 2.65334 0.339996 3.55334 0.339996ZM28.7934 10.99C28.0734 10.99 27.4233 11.28 26.9533 11.75C26.4833 12.22 26.1933 12.87 26.1933 13.59C26.1933 14.31 26.4833 14.95 26.9533 15.42C27.4233 15.89 28.0734 16.18 28.7934 16.18C29.5134 16.18 30.1633 15.89 30.6333 15.42C31.1033 14.95 31.3933 14.3 31.3933 13.59C31.3933 12.87 31.1033 12.22 30.6333 11.75C30.1633 11.28 29.5134 10.99 28.7934 10.99ZM29.8533 12.53C29.5833 12.26 29.2133 12.09 28.8033 12.09C28.3933 12.09 28.0233 12.26 27.7533 12.53C27.4833 12.8 27.3133 13.17 27.3133 13.58C27.3133 13.99 27.4833 14.36 27.7533 14.63C28.0233 14.9 28.3933 15.07 28.8033 15.07C29.2133 15.07 29.5833 14.9 29.8533 14.63C30.1233 14.36 30.2934 13.99 30.2934 13.58C30.2834 13.18 30.1233 12.8 29.8533 12.53ZM9.07334 11.62H5.68334C5.63334 11.66 5.59334 11.7 5.54334 11.75C5.07334 12.22 4.78334 12.87 4.78334 13.59C4.78334 14.31 5.07334 14.95 5.54334 15.42C6.01334 15.89 6.66335 16.18 7.38335 16.18C8.10335 16.18 8.75334 15.89 9.22334 15.42C9.69334 14.95 9.98335 14.3 9.98335 13.59C9.98335 12.87 9.69334 12.22 9.22334 11.75C9.17334 11.71 9.12334 11.67 9.07334 11.62ZM8.43334 12.53C8.16334 12.26 7.79335 12.09 7.38335 12.09C6.97335 12.09 6.60334 12.26 6.33334 12.53C6.06334 12.8 5.89334 13.17 5.89334 13.58C5.89334 13.99 6.06334 14.36 6.33334 14.63C6.60334 14.9 6.97335 15.07 7.38335 15.07C7.79335 15.07 8.16334 14.9 8.43334 14.63C8.70334 14.36 8.87334 13.99 8.87334 13.58C8.87334 13.18 8.70334 12.8 8.43334 12.53ZM20.4333 12.88H25.8333C25.7833 13.11 25.7533 13.34 25.7533 13.59C25.7533 13.8 25.7733 14.01 25.8133 14.21H10.4333C10.4733 14.01 10.4933 13.8 10.4933 13.59C10.4933 13.34 10.4633 13.11 10.4133 12.88H14.5933C14.6233 13.01 14.6933 13.13 14.7833 13.22C14.9133 13.35 15.0933 13.43 15.2933 13.43H19.7433C19.9433 13.43 20.1233 13.35 20.2533 13.22C20.3333 13.13 20.4033 13.01 20.4333 12.88ZM22.5833 2.62V5.04999L23.9533 7.03H30.4633C29.5133 5.35 28.3433 3.83999 26.8133 2.60999H22.5833V2.62ZM15.6533 3.06V7.01999H19.4233V3.06H15.6533ZM8.97334 2.62V7.04001H12.7433V2.62H8.97334ZM4.04334 2.62L3.49335 7.04001H7.26334V2.62H4.04334ZM19.0033 7.72H20.0133V2.59C20.0133 2.51 19.9833 2.44999 19.9333 2.39999C19.8833 2.34999 19.8133 2.32001 19.7433 2.32001H15.2933C15.2133 2.32001 15.1433 2.34999 15.1033 2.39999C15.0533 2.44999 15.0233 2.52 15.0233 2.59V12.71C15.0233 12.79 15.0533 12.86 15.1033 12.9C15.1533 12.95 15.2233 12.98 15.2933 12.98H19.7433C19.8233 12.98 19.8933 12.95 19.9333 12.9C19.9833 12.85 20.0133 12.78 20.0133 12.71V8.32999H19.0033V7.72ZM34.9034 12.88V14.21H31.7934C31.8334 14.01 31.8533 13.8 31.8533 13.59C31.8533 13.34 31.8233 13.11 31.7733 12.88H34.9034ZM4.34335 12.88C4.29335 13.11 4.26334 13.34 4.26334 13.59C4.26334 13.8 4.28334 14.01 4.32334 14.21H2.44334C1.65334 14.21 0.983344 13.64 0.833344 12.88H4.34335Z" fill="#000003"/>
</svg>
