<svg width="32" height="16" viewBox="0 0 32 16" fill="none" xmlns="http://www.w3.org/2000/svg">
<path fill-rule="evenodd" clip-rule="evenodd" d="M29.4933 9.65002H31.0233H31.4233L30.8633 12.33H29.5233C29.5233 12.29 29.5233 12.24 29.5233 12.2C29.5233 11.11 29.0833 10.13 28.3733 9.40997C27.6633 8.69997 26.6733 8.26001 25.5833 8.26001C24.4933 8.26001 23.5133 8.69997 22.7933 9.40997C22.0833 10.12 21.6333 11.11 21.6333 12.2C21.6333 12.24 21.6333 12.29 21.6333 12.33H20.2733H18.3833V1.45001H18.0533V12.33H17.4133H11.1733C11.1733 12.29 11.1733 12.24 11.1733 12.2C11.1733 11.13 10.7333 10.15 10.0333 9.45001C9.32331 8.74001 8.35331 8.31 7.28331 8.31C6.20331 8.31 5.23331 8.75001 4.53331 9.45001C3.83331 10.15 3.39331 11.13 3.39331 12.2C3.39331 12.24 3.39331 12.29 3.39331 12.33H3.13332L2.33331 10.6V8.81H1.83331V7.57001H0.773315V4.38H16.3433C16.3833 3.09 16.4533 1.83002 16.5933 0.650024C18.6433 0.650024 21.5333 0.650024 23.5933 0.650024C25.1533 2.02002 26.1533 3.56998 26.7833 5.22998C27.8533 5.59998 28.9233 5.96998 29.9933 6.34998C30.3633 6.94998 30.6133 7.54001 30.7633 8.14001H28.9233L29.4933 9.65002ZM19.4633 6.98999V7.48999H20.6933V6.98999H19.4633ZM19.3233 1.66998V6.22998H22.4933L23.5533 5.40002H25.4333C25.0133 4.04002 24.2433 2.80998 23.2133 1.66998H19.3233ZM5.24332 4.87C5.24332 5.56 5.24332 6.25 5.24332 6.94C5.37332 6.94 5.50332 6.94 5.63332 6.94C5.63332 6.25 5.63332 5.56 5.63332 4.87C5.50332 4.87 5.37332 4.87 5.24332 4.87ZM2.02332 4.87V6.94H2.41331V4.87H2.02332ZM8.46331 4.87C8.46331 5.56 8.46331 6.25 8.46331 6.94C8.59331 6.94 8.72331 6.94 8.85331 6.94C8.85331 6.25 8.85331 5.56 8.85331 4.87C8.72331 4.87 8.59331 4.87 8.46331 4.87ZM11.6833 4.87C11.6833 5.56 11.6833 6.25 11.6833 6.94C11.8133 6.94 11.9433 6.94 12.0633 6.94C12.0633 6.25 12.0633 5.56 12.0633 4.87C11.9433 4.87 11.8133 4.87 11.6833 4.87ZM14.9033 4.87V6.94H15.2833V4.87H14.9033ZM25.5933 9.23999C24.7733 9.23999 24.0333 9.56999 23.5033 10.11C22.9633 10.65 22.6333 11.39 22.6333 12.2C22.6333 13.02 22.9633 13.76 23.5033 14.29C24.0433 14.83 24.7833 15.16 25.5933 15.16C26.4133 15.16 27.1533 14.83 27.6833 14.29C28.2233 13.75 28.5533 13.01 28.5533 12.2C28.5533 11.38 28.2233 10.64 27.6833 10.11C27.1433 9.56999 26.4033 9.23999 25.5933 9.23999ZM25.6033 11.27C25.3433 11.27 25.1133 11.37 24.9433 11.54C24.7733 11.71 24.6733 11.94 24.6733 12.2C24.6733 12.46 24.7733 12.69 24.9433 12.86C25.1133 13.03 25.3433 13.13 25.6033 13.13C25.8633 13.13 26.0933 13.03 26.2633 12.86C26.4333 12.69 26.5333 12.46 26.5333 12.2C26.5333 11.94 26.4333 11.71 26.2633 11.54C26.0933 11.38 25.8633 11.27 25.6033 11.27ZM25.8933 11.91C25.8233 11.84 25.7233 11.79 25.6033 11.79C25.4933 11.79 25.3933 11.84 25.3133 11.91C25.2433 11.98 25.1933 12.08 25.1933 12.2C25.1933 12.31 25.2433 12.41 25.3133 12.49C25.3833 12.56 25.4833 12.61 25.6033 12.61C25.7133 12.61 25.8133 12.56 25.8933 12.49C25.9633 12.42 26.0133 12.32 26.0133 12.2C26.0133 12.09 25.9733 11.99 25.8933 11.91ZM26.5033 11.28C26.2733 11.05 25.9433 10.9 25.5833 10.9C25.2233 10.9 24.9033 11.04 24.6633 11.28C24.4333 11.51 24.2833 11.84 24.2833 12.2C24.2833 12.56 24.4233 12.88 24.6633 13.12C24.8933 13.35 25.2233 13.5 25.5833 13.5C25.9433 13.5 26.2633 13.36 26.5033 13.12C26.7333 12.89 26.8833 12.56 26.8833 12.2C26.8833 11.84 26.7433 11.52 26.5033 11.28ZM7.29331 9.23999C6.47331 9.23999 5.73332 9.56999 5.20332 10.11C4.66332 10.65 4.33331 11.39 4.33331 12.2C4.33331 13.02 4.66332 13.76 5.20332 14.29C5.74332 14.83 6.48331 15.16 7.29331 15.16C8.11331 15.16 8.85332 14.83 9.38332 14.29C9.92332 13.75 10.2533 13.01 10.2533 12.2C10.2533 11.38 9.92332 10.64 9.38332 10.11C8.85332 9.56999 8.11331 9.23999 7.29331 9.23999ZM7.29331 11.27C7.03331 11.27 6.80332 11.37 6.63332 11.54C6.46332 11.71 6.36331 11.94 6.36331 12.2C6.36331 12.46 6.46332 12.69 6.63332 12.86C6.80332 13.03 7.03331 13.13 7.29331 13.13C7.55331 13.13 7.78332 13.03 7.95332 12.86C8.12332 12.69 8.22331 12.46 8.22331 12.2C8.22331 11.94 8.12332 11.71 7.95332 11.54C7.78332 11.38 7.55331 11.27 7.29331 11.27ZM7.58331 11.91C7.51331 11.84 7.41331 11.79 7.29331 11.79C7.18331 11.79 7.08331 11.84 7.00331 11.91C6.93331 11.98 6.88332 12.08 6.88332 12.2C6.88332 12.31 6.93331 12.41 7.00331 12.49C7.07331 12.56 7.17331 12.61 7.29331 12.61C7.40331 12.61 7.50331 12.56 7.58331 12.49C7.65331 12.42 7.70332 12.32 7.70332 12.2C7.70332 12.09 7.65331 11.99 7.58331 11.91ZM8.21331 11.28C7.98331 11.05 7.65331 10.9 7.29331 10.9C6.93331 10.9 6.61331 11.04 6.37331 11.28C6.14331 11.51 5.99332 11.84 5.99332 12.2C5.99332 12.56 6.13331 12.88 6.37331 13.12C6.60331 13.35 6.93331 13.5 7.29331 13.5C7.65331 13.5 7.97331 13.36 8.21331 13.12C8.44331 12.89 8.59332 12.56 8.59332 12.2C8.59332 11.84 8.44331 11.52 8.21331 11.28Z" fill="#000003"/>
</svg>
