<svg width="28" height="24" viewBox="0 0 28 24" fill="none" xmlns="http://www.w3.org/2000/svg">
<path fill-rule="evenodd" clip-rule="evenodd" d="M9.18331 14.31L8.96331 12.88H11.9433C12.5233 12.88 13.0633 13.35 13.1533 13.93L13.2133 14.31H9.24332C9.22332 14.31 9.20331 14.31 9.18331 14.31ZM7.17331 15.43L7.04331 14.54C7.21331 14.79 7.43331 15 7.67331 15.16L7.68331 15.17C7.71331 15.19 7.73331 15.21 7.76331 15.23C8.16331 15.53 8.65331 15.71 9.15331 15.71H14.2833L14.3433 16.21L14.5233 17.59H9.66331C9.06331 17.59 8.49331 17.35 8.03331 16.95C7.59331 16.57 7.26331 16.02 7.17331 15.43ZM8.45332 18.92H21.1633C21.0733 19.18 21.0233 19.42 20.9933 19.65C20.9633 19.91 20.9533 20.16 20.9533 20.43H8.66331C8.66331 20.16 8.65331 19.91 8.62331 19.65C8.59331 19.42 8.54332 19.18 8.45332 18.92ZM4.88332 17.25C4.06332 17.25 3.32331 17.58 2.79331 18.12C2.25331 18.66 1.92331 19.4 1.92331 20.21C1.92331 21.03 2.25331 21.77 2.79331 22.3C3.33331 22.84 4.07332 23.17 4.88332 23.17C5.69332 23.17 6.44331 22.84 6.97331 22.3C7.51331 21.76 7.84332 21.02 7.84332 20.21C7.84332 19.39 7.51331 18.65 6.97331 18.12C6.44331 17.58 5.70332 17.25 4.88332 17.25ZM24.6433 17.25C23.8233 17.25 23.0833 17.58 22.5533 18.12C22.0133 18.66 21.6833 19.4 21.6833 20.21C21.6833 21.03 22.0133 21.77 22.5533 22.3C23.0933 22.84 23.8333 23.17 24.6433 23.17C25.4533 23.17 26.2033 22.84 26.7333 22.3C27.2733 21.76 27.6033 21.02 27.6033 20.21C27.6033 19.39 27.2733 18.65 26.7333 18.12C26.2033 17.58 25.4633 17.25 24.6433 17.25ZM5.12331 9.03998H2.51331C2.50331 9.03998 2.49331 9.03998 2.48331 9.03998C2.35331 9.05998 2.25332 9.18001 2.27332 9.32001L2.98331 14.18C1.76331 14.21 0.773315 15.21 0.773315 16.44V18.7H1.40331C1.98331 17.35 3.33331 16.4 4.89331 16.4C6.45331 16.4 7.80332 17.35 8.38332 18.7H14.6733L14.5633 17.81H9.68331C9.03331 17.81 8.40331 17.55 7.91331 17.12C7.42331 16.69 7.07331 16.11 6.97331 15.46L6.78331 14.21C6.78331 14.2 6.78331 14.2 6.78331 14.19L5.03331 2.56H19.0133L22.0933 14.07H21.1533L16.7633 9.67999L17.8433 8.59998C18.0133 8.42998 18.0133 8.15999 17.8433 7.98999C17.6733 7.81999 17.4033 7.81999 17.2333 7.98999L14.4533 10.77C14.2833 10.94 14.2833 11.21 14.4533 11.38C14.6233 11.55 14.8933 11.55 15.0633 11.38L16.1433 10.3L20.8033 14.96V16.88C20.8033 17.58 20.5433 18.23 20.1133 18.72H21.2733C21.8533 17.42 23.1433 16.52 24.6533 16.52H26.9933C26.8133 15.14 25.6333 14.07 24.2133 14.07H22.9833L19.9033 2.56H21.1933C21.3333 2.56 21.4533 2.43999 21.4533 2.29999C21.4533 1.90999 21.2933 1.56 21.0433 1.31C20.7933 1.06 20.4333 0.900024 20.0533 0.900024H3.14331C3.08331 0.900024 3.02331 0.920022 2.98331 0.960022C2.87331 1.05002 2.85331 1.21001 2.94331 1.32001L3.87331 2.45001C3.92331 2.52001 3.99331 2.56 4.08331 2.56H4.15331L5.12331 9.03998ZM3.11331 9.53003L3.78331 13.95H3.44331L2.80331 9.53003H3.11331ZM4.44331 13.95L3.77332 9.53003H4.11331L4.78331 13.95H4.44331ZM5.79331 13.95H5.46331L4.79331 9.53003H5.14331L5.79331 13.95ZM24.6433 18.66C23.7933 18.66 23.0933 19.35 23.0933 20.21C23.0933 21.06 23.7833 21.76 24.6433 21.76C25.5033 21.76 26.1933 21.07 26.1933 20.21C26.1933 19.36 25.4933 18.66 24.6433 18.66ZM4.88332 18.66C4.03332 18.66 3.33331 19.35 3.33331 20.21C3.33331 21.06 4.02332 21.76 4.88332 21.76C5.74332 21.76 6.43331 21.07 6.43331 20.21C6.43331 19.36 5.74332 18.66 4.88332 18.66ZM7.13332 13.98C7.40332 14.81 8.22332 15.45 9.09332 15.45H14.3033L14.0333 13.69C13.8833 12.72 12.9733 11.93 12.0033 11.93H8.82331L8.54331 10.06C8.46331 9.5 7.93331 9.03998 7.37331 9.03998H6.35331L6.79331 11.93L7.06332 13.69C7.08332 13.83 7.09332 13.86 7.13332 13.98Z" fill="#010101"/>
</svg>
