<svg width="48" height="43" viewBox="0 0 48 43" fill="none" xmlns="http://www.w3.org/2000/svg">
<path d="M38.3467 10.3516C39.6668 12.1592 39.6668 14.6755 39.6668 19.7082C39.6668 24.7408 39.6668 27.2572 38.3467 29.0648C37.7752 29.8473 37.0408 30.5192 36.1855 31.042C34.4595 32.0971 32.1423 32.2305 27.9168 32.2474V32.2498L25.7517 36.2115C25.0301 37.532 22.9703 37.532 22.2486 36.2115L20.0835 32.2498V32.2474C15.858 32.2305 13.5408 32.0971 11.8149 31.042C10.9595 30.5192 10.2252 29.8473 9.65365 29.0648C8.3335 27.2572 8.3335 24.7408 8.3335 19.7082C8.3335 14.6755 8.3335 12.1592 9.65365 10.3516C10.2252 9.56905 10.9595 8.89717 11.8149 8.37431C13.7906 7.1665 16.541 7.1665 22.0418 7.1665H25.9585C31.4593 7.1665 34.2097 7.1665 36.1855 8.37431C37.0408 8.89717 37.7752 9.56905 38.3467 10.3516Z" stroke="#545454" stroke-width="3.5" stroke-linecap="round" stroke-linejoin="round"/>
</svg>
