<svg width="33" height="21" viewBox="0 0 33 21" fill="none" xmlns="http://www.w3.org/2000/svg">
<path fill-rule="evenodd" clip-rule="evenodd" d="M0.823296 11.75C1.0033 11.91 1.1933 12.06 1.3733 12.22C0.633299 13.09 0.193298 14.22 0.193298 15.45C0.193298 16.83 0.7533 18.09 1.6633 18.99C2.5733 19.9 3.8233 20.46 5.2033 20.46C6.5833 20.46 7.8433 19.9 8.7433 18.99C9.4233 18.31 9.90329 17.45 10.1033 16.48H10.3333L11.4833 17.56L11.6033 17.67H11.7733C11.7933 17.67 17.7833 17.72 18.5433 17.67C19.5833 17.61 20.3433 15.43 20.3433 15.42L20.3533 15.4L22.2733 8.96999L22.3733 8.64001L22.2933 8.6L23.0233 8.16L24.2833 10.89C24.0933 11.04 23.9133 11.19 23.7433 11.36C22.7733 12.33 22.1733 13.68 22.1733 15.16C22.1733 16.64 22.7733 17.99 23.7433 18.96C24.7133 19.93 26.0633 20.53 27.5433 20.53C29.0233 20.53 30.3733 19.93 31.3433 18.96C32.3133 17.99 32.9133 16.64 32.9133 15.16C32.9133 13.68 32.3133 12.33 31.3433 11.36C30.3733 10.39 29.0233 9.79 27.5433 9.79C27.0233 9.79 26.5233 9.85999 26.0533 9.99999L24.7333 7.13L25.1433 6.88L24.5133 5.35998L24.0233 5.58999L23.1433 3.67998L23.3333 3.67L23.0633 3.07C23.2333 2.76 23.4333 2.29 23.6033 1.82C23.7233 1.49 23.8233 1.16 23.8933 0.879996C24.1733 0.919996 24.5733 0.959994 24.6933 0.939994C24.8733 0.899994 25.1033 0.270006 25.0733 0.140006C25.0333 0.0100059 23.7333 0.0700046 23.6533 0.170005C23.5733 0.270005 23.6133 0.839988 23.6133 0.839988C23.5533 1.09999 23.4533 1.40999 23.3333 1.71999C23.1933 2.09999 23.0433 2.47999 22.9133 2.74999L22.7033 2.29998L22.1433 2.33999C22.0633 2.14999 21.9833 1.92999 21.9033 1.71999C21.7933 1.40999 21.6933 1.09999 21.6233 0.839988C21.6233 0.839988 21.6633 0.270005 21.5833 0.170005C21.5033 0.0700046 20.2033 0.0100059 20.1633 0.140006C20.1233 0.270006 20.3533 0.899994 20.5433 0.939994C20.6633 0.959994 21.0633 0.919996 21.3433 0.879996C21.4133 1.16 21.5133 1.49 21.6333 1.82C21.7033 2.01 21.7733 2.18999 21.8433 2.36999L20.6133 2.45998C20.6133 2.47998 20.6133 2.52999 20.6133 2.58999L20.1233 2.6V2.26998H19.7633V2.48998H18.2433V3.04H19.7633V3.29H20.1233V3.01998L20.6133 3.01C20.6133 3.38 20.6133 3.79998 20.6133 3.79998L21.0033 3.77999L22.2133 6.42L21.4633 6.76998C21.4933 6.36998 21.4433 5.96 21.2333 5.63C20.9933 5.23 20.2333 5.16 19.3233 5.26V4.96999H17.8533V5.54C16.5833 5.87 15.3733 6.36998 15.0233 6.73998C14.5633 7.22998 14.2633 8.20999 14.1033 8.89999C12.3133 9.35999 10.0033 9.93 9.7033 9.85C9.5033 9.8 9.0533 9.35998 8.8233 8.73998C7.8833 6.23998 6.5833 6.62 5.6833 7.07L5.6233 9.33999C3.4633 9.24999 1.4033 10.32 0.823296 11.75ZM27.5433 13.02C27.5133 13.02 27.4833 13.02 27.4433 13.02L26.5833 11.16C26.8933 11.09 27.2033 11.05 27.5333 11.05C28.6633 11.05 29.6933 11.51 30.4333 12.25C31.1733 12.99 31.6333 14.02 31.6333 15.15C31.6333 16.28 31.1733 17.31 30.4333 18.05C29.6933 18.79 28.6633 19.25 27.5333 19.25C26.4033 19.25 25.3733 18.79 24.6333 18.05C23.8933 17.31 23.4333 16.28 23.4333 15.15C23.4333 14.02 23.8933 12.99 24.6333 12.25C24.6933 12.19 24.7533 12.13 24.8233 12.07L25.7233 14.03C25.5233 14.36 25.4033 14.74 25.4033 15.15C25.4033 15.74 25.6433 16.27 26.0333 16.66C26.4233 17.05 26.9533 17.29 27.5433 17.29C28.1333 17.29 28.6633 17.05 29.0533 16.66C29.4433 16.27 29.6833 15.74 29.6833 15.15C29.6833 14.56 29.4433 14.03 29.0533 13.64C28.6633 13.26 28.1333 13.02 27.5433 13.02ZM26.3533 13.38L25.5233 11.58C25.6133 11.53 25.7033 11.48 25.7933 11.44L26.6133 13.23C26.5233 13.27 26.4333 13.32 26.3533 13.38ZM28.6933 14C28.9933 14.3 29.1733 14.7 29.1733 15.15C29.1733 15.6 28.9933 16.01 28.6933 16.3C28.3933 16.6 27.9933 16.78 27.5433 16.78C27.0933 16.78 26.6833 16.6 26.3933 16.3C26.1033 16 25.9133 15.6 25.9133 15.15C25.9133 14.96 25.9433 14.79 26.0033 14.62L26.5133 15.73L27.2833 15.38L26.5733 13.84C26.6533 13.78 26.7433 13.73 26.8333 13.68L27.5833 15.32L28.3533 14.97L27.6833 13.52C28.0733 13.56 28.4333 13.73 28.6933 14ZM21.9233 3.73L22.2433 3.70998L23.2633 5.92998L22.9933 6.05999L21.9233 3.73ZM24.9933 10.42L23.7433 7.70998L24.0033 7.54998L25.2633 10.28C25.1733 10.33 25.0833 10.37 24.9933 10.42ZM17.2233 9.93999L17.3133 10.2H16.2433L17.2233 9.93999ZM18.7933 10.12L18.9433 9.33999C19.6233 9.08999 20.3433 8.83 20.7033 8.7L21.3733 9.04998L20.8633 10.76C20.4933 10.5 19.3333 10.16 18.7933 10.12ZM13.6333 11.64V10.87L14.2633 10.7V11.39H16.7933C16.8233 11.47 16.8533 11.56 16.8933 11.65H15.4833V11.63H13.6333V11.64ZM15.5233 11.99H17.0733C17.1133 12.06 17.1333 12.1 17.1333 12.1L20.4233 12.23L19.5533 15.15C19.4833 15.33 18.9533 16.79 18.5033 16.82C17.8233 16.86 12.9233 16.83 11.9433 16.82L11.5733 16.47H17.6733V16.21C17.8433 16.18 18.0133 16.14 18.1333 16.08C18.5933 15.83 18.8033 14.14 18.8033 14.14H15.7033L15.6733 13.81H17.5733V13.48H15.6433L15.6133 13.16H17.5733V12.83H15.5933L15.5733 12.56H17.5833V12.23H15.5433L15.5233 11.99ZM12.1133 15.63H10.6733L10.2133 15.19C10.2133 15.14 10.2033 15.09 10.2033 15.04L11.4133 14.75L12.1133 15.63ZM4.6533 12.6L6.4133 12.81C6.7233 12.96 7.0133 13.15 7.2533 13.4C7.7733 13.92 8.10329 14.65 8.10329 15.45C8.10329 15.51 8.1033 15.57 8.0933 15.64H5.6933L7.6433 15.2C7.6233 14.94 7.5633 14.69 7.4333 14.45L5.46329 15.17L5.60329 13.08C5.35329 13.03 5.0933 13.02 4.8233 13.07L4.9533 15.17L2.9933 14.43C2.8733 14.66 2.7833 14.9 2.7633 15.18L4.7433 15.65H3.4533V16.49H4.21329L3.5733 17.36C3.7633 17.53 3.9733 17.68 4.2333 17.77L4.9433 16.49H5.6233L6.46329 17.64C6.69329 17.52 6.8933 17.36 7.0633 17.15L6.4433 16.5H7.92329C7.77329 16.89 7.5533 17.23 7.2633 17.52C6.7433 18.04 6.01329 18.37 5.21329 18.37C4.41329 18.37 3.6833 18.04 3.1633 17.52C2.6433 17 2.3133 16.27 2.3133 15.47C2.3133 14.67 2.6333 13.95 3.1633 13.42C3.5533 13 4.0733 12.71 4.6533 12.6Z" fill="#000003"/>
</svg>
