<svg width="35" height="24" viewBox="0 0 35 24" fill="none" xmlns="http://www.w3.org/2000/svg">
<path d="M24.5933 5.65002H24.6033L29.4733 5.65997C29.7933 5.65997 30.0633 5.92 30.0533 6.25V7.90997C30.0533 8.04997 30.0033 8.17002 29.9233 8.27002L24.5933 5.65002Z" fill="#010101"/>
<path d="M22.1633 4.60997C21.8833 4.60997 21.6033 4.69997 21.3833 4.85997L21.0233 3.84996C20.7033 3.78996 20.4133 3.55997 20.2933 3.22997L19.8933 2.09001L16.2833 2.39C15.7633 2.43 15.2933 2.04001 15.2533 1.52001C15.2133 0.990008 15.6033 0.529978 16.1233 0.489978L20.4733 0.129993C20.9033 0.0999929 21.3033 0.349998 21.4533 0.759998L22.1033 2.59001C22.2233 2.92001 22.1433 3.27001 21.9233 3.52001L22.3133 4.60997C22.2533 4.60997 22.2133 4.60997 22.1633 4.60997Z" fill="#010101"/>
<path d="M30.4333 10.54C30.3533 10.82 30.0933 10.99 29.8133 10.99C29.7733 10.99 29.7333 10.99 29.7033 10.98C29.2833 10.91 28.8533 10.87 28.4033 10.87C24.5533 10.86 21.3633 13.73 20.8733 17.46C20.8333 17.78 20.5533 18.01 20.2333 18.01L14.7633 18C14.4433 18 14.1733 17.76 14.1333 17.44C13.6733 13.71 10.4933 10.82 6.64333 10.81C5.92333 10.81 5.21333 10.91 4.55333 11.1C4.51333 11.11 4.47333 11.12 4.43333 11.12C4.20333 11.12 3.99333 10.94 4.04333 10.7C4.29333 9.32001 5.55333 6.93997 6.54333 5.90997C6.69333 5.74997 6.90333 5.67999 7.11333 5.67999C7.25333 5.67999 7.40333 5.71003 7.53333 5.78003L9.68333 6.81L9.73333 6.54999C9.73333 6.52999 9.74333 6.50999 9.75333 6.48999C9.78333 6.37999 9.84333 6.28997 9.92333 6.21997C10.0533 6.10997 10.2333 6.05002 10.4133 6.08002L16.8233 7.29999C17.1433 7.35999 17.3533 7.66999 17.2933 7.98999L17.1133 8.94C17.0633 9.19 16.8533 9.37997 16.6133 9.40997C16.6033 9.40997 16.6033 9.40997 16.5933 9.40997V9.75V10.11L17.5433 10.57C17.5933 10.59 17.6433 10.6 17.6933 10.6C17.8033 10.6 17.9133 10.55 17.9833 10.46L21.6033 5.56C21.6033 5.55 21.6133 5.54998 21.6233 5.53998C21.7633 5.36998 21.9633 5.27002 22.1733 5.27002C22.2733 5.27002 22.3833 5.29003 22.4833 5.34003L22.5933 5.39001L23.3033 5.73999L23.6833 5.92999L24.0633 6.12L28.9533 8.52002L29.7333 8.90997L30.2233 9.15002L30.2633 9.16998C30.5633 9.31998 30.7233 9.66999 30.6233 9.98999L30.4333 10.54Z" fill="#010101"/>
<path d="M6.7533 12.05C3.5733 12.04 0.993305 14.61 0.983305 17.79C0.973305 20.97 3.5433 23.55 6.7233 23.56C9.9033 23.57 12.4833 21 12.4933 17.82C12.5033 14.64 9.9333 12.06 6.7533 12.05ZM4.4433 17.79C4.4433 16.52 5.4833 15.49 6.7533 15.49C8.0233 15.49 9.0533 16.53 9.0533 17.8C9.0533 19.07 8.01331 20.1 6.74331 20.1C5.46331 20.1 4.4333 19.06 4.4433 17.79Z" fill="#010101"/>
<path d="M34.1333 18.16C34.1433 14.98 31.5733 12.4 28.3933 12.39C25.2133 12.38 22.6333 14.95 22.6233 18.13C22.6133 21.31 25.1833 23.8901 28.3633 23.9001C31.5433 23.9001 34.1233 21.34 34.1333 18.16ZM30.6833 18.1501C30.6833 19.4201 29.6433 20.45 28.3733 20.45C27.1033 20.45 26.0733 19.41 26.0733 18.14C26.0733 16.87 27.1133 15.8401 28.3833 15.8401C29.6533 15.8501 30.6833 16.8801 30.6833 18.1501Z" fill="#010101"/>
<path d="M14.8533 19.02L19.9633 19.03C20.3233 19.03 20.6633 19.23 20.8433 19.54L21.3633 20.44C21.4933 20.66 21.3333 20.95 21.0733 20.95L13.7333 20.93C13.4733 20.93 13.3133 20.65 13.4433 20.42L13.9733 19.52C14.1533 19.21 14.4933 19.02 14.8533 19.02Z" fill="#010101"/>
</svg>
