<svg width="39" height="18" viewBox="0 0 39 18" fill="none" xmlns="http://www.w3.org/2000/svg">
<path fill-rule="evenodd" clip-rule="evenodd" d="M2.05329 15.83C1.23329 14.2 0.693285 12.43 0.853285 10.35C1.23329 10.17 1.61329 9.99001 1.99329 9.82001C2.16329 7.81001 2.46329 5.88002 3.17329 4.14002L2.77329 3.85999C2.98329 2.95999 3.34329 2.15002 3.90329 1.48002C10.1633 0.530018 16.5033 0.449997 22.8733 0.739997C26.0533 1.54 28.6633 2.79001 30.4233 4.75001C32.9733 5.76001 35.1033 7.06001 36.7633 8.69001C37.0733 9.36001 37.3833 10.03 37.6933 10.69L38.5133 10.96C38.9733 13.12 38.4933 14.66 37.4433 15.84H36.5533C36.6833 15.44 36.7633 15.01 36.7633 14.56C36.7633 13.44 36.3033 12.42 35.5733 11.68C34.8333 10.94 33.8233 10.49 32.6933 10.49C31.5733 10.49 30.5533 10.94 29.8133 11.68C29.0733 12.42 28.6233 13.43 28.6233 14.56C28.6233 15.01 28.6933 15.44 28.8333 15.84H9.98329C10.1133 15.44 10.1933 15.01 10.1933 14.56C10.1933 13.44 9.73329 12.42 9.00329 11.68C8.26329 10.94 7.25329 10.49 6.12329 10.49C5.00329 10.49 3.98329 10.94 3.24329 11.68C2.50329 12.42 2.05329 13.43 2.05329 14.56C2.05329 15.01 2.12329 15.44 2.26329 15.84H2.05329V15.83ZM18.6833 7.27C18.5833 7.28 18.4833 7.28999 18.3833 7.29999C18.3333 8.51999 18.3733 9.72 18.4833 10.9C18.5933 12.1 18.7733 13.27 19.0233 14.43H11.9633C11.8033 13.37 11.5233 12.35 11.0433 11.39C10.5433 10.4 9.83329 9.48 8.78329 8.65C8.78329 8.29 8.78329 7.94 8.81329 7.59C8.83329 7.31 8.86329 7.03001 8.90329 6.75001H17.6933C17.6133 5.64001 17.3833 2.54002 17.3233 1.79002C13.9433 1.83002 9.41329 2.09001 6.40329 2.50001C5.88329 3.94001 5.65329 5.35001 5.51329 6.75001H8.58329C8.54329 7.02001 8.51329 7.29001 8.49329 7.57001C8.46329 7.95001 8.46329 8.34002 8.46329 8.73002V8.81L8.52329 8.85999C9.55329 9.66999 10.2633 10.57 10.7533 11.54C11.2433 12.51 11.5133 13.55 11.6633 14.62L11.6833 14.76H11.8233H19.0933H19.2133H27.6233H27.7433L27.7733 14.65C28.2033 13.06 28.5433 11.49 28.7733 9.93C29.0133 8.37 29.1533 6.83 29.1733 5.31H29.0233C27.4833 3.7 25.2733 2.55002 22.6133 1.70002C20.9033 1.65002 20.2433 1.63001 18.4333 1.72001L19.3733 6.76002C22.9033 6.77002 24.5133 6.77001 28.8133 6.78001C28.7433 7.81001 28.6333 8.84002 28.4733 9.89002C28.2433 11.4 27.9133 12.92 27.5033 14.46H19.3333C19.0733 13.29 18.8833 12.1 18.7833 10.89C18.6733 9.70002 18.6333 8.49 18.6833 7.27ZM3.63329 9.93C3.53329 10.12 3.60329 10.15 3.73329 10.13C5.25329 9.56001 6.58329 9.64001 7.80329 10.13C7.89329 10.12 7.95329 10.09 7.76329 9.87C6.72329 8.92 4.60329 8.95 3.63329 9.93ZM30.7033 9.93C30.6033 10.12 30.6733 10.15 30.8033 10.13C32.3233 9.56001 33.6533 9.64001 34.8733 10.13C34.9633 10.12 35.0233 10.09 34.8333 9.87C33.7933 8.92 31.6733 8.95 30.7033 9.93ZM36.1933 8.74C35.6433 8.28 35.1533 7.84002 34.4633 7.42002C33.0133 7.40002 32.4233 7.69001 32.0433 8.07001C31.9433 8.67001 33.4033 8.85 36.1933 8.74ZM10.1533 8.32999C10.1533 9.60999 11.9933 9.60999 11.9933 8.32999H10.1533ZM19.5133 8.37C19.5133 9.65 21.3533 9.65 21.3533 8.37H19.5133ZM32.6933 11.09C31.7433 11.09 30.8833 11.48 30.2533 12.1C29.6333 12.72 29.2433 13.59 29.2433 14.54C29.2433 15.49 29.6333 16.36 30.2533 16.98C30.8733 17.6 31.7433 17.99 32.6933 17.99C33.6433 17.99 34.5133 17.6 35.1333 16.98C35.7633 16.35 36.1433 15.49 36.1433 14.54C36.1433 13.59 35.7533 12.73 35.1333 12.1C34.5033 11.48 33.6433 11.09 32.6933 11.09ZM32.9633 15.18L33.0233 16.45C33.3233 16.4 33.5933 16.28 33.8233 16.11L32.9633 15.18ZM32.3833 16.46L32.4233 15.19L31.5733 16.13C31.8133 16.29 32.0833 16.41 32.3833 16.46ZM31.1233 15.68L32.0533 14.81L30.7833 14.87C30.8333 15.17 30.9533 15.44 31.1233 15.68ZM30.7833 14.24L32.0533 14.29L31.1133 13.43C30.9433 13.66 30.8233 13.94 30.7833 14.24ZM31.5533 12.97L32.4233 13.9L32.3633 12.63C32.0633 12.69 31.7933 12.8 31.5533 12.97ZM33.0033 12.63L32.9533 13.9L33.8133 12.96C33.5733 12.79 33.2933 12.68 33.0033 12.63ZM34.2633 13.41L33.3333 14.28L34.6033 14.22C34.5533 13.92 34.4333 13.64 34.2633 13.41ZM34.6033 14.85L33.3333 14.8L34.2733 15.66C34.4433 15.43 34.5533 15.15 34.6033 14.85ZM6.12329 11.09C5.17329 11.09 4.30329 11.48 3.68329 12.1C3.06329 12.72 2.67329 13.59 2.67329 14.54C2.67329 15.49 3.05329 16.36 3.68329 16.98C4.30329 17.6 5.17329 17.99 6.12329 17.99C7.07329 17.99 7.93329 17.6 8.56329 16.98C9.18329 16.35 9.57329 15.49 9.57329 14.54C9.57329 13.59 9.18329 12.73 8.56329 12.1C7.93329 11.48 7.07329 11.09 6.12329 11.09ZM6.38329 15.18L6.44329 16.45C6.74329 16.4 7.01329 16.28 7.25329 16.11L6.38329 15.18ZM5.81329 16.46L5.86329 15.19L5.00329 16.13C5.23329 16.29 5.51329 16.41 5.81329 16.46ZM4.54329 15.68L5.47329 14.81L4.20329 14.87C4.26329 15.17 4.37329 15.44 4.54329 15.68ZM4.20329 14.24L5.47329 14.29L4.53329 13.43C4.37329 13.66 4.25329 13.94 4.20329 14.24ZM4.98329 12.97L5.85329 13.9L5.79329 12.63C5.49329 12.69 5.21329 12.8 4.98329 12.97ZM6.42329 12.63L6.37329 13.9L7.23329 12.96C7.00329 12.79 6.72329 12.68 6.42329 12.63ZM7.68329 13.41L6.75329 14.28L8.02329 14.22C7.97329 13.92 7.85329 13.64 7.68329 13.41ZM8.03329 14.85L6.76329 14.8L7.70329 15.66C7.86329 15.43 7.98329 15.15 8.03329 14.85Z" fill="#000003"/>
</svg>
