<?xml version="1.0" standalone="no"?>
<!DOCTYPE svg PUBLIC "-//W3C//DTD SVG 20010904//EN"
 "http://www.w3.org/TR/2001/REC-SVG-20010904/DTD/svg10.dtd">
<svg version="1.0" xmlns="http://www.w3.org/2000/svg"
 width="518.000000pt" height="188.000000pt" viewBox="0 0 518.000000 188.000000"
 preserveAspectRatio="xMidYMid meet">

<g transform="translate(0.000000,188.000000) scale(0.100000,-0.100000)"
fill="#000000" stroke="none">
<path d="M1820 1852 c-50 -50 -55 -101 -55 -577 0 -422 13 -727 38 -880 l12
-70 1038 -3 1037 -2 0 -69 c0 -71 14 -101 45 -101 7 0 21 7 29 16 13 13 16 44
16 187 0 170 0 173 30 235 34 71 115 162 178 199 133 78 305 83 442 13 24 -12
72 -49 106 -82 68 -65 119 -160 133 -248 4 -28 11 -53 14 -57 7 -6 125 34 214
73 49 22 52 25 63 76 7 29 10 97 9 151 -4 95 -8 107 -41 119 -4 2 -19 47 -32
102 -33 127 -80 228 -125 268 -102 90 -296 136 -841 199 l-105 12 -295 197
c-162 108 -317 206 -345 218 -127 52 -122 52 -855 52 l-682 0 -28 -28z m815
-142 c3 -5 9 -86 12 -179 5 -131 3 -174 -7 -186 -11 -13 -53 -15 -299 -15
-157 0 -291 4 -297 8 -6 4 -16 16 -22 28 -12 22 -32 196 -32 274 0 81 -4 80
342 80 182 0 299 -4 303 -10z m650 -18 c60 -21 128 -60 277 -160 118 -79 199
-140 203 -152 16 -50 14 -50 -445 -50 -414 0 -427 1 -445 20 -21 23 -31 78
-41 223 -10 150 -14 147 204 147 157 0 172 -2 247 -28z m1562 -583 c45 -8 68
-17 79 -33 18 -26 69 -185 61 -192 -10 -10 -91 44 -133 88 -63 67 -114 134
-107 141 9 10 26 9 100 -4z m-2142 -579 c0 -13 -47 -15 -352 -18 -349 -2 -353
-2 -353 18 0 20 4 20 353 18 305 -3 352 -5 352 -18z m1078 14 c3 -3 3 -12 0
-20 -4 -12 -79 -14 -458 -14 -292 0 -456 4 -460 10 -3 6 -3 15 0 20 7 11 907
15 918 4z"/>
<path d="M264 1350 c-11 -4 -33 -23 -48 -41 l-27 -32 3 -336 c3 -330 4 -337
27 -384 36 -72 58 -83 237 -115 l159 -28 5 -84 5 -85 32 -3 c40 -4 42 1 45
163 3 111 5 125 34 185 57 118 148 197 275 240 53 18 80 21 154 18 110 -6 186
-33 258 -92 115 -93 166 -195 175 -343 l5 -93 85 0 85 0 -7 32 c-20 99 -39
401 -52 796 l-7 212 -711 -1 c-391 0 -720 -4 -732 -9z"/>
<path d="M1056 779 c-109 -26 -216 -114 -264 -217 -24 -51 -27 -69 -27 -167 0
-102 2 -114 29 -167 39 -77 103 -141 183 -180 83 -41 200 -50 284 -23 319 105
373 523 91 704 -82 53 -200 72 -296 50z m124 -202 c-21 -11 -26 -21 -31 -72
l-6 -60 -1 57 c-2 46 -6 60 -24 72 -21 15 -20 16 32 16 51 0 53 -1 30 -13z
m-142 -28 c-41 -30 -36 -55 17 -87 25 -15 45 -30 45 -35 0 -4 -20 6 -44 23
-51 34 -71 37 -85 13 -16 -28 -13 -6 4 26 14 28 70 81 83 81 4 0 -5 -10 -20
-21z m278 -61 c18 -35 18 -47 0 -23 -15 21 -29 17 -93 -25 -18 -12 -33 -18
-33 -13 0 4 21 20 45 35 48 29 55 49 28 82 -12 14 -9 13 11 -4 15 -14 34 -37
42 -52z m21 -115 c-2 -16 -4 -5 -4 22 0 28 2 40 4 28 2 -13 2 -35 0 -50z
m-380 15 c-3 -7 -5 -2 -5 12 0 14 2 19 5 13 2 -7 2 -19 0 -25z m143 -23 c0 -2
-20 -16 -45 -31 -51 -29 -55 -46 -23 -83 18 -20 15 -19 -10 4 -19 17 -40 42
-48 57 -16 31 -19 52 -3 26 13 -24 37 -22 79 7 34 23 50 30 50 20z m140 -20
c42 -26 80 -33 80 -13 0 6 3 8 6 5 10 -10 -42 -84 -68 -98 -20 -10 -19 -8 4
14 35 32 29 50 -28 83 -41 24 -52 34 -39 34 3 0 23 -11 45 -25z m-55 -125 l30
-6 -34 -7 c-19 -4 -51 -4 -70 0 l-36 7 30 6 c29 5 30 7 34 70 l5 65 5 -65 c6
-63 7 -65 36 -70z"/>
<path d="M4320 774 c-112 -30 -197 -100 -249 -206 -98 -198 -10 -436 195 -530
41 -19 66 -23 154 -23 93 0 112 3 161 26 282 132 308 530 45 688 -96 58 -201
73 -306 45z m133 -194 c-20 -8 -23 -16 -23 -70 0 -33 -4 -60 -10 -60 -6 0 -10
27 -10 60 0 54 -3 62 -22 70 -18 7 -11 9 32 9 43 0 50 -2 33 -9z m-94 -3 c-2
-2 -17 -11 -34 -21 l-30 -17 24 20 c13 12 28 21 34 21 6 0 8 -1 6 -3z m167
-18 c37 -23 89 -101 81 -121 -4 -9 -6 -7 -6 3 -1 9 -8 22 -16 29 -13 11 -24 7
-65 -18 -28 -17 -50 -27 -50 -23 0 5 20 21 45 35 60 36 59 56 -5 95 -19 11
-31 21 -26 21 5 0 24 -9 42 -21z m-242 -43 c-5 -22 1 -28 48 -55 29 -17 47
-31 40 -31 -7 0 -31 12 -54 26 -46 29 -68 25 -79 -17 -6 -19 -7 -20 -8 -5 -1
18 44 106 55 106 2 0 2 -11 -2 -24z m-16 -196 c9 0 35 11 57 25 59 36 68 30
10 -8 -60 -39 -64 -62 -16 -94 19 -13 29 -23 23 -23 -34 0 -113 104 -111 147
0 10 5 3 10 -14 6 -21 16 -33 27 -33z m246 24 c24 -17 47 -24 62 -21 33 6 30
-4 -13 -50 -21 -22 -30 -29 -19 -17 25 30 16 48 -41 84 -26 17 -43 30 -37 30
5 0 27 -12 48 -26z m-84 -65 l0 -62 42 6 c27 4 37 2 27 -3 -24 -16 -93 -22
-119 -11 l-25 10 28 0 c26 1 27 2 27 61 0 33 4 60 10 60 6 0 10 -27 10 -61z"/>
<path d="M2 673 c5 -82 25 -135 57 -152 19 -11 193 -52 198 -47 1 1 -11 19
-28 40 -38 45 -59 111 -59 183 l0 53 -86 0 -87 0 5 -77z"/>
</g>
</svg>
