<?xml version="1.0" encoding="UTF-8"?>
<svg id="Layer_1" data-name="Layer 1" xmlns="http://www.w3.org/2000/svg" viewBox="0 0 124.5 124.5">
  <path d="M61.23,7.3C31.42,7.3,7.25,31.46,7.25,61.27s24.17,53.98,53.98,53.98,53.98-24.17,53.98-53.98S91.04,7.3,61.23,7.3ZM61.23,102.18c-22.56,0-40.91-18.35-40.91-40.91S38.67,20.37,61.23,20.37s40.91,18.35,40.91,40.9-18.35,40.91-40.91,40.91ZM61.23,21.62c-21.87,0-39.66,17.79-39.66,39.65s17.79,39.66,39.66,39.66,39.65-17.79,39.65-39.66-17.79-39.65-39.65-39.65ZM67.04,26.87c10.91,1.84,20.12,8.76,25.1,18.24l-17.07,5.55c-2.06-2.67-4.86-4.71-8.03-5.83v-17.96ZM55.41,26.87v17.96c-3.17,1.12-5.97,3.16-8.03,5.83l-17.07-5.55c4.98-9.48,14.19-16.4,25.1-18.24ZM26.34,61.27c0-1.73.13-3.43.37-5.1l17.08,5.55c.09,3.39,1.16,6.66,3.07,9.44l-10.55,14.51c-6.17-6.3-9.98-14.91-9.98-24.4ZM61.23,96.17c-5.57,0-10.84-1.31-15.51-3.64l10.55-14.52c1.6.48,3.26.72,4.97.72s3.36-.24,4.96-.72l10.55,14.52c-4.67,2.33-9.94,3.64-15.51,3.64ZM82.53,89.17c-.45.34-.9.67-1.35.98l-.18.12-13.11-18.05-1.67.71c-1.58.68-3.26,1.02-4.99,1.02s-3.4-.34-4.99-1.02l-1.67-.71-13.12,18.05-.18-.12c-.47-.32-.92-.65-1.35-.98l-.17-.13,13.12-18.05-1.19-1.37c-2.02-2.31-3.13-5.27-3.13-8.34,0-.34.02-.72.05-1.14l.16-1.8-21.24-6.9.06-.21c.15-.51.33-1.04.52-1.59l.07-.2,21.23,6.9.93-1.55c1.77-2.97,4.71-5.1,8.07-5.87l1.76-.4v-22.33h.22c.56-.02,1.12-.02,1.67,0h.22v22.34l1.76.4c3.36.76,6.3,2.9,8.07,5.87l.93,1.55,21.24-6.9.07.2c.17.46.33.97.52,1.59l.06.21-21.24,6.9.16,1.8c.04.41.06.79.06,1.14,0,3.07-1.11,6.03-3.14,8.34l-1.19,1.37,13.12,18.06-.17.13ZM86.14,85.67l-10.54-14.51c1.91-2.77,2.98-6.05,3.07-9.44l17.08-5.55c.25,1.67.38,3.37.38,5.1,0,9.49-3.81,18.11-9.98,24.4ZM70.51,56.64c-2.54-5.09-8.75-7.15-13.88-4.59-5.13,2.56-7.22,8.75-4.69,13.84,2.54,5.09,8.75,7.15,13.88,4.59,5.13-2.56,7.23-8.76,4.69-13.85ZM60.11,52.4c.98-.49,2.16-.09,2.65.88.48.97.08,2.15-.89,2.64-.98.49-2.17.1-2.65-.87-.49-.97-.08-2.16.89-2.65ZM52.07,60.1c-.49-.97-.09-2.16.89-2.65.98-.49,2.16-.09,2.65.88.49.97.09,2.15-.89,2.64-.98.49-2.16.1-2.65-.88ZM57.36,68.86c-.98.49-2.17.09-2.65-.88-.49-.98-.09-2.16.89-2.64.98-.49,2.16-.1,2.65.88.49.97.08,2.16-.89,2.65ZM62.72,64.28c-1.67.83-3.7.16-4.53-1.5-.83-1.66-.14-3.69,1.53-4.52,1.68-.84,3.7-.16,4.53,1.5.83,1.66.14,3.68-1.53,4.52ZM66.42,68.59c-.98.49-2.17.1-2.65-.87-.49-.97-.09-2.16.89-2.65.98-.49,2.16-.09,2.65.88.48.97.08,2.15-.9,2.64ZM69.13,61c-.98.49-2.16.1-2.65-.87-.48-.97-.09-2.16.89-2.64.98-.49,2.16-.09,2.64.88.48.97.09,2.15-.89,2.64Z" fill="#fff" stroke="#fff" stroke-miterlimit="10"/>
  <rect x=".25" y=".25" width="124" height="124" rx="10" ry="10" fill="none" stroke="#fff" stroke-miterlimit="10" stroke-width=".5"/>
</svg>