<?xml version="1.0" encoding="UTF-8"?>
<svg id="Layer_1" data-name="Layer 1" xmlns="http://www.w3.org/2000/svg" viewBox="0 0 124.01 123.91">
  <path d="M67.88,21.69c-26.94-3.41-49.6,19.23-46.2,46.17,2.33,18.43,17.01,33.12,35.44,35.45,26.94,3.41,49.6-19.24,46.2-46.18-2.33-18.42-17.01-33.11-35.44-35.44ZM67.79,93.25c-21.32,3.53-39.58-14.73-36.05-36.05,2.15-12.97,12.46-23.28,25.43-25.44,21.35-3.55,39.63,14.74,36.07,36.08-2.17,12.97-12.48,23.27-25.45,25.41ZM67.65,32.69c-20.7-3.44-38.42,14.3-34.96,34.99,2.1,12.57,12.11,22.55,24.68,24.63,20.67,3.41,38.35-14.29,34.93-34.96-2.08-12.57-12.08-22.57-24.65-24.66ZM66.93,36.27c8.32,1.4,15.34,6.68,19.14,13.91l-13.01,4.23c-1.57-2.04-3.71-3.59-6.12-4.45v-13.69ZM58.06,36.27v13.69c-2.42.85-4.55,2.41-6.12,4.45l-13.01-4.23c3.8-7.23,10.82-12.5,19.14-13.91ZM35.9,62.5c0-1.32.1-2.62.28-3.89l13.02,4.23c.07,2.58.88,5.08,2.34,7.2l-8.04,11.06c-4.7-4.8-7.61-11.37-7.61-18.6h0ZM62.5,89.11c-4.25,0-8.26-1-11.83-2.78l8.04-11.07c1.22.37,2.49.55,3.79.55s2.56-.18,3.78-.55l8.04,11.07c-3.56,1.78-7.58,2.78-11.83,2.78h0ZM78.74,83.77c-.34.26-.69.51-1.03.75l-.14.09-10-13.76-1.27.54c-1.88.81-3.94.99-6.04.54-.5-.11-.98-.29-1.46-.49l-1.39-.59-10,13.76-.14-.09c-.36-.24-.7-.5-1.03-.75l-.13-.1,10-13.76-.91-1.04c-1.54-1.76-2.39-4.02-2.39-6.36,0-.26.02-.55.04-.87l.12-1.37-16.19-5.26.05-.16c.11-.39.25-.79.4-1.21l.05-.15,16.19,5.26.71-1.18c1.35-2.26,3.59-3.89,6.15-4.48l1.34-.3v-17.03h.17c.43-.02.85-.02,1.27,0h.17v17.03l1.34.3c2.56.58,4.8,2.21,6.15,4.48l.71,1.18,16.19-5.26.05.15c.13.35.25.74.4,1.21l.05.16-16.19,5.26.12,1.37c.03.31.05.6.05.87,0,2.34-.85,4.6-2.39,6.36l-.91,1.04,10,13.77-.13.1v-.02ZM81.49,81.1l-8.04-11.06c1.46-2.11,2.27-4.61,2.34-7.2l13.02-4.23c.19,1.27.29,2.57.29,3.89,0,7.24-2.9,13.81-7.61,18.6h0ZM69.58,58.97c-1.94-3.88-6.67-5.45-10.58-3.5s-5.5,6.67-3.58,10.55c1.94,3.88,6.67,5.45,10.58,3.5,3.91-1.95,5.51-6.68,3.58-10.56h0ZM61.37,55.91c.94-.74,2.32-.18,2.46,1.07.04.38-.09.77-.34,1.05-.89,1.02-2.46.56-2.67-.71-.09-.53.13-1.08.55-1.4ZM55.52,61.6c-.37-.74-.07-1.65.68-2.02.92-.46,2.07.11,2.19,1.25.04.38-.09.77-.35,1.05-.79.87-2.06.64-2.52-.29h0ZM59.55,68.28c-.95.48-2.16-.15-2.18-1.37,0-.36.13-.71.38-.97.79-.83,2.03-.59,2.49.32.37.74.06,1.65-.68,2.02h0ZM63.64,64.79c-1.55.77-3.51-.16-3.73-2.08-.08-.73.2-1.47.72-1.99,1.36-1.33,3.42-.89,4.17.63.63,1.27.11,2.81-1.17,3.45ZM66.46,68.08c-.95.47-2.16-.13-2.18-1.36,0-.36.13-.72.38-.98.79-.84,2.03-.58,2.49.32.37.74.06,1.64-.69,2.01h0ZM68.52,62.29c-.92.46-2.06-.09-2.19-1.23-.04-.38.09-.77.34-1.05.79-.89,2.06-.64,2.52.28.37.74.07,1.64-.68,2.01h0Z" fill="#000d20" stroke-width="0"/>
  <path d="M10.42.5h103.17c5.48,0,9.92,4.44,9.92,9.91v103.08c0,5.47-4.44,9.91-9.92,9.91H10.42c-5.48,0-9.92-4.44-9.92-9.91V10.41C.5,4.94,4.94.5,10.42.5Z" fill="none" stroke="#000d20" stroke-miterlimit="10"/>
</svg>