<?xml version="1.0" encoding="UTF-8"?>
<svg id="Layer_1" data-name="Layer 1" xmlns="http://www.w3.org/2000/svg" viewBox="0 0 123.95 123.95">
  <defs>
    <style>
      .cls-1 {
        fill: #000d20;
        stroke-width: 0px;
      }
    </style>
  </defs>
  <path class="cls-1" d="M61.98,0C27.75,0,0,27.75,0,61.97s27.75,61.98,61.98,61.98,61.98-27.75,61.98-61.98S96.21,0,61.98,0ZM61.98,108.94c-25.9,0-46.97-21.07-46.97-46.97S36.08,15.01,61.98,15.01s46.97,21.07,46.97,46.96-21.07,46.97-46.97,46.97ZM61.98,16.44c-25.11,0-45.53,20.43-45.53,45.53s20.43,45.54,45.53,45.54,45.53-20.43,45.53-45.54-20.43-45.53-45.53-45.53ZM68.65,22.47c12.53,2.11,23.11,10.06,28.82,20.95l-19.6,6.37c-2.36-3.07-5.58-5.4-9.22-6.7v-20.62ZM55.3,22.47v20.62c-3.64,1.29-6.86,3.63-9.22,6.7l-19.61-6.37c5.71-10.89,16.29-18.83,28.82-20.95ZM21.91,61.97c0-1.99.14-3.94.43-5.86l19.61,6.38c.1,3.89,1.33,7.65,3.53,10.84l-12.11,16.66c-7.08-7.23-11.45-17.12-11.45-28.02ZM61.98,102.04c-6.4,0-12.45-1.51-17.81-4.18l12.11-16.67c1.84.55,3.75.82,5.7.82s3.86-.28,5.7-.82l12.11,16.67c-5.37,2.68-11.42,4.18-17.81,4.18ZM86.44,94.01c-.51.39-1.04.77-1.55,1.13l-.21.14-15.06-20.73-1.91.82c-1.81.78-3.74,1.17-5.73,1.17s-3.91-.39-5.73-1.17l-1.91-.82-15.06,20.73-.21-.14c-.53-.37-1.06-.75-1.55-1.13l-.2-.15,15.06-20.73-1.37-1.57c-2.32-2.65-3.6-6.05-3.6-9.58,0-.39.02-.82.06-1.31l.19-2.07-24.39-7.92.07-.24c.17-.59.38-1.2.59-1.82l.08-.23,24.38,7.92,1.07-1.78c2.03-3.41,5.41-5.86,9.27-6.74l2.03-.46v-25.64h.25c.64-.02,1.28-.02,1.92,0h.25v25.65l2.03.46c3.86.88,7.23,3.33,9.27,6.74l1.07,1.78,24.38-7.92.08.23c.19.53.38,1.11.59,1.83l.07.24-24.39,7.92.18,2.07c.04.47.07.9.07,1.31,0,3.53-1.28,6.93-3.6,9.58l-1.37,1.57,15.06,20.73-.2.15ZM90.58,89.99l-12.1-16.66c2.19-3.18,3.42-6.95,3.52-10.84l19.61-6.38c.28,1.91.43,3.87.43,5.86,0,10.89-4.38,20.79-11.46,28.02ZM72.63,56.66c-2.91-5.84-10.05-8.2-15.94-5.27-5.89,2.94-8.3,10.05-5.38,15.9,2.92,5.85,10.05,8.21,15.93,5.28,5.89-2.94,8.3-10.05,5.38-15.9ZM60.69,51.79c1.13-.56,2.48-.11,3.04,1.01.56,1.11.1,2.47-1.03,3.03-1.12.56-2.49.11-3.04-1-.56-1.12-.1-2.48,1.03-3.04ZM51.46,60.63c-.56-1.11-.1-2.48,1.03-3.04,1.13-.56,2.49-.1,3.04,1.01.56,1.12.1,2.47-1.02,3.03-1.13.56-2.49.11-3.04-1.01ZM57.54,70.68c-1.13.56-2.49.1-3.04-1.01-.56-1.12-.1-2.48,1.03-3.04,1.12-.56,2.48-.11,3.04,1,.56,1.11.1,2.48-1.02,3.04ZM63.69,65.43c-1.92.96-4.25.19-5.2-1.72-.95-1.91-.17-4.23,1.75-5.19,1.92-.96,4.25-.19,5.2,1.72.95,1.91.17,4.23-1.76,5.19ZM67.94,70.37c-1.13.56-2.49.11-3.04-1-.56-1.12-.1-2.48,1.03-3.04,1.12-.56,2.49-.11,3.04,1.01.55,1.11.1,2.47-1.03,3.03ZM71.05,61.66c-1.13.56-2.48.11-3.04-1-.55-1.11-.1-2.48,1.03-3.03,1.12-.56,2.48-.1,3.04,1.01.56,1.11.1,2.47-1.02,3.03Z"/>
</svg>