<?xml version="1.0" encoding="UTF-8"?>
<svg id="a" data-name="Layer 1" xmlns="http://www.w3.org/2000/svg" viewBox="0 0 4700.09 4172.37">
  <path d="M2403.6,3804.14c-28.67-28.68-48.29-63.4-56.84-100.61-15.08-59.87-3.51-125.27,35.72-178.59l88.04-120.74c-15.08-32.69-29.18-66.4-41.24-100.61l-147.9-23.14c-106.16-16.6-182.6-106.14-182.6-213.3v-265.62c0-107.15,76.44-196.69,182.6-212.79l147.9-23.14c12.06-34.2,26.16-67.92,41.24-100.61l-88.04-120.73c-63.37-86.54-53.82-204.24,21.64-279.7l4.03-4.03c-147.9,67.41-312.91,104.64-485.96,104.64-197.71,0-383.83-48.8-547.84-134.83-40.73-21.12-79.98-44.77-117.71-70.93-34.71-23.14-67.4-48.29-99.09-75.96C450.22,2125.42,0,2710.99,0,3470.1c0,117.22,10.05,235.93,30.68,351.64,8.55,48.29,50.31,83.01,99.11,83.01h2373.93l-99.6-100.12-.52-.49Z" fill="#fff"/>
  <path d="M1404.05,1815.53c46.77,29.68,96.58,55.34,148.39,75.97,114.2,46.78,238.95,72.44,369.75,72.44s255.04-25.66,369.24-72.44c51.83-20.63,101.62-46.29,148.41-75.97,278.7-173.05,464.32-482.43,464.32-833.56C2904.16,440.18,2463.49,0,1922.19,0s-981.97,440.18-981.97,981.97c0,351.13,185.63,660.51,463.83,833.56Z" fill="#fff"/>
  <path d="M4623.62,2712.99l-169.05-26.66c-33.19-5.02-60.87-28.17-71.43-59.86-14.07-43.26-31.69-85.01-51.8-125.26-15.11-30.18-11.57-65.9,8.06-93.06l101.1-138.34c26.16-35.73,22.13-85.03-9.06-116.71l-188.13-187.64c-31.2-31.7-80.49-35.21-116.73-9.05l-138.34,101.1c-27.17,19.63-62.88,22.65-93.05,7.55-39.74-20.13-81.5-37.23-124.78-51.82-31.69-10.56-54.83-38.23-60.35-71.43l-26.16-169.03c-7.05-43.76-44.78-75.96-89.04-75.96h-265.6c-44.29,0-82.02,32.2-89.04,75.96l-26.16,169.03c-5.04,33.2-28.17,60.87-59.89,71.43-34.19,11.57-67.89,24.65-100.1,39.74-8.55,4.03-17.1,8.04-25.15,12.07-30.19,15.09-65.9,12.07-93.07-7.55l-138.34-101.1c-35.72-26.16-85.01-22.65-116.7,9.05l-18.62,18.61h0l-169.02,169.03c-31.69,31.69-35.22,80.99-9.06,116.71l101.13,138.34c19.6,27.15,22.62,62.88,7.54,93.06-20.12,40.25-37.24,82-51.8,125.26-10.59,31.69-38.25,54.84-71.45,59.86l-169.02,26.66c-43.77,6.55-75.95,44.28-75.95,88.54v265.62c0,44.77,32.18,82.5,75.95,89.04l169.02,26.66c33.21,5.04,60.87,28.17,71.45,59.86,14.57,43.27,31.69,85.01,51.8,124.76,15.08,30.19,12.06,66.41-7.54,93.07l-101.13,138.34c-23.14,31.69-23.14,73.95-1.01,104.64,2.53,4.02,6.04,8.55,10.07,12.06l88.53,88.55,99.11,99.6,1.01,1.01c31.69,30.18,80.49,33.7,115.69,8.04l11.08-8.04,127.26-93.07c4.03-3.02,8.06-5.54,12.09-7.54,25.15-12.58,55.32-13.58,80.99-.52.52,0,.52.52,1.01.52,39.74,20.12,81.5,37.21,124.24,51.31,24.17,8.04,43.77,26.15,53.35,49.3,3,7.04,5.53,14.58,6.53,22.13l26.16,169.02c7.02,44.28,44.75,76.47,89.04,76.47h265.6c44.26,0,81.99-32.19,89.04-76.47l26.16-169.02c1.5-8.06,3.51-15.6,7.05-22.65,10.05-22.64,29.18-40.74,53.3-48.78,12.58-4.03,24.66-8.56,36.75-13.09,30.16-11.07,59.86-24.15,88.04-38.74,30.16-15.08,65.88-11.57,93.05,8.06l138.34,101.12c36.23,26.16,85.53,22.13,116.73-9.05l188.13-188.16c31.2-31.18,35.22-80.48,9.06-116.7l-101.1-138.34c-19.63-26.66-23.16-62.88-8.06-93.07,20.12-39.74,37.73-81.49,51.8-124.76,10.56-31.69,38.25-54.83,71.43-59.86l169.05-26.66c43.75-6.55,76.47-44.28,76.47-89.04v-265.62c0-44.26-32.72-81.99-76.47-88.54ZM3735.21,3295.04c-29.18,22.64-61.88,41.25-96.58,55.83v.52c-54.33,23.14-114.2,35.72-176.59,35.72-250.01,0-452.75-202.73-452.75-452.75,0-190.16,117.73-353.15,284.25-420.06,35.2-14.09,72.44-24.15,111.17-29.18,18.59-2.51,37.73-3.51,57.33-3.51,24.66,0,48.29,2.01,71.95,5.53,215.81,34.71,380.81,221.86,380.81,447.23,0,101.62-33.19,194.68-89.53,270.14-25.67,34.2-55.83,64.9-90.05,90.55Z" fill="#fff"/>
</svg>