<svg width="124" height="123.9" xmlns="http://www.w3.org/2000/svg" xml:space="preserve" version="1.1">

 <g>
  <title>Layer 1</title>
  <path id="svg_1" stroke-miterlimit="10" stroke="#2A2E43" fill="#FFFFFF" d="m10.4,0.5l103.2,0c5.5,0 9.9,4.4 9.9,9.9l0,103.1c0,5.5 -4.4,9.9 -9.9,9.9l-103.2,0c-5.5,0 -9.9,-4.4 -9.9,-9.9l0,-103.1c0,-5.5 4.4,-9.9 9.9,-9.9z"/>
  <g id="svg_2">
   <path id="svg_3" fill="#25333F" d="m39.6,67.1l-5.6,0c-1.9,0 -3.8,0.8 -5.4,2.4c-1.6,1.5 -3.5,2.4 -5.4,2.4l-6.8,0c-0.5,0 -1,0.4 -1,1l0,6c0,0.5 0.4,1 1,1l6.8,0c1.9,0 3.8,0.8 5.4,2.4c1.6,1.5 3.5,2.4 5.4,2.4l5.6,0c0.3,0 0.5,-0.3 0.5,-0.6l0,-16.1c0,-0.3 -0.2,-0.6 -0.5,-0.6l0,-0.3z"/>
   <path id="svg_4" fill="#25333F" d="m100.9,63.8l-1.2,0c-0.6,0 -1.1,-0.5 -1.1,-1.1s-0.5,-1.1 -1.1,-1.1l-1.4,0c-0.8,0 -1.5,-0.7 -1.5,-1.5l0,-0.6c0,-0.8 -0.7,-1.5 -1.5,-1.5l-14.9,0c-0.8,0 -1.5,0.7 -1.5,1.5l0,0.6c0,0.8 -0.7,1.5 -1.5,1.5l-10.9,0c-0.8,0 -1.5,-0.7 -1.5,-1.5l0,-0.6c0,-0.8 -0.7,-1.5 -1.5,-1.5l-14.9,0c-0.8,0 -1.5,0.7 -1.5,1.5l0,2.5c0,0.8 -0.7,1.5 -1.5,1.5s-1.8,0.8 -1.8,1.8l0,21.6c0,1 0.8,1.8 1.8,1.8l10.6,0c0.4,0 0.8,0.3 0.8,0.8s0.3,0.8 0.8,0.8l19.7,0c0.8,0 1.5,0.7 1.5,1.5s0.7,1.5 1.5,1.5l14.9,0c0.8,0 1.5,-0.7 1.5,-1.5s0.7,-1.5 1.5,-1.5l1.4,0c0.6,0 1.1,-0.5 1.1,-1.1s0.5,-1.1 1.1,-1.1l1.2,0c0.6,0 1.1,-0.5 1.1,-1.1l0,-21.8c0,-0.6 -0.5,-1.1 -1.1,-1.1l-0.1,-0.3zm-57.9,11.4c-0.1,0 -0.2,-0.1 -0.2,-0.2l0,-0.6c0,-0.1 0.1,-0.2 0.2,-0.2l15.3,0c0.1,0 0.2,0.1 0.2,0.2l0,0.6c0,0.1 -0.1,0.2 -0.2,0.2l-15.3,0zm1.1,4.2l0,-0.6c0,-0.1 0.1,-0.2 0.2,-0.2l15.3,0c0.1,0 0.2,0.1 0.2,0.2l0,0.6c0,0.1 -0.1,0.2 -0.2,0.2l-15.3,0c-0.1,0 -0.2,-0.1 -0.2,-0.2zm17.1,4.5c0,0.1 -0.1,0.2 -0.2,0.2l-15.3,0c-0.1,0 -0.2,-0.1 -0.2,-0.2l0,-0.6c0,-0.1 0.1,-0.2 0.2,-0.2l15.3,0c0.1,0 0.2,0.1 0.2,0.2l0,0.6zm34.7,-6.8c0,0.3 -0.2,0.5 -0.5,0.5l0,0c-0.3,0 -0.5,-0.2 -0.5,-0.5l0,-13.1c0,-0.3 0.2,-0.5 0.5,-0.5l0,0c0.3,0 0.5,0.2 0.5,0.5l0,13.1zm3.7,8.6c0,0.3 -0.2,0.5 -0.5,0.5l0,0c-0.3,0 -0.5,-0.2 -0.5,-0.5l0,-19.7c0,-0.3 0.2,-0.5 0.5,-0.5l0,0c0.3,0 0.5,0.2 0.5,0.5l0,19.7z"/>
   <path id="svg_5" fill="#25333F" d="m63.1,59.5l0,0.6l0,0c0,0.4 0.3,0.7 0.7,0.7l11.8,0c0.4,0 0.7,-0.3 0.7,-0.7l0,-0.6c0,-1 0.8,-1.9 1.9,-1.9l9.8,0c-0.2,-0.7 -0.8,-1.2 -1.6,-1.2l-9.5,0c-1,0 -1.8,0.8 -1.8,1.8s-0.2,0.4 -0.4,0.4l-1.1,0c-0.2,0 -0.4,-0.2 -0.4,-0.4l0,-1.4c0,-0.2 -0.2,-0.4 -0.4,-0.4l-1.7,0c-0.2,0 -0.4,0.2 -0.4,0.4l0,1.4c0,0.2 -0.2,0.4 -0.4,0.4l-1.1,0c-0.2,0 -0.4,-0.2 -0.4,-0.4l0,-1.4c0,-0.2 -0.2,-0.4 -0.4,-0.4l-1.7,0c-0.2,0 -0.4,0.2 -0.4,0.4l0,1.4c0,0.2 -0.2,0.4 -0.4,0.4l-1.1,0c-0.2,0 -0.4,-0.2 -0.4,-0.4c0,-1 -0.8,-1.8 -1.8,-1.8l-9.5,0c-0.8,0 -1.4,0.5 -1.6,1.2l9.4,0c1,0 1.9,0.8 1.9,1.9l0.3,0z"/>
   <path id="svg_6" fill="#25333F" d="m14.4,73.5l-3.4,0c-0.3,0 -0.5,0.3 -0.5,0.6s-0.2,0.6 -0.5,0.6l-3.4,0c-0.3,0 -0.5,0.3 -0.5,0.6l0,1c0,0.3 0.2,0.6 0.5,0.6l3.4,0c0.3,0 0.5,0.3 0.5,0.6s0.2,0.6 0.5,0.6l3.4,0c0.3,0 0.5,-0.3 0.5,-0.6l0,-3.4c0,-0.3 -0.2,-0.6 -0.5,-0.6z"/>
   <path id="svg_7" fill="#25333F" d="m106.3,75l-0.4,0c-0.2,0 -0.9,-0.1 -0.9,-0.3l0,-3.5c0,-0.2 0.7,-0.3 0.9,-0.3s0.3,-0.1 0.3,-0.3l0,-0.4c0,-0.2 -0.1,-0.3 -0.3,-0.3l-2.7,0c-0.2,0 -0.3,0.1 -0.3,0.3l0,12.5c0,0.2 0.1,0.3 0.3,0.3l2.7,0c0.2,0 0.3,-0.1 0.3,-0.3l0,-0.4c0,-0.2 -0.1,-0.3 -0.3,-0.3s-0.9,-0.1 -0.9,-0.3l0,-3.5c0,-0.2 0.7,-0.3 0.9,-0.3l0.4,0c0.2,0 0.3,-0.1 0.3,-0.3l0,-2.2c0,-0.2 -0.1,-0.3 -0.3,-0.3l0,-0.1z"/>
   <path id="svg_8" fill="#25333F" d="m71.6,56.2l0.9,0c0.2,0 0.5,-0.2 0.5,-0.4l2.1,-16.8c0,-0.1 0.1,-0.2 0.2,-0.2l0.3,0c0.1,0 0.2,0 0.2,-0.1l0.7,-2.6c0,-0.1 0.1,-0.2 0.2,-0.2l0.3,0c1.3,0.2 3.5,-4.1 3.9,-5.4c0.5,-1.5 -0.6,-3.1 -2.2,-3.3l-3.2,-0.4c-1.4,-0.2 -2.8,0.8 -2.9,2.3l0,0c0,0.5 -0.1,1 -0.1,1.4c-0.1,2.7 -0.3,4.2 0.4,4.8c0,0 0,0.1 0,0.2l-0.2,2.8c0,0.1 0,0.2 0.2,0.2c0.1,0 0.2,0.1 0.2,0.2l-2,16.9c0,0.3 0.2,0.5 0.5,0.5l0,0.1zm3.9,-28.3c0,0 0,0 0.2,0c0,0 0.1,0 0.2,0.1c0,0 0.2,0.1 0.3,0.2c0.1,0 0.2,0.1 0.4,0.2c0,0 0.1,0 0.2,0c0,0 0.1,0 0.2,0c0,0 0.1,0 0.2,0c0,0 0.1,0 0.2,0s0.3,0.1 0.5,0.2c0.2,0 0.3,0.1 0.5,0.2l0.2,0l0.2,0c0.3,0 0.6,0.2 0.8,0.2c0.2,0 0.4,0.1 0.6,0.2c0,0 0.1,0 0.2,0l0,0l0,0c0,0 0,0 -0.2,0c-0.1,0 -0.4,0 -0.6,0c-0.1,0 -0.3,0 -0.4,0s-0.3,0 -0.5,0l-0.2,0l-0.2,0c-0.2,0 -0.3,-0.1 -0.5,-0.2c-0.2,0 -0.3,-0.1 -0.5,-0.2c-0.2,0 -0.3,-0.2 -0.4,-0.2c0,0 -0.1,0 -0.2,-0.1c0,0 -0.1,0 -0.2,-0.1c0,0 -0.1,0 -0.2,-0.1c0,0 -0.1,0 -0.2,-0.1c0,0 0,0 -0.1,-0.1c0,0 0,0 -0.1,-0.1c0,0 -0.1,-0.1 -0.2,-0.2c0,0 0,0 -0.1,-0.1l0,0l0,0l-0.1,0.2z"/>
  </g>
 </g>
</svg>