<svg width="24" height="17" viewBox="0 0 24 17" fill="none" xmlns="http://www.w3.org/2000/svg">
<path fill-rule="evenodd" clip-rule="evenodd" d="M2.49332 2.03998C4.32332 1.46998 6.14332 0.889998 7.97332 0.309998C12.6533 0.309998 17.3233 0.309998 22.0033 0.309998C22.7133 0.549998 23.3233 0.98999 23.4233 2.48999V10.4H0.0933228V4.21997C0.0933228 3.04997 1.14332 2.44998 2.49332 2.03998ZM15.4233 13.36L15.4633 13.39C15.8233 13.75 16.0433 14.24 16.0433 14.78C16.0433 15.32 15.8233 15.82 15.4633 16.17C15.1033 16.53 14.6133 16.75 14.0733 16.75C13.5333 16.75 13.0333 16.53 12.6833 16.17C12.3233 15.81 12.1033 15.32 12.1033 14.78C12.1033 14.24 12.3233 13.74 12.6833 13.39L12.7233 13.36H15.4233ZM14.6633 14.19C14.5133 14.04 14.3033 13.94 14.0633 13.94C13.8333 13.94 13.6233 14.03 13.4633 14.19C13.3133 14.34 13.2133 14.56 13.2133 14.79C13.2133 15.02 13.3033 15.24 13.4633 15.39C13.6133 15.54 13.8233 15.64 14.0633 15.64C14.2933 15.64 14.5133 15.55 14.6633 15.39C14.8133 15.24 14.9133 15.02 14.9133 14.79C14.9133 14.56 14.8233 14.34 14.6633 14.19ZM2.58332 5.17999V8.73999H8.23332V5.17999H2.58332ZM3.54332 15.24H11.6233C11.5933 15.09 11.5833 14.94 11.5833 14.78C11.5833 14.09 11.8633 13.47 12.3133 13.02C12.3733 12.96 12.4333 12.91 12.4933 12.85H15.6433C15.7033 12.9 15.7733 12.96 15.8233 13.02C16.2733 13.47 16.5533 14.09 16.5533 14.78C16.5533 14.94 16.5433 15.09 16.5133 15.24H23.4233V11.22H0.0933228V12.92C0.563323 13.7 1.04332 14.47 1.51332 15.25H2.38332L2.67332 16.77H3.25332L3.54332 15.24Z" fill="#000003"/>
</svg>
