<svg data-name="Layer 1" xmlns="http://www.w3.org/2000/svg" viewBox="0 0 124 123.9"><path d="M10.4.5h103.2c5.5 0 9.9 4.4 9.9 9.9v103.1c0 5.5-4.4 9.9-9.9 9.9H10.4c-5.5 0-9.9-4.4-9.9-9.9V10.4C.5 4.9 4.9.5 10.4.5z" fill="#fff" stroke="#2a2e43" stroke-miterlimit="10"/><g fill="#25333f"><path d="M39.6 67.1H34c-1.9 0-3.8.8-5.4 2.4-1.6 1.5-3.5 2.4-5.4 2.4h-6.8c-.5 0-1 .4-1 1v6c0 .5.4 1 1 1h6.8c1.9 0 3.8.8 5.4 2.4 1.6 1.5 3.5 2.4 5.4 2.4h5.6c.3 0 .5-.3.5-.6V68c0-.3-.2-.6-.5-.6v-.3zM100.9 63.8h-1.2c-.6 0-1.1-.5-1.1-1.1s-.5-1.1-1.1-1.1h-1.4c-.8 0-1.5-.7-1.5-1.5v-.6c0-.8-.7-1.5-1.5-1.5H78.2c-.8 0-1.5.7-1.5 1.5v.6c0 .8-.7 1.5-1.5 1.5H64.3c-.8 0-1.5-.7-1.5-1.5v-.6c0-.8-.7-1.5-1.5-1.5H46.4c-.8 0-1.5.7-1.5 1.5V62c0 .8-.7 1.5-1.5 1.5s-1.8.8-1.8 1.8v21.6c0 1 .8 1.8 1.8 1.8H54c.4 0 .8.3.8.8s.3.8.8.8h19.7c.8 0 1.5.7 1.5 1.5s.7 1.5 1.5 1.5h14.9c.8 0 1.5-.7 1.5-1.5s.7-1.5 1.5-1.5h1.4c.6 0 1.1-.5 1.1-1.1s.5-1.1 1.1-1.1h1.2c.6 0 1.1-.5 1.1-1.1V65.2c0-.6-.5-1.1-1.1-1.1l-.1-.3zM43 75.2c-.1 0-.2-.1-.2-.2v-.6c0-.1.1-.2.2-.2h15.3c.1 0 .2.1.2.2v.6c0 .1-.1.2-.2.2H43zm1.1 4.2v-.6c0-.1.1-.2.2-.2h15.3c.1 0 .2.1.2.2v.6c0 .1-.1.2-.2.2H44.3c-.1 0-.2-.1-.2-.2zm17.1 4.5c0 .1-.1.2-.2.2H45.7c-.1 0-.2-.1-.2-.2v-.6c0-.1.1-.2.2-.2H61c.1 0 .2.1.2.2v.6zm34.7-6.8c0 .3-.2.5-.5.5s-.5-.2-.5-.5V64c0-.3.2-.5.5-.5s.5.2.5.5v13.1zm3.7 8.6c0 .3-.2.5-.5.5s-.5-.2-.5-.5V66c0-.3.2-.5.5-.5s.5.2.5.5v19.7z"/><path d="M63.1 59.5v.6c0 .4.3.7.7.7h11.8c.4 0 .7-.3.7-.7v-.6c0-1 .8-1.9 1.9-1.9H88c-.2-.7-.8-1.2-1.6-1.2h-9.5c-1 0-1.8.8-1.8 1.8s-.2.4-.4.4h-1.1c-.2 0-.4-.2-.4-.4v-1.4c0-.2-.2-.4-.4-.4h-1.7c-.2 0-.4.2-.4.4v1.4c0 .2-.2.4-.4.4h-1.1c-.2 0-.4-.2-.4-.4v-1.4c0-.2-.2-.4-.4-.4h-1.7c-.2 0-.4.2-.4.4v1.4c0 .2-.2.4-.4.4h-1.1c-.2 0-.4-.2-.4-.4 0-1-.8-1.8-1.8-1.8h-9.5c-.8 0-1.4.5-1.6 1.2h9.4c1 0 1.9.8 1.9 1.9h.3zM14.4 73.5H11c-.3 0-.5.3-.5.6s-.2.6-.5.6H6.6c-.3 0-.5.3-.5.6v1c0 .3.2.6.5.6H10c.3 0 .5.3.5.6s.2.6.5.6h3.4c.3 0 .5-.3.5-.6v-3.4c0-.3-.2-.6-.5-.6zM106.3 75h-.4c-.2 0-.9-.1-.9-.3v-3.5c0-.2.7-.3.9-.3s.3-.1.3-.3v-.4c0-.2-.1-.3-.3-.3h-2.7c-.2 0-.3.1-.3.3v12.5c0 .2.1.3.3.3h2.7c.2 0 .3-.1.3-.3v-.4c0-.2-.1-.3-.3-.3s-.9-.1-.9-.3v-3.5c0-.2.7-.3.9-.3h.4c.2 0 .3-.1.3-.3v-2.2c0-.2-.1-.3-.3-.3V75zM71.6 56.2h.9c.2 0 .5-.2.5-.4L75.1 39c0-.1.1-.2.2-.2h.3c.1 0 .2 0 .2-.1l.7-2.6c0-.1.1-.2.2-.2h.3c1.3.2 3.5-4.1 3.9-5.4.5-1.5-.6-3.1-2.2-3.3l-3.2-.4c-1.4-.2-2.8.8-2.9 2.3 0 .5-.1 1-.1 1.4-.1 2.7-.3 4.2.4 4.8v.2l-.2 2.8c0 .1 0 .2.2.2.1 0 .2.1.2.2l-2 16.9c0 .3.2.5.5.5v.1zm3.9-28.3h.2s.1 0 .2.1c0 0 .2.1.3.2.1 0 .2.1.4.2h.8c.1 0 .3.1.5.2.2 0 .3.1.5.2h.4c.3 0 .6.2.8.2s.4.1.6.2h.2-2.1c-.2 0-.3-.1-.5-.2-.2 0-.3-.1-.5-.2-.2 0-.3-.2-.4-.2 0 0-.1 0-.2-.1 0 0-.1 0-.2-.1 0 0-.1 0-.2-.1 0 0-.1 0-.2-.1l-.1-.1-.1-.1-.2-.2-.1-.1-.1.2z"/></g></svg>