<?xml version="1.0" encoding="utf-8"?>
<!-- Generator: Adobe Illustrator 28.5.0, SVG Export Plug-In . SVG Version: 9.03 Build 54727)  -->
<svg version="1.1" id="Layer_1" xmlns="http://www.w3.org/2000/svg" xmlns:xlink="http://www.w3.org/1999/xlink" x="0px" y="0px"
	 viewBox="0 0 124 123.9" style="enable-background:new 0 0 124 123.9;" xml:space="preserve">
<path style="fill:#FFFFFF;stroke:#2A2E43;stroke-miterlimit:10;" d="M10.4,0.5h103.2c5.5,0,9.9,4.4,9.9,9.9v103.1
	c0,5.5-4.4,9.9-9.9,9.9H10.4c-5.5,0-9.9-4.4-9.9-9.9V10.4C0.5,4.9,4.9,0.5,10.4,0.5z"/>
<g>
	<path style="fill:#25333F;" d="M39.6,67.1H34c-1.9,0-3.8,0.8-5.4,2.4c-1.6,1.5-3.5,2.4-5.4,2.4h-6.8c-0.5,0-1,0.4-1,1v6
		c0,0.5,0.4,1,1,1h6.8c1.9,0,3.8,0.8,5.4,2.4c1.6,1.5,3.5,2.4,5.4,2.4h5.6c0.3,0,0.5-0.3,0.5-0.6V68c0-0.3-0.2-0.6-0.5-0.6V67.1z"/>
	<path style="fill:#25333F;" d="M100.9,63.8h-1.2c-0.6,0-1.1-0.5-1.1-1.1s-0.5-1.1-1.1-1.1h-1.4c-0.8,0-1.5-0.7-1.5-1.5v-0.6
		c0-0.8-0.7-1.5-1.5-1.5H78.2c-0.8,0-1.5,0.7-1.5,1.5v0.6c0,0.8-0.7,1.5-1.5,1.5H64.3c-0.8,0-1.5-0.7-1.5-1.5v-0.6
		c0-0.8-0.7-1.5-1.5-1.5H46.4c-0.8,0-1.5,0.7-1.5,1.5V62c0,0.8-0.7,1.5-1.5,1.5s-1.8,0.8-1.8,1.8v21.6c0,1,0.8,1.8,1.8,1.8H54
		c0.4,0,0.8,0.3,0.8,0.8s0.3,0.8,0.8,0.8h19.7c0.8,0,1.5,0.7,1.5,1.5s0.7,1.5,1.5,1.5h14.9c0.8,0,1.5-0.7,1.5-1.5s0.7-1.5,1.5-1.5
		h1.4c0.6,0,1.1-0.5,1.1-1.1s0.5-1.1,1.1-1.1h1.2c0.6,0,1.1-0.5,1.1-1.1V65.2c0-0.6-0.5-1.1-1.1-1.1L100.9,63.8z M43,75.2
		c-0.1,0-0.2-0.1-0.2-0.2v-0.6c0-0.1,0.1-0.2,0.2-0.2h15.3c0.1,0,0.2,0.1,0.2,0.2V75c0,0.1-0.1,0.2-0.2,0.2H43z M44.1,79.4v-0.6
		c0-0.1,0.1-0.2,0.2-0.2h15.3c0.1,0,0.2,0.1,0.2,0.2v0.6c0,0.1-0.1,0.2-0.2,0.2H44.3C44.2,79.6,44.1,79.5,44.1,79.4z M61.2,83.9
		c0,0.1-0.1,0.2-0.2,0.2H45.7c-0.1,0-0.2-0.1-0.2-0.2v-0.6c0-0.1,0.1-0.2,0.2-0.2H61c0.1,0,0.2,0.1,0.2,0.2V83.9z M95.9,77.1
		c0,0.3-0.2,0.5-0.5,0.5l0,0c-0.3,0-0.5-0.2-0.5-0.5V64c0-0.3,0.2-0.5,0.5-0.5l0,0c0.3,0,0.5,0.2,0.5,0.5V77.1z M99.6,85.7
		c0,0.3-0.2,0.5-0.5,0.5l0,0c-0.3,0-0.5-0.2-0.5-0.5V66c0-0.3,0.2-0.5,0.5-0.5l0,0c0.3,0,0.5,0.2,0.5,0.5V85.7z"/>
	<path style="fill:#25333F;" d="M63.1,59.5v0.6l0,0c0,0.4,0.3,0.7,0.7,0.7h11.8c0.4,0,0.7-0.3,0.7-0.7v-0.6c0-1,0.8-1.9,1.9-1.9H88
		c-0.2-0.7-0.8-1.2-1.6-1.2h-9.5c-1,0-1.8,0.8-1.8,1.8s-0.2,0.4-0.4,0.4h-1.1c-0.2,0-0.4-0.2-0.4-0.4v-1.4c0-0.2-0.2-0.4-0.4-0.4
		h-1.7c-0.2,0-0.4,0.2-0.4,0.4v1.4c0,0.2-0.2,0.4-0.4,0.4h-1.1c-0.2,0-0.4-0.2-0.4-0.4v-1.4c0-0.2-0.2-0.4-0.4-0.4h-1.7
		c-0.2,0-0.4,0.2-0.4,0.4v1.4c0,0.2-0.2,0.4-0.4,0.4h-1.1c-0.2,0-0.4-0.2-0.4-0.4c0-1-0.8-1.8-1.8-1.8h-9.5c-0.8,0-1.4,0.5-1.6,1.2
		h9.4c1,0,1.9,0.8,1.9,1.9H63.1z"/>
	<path style="fill:#25333F;" d="M14.4,73.5H11c-0.3,0-0.5,0.3-0.5,0.6s-0.2,0.6-0.5,0.6H6.6c-0.3,0-0.5,0.3-0.5,0.6v1
		c0,0.3,0.2,0.6,0.5,0.6H10c0.3,0,0.5,0.3,0.5,0.6s0.2,0.6,0.5,0.6h3.4c0.3,0,0.5-0.3,0.5-0.6v-3.4C14.9,73.8,14.7,73.5,14.4,73.5z"
		/>
	<path style="fill:#25333F;" d="M106.3,75h-0.4c-0.2,0-0.9-0.1-0.9-0.3v-3.5c0-0.2,0.7-0.3,0.9-0.3s0.3-0.1,0.3-0.3v-0.4
		c0-0.2-0.1-0.3-0.3-0.3h-2.7c-0.2,0-0.3,0.1-0.3,0.3v12.5c0,0.2,0.1,0.3,0.3,0.3h2.7c0.2,0,0.3-0.1,0.3-0.3v-0.4
		c0-0.2-0.1-0.3-0.3-0.3s-0.9-0.1-0.9-0.3v-3.5c0-0.2,0.7-0.3,0.9-0.3h0.4c0.2,0,0.3-0.1,0.3-0.3v-2.2c0-0.2-0.1-0.3-0.3-0.3V75z"/>
	<path style="fill:#25333F;" d="M71.6,56.2h0.9c0.2,0,0.5-0.2,0.5-0.4L75.1,39c0-0.1,0.1-0.2,0.2-0.2h0.3c0.1,0,0.2,0,0.2-0.1
		l0.7-2.6c0-0.1,0.1-0.2,0.2-0.2H77c1.3,0.2,3.5-4.1,3.9-5.4c0.5-1.5-0.6-3.1-2.2-3.3l-3.2-0.4c-1.4-0.2-2.8,0.8-2.9,2.3l0,0
		c0,0.5-0.1,1-0.1,1.4c-0.1,2.7-0.3,4.2,0.4,4.8c0,0,0,0.1,0,0.2l-0.2,2.8c0,0.1,0,0.2,0.2,0.2c0.1,0,0.2,0.1,0.2,0.2l-2,16.9
		c0,0.3,0.2,0.5,0.5,0.5V56.2z M75.5,27.9c0,0,0,0,0.2,0c0,0,0.1,0,0.2,0.1c0,0,0.2,0.1,0.3,0.2c0.1,0,0.2,0.1,0.4,0.2
		c0,0,0.1,0,0.2,0c0,0,0.1,0,0.2,0c0,0,0.1,0,0.2,0c0,0,0.1,0,0.2,0s0.3,0.1,0.5,0.2c0.2,0,0.3,0.1,0.5,0.2h0.2h0.2
		c0.3,0,0.6,0.2,0.8,0.2c0.2,0,0.4,0.1,0.6,0.2c0,0,0.1,0,0.2,0l0,0l0,0c0,0,0,0-0.2,0c-0.1,0-0.4,0-0.6,0c-0.1,0-0.3,0-0.4,0
		s-0.3,0-0.5,0h-0.2h-0.2c-0.2,0-0.3-0.1-0.5-0.2c-0.2,0-0.3-0.1-0.5-0.2c-0.2,0-0.3-0.2-0.4-0.2c0,0-0.1,0-0.2-0.1
		c0,0-0.1,0-0.2-0.1c0,0-0.1,0-0.2-0.1c0,0-0.1,0-0.2-0.1c0,0,0,0-0.1-0.1c0,0,0,0-0.1-0.1c0,0-0.1-0.1-0.2-0.2c0,0,0,0-0.1-0.1l0,0
		l0,0L75.5,27.9z"/>
</g>
</svg>
