<svg width="46" height="24" viewBox="0 0 46 24" fill="none" xmlns="http://www.w3.org/2000/svg">
<path d="M9.43336 14.94C8.79336 15.1 8.23337 15.42 7.84337 15.84H5.90337C5.55337 15.46 5.07337 15.16 4.51337 14.98V14.23H7.13337C7.20337 14.19 7.24337 14.16 7.24337 14.16L10.8334 13.64L10.9834 14.16C10.9834 14.16 9.95336 14.34 9.43336 14.47V14.94Z" fill="black"/>
<path d="M7.97333 16.21H13.1533C11.7733 16.67 10.7533 17.88 10.5633 19.36C10.3733 17.88 9.34333 16.67 7.97333 16.21Z" fill="black"/>
<path d="M1.55334 16.24V16.21H1.71334H5.56335C4.03335 16.72 2.92334 18.14 2.92334 19.84H1.71334H1.55334V19.81C1.06334 19.73 0.67334 19.32 0.67334 18.8V17.26C0.67334 16.74 1.05334 16.32 1.55334 16.24Z" fill="black"/>
<path d="M35.4434 19.84C35.4434 21.7 36.9534 23.21 38.8134 23.21C40.6734 23.21 42.1834 21.7 42.1834 19.84C42.1834 17.98 40.6734 16.47 38.8134 16.47C36.9534 16.47 35.4434 17.98 35.4434 19.84ZM36.8734 19.84C36.8734 18.77 37.7434 17.9 38.8134 17.9C39.8834 17.9 40.7534 18.77 40.7534 19.84C40.7534 20.91 39.8834 21.78 38.8134 21.78C37.7434 21.78 36.8734 20.91 36.8734 19.84Z" fill="black"/>
<path d="M10.9833 19.84C10.9833 21.7 12.4933 23.21 14.3533 23.21C16.2133 23.21 17.7233 21.7 17.7233 19.84C17.7233 17.98 16.2133 16.47 14.3533 16.47C12.4933 16.47 10.9833 17.98 10.9833 19.84ZM12.4133 19.84C12.4133 18.77 13.2833 17.9 14.3533 17.9C15.4233 17.9 16.2933 18.77 16.2933 19.84C16.2933 20.91 15.4233 21.78 14.3533 21.78C13.2833 21.78 12.4133 20.91 12.4133 19.84Z" fill="black"/>
<path d="M3.39331 19.84C3.39331 21.7 4.90331 23.21 6.76331 23.21C8.62331 23.21 10.1333 21.7 10.1333 19.84C10.1333 17.98 8.62331 16.47 6.76331 16.47C4.90331 16.47 3.39331 17.98 3.39331 19.84ZM4.82331 19.84C4.82331 18.77 5.69331 17.9 6.76331 17.9C7.83331 17.9 8.70332 18.77 8.70332 19.84C8.70332 20.91 7.83331 21.78 6.76331 21.78C5.69331 21.78 4.82331 20.91 4.82331 19.84Z" fill="black"/>
<path d="M22.5433 3.38H26.1133C26.1933 3.38 26.2533 3.44999 26.2533 3.51999V4.82999C26.2533 4.90999 26.1933 4.97 26.1133 4.97H22.5433C22.4633 4.97 22.4033 4.90999 22.4033 4.82999V3.51999C22.4033 3.44999 22.4633 3.38 22.5433 3.38Z" fill="black"/>
<path d="M18.1933 19.84H34.9633C34.9633 17.72 36.6833 16 38.8033 16C40.9233 16 42.6433 17.72 42.6433 19.84H44.4433C45.2633 19.84 45.9233 19.18 45.9233 18.36V16.74C45.9333 16.67 45.9333 16.61 45.9333 16.54V16.55C45.9333 16.55 45.9333 16.54 45.9333 16.53C45.9333 16.42 45.9333 16.32 45.9233 16.2C45.8533 15.55 45.9533 14.82 45.2333 14.22L45.0633 12.43C45.0633 12.43 44.4233 11.91 42.0533 11.36L37.0933 10.44C34.8933 3.47999 37.6833 7.35 36.6033 5.7C36.4533 5.46 32.2133 3.42 32.2133 3.42L31.9633 3.18999C31.1433 2.45999 21.7933 0.0499742 21.7933 0.0499742C21.6233 0.00997422 21.4433 0.119995 21.4133 0.289995L21.0633 2.10997C20.9533 2.20997 20.8733 2.35 20.8733 2.51L20.3333 14.91H19.4633V16.21H15.5533C17.0833 16.72 18.1933 18.14 18.1933 19.84ZM30.7533 12.08C30.7533 11.95 30.8633 11.84 30.9933 11.84H31.6233C31.7533 11.84 31.8633 11.95 31.8633 12.08C31.8633 12.21 31.7533 12.32 31.6233 12.32H30.9933C30.8633 12.32 30.7533 12.22 30.7533 12.08ZM30.6133 7.60997C30.6133 7.16997 30.9733 6.81999 31.4033 6.81999H34.7433C35.1033 6.81999 35.4233 7.05999 35.5133 7.40999L36.1833 9.92C36.3133 10.42 35.9333 10.92 35.4133 10.92H31.4133C30.9733 10.92 30.6233 10.56 30.6233 10.13V7.60997H30.6133ZM28.0533 18.51C28.0533 17.98 28.4633 17.55 28.9633 17.55C29.4633 17.55 29.8733 17.98 29.8733 18.51H28.0533ZM28.0533 16.95C28.0533 16.42 28.4633 15.99 28.9633 15.99C29.4633 15.99 29.8733 16.42 29.8733 16.95H28.0533ZM22.2133 3.51998C22.2133 3.33998 22.3633 3.18999 22.5433 3.18999H26.1133C26.2933 3.18999 26.4433 3.33998 26.4433 3.51998V4.82997C26.4433 5.00997 26.2933 5.15999 26.1133 5.15999H22.5433C22.3633 5.15999 22.2133 5.00997 22.2133 4.82997V3.51998Z" fill="black"/>
</svg>
